P1
50 70
00000000000000000000000000000000000000000000000000
00000000000000000000000000000000000000000000000000
00000000000000000000000000000000000000000000000000
00000000000000000000000000000000000000000000000000
00000000000000000000000000000000000000000000000000
00000000000000000000000000000000000000000000000000
00000000000000000000000000000000000000000000000000
00000000000000000000000000000000000000000000000000
00000000000000000000000000000000000000000000000000
00000000000000000000000000000000000000000000000000
00000000000000000000000000000000000000000000000000
00000000000000000000000000000000000000000000000000
00000000000000000000000000000000000000000000000000
00000000000000000000000000000000000000000000000000
00000000000001101111111110000000000000000000000000
00000000000011111111111111000000000000000000000000
00000000000011111111111111110000000000000000000000
00000000000111111111111111111000000000000000000000
00000000000111111111111111111100000000000000000000
00000000001111111111111111111110000000000000000000
00000000001111111111111111111111000000000000000000
00000000001111111111000111111111000000000000000000
00000000001111111110000011111111100000000000000000
00000000001111111110000001111111110000000000000000
00000000001111111100000000111111111000000000000000
00000000001111111100000000111111111000000000000000
00000000000111111110000000111111111000000000000000
00000000000111111110000000011111111100000000000000
00000000000111111110000000011111111100000000000000
00000000000111111110000011101111111110000000000000
00000000000111111111000111111111111110000000000000
00000000000011111111001111110111111111000000000000
00000000000011111111001111111011111111000000000000
00000000000011111111101111111111111111000000000000
00000000000001111111101111111011111111000000000000
00000000000001111111100111110011111111100000000000
00000000000001111111100011000001111111100000000000
00000000000000111111110000000001111111100000000000
00000000000000011111111000000001111111100000000000
00000000000000011111111000000001111111100000000000
00000000000000011111111100000000111111100000000000
00000000000000011111111100000000111111100000000000
00000000000000001111111110000001111111100000000000
00000000000000001111111110000001111111100000000000
00000000000000000111111111000011111111100000000000
00000000000000000011111111101111111111000000000000
00000000000000000011111111111111111111000000000000
00000000000000000001111111111111111110000000000000
00000000000000000001111111111111111100000000000000
00000000000000000000111111111111111100000000000000
00000000000000000000011111111111111000000000000000
00000000000000000000001111111111100000000000000000
00000000000000000000000111111111000000000000000000
00000000000000000000000001111110000000000000000000
00000000000000000000000000000000000000000000000000
00000000000000000000000000000000000000000000000000
00000000000000000000000000000000000000000000000000
00000000000000000000000000000000000000000000000000
00000000000000000000000000000000000000000000000000
00000000000000000000000000000000000000000000000000
00000000000000000000000000000000000000000000000000
00000000000000000000000000000000000000000000000000
00000000000000000000000000000000000000000000000000
00000000000000000000000000000000000000000000000000
00000000000000000000000000000000000000000000000000
00000000000000000000000000000000000000000000000000
00000000000000000000000000000000000000000000000000
00000000000000000000000000000000000000000000000000
00000000000000000000000000000000000000000000000000
00000000000000000000000000000000000000000000000000
