P1
50 70
00000000000000000000000000000000000000000000000000
00000000000000000000000000000000000000000000000000
00000000000000000000000000000000000000000000000000
00000000000000000000000000000000000000000000000000
00000000000000000000000000000000000000000000000000
00000000000000000000000000000000000000000000000000
00000000000000000000000000000000000000000000000000
00000000000000000000000000000000000000000000000000
00000000000000000000000000000000000000000000000000
00000000000000000000000000000000000000000000000000
00000000000000000000010000000000000000000000000000
00000000000000000111111111111111000000000000000000
00000000000000001111111111111111100000000000000000
00000000000000011111111111111111110000000000000000
00000000000000111111111111111111111000000000000000
00000000000001111111111111111111111100000000000000
00000000000011111111111111111111111110000000000000
00000000000011111111110000011111111110000000000000
00000000000011111111000000000111111110000000000000
00000000000111111110000000000011111111000000000000
00000000000111111110000000000011111111000000000000
00000000000111111100000000000001111111100000000000
00000000000111111100000000000001111111100000000000
00000000000111111100000000000001111111100000000000
00000000000111111100000000000000111111100000000000
00000000001111111000000000000000111111100000000000
00000000001111111000000000000001111111100000000000
00000000001111111000000000000001111111000000000000
00000000001111111000000000000001111111000000000000
00000000001111111000000111100001111111000000000000
00000000001111111000011111100001111111000000000000
00000000001111111000011111110001111111000000000000
00000000001111111000111111110001111111000000000000
00000000001111111000111111110001111111000000000000
00000000000111111000111111100001111111000000000000
00000000000111110000111111100001111111000000000000
00000000000111110000011111000011111110000000000000
00000000001111110000000010000011111110000000000000
00000000001111111000000000000011111110000000000000
00000000001111111000000000000111111110000000000000
00000000001111111000000000000111111100000000000000
00000000000111111100000000000111111100000000000000
00000000000111111100000000000111111100000000000000
00000000000111111100000000001111111000000000000000
00000000000011111100000000001111111000000000000000
00000000000011111100000000001111110000000000000000
00000000000011111110000000011111110000000000000000
00000000000011111110000000011111100000000000000000
00000000000011111110000000111111000000000000000000
00000000000001111111000011111111000000000000000000
00000000000001111111111111111110000000000000000000
00000000000001111111111111111100000000000000000000
00000000000000111111111111111000000000000000000000
00000000000000111111111111110000000000000000000000
00000000000000011111111111100000000000000000000000
00000000000000001111111110000000000000000000000000
00000000000000000001100000000000000000000000000000
00000000000000000000000000000000000000000000000000
00000000000000000000000000000000000000000000000000
00000000000000000000000000000000000000000000000000
00000000000000000000000000000000000000000000000000
00000000000000000000000000000000000000000000000000
00000000000000000000000000000000000000000000000000
00000000000000000000000000000000000000000000000000
00000000000000000000000000000000000000000000000000
00000000000000000000000000000000000000000000000000
00000000000000000000000000000000000000000000000000
00000000000000000000000000000000000000000000000000
00000000000000000000000000000000000000000000000000
00000000000000000000000000000000000000000000000000
