P1
50 70
00000000000000000000000000000000000000000000000000
00000000000000000000000000000000000000000000000000
00000000000000000000000000000000000000000000000000
00000000000000000000000000000000000000000000000000
00000000000000000000000000000000000000000000000000
00000000000000000000000000000000000000000000000000
00000000000000000000000000000000000000000000000000
00000000000000000000000000000000000000000000000000
00000000000000000000000000000000000000000000000000
00000000000000000000000000000000000000000000000000
00000000000000000000000000000000000000000000000000
00000000000000000000000000000000000000000000000000
00000000000000000000000000000000000000000000000000
00000000000000000000000000000000000000000000000000
00000000000000000000000000000000000000000000000000
00000000000000000000000000000000000000000000000000
00000000000000000000000000000000000000000000000000
00000000000000000000000000000000000000000000000000
00000000000000000000000000000000000000000000000000
00000000000000000000000000000000000000000000000000
00000000000000000000000000000000000000000000000000
00000000000000000000001111000000000000000000000000
00000000000000000000111111111000000000000000000000
00000000000000000011111111111111000000000000000000
00000000000000000011111111111111100000000000000000
00000000000000000111111111111111110000000000000000
00000000000000001111111111111111111000000000000000
00000000000000001111111111111111111000000000000000
00000000000000001111111100011111111100000000000000
00000000000000011111111000001111111100000000000000
00000000000000011111111000000111111100000000000000
00000000000000111111111000000111111110000000000000
00000000000000111111110000000011111110000000000000
00000000000000111111110000000011111110000000000000
00000000000000111111100000000111111110000000000000
00000000000000111111100000000111111110000000000000
00000000000000111111001111100111111100000000000000
00000000000001111111001111100111111100000000000000
00000000000001111111001111100111111100000000000000
00000000000001111111001111100111111100000000000000
00000000000011111111011111101111111100000000000000
00000000000011111111011111101111111000000000000000
00000000000011111110001111011111111000000000000000
00000000000011111111000000011111111000000000000000
00000000000011111111000000011111111000000000000000
00000000000011111110000000011111110000000000000000
00000000000011111110000000111111110000000000000000
00000000000011111110000000111111110000000000000000
00000000000011111110000000111111100000000000000000
00000000000011111110000001111111100000000000000000
00000000000011111111000001111111000000000000000000
00000000000011111111000011111111000000000000000000
00000000000011111111111111111110000000000000000000
00000000000011111111111111111100000000000000000000
00000000000001111111111111111000000000000000000000
00000000000001111111111111110000000000000000000000
00000000000000111111111111100000000000000000000000
00000000000000011111111111000000000000000000000000
00000000000000001111111100000000000000000000000000
00000000000000000000000000000000000000000000000000
00000000000000000000000000000000000000000000000000
00000000000000000000000000000000000000000000000000
00000000000000000000000000000000000000000000000000
00000000000000000000000000000000000000000000000000
00000000000000000000000000000000000000000000000000
00000000000000000000000000000000000000000000000000
00000000000000000000000000000000000000000000000000
00000000000000000000000000000000000000000000000000
00000000000000000000000000000000000000000000000000
00000000000000000000000000000000000000000000000000
