P1
50 70
00000000000000000000000000000000000000000000000000
00000000000000000000000000000000000000000000000000
00000000000000000000000000000000000000000000000000
00000000000000000000000000000000000000000000000000
00000000000000000000000000000000000000000000000000
00000000000000000000000000000000000000000000000000
00000000000000000000000000000000000000000000000000
00000000000000000000000000000000000000000000000000
00000000000000000000000000000000000000000000000000
00000000000000000000000000000000000000000000000000
00000000000000000000000000000000000000000000000000
00000000000000000000000000000000000000000000000000
00000000000000000000000000000000000000000000000000
00000000000000000000000000000111100000000000000000
00000000000000000000000000111111111000000000000000
00000000000000000000000111111111111100000000000000
00000000000000000000001111111111111100000000000000
00000000000000000000011111111111111110000000000000
00000000000000000000111111111111111110000000000000
00000000000000000001111111000001111111000000000000
00000000000000000011111100000001111111000000000000
00000000000000000011111100000000111111000000000000
00000000000000000111111000000000111111000000000000
00000000000000001111110000000000111111000000000000
00000000000000011111100000000000011111100000000000
00000000000000011111100000000000011111100000000000
00000000000000111111000000000000011111100000000000
00000000000000111111000000000000011111100000000000
00000000000000111111000000000000011111100000000000
00000000000001111111000000000000111111100000000000
00000000000001111110000001110000111111000000000000
00000000000001111110000111111000111111000000000000
00000000000001111110001111111000111111000000000000
00000000000001111100011111111000111111000000000000
00000000000011111100011111111000111111000000000000
00000000000011111100011111110000111111000000000000
00000000000011111100011111110000111111000000000000
00000000000111111100011111100000111110000000000000
00000000000111111000001110000001111110000000000000
00000000000111111000000000000001111110000000000000
00000000001111111000000000000011111100000000000000
00000000001111111000000000000011111100000000000000
00000000001111111000000000000011111100000000000000
00000000001111111000000000000111111100000000000000
00000000001111111000000000000111111000000000000000
00000000001111111000000000001111110000000000000000
00000000001111111000000000001111110000000000000000
00000000001111111000000000011111100000000000000000
00000000001111111000000000111111000000000000000000
00000000001111111000000011111110000000000000000000
00000000001111111000000111111110000000000000000000
00000000001111111111111111111100000000000000000000
00000000001111111111111111110000000000000000000000
00000000001111111111111111100000000000000000000000
00000000001111111111111100000000000000000000000000
00000000000111111111111000000000000000000000000000
00000000000011111111100000000000000000000000000000
00000000000000111000000000000000000000000000000000
00000000000000000000000000000000000000000000000000
00000000000000000000000000000000000000000000000000
00000000000000000000000000000000000000000000000000
00000000000000000000000000000000000000000000000000
00000000000000000000000000000000000000000000000000
00000000000000000000000000000000000000000000000000
00000000000000000000000000000000000000000000000000
00000000000000000000000000000000000000000000000000
00000000000000000000000000000000000000000000000000
00000000000000000000000000000000000000000000000000
00000000000000000000000000000000000000000000000000
00000000000000000000000000000000000000000000000000
