P1
50 70
00000000000000000000000000000000000000000000000000
00000000000000000000000000000000000000000000000000
00000000000000000000000000000000000000000000000000
00000000000000000000000000000000000000000000000000
00000000000000000000000000000000000000000000000000
00000000000000000000000000000000000000000000000000
00000000000000000000000000000000000000000000000000
00000000000000000000000000000000000000000000000000
00000000000000000000000000000000000000000000000000
00000000000000000000000000000000000000000000000000
00000000000000000000000000000000000000000000000000
00000000000000000000000000000000000000000000000000
00000000000000000000000000000000000000000000000000
00000000000000000000000000000000110000000000000000
00000000000000000000000000001111111100000000000000
00000000000000000000000000111111111100000000000000
00000000000000000000000011111111111110000000000000
00000000000000000000000111111111111110000000000000
00000000000000000000001111111111111110000000000000
00000000000000000000011111111011111110000000000000
00000000000000000000011111100000111110000000000000
00000000000000000000111110000000111111000000000000
00000000000000000001111110000000111111000000000000
00000000000000000001111100000000111111000000000000
00000000000000000011111000000000111111000000000000
00000000000000000011111000000000111111000000000000
00000000000000000111110000000000111110000000000000
00000000000000000111110000000000111110000000000000
00000000000000001111100000000000111110000000000000
00000000000000001111100000000000111110000000000000
00000000000000001111000000000000111110000000000000
00000000000000001111000000000001111110000000000000
00000000000000011111000001100001111110000000000000
00000000000000111111000111110001111100000000000000
00000000000000111111001111110001111100000000000000
00000000000001111111011111110001111100000000000000
00000000000001111110011111110001111100000000000000
00000000000001111100011111110011111100000000000000
00000000000001111100011111110011111000000000000000
00000000000001111100011111100111111000000000000000
00000000000001111100011111000111111000000000000000
00000000000001111100001100000111111000000000000000
00000000000011111100000000001111110000000000000000
00000000000011111100000000001111100000000000000000
00000000000011111000000000001111100000000000000000
00000000000011111000000000001111000000000000000000
00000000000011111000000000011111000000000000000000
00000000000011111000000000011111000000000000000000
00000000000011111000000000111110000000000000000000
00000000000111111000000000111110000000000000000000
00000000000111111000000001111100000000000000000000
00000000000111111000000001111100000000000000000000
00000000000111111000000011111000000000000000000000
00000000000111111000001111110000000000000000000000
00000000000011111100011111110000000000000000000000
00000000000011111111111111100000000000000000000000
00000000000011111111111111000000000000000000000000
00000000000011111111111110000000000000000000000000
00000000000011111111111100000000000000000000000000
00000000000001111111111000000000000000000000000000
00000000000000111110000000000000000000000000000000
00000000000000001000000000000000000000000000000000
00000000000000000000000000000000000000000000000000
00000000000000000000000000000000000000000000000000
00000000000000000000000000000000000000000000000000
00000000000000000000000000000000000000000000000000
00000000000000000000000000000000000000000000000000
00000000000000000000000000000000000000000000000000
00000000000000000000000000000000000000000000000000
00000000000000000000000000000000000000000000000000
