P1
50 70
00000000000000000000000000000000000000000000000000
00000000000000000000000000000000000000000000000000
00000000000000000000000000000000000000000000000000
00000000000000000000000000000000000000000000000000
00000000000000000000000000000000000000000000000000
00000000000000000000000000000000000000000000000000
00000000000000000000000000000000000000000000000000
00000000000000000000000000000000000000000000000000
00000000000000000000000000000000000000000000000000
00000000000000000000000000000000000000000000000000
00000000000000000000000000000000000000000000000000
00000000000000000000000000000000000000000000000000
00000000000000000000000000000000000000000000000000
00000000000000000000000000000000000000000000000000
00000000000000000000000000000000000000000000000000
00000000000000000000000000000000000000000000000000
00000000000000000000000000000000000000000000000000
00000000000000000000000000000000000000000000000000
00000000000000000000111111110000000000000000000000
00000000000000000111111111111100000000000000000000
00000000000000001111111111111110000000000000000000
00000000000000111111111111111111000000000000000000
00000000000001111111111111111111000000000000000000
00000000000011111111111111111111100000000000000000
00000000000011111111111111111111110000000000000000
00000000000111111111111111111111110000000000000000
00000000000111111111000011111111111000000000000000
00000000001111111110000001111111111000000000000000
00000000000111111110000000111111111100000000000000
00000000001111111110000000111111111100000000000000
00000000001111111100000000011111111100000000000000
00000000001111111100000000011111111100000000000000
00000000001111111110000000001111111110000000000000
00000000001111111110000011001111111110000000000000
00000000001111111110011111001111111110000000000000
00000000001111111110011111001111111110000000000000
00000000001111111110011111000111111110000000000000
00000000000111111110001111100111111111000000000000
00000000000111111111001111110111111111000000000000
00000000000111111111001111110011111111000000000000
00000000000111111111001111110011111111000000000000
00000000000111111111000000000011111111000000000000
00000000000011111111000000000011111111000000000000
00000000000011111111100000000011111111100000000000
00000000000011111111110000000011111111100000000000
00000000000011111111110000000011111111000000000000
00000000000011111111110000000011111111000000000000
00000000000001111111111000000111111111000000000000
00000000000000111111111000000111111110000000000000
00000000000000111111111100001111111110000000000000
00000000000000011111111111111111111110000000000000
00000000000000011111111111111111111100000000000000
00000000000000001111111111111111111100000000000000
00000000000000000111111111111111111000000000000000
00000000000000000011111111111111110000000000000000
00000000000000000001111111111111100000000000000000
00000000000000000000111111111111000000000000000000
00000000000000000000001111100000000000000000000000
00000000000000000000000000000000000000000000000000
00000000000000000000000000000000000000000000000000
00000000000000000000000000000000000000000000000000
00000000000000000000000000000000000000000000000000
00000000000000000000000000000000000000000000000000
00000000000000000000000000000000000000000000000000
00000000000000000000000000000000000000000000000000
00000000000000000000000000000000000000000000000000
00000000000000000000000000000000000000000000000000
00000000000000000000000000000000000000000000000000
00000000000000000000000000000000000000000000000000
00000000000000000000000000000000000000000000000000
