P1
50 70
00000000000000000000000000000000000000000000000000
00000000000000000000000000000000000000000000000000
00000000000000000000000000000000000000000000000000
00000000000000000000000000000000000000000000000000
00000000000000000000000000000000000000000000000000
00000000000000000000000000000000000000000000000000
00000000000000000000000000000000000000000000000000
00000000000000000000000000000000000000000000000000
00000000000000000000000000000000000000000000000000
00000000000000000000000000000000000000000000000000
00000000000000000000000000000000000000000000000000
00000000000000000000000000000000000000000000000000
00000000000000000000000000001111110000000000000000
00000000000000000000000000111111111100000000000000
00000000000000000000000011111111111110000000000000
00000000000000000000000111111001111111000000000000
00000000000000000000001111110000111111000000000000
00000000000000000000011111110000111111000000000000
00000000000000000000111111100000111111000000000000
00000000000000000000111111000000111111000000000000
00000000000000000001111110000000111111100000000000
00000000000000000011111110000000111111000000000000
00000000000000000111111100000000111111000000000000
00000000000000001111111100000001111111100000000000
00000000000000001111111100000001111111100000000000
00000000000000011111111100000011111111100000000000
00000000000000011111111000000011111111100000000000
00000000000000111111111000000011111111100000000000
00000000000000111111111000000011111111000000000000
00000000000001111111110000000011111111000000000000
00000000000001111111110000000111111111000000000000
00000000000001111111110000000111111111000000000000
00000000000011111111100000000111111111000000000000
00000000000011111111100000000111111111000000000000
00000000000011111111100000001111111110000000000000
00000000000011111111100000001111111110000000000000
00000000000111111111000000011111111100000000000000
00000000000111111110000000011111111100000000000000
00000000000111111110000000011111111100000000000000
00000000000111111110000000111111111100000000000000
00000000000111111110000000111111111000000000000000
00000000000111111100000000111111111000000000000000
00000000000111111100000001111111111000000000000000
00000000000111111100000001111111110000000000000000
00000000000111111100000001111111110000000000000000
00000000000111111100000011111111100000000000000000
00000000000011111100000011111111100000000000000000
00000000000001111100000111111111000000000000000000
00000000000001111100000111111110000000000000000000
00000000000000111100001111111000000000000000000000
00000000000000011111111111110000000000000000000000
00000000000000001111111111100000000000000000000000
00000000000000000011111110000000000000000000000000
00000000000000000000000000000000000000000000000000
00000000000000000000000000000000000000000000000000
00000000000000000000000000000000000000000000000000
00000000000000000000000000000000000000000000000000
00000000000000000000000000000000000000000000000000
00000000000000000000000000000000000000000000000000
00000000000000000000000000000000000000000000000000
00000000000000000000000000000000000000000000000000
00000000000000000000000000000000000000000000000000
00000000000000000000000000000000000000000000000000
00000000000000000000000000000000000000000000000000
00000000000000000000000000000000000000000000000000
00000000000000000000000000000000000000000000000000
00000000000000000000000000000000000000000000000000
00000000000000000000000000000000000000000000000000
00000000000000000000000000000000000000000000000000
00000000000000000000000000000000000000000000000000
