P1
50 70
00000000000000000000000000000000000000000000000000
00000000000000000000000000000000000000000000000000
00000000000000000000000000000000000000000000000000
00000000000000000000000000000000000000000000000000
00000000000000000000000000000000000000000000000000
00000000000000000000000000000000000000000000000000
00000000000000000000000000000000000000000000000000
00000000000000000000000000000000000000000000000000
00000000000000000000000000000000000000000000000000
00000000000000000000000000000000000000000000000000
00000000000000000000000000000000000000000000000000
00000000000000000000000000000000000000000000000000
00000000000000000000000000000000000000000000000000
00000000000000000000000000000000000000000000000000
00000000000000000000000000000000000000000000000000
00000000000000000000000000000000000000000000000000
00000000000000000000000000000000000000000000000000
00000000000000000000000011111100000000000000000000
00000000000000000000000111111111000000000000000000
00000000000000000000011111111111100000000000000000
00000000000000000000111100000111110000000000000000
00000000000000000001111000000011110000000000000000
00000000000000000011111000000011111000000000000000
00000000000000000111110000000011111100000000000000
00000000000000001111100000000001111100000000000000
00000000000000001111100000000001111100000000000000
00000000000000011111100000000001111110000000000000
00000000000000011111000000000001111110000000000000
00000000000000111111000000000001111110000000000000
00000000000000111111000000000001111110000000000000
00000000000000111111000000000001111110000000000000
00000000000001111110000000000001111110000000000000
00000000000001111110000000000001111110000000000000
00000000000001111110000000000001111110000000000000
00000000000001111110000000000001111100000000000000
00000000000001111110000000000000111110000000000000
00000000000001111110000000000001111110000000000000
00000000000001111100000000000001111110000000000000
00000000000001111100000000000001111110000000000000
00000000000001111110000000000001111110000000000000
00000000000001111100000000000001111100000000000000
00000000000001111100000000000011111100000000000000
00000000000001111100000000000011111100000000000000
00000000000001111110000000000011111100000000000000
00000000000001111110000000000011111100000000000000
00000000000001111110000000000111111000000000000000
00000000000000111110000000000111111000000000000000
00000000000000111110000000000111110000000000000000
00000000000000011110000000000111110000000000000000
00000000000000011111000000001111110000000000000000
00000000000000001111000000001111100000000000000000
00000000000000000111100000011111100000000000000000
00000000000000000111100000111111000000000000000000
00000000000000000011110001111110000000000000000000
00000000000000000001111111111100000000000000000000
00000000000000000000011111111000000000000000000000
00000000000000000000001111000000000000000000000000
00000000000000000000000000000000000000000000000000
00000000000000000000000000000000000000000000000000
00000000000000000000000000000000000000000000000000
00000000000000000000000000000000000000000000000000
00000000000000000000000000000000000000000000000000
00000000000000000000000000000000000000000000000000
00000000000000000000000000000000000000000000000000
00000000000000000000000000000000000000000000000000
00000000000000000000000000000000000000000000000000
00000000000000000000000000000000000000000000000000
00000000000000000000000000000000000000000000000000
00000000000000000000000000000000000000000000000000
00000000000000000000000000000000000000000000000000
