P1
50 70
00000000000000000000000000000000000000000000000000
00000000000000000000000000000000000000000000000000
00000000000000000000000000000000000000000000000000
00000000000000000000000000000000000000000000000000
00000000000000000000000000000000000000000000000000
00000000000000000000000000000000000000000000000000
00000000000000000000000000000000000000000000000000
00000000000000000000000000000000000000000000000000
00000000000000000000000000000000000000000000000000
00000000000000000000000000000000000000000000000000
00000000000000000000000000000000000000000000000000
00000000000000000000000000000000000000000000000000
00000000000000000000000000000000001000000000000000
00000000000000000000000001111111111110000000000000
00000000000000000000000011111111111111000000000000
00000000000000000000011111111111111111100000000000
00000000000000000001111111111111111111110000000000
00000000000000000011111111111111111111111000000000
00000000000000000111111111111111111111111000000000
00000000000000001111111111110111111111111000000000
00000000000000001111111111000000111111111000000000
00000000000000011111111000000000011111111000000000
00000000000000111111110000000000011111111000000000
00000000000001111111100000000000011111110000000000
00000000000001111111000000000000011111110000000000
00000000000001111111000000000000011111110000000000
00000000000011111110000000000000011111110000000000
00000000000011111110000000000000011111110000000000
00000000000011111110000000000000011111110000000000
00000000000111111100000000000000011111100000000000
00000000000111111100000000000000011111000000000000
00000000001111111000000000000000111111000000000000
00000000001111111000000000000001111111000000000000
00000000001111111000000000000001111111000000000000
00000000001111111000000000000001111111000000000000
00000000001111110000111111000011111111000000000000
00000000001111110001111111000011111110000000000000
00000000011111100001111111000011111100000000000000
00000000011111100011111111000111111100000000000000
00000000011111100011111111000111111100000000000000
00000000011111100011111111001111111000000000000000
00000000011111100001111111001111111000000000000000
00000000011111100001111110001111111000000000000000
00000000011111000001111100011111110000000000000000
00000000011111000000000000011111110000000000000000
00000000111111000000000000011111100000000000000000
00000000111111000000000000111111100000000000000000
00000000111111000000000000111111100000000000000000
00000000111111000000000000111111000000000000000000
00000000111111000000000000111111000000000000000000
00000000011111000000000001111110000000000000000000
00000000011111000000000001111110000000000000000000
00000000011111000000000011111100000000000000000000
00000000011111000000000011111000000000000000000000
00000000011111000000000111111000000000000000000000
00000000011111000000000111110000000000000000000000
00000000011111100000001111110000000000000000000000
00000000011111100000011111110000000000000000000000
00000000011111100000111111100000000000000000000000
00000000001111110011111111000000000000000000000000
00000000001111111111111110000000000000000000000000
00000000001111111111111110000000000000000000000000
00000000000111111111111100000000000000000000000000
00000000000011111111111000000000000000000000000000
00000000000001111111100000000000000000000000000000
00000000000000001111000000000000000000000000000000
00000000000000000000000000000000000000000000000000
00000000000000000000000000000000000000000000000000
00000000000000000000000000000000000000000000000000
00000000000000000000000000000000000000000000000000
