P1
50 70
00000000000000000000000000000000000000000000000000
00000000000000000000000000000000000000000000000000
00000000000000000000000000000000000000000000000000
00000000000000000000000000000000000000000000000000
00000000000000000000000000000000000000000000000000
00000000000000000000000000000000000000000000000000
00000000000000000000000000000000000000000000000000
00000000000000000000000000000000000000000000000000
00000000000000000000000000000000000000000000000000
00000000000000000000000000000000000000000000000000
00000000000000000000000000000000000000000000000000
00000000000000000000000000000000000000000000000000
00000000000000000000000000000000000000000000000000
00000000000000000000000000000000000000000000000000
00000000000000000000000000000000000000000000000000
00000000000000000001111111100000000000000000000000
00000000000000000011111111111000000000000000000000
00000000000000000111111111111100000000000000000000
00000000000000000111111111111110000000000000000000
00000000000000001111110001111111000000000000000000
00000000000000011111100000111111100000000000000000
00000000000000011111000000011111100000000000000000
00000000000000011110000000001111110000000000000000
00000000000000011110000000001111110000000000000000
00000000000000111110000000011111110000000000000000
00000000000000111110000000011111111000000000000000
00000000000000111100000000111111111000000000000000
00000000000000111100000000111111111000000000000000
00000000000000111100000001111101111000000000000000
00000000000000111100000001111001111100000000000000
00000000000000111100000011111001111100000000000000
00000000000000111100000011110001111100000000000000
00000000000000111100000111110000111100000000000000
00000000000000111100000111100000111100000000000000
00000000000000111100001111100000111100000000000000
00000000000000111100001111000000111100000000000000
00000000000000111100011111000000111100000000000000
00000000000000111110011110000000111100000000000000
00000000000000111110111110000000111100000000000000
00000000000000111111111110000000111100000000000000
00000000000000111111111100000000111100000000000000
00000000000000011111111000000001111100000000000000
00000000000000011111111000000001111100000000000000
00000000000000011111110000000001111000000000000000
00000000000000001111110000000011111000000000000000
00000000000000000111111000000111110000000000000000
00000000000000000111111100000111110000000000000000
00000000000000000011111110001111100000000000000000
00000000000000000011111111111111100000000000000000
00000000000000000001111111111111000000000000000000
00000000000000000000111111111110000000000000000000
00000000000000000000011111111000000000000000000000
00000000000000000000000001000000000000000000000000
00000000000000000000000000000000000000000000000000
00000000000000000000000000000000000000000000000000
00000000000000000000000000000000000000000000000000
00000000000000000000000000000000000000000000000000
00000000000000000000000000000000000000000000000000
00000000000000000000000000000000000000000000000000
00000000000000000000000000000000000000000000000000
00000000000000000000000000000000000000000000000000
00000000000000000000000000000000000000000000000000
00000000000000000000000000000000000000000000000000
00000000000000000000000000000000000000000000000000
00000000000000000000000000000000000000000000000000
00000000000000000000000000000000000000000000000000
00000000000000000000000000000000000000000000000000
00000000000000000000000000000000000000000000000000
00000000000000000000000000000000000000000000000000
00000000000000000000000000000000000000000000000000
