P1
50 70
00000000000000000000000000000000000000000000000000
00000000000000000000000000000000000000000000000000
00000000000000000000000000000000000000000000000000
00000000000000000000000000000000000000000000000000
00000000000000000000000000000000000000000000000000
00000000000000000000000000000000000000000000000000
00000000000000000000000000000000000000000000000000
00000000000000000000000000000000000000000000000000
00000000000000000000000000000000000000000000000000
00000000000000000000000000000000000000000000000000
00000000000000000000000000000000000000000000000000
00000000000000000000000000000000000000000000000000
00000000000000000000000000000000000000000000000000
00000000000000000000000000000000000000000000000000
00000000000000000000000000000000000000000000000000
00000000000000000000000000011000000000000000000000
00000000000000000000000011111000000000000000000000
00000000000000000000000111111100000000000000000000
00000000000000000000011111111110000000000000000000
00000000000000000000111111111110000000000000000000
00000000000000000001111111111111000000000000000000
00000000000000000011111111111111000000000000000000
00000000000000000011111111111111000000000000000000
00000000000000000011111111111111100000000000000000
00000000000000000111111000111111100000000000000000
00000000000000000111110000011111100000000000000000
00000000000000000111110000011111100000000000000000
00000000000000001111110000011111100000000000000000
00000000000000001111110000011111100000000000000000
00000000000000001111100000011111110000000000000000
00000000000000001111110000011111110000000000000000
00000000000000001111110000011111100000000000000000
00000000000000011111100000011111110000000000000000
00000000000000011111100000001111110000000000000000
00000000000000011111100000001111110000000000000000
00000000000000011111100000001111110000000000000000
00000000000000011111100000001111110000000000000000
00000000000000011111100000001111110000000000000000
00000000000000001111110000001111110000000000000000
00000000000000001111110000001111110000000000000000
00000000000000001111110000001111110000000000000000
00000000000000001111100000001111110000000000000000
00000000000000001111110000001111110000000000000000
00000000000000001111110000001111110000000000000000
00000000000000001111111000000111110000000000000000
00000000000000001111111000000111110000000000000000
00000000000000000111111000001111110000000000000000
00000000000000000111111000001111100000000000000000
00000000000000000111111000001111100000000000000000
00000000000000000011111100011111100000000000000000
00000000000000000011111110111111000000000000000000
00000000000000000011111111111111000000000000000000
00000000000000000011111111111111000000000000000000
00000000000000000001111111111110000000000000000000
00000000000000000001111111111100000000000000000000
00000000000000000001111111111000000000000000000000
00000000000000000000111111111000000000000000000000
00000000000000000000011111100000000000000000000000
00000000000000000000000001000000000000000000000000
00000000000000000000000000000000000000000000000000
00000000000000000000000000000000000000000000000000
00000000000000000000000000000000000000000000000000
00000000000000000000000000000000000000000000000000
00000000000000000000000000000000000000000000000000
00000000000000000000000000000000000000000000000000
00000000000000000000000000000000000000000000000000
00000000000000000000000000000000000000000000000000
00000000000000000000000000000000000000000000000000
00000000000000000000000000000000000000000000000000
00000000000000000000000000000000000000000000000000
