P1
50 70
00000000000000000000000000000000000000000000000000
00000000000000000000000000000000000000000000000000
00000000000000000000000000000000000000000000000000
00000000000000000000000000000000000000000000000000
00000000000000000000000000000000000000000000000000
00000000000000000000000000000000000000000000000000
00000000000000000000000000000000000000000000000000
00000000000000000000000000000000000000000000000000
00000000000000000000000000000000000000000000000000
00000000000000000000000000000000000000000000000000
00000000000000000000000001111100000000000000000000
00000000000000000000000111111111110000000000000000
00000000000000000000011111111111111000000000000000
00000000000000000000111111111111111100000000000000
00000000000000000001111111111111111110000000000000
00000000000000000001111111111111111111000000000000
00000000000000000011111111111111111111000000000000
00000000000000000111111111111111111111100000000000
00000000000000001111111111111111111111100000000000
00000000000000001111111111100011111111100000000000
00000000000000001111111110000001111111110000000000
00000000000000011111111100000000111111110000000000
00000000000000111111111110000000111111110000000000
00000000000000111111111100000000111111110000000000
00000000000001111111111100000000111111110000000000
00000000000001111111111000000000111111110000000000
00000000000011111111110000000000111111110000000000
00000000000011111111110000000001111111110000000000
00000000000011111111110011100001111111110000000000
00000000000011111111110111110001111111110000000000
00000000000111111111100111111001111111110000000000
00000000000111111111001111111001111111110000000000
00000000000111111111001111111111111111110000000000
00000000000111111111001111111111111111110000000000
00000000000111111111000111111111111111110000000000
00000000001111111111000111111111111111110000000000
00000000001111111111000011111111111111100000000000
00000000001111111110000001110111111111100000000000
00000000001111111110000000000111111111100000000000
00000000001111111110000000000111111111100000000000
00000000001111111110000000000111111111100000000000
00000000001111111110000000001111111111100000000000
00000000001111111110000000011111111111000000000000
00000000001111111110000000011111111111000000000000
00000000000111111111000000011111111111000000000000
00000000000111111111000000111111111111000000000000
00000000000111111111110011111111111111000000000000
00000000000011111111111111111111111110000000000000
00000000000001111111111111111111111100000000000000
00000000000001111111111111111111111100000000000000
00000000000000111111111111111111111100000000000000
00000000000000011111111111111111111000000000000000
00000000000000001111111111111111111000000000000000
00000000000000000111111111111111110000000000000000
00000000000000000001111111111111100000000000000000
00000000000000000000001111111111000000000000000000
00000000000000000000000111111100000000000000000000
00000000000000000000000000000000000000000000000000
00000000000000000000000000000000000000000000000000
00000000000000000000000000000000000000000000000000
00000000000000000000000000000000000000000000000000
00000000000000000000000000000000000000000000000000
00000000000000000000000000000000000000000000000000
00000000000000000000000000000000000000000000000000
00000000000000000000000000000000000000000000000000
00000000000000000000000000000000000000000000000000
00000000000000000000000000000000000000000000000000
00000000000000000000000000000000000000000000000000
00000000000000000000000000000000000000000000000000
00000000000000000000000000000000000000000000000000
