P1
50 70
00000000000000000000000000000000000000000000000000
00000000000000000000000000000000000000000000000000
00000000000000000000000000000000000000000000000000
00000000000000000000000000000000000000000000000000
00000000000000000000000000000000000000000000000000
00000000000000000000000000000000000000000000000000
00000000000000000000000000000000000000000000000000
00000000000000000000000000000000000000000000000000
00000000000000000000000000000000000000000000000000
00000000000000000000000000000000000000000000000000
00000000000000000000000000000000000000000000000000
00000000000000000000000000000000000000000000000000
00000000000000000000000000000000000000000000000000
00000000000000000000000000000000000000000000000000
00000000000000000000000000000000000000000000000000
00000000000000000000000000000000000000000000000000
00000000000000000000000000000000000000000000000000
00000000000000000000000000011111110000000000000000
00000000000000000000000111111111111100000000000000
00000000000000000000001111111111111111000000000000
00000000000000000000011111111111111111100000000000
00000000000000000001111111111111111111100000000000
00000000000000000011111111111111111111110000000000
00000000000000000111111111111111111111110000000000
00000000000000001111111111111111111111110000000000
00000000000000001111111111100111111111111000000000
00000000000000011111111110000001111111111000000000
00000000000000111111111100000001111111111000000000
00000000000000111111111100000001111111110000000000
00000000000000111111111000000001111111110000000000
00000000000001111111110000000001111111110000000000
00000000000001111111110000000001111111111000000000
00000000000011111111110000000011111111110000000000
00000000000011111111110000000001111111110000000000
00000000000011111111100000000011111111110000000000
00000000000111111111100000000011111111110000000000
00000000000111111111101111100011111111100000000000
00000000000111111111011111110111111111100000000000
00000000000111111111011111110111111111100000000000
00000000001111111111111111111111111111100000000000
00000000001111111111111111111111111111000000000000
00000000001111111110111111111111111111000000000000
00000000001111111110011111101111111111000000000000
00000000001111111110000110001111111111000000000000
00000000011111111110000000001111111110000000000000
00000000011111111110000000011111111100000000000000
00000000001111111100000000011111111100000000000000
00000000011111111100000000011111111100000000000000
00000000011111111100000000111111111100000000000000
00000000011111111100000000111111111000000000000000
00000000011111111100000001111111110000000000000000
00000000001111111100000011111111110000000000000000
00000000011111111100000011111111110000000000000000
00000000011111111110001111111111100000000000000000
00000000001111111111111111111111000000000000000000
00000000001111111111111111111111000000000000000000
00000000001111111111111111111110000000000000000000
00000000000111111111111111111100000000000000000000
00000000000111111111111111110000000000000000000000
00000000000011111111111111100000000000000000000000
00000000000001111111111111000000000000000000000000
00000000000000111111111100000000000000000000000000
00000000000000000000000000000000000000000000000000
00000000000000000000000000000000000000000000000000
00000000000000000000000000000000000000000000000000
00000000000000000000000000000000000000000000000000
00000000000000000000000000000000000000000000000000
00000000000000000000000000000000000000000000000000
00000000000000000000000000000000000000000000000000
00000000000000000000000000000000000000000000000000
