P1
50 70
00000000000000000000000000000000000000000000000000
00000000000000000000000000000000000000000000000000
00000000000000000000000000000000000000000000000000
00000000000000000000000000000000000000000000000000
00000000000000000000000000000000000000000000000000
00000000000000000000000000000000000000000000000000
00000000000000000000000000000000000000000000000000
00000000000000000000000000000000000000000000000000
00000000000000000000000000000000000000000000000000
00000000000000000000000000000000000000000000000000
00000000000000000000000000000000000000000000000000
00000000000000000000000000000000000000000000000000
00000000000000000000000000000000000000000000000000
00000000000000000000000000000000000000000000000000
00000000000000000000111110000000000000000000000000
00000000000000000011111111110000000000000000000000
00000000000000000111111111111000000000000000000000
00000000000000000111111111111110000000000000000000
00000000000000001111111111111111100000000000000000
00000000000000001111111111111111100000000000000000
00000000000000011111111111111111110000000000000000
00000000000000011111111111111111111000000000000000
00000000000000111111111000011111111000000000000000
00000000000000111111110000001111111100000000000000
00000000000000111111110000001111111100000000000000
00000000000001111111110000000111111110000000000000
00000000000001111111110000000111111110000000000000
00000000000001111111110000000111111110000000000000
00000000000001111111100000000111111110000000000000
00000000000001111111100000000111111111000000000000
00000000000001111111100110000111111111000000000000
00000000000001111111101111110011111111000000000000
00000000000001111111101111111011111111000000000000
00000000000001111111001111110011111111000000000000
00000000000001111111001111110011111111000000000000
00000000000011111111001111110001111111000000000000
00000000000011111111011111110011111111000000000000
00000000000111111111001111000011111111000000000000
00000000000111111111100000000011111111100000000000
00000000000111111111100000000011111111100000000000
00000000000111111111100000000011111111100000000000
00000000000111111111100000000111111111100000000000
00000000000011111111100000000111111111000000000000
00000000000011111111100000000111111111000000000000
00000000000011111111110000000111111111000000000000
00000000000011111111110000000111111111000000000000
00000000000001111111111000001111111110000000000000
00000000000001111111111111111111111100000000000000
00000000000001111111111111111111111100000000000000
00000000000001111111111111111111111100000000000000
00000000000000111111111111111111111000000000000000
00000000000000011111111111111111100000000000000000
00000000000000001111111111111110000000000000000000
00000000000000000011111111100000000000000000000000
00000000000000000000100000000000000000000000000000
00000000000000000000000000000000000000000000000000
00000000000000000000000000000000000000000000000000
00000000000000000000000000000000000000000000000000
00000000000000000000000000000000000000000000000000
00000000000000000000000000000000000000000000000000
00000000000000000000000000000000000000000000000000
00000000000000000000000000000000000000000000000000
00000000000000000000000000000000000000000000000000
00000000000000000000000000000000000000000000000000
00000000000000000000000000000000000000000000000000
00000000000000000000000000000000000000000000000000
00000000000000000000000000000000000000000000000000
00000000000000000000000000000000000000000000000000
00000000000000000000000000000000000000000000000000
00000000000000000000000000000000000000000000000000
