P1
50 70
00000000000000000000000000000000000000000000000000
00000000000000000000000000000000000000000000000000
00000000000000000000000000000000000000000000000000
00000000000000000000000000000000000000000000000000
00000000000000000000000000000000000000000000000000
00000000000000000000000000000000000000000000000000
00000000000000000000000000000000000000000000000000
00000000000000000000000000000000000000000000000000
00000000000000000000000000000000000000000000000000
00000000000000000000000000000000000000000000000000
00000000000000000000000000000000000000000000000000
00000000000000000000000000000000000000000000000000
00000000000000000000000000000000000000000000000000
00000000000000000000000000000000000000000000000000
00000000000000000000000000000000000000000000000000
00000000000000000000000000000000000000000000000000
00000000000000000000000000000000000000000000000000
00000000000000000000000000000000000000000000000000
00000000000000000000000000000000000000000000000000
00000000000000000000000000000000000000000000000000
00000000000000000000000000000000000000000000000000
00000000000000000001111110000000000000000000000000
00000000000000000011111111100000000000000000000000
00000000000000001111111111111000000000000000000000
00000000000000011111111111111100000000000000000000
00000000000000111111111111111110000000000000000000
00000000000001111111111111111110000000000000000000
00000000000011111111111111111111000000000000000000
00000000000111111100000001111111000000000000000000
00000000000111111100000001111111100000000000000000
00000000000111111000000000111111110000000000000000
00000000001111111000000000011111110000000000000000
00000000001111110000000000011111110000000000000000
00000000011111110000000000001111111000000000000000
00000000011111100000000000001111111100000000000000
00000000011111100000000000001111111100000000000000
00000000011111100000000000000111111100000000000000
00000000011111100000000000000111111100000000000000
00000000011111100000000010000011111110000000000000
00000000011111110000011110000011111111000000000000
00000000011111110000011111100001111111000000000000
00000000011111110000111111110001111111000000000000
00000000011111110001111111110001111111000000000000
00000000011111110001111111110001111111100000000000
00000000001111110001111111100001111111100000000000
00000000001111110000111111000000111111110000000000
00000000001111111000001110000000111111110000000000
00000000001111111000000000000000111111110000000000
00000000001111111000000000000000111111110000000000
00000000000111111100000000000000011111110000000000
00000000000111111100000000000000011111110000000000
00000000000111111100000000000000011111110000000000
00000000000111111110000000000000011111111000000000
00000000000111111111000000000000011111111000000000
00000000000011111111000000000000111111111000000000
00000000000011111111100000000000111111110000000000
00000000000001111111110000000001111111110000000000
00000000000000111111111100000011111111110000000000
00000000000000011111111111111111111111100000000000
00000000000000001111111111111111111111100000000000
00000000000000000111111111111111111111000000000000
00000000000000000001111111111111111110000000000000
00000000000000000000011111111111111000000000000000
00000000000000000000000001100111100000000000000000
00000000000000000000000000000000000000000000000000
00000000000000000000000000000000000000000000000000
00000000000000000000000000000000000000000000000000
00000000000000000000000000000000000000000000000000
00000000000000000000000000000000000000000000000000
00000000000000000000000000000000000000000000000000
