P1
50 70
00000000000000000000000000000000000000000000000000
00000000000000000000000000000000000000000000000000
00000000000000000000000000000000000000000000000000
00000000000000000000000000000000000000000000000000
00000000000000000000000000000000000000000000000000
00000000000000000000000000000000000000000000000000
00000000000000000000000000000000000000000000000000
00000000000000000000000000000000000000000000000000
00000000000000000000000000000000000000000000000000
00000000000000000000000000000000000000000000000000
00000000000000000000000000000000000000000000000000
00000000000000000000000000000000000000000000000000
00000000000000000000000000000000000000000000000000
00000000000000000000000000000000000000000000000000
00000000000000000000000000000000000000000000000000
00000000000000000000000000000000000000000000000000
00000000000000000000000000000000000000000000000000
00000000000000000000000000000000000000000000000000
00000000000000000000000000000000000000000000000000
00000000000000000000000011100000000000000000000000
00000000000000000000001111111100000000000000000000
00000000000000000000111111111111100000000000000000
00000000000000000001111111111111110000000000000000
00000000000000000001111111111111111000000000000000
00000000000000000011111111111111111100000000000000
00000000000000000111111111111111111110000000000000
00000000000000001111111111111111111110000000000000
00000000000000001111111111000111111111000000000000
00000000000000011111111110000011111111000000000000
00000000000000111111111100000011111111100000000000
00000000000000111111111100000001111111100000000000
00000000000000111111111000000001111111110000000000
00000000000000111111111000000001111111110000000000
00000000000001111111111000000000111111110000000000
00000000000001111111110000000000111111110000000000
00000000000001111111110011000000111111110000000000
00000000000001111111110011100001111111110000000000
00000000000011111111100011111111111111110000000000
00000000000011111111100111111111111111110000000000
00000000000011111111000111111111111111110000000000
00000000000111111111000111111101111111110000000000
00000000000111111111001111111001111111110000000000
00000000000111111111001111111001111111110000000000
00000000000111111111000111111011111111110000000000
00000000000111111111000000000011111111110000000000
00000000000111111111000000000011111111110000000000
00000000000111111111000000000111111111100000000000
00000000001111111111000000000111111111100000000000
00000000001111111111000000000111111111100000000000
00000000001111111111000000000111111111000000000000
00000000001111111111000000001111111111000000000000
00000000001111111111000000001111111110000000000000
00000000001111111111100000011111111110000000000000
00000000001111111111110001111111111110000000000000
00000000000111111111111111111111111100000000000000
00000000000111111111111111111111111000000000000000
00000000000011111111111111111111111000000000000000
00000000000001111111111111111111110000000000000000
00000000000000111111111111111111100000000000000000
00000000000000001111111111111110000000000000000000
00000000000000000000011111100000000000000000000000
00000000000000000000000000000000000000000000000000
00000000000000000000000000000000000000000000000000
00000000000000000000000000000000000000000000000000
00000000000000000000000000000000000000000000000000
00000000000000000000000000000000000000000000000000
00000000000000000000000000000000000000000000000000
00000000000000000000000000000000000000000000000000
00000000000000000000000000000000000000000000000000
00000000000000000000000000000000000000000000000000
