P1
50 70
00000000000000000000000000000000000000000000000000
00000000000000000000000000000000000000000000000000
00000000000000000000000000000000000000000000000000
00000000000000000000000000000000000000000000000000
00000000000000000000000000000000000000000000000000
00000000000000000000000000000000000000000000000000
00000000000000000000000000000000000000000000000000
00000000000000000000000000000000000000000000000000
00000000000000000000000011110000000000000000000000
00000000000000000000011111111111000000000000000000
00000000000000000000111111111111000000000000000000
00000000000000000001111111111111110000000000000000
00000000000000000011111111111111111000000000000000
00000000000000000111111111111111111100000000000000
00000000000000000111111111111111111110000000000000
00000000000000001111111111111111111110000000000000
00000000000000001111111111111111111111000000000000
00000000000000011111111111111111111111100000000000
00000000000000111111111111000111111111100000000000
00000000000000011111111110000011111111110000000000
00000000000000111111111100000001111111110000000000
00000000000001111111111100000001111111110000000000
00000000000001111111111100000001111111110000000000
00000000000001111111111000000001111111110000000000
00000000000001111111111000000000111111110000000000
00000000000011111111110000000000111111111000000000
00000000000011111111110000000000111111111000000000
00000000000011111111110000000001111111110000000000
00000000000011111111110000000001111111110000000000
00000000000111111111100011000001111111110000000000
00000000000111111111111111100001111111110000000000
00000000000111111111111111110011111111110000000000
00000000000111111111011111111011111111110000000000
00000000000111111111001111111011111111110000000000
00000000001111111111001111111011111111110000000000
00000000001111111111001111111011111111100000000000
00000000001111111111001111111111111111100000000000
00000000001111111110000111110111111111100000000000
00000000001111111110000000000111111111100000000000
00000000001111111110000000000111111111100000000000
00000000001111111110000000001111111111000000000000
00000000001111111110000000001111111111000000000000
00000000011111111100000000001111111110000000000000
00000000011111111110000000011111111110000000000000
00000000001111111110000000111111111110000000000000
00000000001111111110000000111111111100000000000000
00000000011111111110000001111111111100000000000000
00000000011111111110000001111111111000000000000000
00000000001111111111000111111111111000000000000000
00000000001111111111111111111111110000000000000000
00000000001111111111111111111111110000000000000000
00000000001111111111111111111111100000000000000000
00000000000111111111111111111111000000000000000000
00000000000011111111111111111110000000000000000000
00000000000001111111111111111100000000000000000000
00000000000001111111111111111000000000000000000000
00000000000000011111111111000000000000000000000000
00000000000000001101110000000000000000000000000000
00000000000000000000000000000000000000000000000000
00000000000000000000000000000000000000000000000000
00000000000000000000000000000000000000000000000000
00000000000000000000000000000000000000000000000000
00000000000000000000000000000000000000000000000000
00000000000000000000000000000000000000000000000000
00000000000000000000000000000000000000000000000000
00000000000000000000000000000000000000000000000000
00000000000000000000000000000000000000000000000000
00000000000000000000000000000000000000000000000000
00000000000000000000000000000000000000000000000000
00000000000000000000000000000000000000000000000000
