P1
50 70
00000000000000000000000000000000000000000000000000
00000000000000000000000000000000000000000000000000
00000000000000000000000000000000000000000000000000
00000000000000000000000000000000000000000000000000
00000000000000000000000000000000000000000000000000
00000000000000000000000000000000000000000000000000
00000000000000000000000000000000000000000000000000
00000000000000000000000000000000000000000000000000
00000000000000000000000000000000000000000000000000
00000000000000000000000000000000000000000000000000
00000000000000000000000000000000000000000000000000
00000000000000000000000000000000000000000000000000
00000000000000000000000000000000000000000000000000
00000000000000000000000000000000000000000000000000
00000000000000000000000000000000000000000000000000
00000000000000000000000111100000000000000000000000
00000000000000000000111111111100000000000000000000
00000000000000000011111111111110100000000000000000
00000000000000000111111111111111100000000000000000
00000000000000000111111111111111110000000000000000
00000000000000001111111111111111110000000000000000
00000000000000011111111111111111111000000000000000
00000000000000011111111111111111111000000000000000
00000000000000111111111111111111111100000000000000
00000000000000111111111000011111111100000000000000
00000000000001111111110000001111111100000000000000
00000000000001111111110000001111111110000000000000
00000000000001111111110000001111111110000000000000
00000000000001111111110000001111111110000000000000
00000000000011111111100000000111111110000000000000
00000000000011111111100000000111111111000000000000
00000000000011111111000000000111111111000000000000
00000000000011111111000000000111111111000000000000
00000000000111111111000110000111111111000000000000
00000000000111111111001111100111111111000000000000
00000000000111111111011111110111111110000000000000
00000000000011111111011111111111111110000000000000
00000000000111111111011111111111111110000000000000
00000000000111111110011111111111111110000000000000
00000000000111111110011111111111111110000000000000
00000000000111111110001111111111111110000000000000
00000000000111111110000000000111111110000000000000
00000000000111111110000000000111111110000000000000
00000000000111111110000000001111111110000000000000
00000000000111111110000000001111111100000000000000
00000000000111111111000000011111111100000000000000
00000000000111111111000000011111111100000000000000
00000000000111111111000000001111111110000000000000
00000000000111111111000000011111111100000000000000
00000000000111111111000000011111111100000000000000
00000000000011111111100000111111111100000000000000
00000000000011111111100000111111111000000000000000
00000000000011111111111111111111111000000000000000
00000000000001111111111111111111111000000000000000
00000000000001111111111111111111111000000000000000
00000000000000111111111111111111110000000000000000
00000000000000011111111111111111100000000000000000
00000000000000001111111111111111100000000000000000
00000000000000000111111111111111000000000000000000
00000000000000000001111111111110000000000000000000
00000000000000000000011111111100000000000000000000
00000000000000000000001111111000000000000000000000
00000000000000000000000000000000000000000000000000
00000000000000000000000000000000000000000000000000
00000000000000000000000000000000000000000000000000
00000000000000000000000000000000000000000000000000
00000000000000000000000000000000000000000000000000
00000000000000000000000000000000000000000000000000
00000000000000000000000000000000000000000000000000
00000000000000000000000000000000000000000000000000
