P1
50 70
00000000000000000000000000000000000000000000000000
00000000000000000000000000000000000000000000000000
00000000000000000000000000000000000000000000000000
00000000000000000000000000000000000000000000000000
00000000000000000000000000000000000000000000000000
00000000000000000000000000000000000000000000000000
00000000000000000000000000000000000000000000000000
00000000000000000000000000000000000000000000000000
00000000000000000000000000000000000000000000000000
00000000000000000000000000000000000000000000000000
00000000000000000000000000000000000000000000000000
00000000000000000000000000000000000000000000000000
00000000000000000000000000000000000000000000000000
00000000000000000000000000000000000000000000000000
00000000000000000000000000000000000000000000000000
00000000000000000000000000000000000000000000000000
00000000000000000000000000000000000000000000000000
00000000000000000000000000000100000000000000000000
00000000000000000000000011111111100000000000000000
00000000000000000000001111111111110000000000000000
00000000000000000000011111111111110000000000000000
00000000000000000001111111111111111000000000000000
00000000000000000011110011111111111100000000000000
00000000000000000111100001111111111100000000000000
00000000000000001111100000111111111100000000000000
00000000000000001111000000111111111100000000000000
00000000000000001111000000111111111110000000000000
00000000000000011111000000111111111110000000000000
00000000000000011111000000111111111110000000000000
00000000000000111111000000011111111110000000000000
00000000000000111111100000011111111110000000000000
00000000000000111111100000011111111110000000000000
00000000000001111111100000011111111110000000000000
00000000000001111111100000001111111110000000000000
00000000000001111111100000011111111110000000000000
00000000000001111111110000011111111110000000000000
00000000000011111111110000011111111110000000000000
00000000000011111111110000001111111110000000000000
00000000000011111111110000001111111100000000000000
00000000000011111111110000001111111100000000000000
00000000000011111111110000001111111100000000000000
00000000000001111111110000000111111100000000000000
00000000000001111111111000000111111100000000000000
00000000000001111111111000000111111000000000000000
00000000000001111111111000000111111000000000000000
00000000000000111111111000000111111000000000000000
00000000000000111111111100000111111000000000000000
00000000000000111111111100000111110000000000000000
00000000000000111111111100000111110000000000000000
00000000000000011111111100000111100000000000000000
00000000000000011111111110001111100000000000000000
00000000000000011111111110001111000000000000000000
00000000000000001111111110001110000000000000000000
00000000000000000111111111111110000000000000000000
00000000000000000011111111111000000000000000000000
00000000000000000011111111110000000000000000000000
00000000000000000001111111100000000000000000000000
00000000000000000000001110000000000000000000000000
00000000000000000000000000000000000000000000000000
00000000000000000000000000000000000000000000000000
00000000000000000000000000000000000000000000000000
00000000000000000000000000000000000000000000000000
00000000000000000000000000000000000000000000000000
00000000000000000000000000000000000000000000000000
00000000000000000000000000000000000000000000000000
00000000000000000000000000000000000000000000000000
00000000000000000000000000000000000000000000000000
00000000000000000000000000000000000000000000000000
00000000000000000000000000000000000000000000000000
00000000000000000000000000000000000000000000000000
