P1
50 70
00000000000000000000000000000000000000000000000000
00000000000000000000000000000000000000000000000000
00000000000000000000000000000000000000000000000000
00000000000000000000000000000000000000000000000000
00000000000000000000000000000000000000000000000000
00000000000000000000000000000000000000000000000000
00000000000000000000000000000000000000000000000000
00000000000000000000000000000000000000000000000000
00000000000000000000000000000000000000000000000000
00000000000000000000000000000000000000000000000000
00000000000000000000000000000000000000000000000000
00000000000000000000000000000000000000000000000000
00000000000000000000000001111111111000000000000000
00000000000000000000000011111111111110000000000000
00000000000000000000001111111111111111100000000000
00000000000000000000111111111111111111110000000000
00000000000000000011111111111111111111110000000000
00000000000000000111111111111111111111111000000000
00000000000000001111111111111111111111111000000000
00000000000000011111111111111111111111111100000000
00000000000000011111111111111111111111111100000000
00000000000000111111111111111111111111111100000000
00000000000001111111111111100111111111111100000000
00000000000001111111111110000011111111111110000000
00000000000011111111111100000011111111111110000000
00000000000111111111111000000001111111111110000000
00000000000111111111110000000001111111111110000000
00000000000111111111110000000001111111111110000000
00000000001111111111100000000000111111111110000000
00000000001111111111100000000000111111111110000000
00000000011111111111100000000000111111111110000000
00000000011111111111100000000000111111111110000000
00000000011111111111100000000001111111111110000000
00000000111111111111000000000001111111111111000000
00000000111111111111000000000001111111111111000000
00000000111111111111000000000001111111111111000000
00000000111111111111000001110001111111111111000000
00000001111111111111000111111001111111111110000000
00000001111111111110001111111001111111111110000000
00000001111111111110011111111001111111111110000000
00000001111111111110011111111101111111111110000000
00000001111111111110011111111101111111111110000000
00000001111111111110011111111001111111111110000000
00000001111111111110011111111001111111111110000000
00000001111111111110011111110011111111111110000000
00000011111111111110000000000011111111111100000000
00000011111111111110000000000011111111111100000000
00000011111111111110000000000011111111111100000000
00000011111111111100000000000011111111111100000000
00000011111111111100000000000011111111111000000000
00000001111111111000000000000011111111111000000000
00000001111111111100000000000111111111111000000000
00000001111111111100000000000111111111111000000000
00000001111111111100000000000111111111110000000000
00000001111111111100000000001111111111110000000000
00000011111111111100000000001111111111110000000000
00000001111111111110000000011111111111100000000000
00000001111111111110000000011111111111100000000000
00000001111111111111000001111111111111000000000000
00000001111111111111110111111111111110000000000000
00000001111111111111111111111111111110000000000000
00000000111111111111111111111111111100000000000000
00000000111111111111111111111111111000000000000000
00000000011111111111111111111111110000000000000000
00000000011111111111111111111111100000000000000000
00000000000111111111111111111111000000000000000000
00000000000011111111111111111110000000000000000000
00000000000000111111111111111000000000000000000000
00000000000000000111100000000000000000000000000000
00000000000000000000000000000000000000000000000000
