P1
50 70
00000000000000000000000000000000000000000000000000
00000000000000000000000000000000000000000000000000
00000000000000000000000000000000000000000000000000
00000000000000000000000000000000000000000000000000
00000000000000000000000000000000000000000000000000
00000000000000000000000000000000000000000000000000
00000000000000000000000000000000000000000000000000
00000000000000000000000000000000000000000000000000
00000000000000000000000000000000000000000000000000
00000000000000000000000000000000000000000000000000
00000000000000000000000000000000000000000000000000
00000000000000000000000000000000000000000000000000
00000000000000000000000000000000000000000000000000
00000000000000000000000000000000000000000000000000
00000000000000000000000000000000000000000000000000
00000000000000000000000000000000000000000000000000
00000000000000000000000000000000000000000000000000
00000000000000000011000000000000000000000000000000
00000000000000001111111000000000000000000000000000
00000000000000111111111100000000000000000000000000
00000000000000111111111111100000000000000000000000
00000000000001111111111111110000000000000000000000
00000000000001111111111111111100000000000000000000
00000000000011111111111111111110000000000000000000
00000000000011111111111111111111000000000000000000
00000000000011111111111111111111100000000000000000
00000000000011111111111111111111100000000000000000
00000000000011111111111111111111110000000000000000
00000000000111111111111111111111111000000000000000
00000000000111111111110000111111111100000000000000
00000000000111111111110000011111111100000000000000
00000000000111111111100000001111111110000000000000
00000000000111111111100000001111111110000000000000
00000000000111111111000000000111111110000000000000
00000000000111111111000000000111111110000000000000
00000000000111111111000000000111111110000000000000
00000000000111111111000000000111111110000000000000
00000000000111111111000000000111111111000000000000
00000000000111111110000100000111111111000000000000
00000000000111111110011111000111111111000000000000
00000000000111111110111111100111111110000000000000
00000000000111111110011111100111111110000000000000
00000000000111111110011111110111111110000000000000
00000000000111111110011111110111111110000000000000
00000000000111111110011111101111111110000000000000
00000000000111111110011111101111111100000000000000
00000000000111111110001111001111111100000000000000
00000000000111111110000000001111111100000000000000
00000000000111111110000000011111111100000000000000
00000000000111111110000000011111111000000000000000
00000000000111111110000000111111111000000000000000
00000000000011111110000000111111111000000000000000
00000000000011111110000000111111111000000000000000
00000000000011111111000000111111110000000000000000
00000000000011111111000001111111100000000000000000
00000000000011111111110111111111100000000000000000
00000000000011111111111111111111100000000000000000
00000000000001111111111111111111000000000000000000
00000000000001111111111111111110000000000000000000
00000000000000111111111111111110000000000000000000
00000000000000011111111111111000000000000000000000
00000000000000011111111111111000000000000000000000
00000000000000001111111111100000000000000000000000
00000000000000000000111110000000000000000000000000
00000000000000000000000000000000000000000000000000
00000000000000000000000000000000000000000000000000
00000000000000000000000000000000000000000000000000
00000000000000000000000000000000000000000000000000
00000000000000000000000000000000000000000000000000
00000000000000000000000000000000000000000000000000
