P1
50 70
00000000000000000000000000000000000000000000000000
00000000000000000000000000000000000000000000000000
00000000000000000000000000000000000000000000000000
00000000000000000000000000000000000000000000000000
00000000000000000000000000000000000000000000000000
00000000000000000000000000000000000000000000000000
00000000000000000000000000000000000000000000000000
00000000000000000000000000000000000000000000000000
00000000000000000000000000000000000000000000000000
00000000000000000000000000000000000000000000000000
00000000000000000000000000000000000000000000000000
00000000000000000000011110000000000000000000000000
00000000000000000111111111110000000000000000000000
00000000000000001111111111111000000000000000000000
00000000000000011111111111111100000000000000000000
00000000000000111111111111111110000000000000000000
00000000000001111111111111111111000000000000000000
00000000000011111111111111111111000000000000000000
00000000000011111111111111111111100000000000000000
00000000000011111111100011111111100000000000000000
00000000000011111111000000111111100000000000000000
00000000000011111110000000111111110000000000000000
00000000000011111110000000111111111000000000000000
00000000000111111110000000011111111000000000000000
00000000000111111110000000011111111000000000000000
00000000000111111110000000011111111000000000000000
00000000000111111110000000001111111100000000000000
00000000000111111110000000001111111100000000000000
00000000000111111110000000001111111110000000000000
00000000000111111110011111100111111110000000000000
00000000000111111110111111110111111110000000000000
00000000000111111110011111110111111110000000000000
00000000000111111111011111110111111110000000000000
00000000000111111110011111110111111110000000000000
00000000000111111110011111110011111111000000000000
00000000000011111110001111110011111111000000000000
00000000000011111111001111111011111111000000000000
00000000000011111111101111110011111111100000000000
00000000000011111111100011000011111111100000000000
00000000000011111111100000000011111111100000000000
00000000000011111111100000000011111111000000000000
00000000000001111111100000000001111111100000000000
00000000000000111111100000000011111111100000000000
00000000000000111111110000000011111111100000000000
00000000000000111111111000000011111111100000000000
00000000000000111111111000000111111111100000000000
00000000000000111111111110000111111111100000000000
00000000000000011111111111111111111111100000000000
00000000000000001111111111111111111111000000000000
00000000000000001111111111111111111111000000000000
00000000000000000111111111111111111111000000000000
00000000000000000011111111111111111110000000000000
00000000000000000001111111111111111110000000000000
00000000000000000000011111111111111100000000000000
00000000000000000000000111111111110000000000000000
00000000000000000000000001100111000000000000000000
00000000000000000000000000000000000000000000000000
00000000000000000000000000000000000000000000000000
00000000000000000000000000000000000000000000000000
00000000000000000000000000000000000000000000000000
00000000000000000000000000000000000000000000000000
00000000000000000000000000000000000000000000000000
00000000000000000000000000000000000000000000000000
00000000000000000000000000000000000000000000000000
00000000000000000000000000000000000000000000000000
00000000000000000000000000000000000000000000000000
00000000000000000000000000000000000000000000000000
00000000000000000000000000000000000000000000000000
00000000000000000000000000000000000000000000000000
00000000000000000000000000000000000000000000000000
