P1
50 70
00000000000000000000000000000000000000000000000000
00000000000000000000000000000000000000000000000000
00000000000000000000000000000000000000000000000000
00000000000000000000000000000000000000000000000000
00000000000000000000000000000000000000000000000000
00000000000000000000000000000000000000000000000000
00000000000000000000000000000000000000000000000000
00000000000000000000000000000000000000000000000000
00000000000000000000000000000000000000000000000000
00000000000000000000000000000000000000000000000000
00000000000000000000000000000000000000000000000000
00000000000000000000000000000000000000000000000000
00000000000000000000000000000000000000000000000000
00000000000000000000000000000000000001000000000000
00000000000000000000000000000000000011100000000000
00000000000000000000000000000000011111100000000000
00000000000000000000000000000001111111100000000000
00000000000000000000000000000111111111100000000000
00000000000000000000000000011111111111000000000000
00000000000000000000000000111111111111000000000000
00000000000000000000000011111111111111000000000000
00000000000000000000000111111111111111000000000000
00000000000000000000111111111111111111000000000000
00000000000000000001111111111111111110000000000000
00000000000000000011111111111111111110000000000000
00000000000000000111111111111111111100000000000000
00000000000000000111111111111111111100000000000000
00000000000000000111111111111111111100000000000000
00000000000000000111111111111111111100000000000000
00000000000000000111111001111111111100000000000000
00000000000000001111100001111111111100000000000000
00000000000000001111000001111111111100000000000000
00000000000000001100000001111111111000000000000000
00000000000000000000000011111111111000000000000000
00000000000000000000000011111111110000000000000000
00000000000000000000000111111111110000000000000000
00000000000000000000000111111111110000000000000000
00000000000000000000000111111111110000000000000000
00000000000000000000000111111111100000000000000000
00000000000000000000000111111111100000000000000000
00000000000000000000000111111111100000000000000000
00000000000000000000000111111111100000000000000000
00000000000000000000001111111111100000000000000000
00000000000000000000001111111111000000000000000000
00000000000000000000001111111111000000000000000000
00000000000000000000001111111111000000000000000000
00000000000000000000001111111111000000000000000000
00000000000000000000011111111110000000000000000000
00000000000000000000011111111110000000000000000000
00000000000000000000011111111110000001100000000000
00000000000000000000011111111111011111100000000000
00000000000000000000011111111111111111100000000000
00000000000000000000111111111111111111100000000000
00000000000000000000111111111111111111100000000000
00000000000000000000111111111111111111100000000000
00000000000000000011111111111111111111000000000000
00000000000000000111111111111111111110000000000000
00000000000001111111111111111111111100000000000000
00000000000111111111111111111111111000000000000000
00000000000111111111111111111110000000000000000000
00000000000111111111111111110000000000000000000000
00000000000111111111111111000000000000000000000000
00000000001111111111111000000000000000000000000000
00000000001111111100000000000000000000000000000000
00000000001111110000000000000000000000000000000000
00000000000100000000000000000000000000000000000000
00000000000000000000000000000000000000000000000000
00000000000000000000000000000000000000000000000000
00000000000000000000000000000000000000000000000000
00000000000000000000000000000000000000000000000000
