P1
50 70
00000000000000000000000000000000000000000000000000
00000000000000000000000000000000000000000000000000
00000000000000000000000000000000000000000000000000
00000000000000000000000000000000000000000000000000
00000000000000000000000000000000000000000000000000
00000000000000000000000000000000000000000000000000
00000000000000000000000000000000000000000000000000
00000000000000000000000000000000000000000000000000
00000000000000000000000000000000000000000000000000
00000000000000000000000000000000000000000000000000
00000000000000000000000000000000000000000000000000
00000000000000000000000000000000000000000000000000
00000000000000000000000000000000000000000000000000
00000000000000000000000000000011111000000000000000
00000000000000000000000000000111110000000000000000
00000000000000000000000000001111110000000000000000
00000000000000000000000000011111110000000000000000
00000000000000000000000000111111110000000000000000
00000000000000000000000001111111110000000000000000
00000000000000000000000011111111110000000000000000
00000000000000000000000111111111110000000000000000
00000000000000000000001111111111100000000000000000
00000000000000000000011111111111100000000000000000
00000000000000000000111111111111000000000000000000
00000000000000000001111111111111000000000000000000
00000000000000000011111011111111000000000000000000
00000000000000000111110011111111000000000000000000
00000000000000000111000011111111000000000000000000
00000000000000000110000011111111000000000000000000
00000000000000000000000111111111000000000000000000
00000000000000000000000111111111000000000000000000
00000000000000000000000111111111000000000000000000
00000000000000000000000111111111000000000000000000
00000000000000000000000111111110000000000000000000
00000000000000000000000111111110000000000000000000
00000000000000000000000111111110000000000000000000
00000000000000000000000111111110000000000000000000
00000000000000000000000111111110000000000000000000
00000000000000000000001111111110000000000000000000
00000000000000000000001111111110000000000000000000
00000000000000000000001111111110000000000000000000
00000000000000000000001111111110000000000000000000
00000000000000000000011111111100000000000000000000
00000000000000000000011111111100000000000000000000
00000000000000000000011111111000000000000000000000
00000000000000000000011111111000011100000000000000
00000000000000000000011111111001111100000000000000
00000000000000000000011111111111111000000000000000
00000000000000000000111111111111110000000000000000
00000000000000000000111111111111100000000000000000
00000000000000000000111111111111000000000000000000
00000000000000000000111111111100000000000000000000
00000000000000000001111111100000000000000000000000
00000000000000000011111110000000000000000000000000
00000000000000000111111100000000000000000000000000
00000000000000001111111000000000000000000000000000
00000000000000111111100000000000000000000000000000
00000000000001111110000000000000000000000000000000
00000000000001111000000000000000000000000000000000
00000000000001100000000000000000000000000000000000
00000000000000000000000000000000000000000000000000
00000000000000000000000000000000000000000000000000
00000000000000000000000000000000000000000000000000
00000000000000000000000000000000000000000000000000
00000000000000000000000000000000000000000000000000
00000000000000000000000000000000000000000000000000
00000000000000000000000000000000000000000000000000
00000000000000000000000000000000000000000000000000
00000000000000000000000000000000000000000000000000
00000000000000000000000000000000000000000000000000
