P1
50 70
00000000000000000000000000000000000000000000000000
00000000000000000000000000000000000000000000000000
00000000000000000000000000000000000000000000000000
00000000000000000000000000000000000000000000000000
00000000000000000000000000000000000000000000000000
00000000000000000000000000000000000000000000000000
00000000000000000000000000000000000000000000000000
00000000000000000000000000000000000000000000000000
00000000000000000000000000000000000000000000000000
00000000000000000000000000000000000000000000000000
00000000000000000000000000000000000000000000000000
00000000000000000000000000000000000000000000000000
00000000000000000000000000000000000000000000000000
00000000000000000000000000000000000000000000000000
00000000000000000000000000000000000000000000000000
00000000000000000000000000000000000000000000000000
00000000000000000000000000000000000000000000000000
00000000000000000000000000000000000000000000000000
00000000000000000000000000000000000000000000000000
00000000000000000000000000000000000000000000000000
00000000000000000000000000000000000000000000000000
00000000000000000011000000000000000000000000000000
00000000000000000111100000000000000000000000000000
00000000000000001111100000000000000000000000000000
00000000000000011111100000000000000000000000000000
00000000000000111111110000000000000000000000000000
00000000000001111111110000000000000000000000000000
00000000000011111011110000000000000000000000000000
00000000000011110011111000000000000000000000000000
00000000000111100011111000000000000000000000000000
00000000011111000001111000000000000000000000000000
00000000011111000001111000000000000000000000000000
00000000111100000000111100000000000000000000000000
00000000111000000000111100000000000000000000000000
00000000110000000000111100000000000000000000000000
00000000000000000000111100000000000000000000000000
00000000000000000000011100000000000000000000000000
00000000000000000000011110000000000000000000000000
00000000000000000000011110000000000000000000000000
00000000000000000000011111000000000000000000000000
00000000000000000000011111000000000000000000000000
00000000000000000000011111000000000000000000000000
00000000000000000000001111000000000000000000000000
00000000000000000000001111100000000000000000000000
00000000000000000000001111100000000000000000000000
00000000000000000000000111100000000000000000000000
00000000000000000000000111100000000000000000000000
00000000000000000000000111100000000000000000000000
00000000000000000000000011110000000000000000000000
00000000000000000000000011110000000000000000000000
00000000000000000000000011111000000000000000000000
00000000000000000000000011111000000000000000000000
00000000000000000000000001111000000000000000000000
00000000000000000000000001111100000000000000000000
00000000000000000000000001111100000000000000000000
00000000000000000000000001111100000001111000000000
00000000000000000000000001111100000011111100000000
00000000000000000000000000111110111111111100000000
00000000000000000000000000111111111111111000000000
00000000000000000000000000111111111110000000000000
00000000000000000000000111111111111000000000000000
00000000000000000000011111111110000000000000000000
00000000000000000111111111110000000000000000000000
00000000000000001111111111000000000000000000000000
00000000000000001111000000000000000000000000000000
00000000000000000100000000000000000000000000000000
00000000000000000000000000000000000000000000000000
00000000000000000000000000000000000000000000000000
00000000000000000000000000000000000000000000000000
00000000000000000000000000000000000000000000000000
