P1
50 70
00000000000000000000000000000000000000000000000000
00000000000000000000000000000000000000000000000000
00000000000000000000000000000000000000000000000000
00000000000000000000000000000000000000000000000000
00000000000000000000000000000000000000000000000000
00000000000000000000000000000000000000000000000000
00000000000000000000000000000000000000000000000000
00000000000000000000000000000000000000000000000000
00000000000000000000000000000000000000000000000000
00000000000000000000000000000000000000000000000000
00000000000000000000000000000000000000000000000000
00000000000000000000000000000000000000000000000000
00000000000000000000110000000000000000000000000000
00000000000000001111111000000000000000000000000000
00000000000011111111111000000000000000000000000000
00000000000111111111111100000000000000000000000000
00000000011111111111111100000000000000000000000000
00000011111111111111111100000000000000000000000000
00000111111111111111111110000000000000000000000000
00000111111111111111111110000000000000000000000000
00000111111111100111111110000000000000000000000000
00000111111110000011111110000000000000000000000000
00000111111000000011111110000000000000000000000000
00000011100000000001111111000000000000000000000000
00000000000000000001111111000000000000000000000000
00000000000000000001111111000000000000000000000000
00000000000000000001111111100000000000000000000000
00000000000000000001111111100000000000000000000000
00000000000000000000111111110000000000000000000000
00000000000000000000011111110000000000000000000000
00000000000000000000011111110000000000000000000000
00000000000000000000011111110000000000000000000000
00000000000000000000011111110000000000000000000000
00000000000000000000001111111000000000000000000000
00000000000000000000001111111000000000000000000000
00000000000000000000001111111000000000000000000000
00000000000000000000000111111000000000000000000000
00000000000000000000000111111000000000000000000000
00000000000000000000000011111100000000000000000000
00000000000000000000000011111110000000000000000000
00000000000000000000000011111110000000000000000000
00000000000000000000000011111110000000000000000000
00000000000000000000000011111110000000000000000000
00000000000000000000000001111111000000000000000000
00000000000000000000000001111111000000000000000000
00000000000000000000000000111111000000000000000000
00000000000000000000000000111111000000000000000000
00000000000000000000000000111111000000000000000000
00000000000000000000000000011111100000000000000000
00000000000000000000000000011111100000000000000000
00000000000000000000000000011111100000000000000000
00000000000000000000000000011111100000000000000000
00000000000000000000000000011111100000000000000000
00000000000000000000000000001111110000000000000000
00000000000000000000110001011111111000000000000000
00000000000000000000111111111111111111000000000000
00000000000000000000111111111111111111111110000000
00000000000000000000111111111111111111111110000000
00000000000000000000111111111111111111111110000000
00000000000000000000011111111111111111111110000000
00000000000000000000001110111111111111111111000000
00000000000000000000000000000000011011111111000000
00000000000000000000000000000000000000000000000000
00000000000000000000000000000000000000000000000000
00000000000000000000000000000000000000000000000000
00000000000000000000000000000000000000000000000000
00000000000000000000000000000000000000000000000000
00000000000000000000000000000000000000000000000000
00000000000000000000000000000000000000000000000000
00000000000000000000000000000000000000000000000000
