P1
50 70
00000000000000000000000000000000000000000000000000
00000000000000000000000000000000000000000000000000
00000000000000000000000000000000000000000000000000
00000000000000000000000000000000000000000000000000
00000000000000000000000000000000000000000000000000
00000000000000000000000000000000000000000000000000
00000000000000000000000000000000000000000000000000
00000000000000000000000000000000000000000000000000
00000000000000000000000000000000000000000000000000
00000000000000000000000000000000000000000000000000
00000000000000000000000000000000000000000000000000
00000000000000000000000000000000000000000000000000
00000000000000000000000000000000000000000000000000
00000000000000000000000000000000000000000000000000
00000000000000000000000000000000000000000000000000
00000000000000000000000000000000000000000000000000
00000000000000000000000000000000000000000000000000
00000000000000000000000000000000000000000000000000
00000000000000000000000000000000000000000000000000
00000000000000000000000000000000000000000000000000
00000000000000000000000000000000000000000000000000
00000000000000000000000000000000001011111000000000
00000000000000000000000000000000111111111000000000
00000000000000000000000000000001111111111000000000
00000000000000000000000000000111111111111000000000
00000000000000000000000000001111111111111000000000
00000000000000000000000000111111111111110000000000
00000000000000000000000001111111111111110000000000
00000000000000000000000111111111111111110000000000
00000000000000000000001111111111111111110000000000
00000000000000000000011111111011111111110000000000
00000000000000000000011111110011111111100000000000
00000000000000000000111111000011111111000000000000
00000000000000000000111100000011111111000000000000
00000000000000000000110000000011111111000000000000
00000000000000000000000000000111111111000000000000
00000000000000000000000000001111111110000000000000
00000000000000000000000000001111111110000000000000
00000000000000000000000000001111111110000000000000
00000000000000000000000000001111111110000000000000
00000000000000000000000000011111111100000000000000
00000000000000000000000000111111111100000000000000
00000000000000000000000000111111111100000000000000
00000000000000000000000000111111111000000000000000
00000000000000000000000000111111111000000000000000
00000000000000000000000001111111110000000000000000
00000000000000000000000001111111110000000000000000
00000000000000000000000011111111110000000000000000
00000000000000000000000011111111110000000000000000
00000000000000000000000011111111110000000000000000
00000000000000000000000111111111100000000000000000
00000000000000000000000111111111101111111100000000
00000000000000000000001111111111111111111100000000
00000000000000000001111111111111111111111100000000
00000000000111111111111111111111111111111100000000
00000000011111111111111111111111111111111100000000
00000000011111111111111111111111111111111000000000
00000000011111111111111111111111111000000000000000
00000000111111111111111111010000000000000000000000
00000000111111111110000000000000000000000000000000
00000000010000000000000000000000000000000000000000
00000000000000000000000000000000000000000000000000
00000000000000000000000000000000000000000000000000
00000000000000000000000000000000000000000000000000
00000000000000000000000000000000000000000000000000
00000000000000000000000000000000000000000000000000
00000000000000000000000000000000000000000000000000
00000000000000000000000000000000000000000000000000
00000000000000000000000000000000000000000000000000
00000000000000000000000000000000000000000000000000
