P1
50 70
00000000000000000000000000000000000000000000000000
00000000000000000000000000000000000000000000000000
00000000000000000000000000000000000000000000000000
00000000000000000000000000000000000000000000000000
00000000000000000000000000000000000000000000000000
00000000000000000000000000000000000000000000000000
00000000000000000000000000000000000000000000000000
00000000000000000000000000000000000000000000000000
00000000000000000000000000000000000000000000000000
00000000000000000000000000000000000000000000000000
00000000000000000000000000000000000000000000000000
00000000000000000000000000000000000000000000000000
00000000000000000000000000000000000000000000000000
00000000000000000000000000000000000000000000000000
00000000000000000000000000000000000000000000000000
00000000000000000000000000000000000000000000000000
00000000000000000000000000000000000000000000000000
00000000000000000000000000000000000000000000000000
00000000000000000000000000000000000000000000000000
00000000000000000000000000000000000000000000000000
00000000000000000000000110000000000000000000000000
00000000000000000000011111000000000000000000000000
00000000000000000000111111000000000000000000000000
00000000000000000001111111000000000000000000000000
00000000000000000001111111000000000000000000000000
00000000000000000011111111000000000000000000000000
00000000000000000111111111000000000000000000000000
00000000000000001111111111000000000000000000000000
00000000000000011111111111000000000000000000000000
00000000000000111110011111100000000000000000000000
00000000000011111110011111100000000000000000000000
00000000000111111100011111110000000000000000000000
00000000011111110000011111110000000000000000000000
00000000011111100000011111110000000000000000000000
00000000011111000000011111110000000000000000000000
00000000011110000000011111110000000000000000000000
00000000011000000000001111110000000000000000000000
00000000000000000000001111111000000000000000000000
00000000000000000000001111111000000000000000000000
00000000000000000000001111111000000000000000000000
00000000000000000000001111111000000000000000000000
00000000000000000000001111111000000000110000000000
00000000000000000000001111111000000011110000000000
00000000000000000000001111111000000111110000000000
00000000000000000000000111111000011111110000000000
00000000000000000000000111111101111111110000000000
00000000000000000000000111111111111111100000000000
00000000000000000000000011111111111100000000000000
00000000000000000000000011111111110000000000000000
00000000000000000000000111111111100000000000000000
00000000000000000000111111111110000000000000000000
00000000000000000001111111110000000000000000000000
00000000000000000011111111000000000000000000000000
00000000000000001111111110000000000000000000000000
00000000000001111111111000000000000000000000000000
00000000000111111111100000000000000000000000000000
00000000000111111110000000000000000000000000000000
00000000000111111000000000000000000000000000000000
00000000000011100000000000000000000000000000000000
00000000000010000000000000000000000000000000000000
00000000000000000000000000000000000000000000000000
00000000000000000000000000000000000000000000000000
00000000000000000000000000000000000000000000000000
00000000000000000000000000000000000000000000000000
00000000000000000000000000000000000000000000000000
00000000000000000000000000000000000000000000000000
00000000000000000000000000000000000000000000000000
00000000000000000000000000000000000000000000000000
00000000000000000000000000000000000000000000000000
00000000000000000000000000000000000000000000000000
