P1
50 70
00000000000000000000000000000000000000000000000000
00000000000000000000000000000000000000000000000000
00000000000000000000000000000000000000000000000000
00000000000000000000000000000000000000000000000000
00000000000000000000000000000000000000000000000000
00000000000000000000000000000000000000000000000000
00000000000000000000000000000000000000000000000000
00000000000000000000000000000000000000000000000000
00000000000000000000000000000000000000000000000000
00000000000000000000000000000000000000000000000000
00000000000000000000000000000000000000000000000000
00000000000000000000000000000000000000000000000000
00000000000000000000000000000000000000000000000000
00000000000000000000000000000000000000000000000000
00000000000000000000000000000000000000000000000000
00000000000000000000000000011000000000000000000000
00000000000000000000000111111000000000000000000000
00000000000000000000001111111000000000000000000000
00000000000000000000011111111000000000000000000000
00000000000000000000111111111000000000000000000000
00000000000000000001111111111000000000000000000000
00000000000000000011111111111000000000000000000000
00000000000000000111111111111000000000000000000000
00000000000000001111111111111000000000000000000000
00000000000000011111111111111000000000000000000000
00000000000000011111111111111000000000000000000000
00000000000000011111101111111000000000000000000000
00000000000000011111001111111000000000000000000000
00000000000000011110001111111000000000000000000000
00000000000000011100001111111000000000000000000000
00000000000000011000001111111000000000000000000000
00000000000000000000001111111000000000000000000000
00000000000000000000000111111000000000000000000000
00000000000000000000000111111000000000000000000000
00000000000000000000000111111000000000000000000000
00000000000000000000001111111000000000000000000000
00000000000000000000001111111000000000000000000000
00000000000000000000001111111000000000000000000000
00000000000000000000001111111000000000000000000000
00000000000000000000001111111000000000000000000000
00000000000000000000001111111000000000000000000000
00000000000000000000001111111000000000000000000000
00000000000000000000001111111100000000000000000000
00000000000000000000001111111100000000000000000000
00000000000000000000001111111100000000000000000000
00000000000000000000001111111100000000000000000000
00000000000000000000001111111100000000000000000000
00000000000000000000001111111100001111000000000000
00000000000000000000001111111111111111000000000000
00000000000000000000001111111111111111000000000000
00000000000000000000001111111111111111000000000000
00000000000000000000011111111111111111000000000000
00000000000000000001111111111111111111000000000000
00000000000000001111111111111111111100000000000000
00000000000001111111111111111111100000000000000000
00000000000001111111111111111100000000000000000000
00000000000001111111111111000000000000000000000000
00000000000001111111111000000000000000000000000000
00000000000011111111100000000000000000000000000000
00000000000011111100000000000000000000000000000000
00000000000011110000000000000000000000000000000000
00000000000000000000000000000000000000000000000000
00000000000000000000000000000000000000000000000000
00000000000000000000000000000000000000000000000000
00000000000000000000000000000000000000000000000000
00000000000000000000000000000000000000000000000000
00000000000000000000000000000000000000000000000000
00000000000000000000000000000000000000000000000000
00000000000000000000000000000000000000000000000000
00000000000000000000000000000000000000000000000000
