P1
50 70
00000000000000000000000000000000000000000000000000
00000000000000000000000000000000000000000000000000
00000000000000000000000000000000000000000000000000
00000000000000000000000000000000000000000000000000
00000000000000000000000000000000000000000000000000
00000000000000000000000000000000000000000000000000
00000000000000000000000000000000000000000000000000
00000000000000000000000000000000000000000000000000
00000000000000000000000000000000000000000000000000
00000000000000000000000000100000000000000000000000
00000000000000000000011111100000000000000000000000
00000000000000001111111111100000000000000000000000
00000000000000111111111111110000000000000000000000
00000000000011111111111111110000000000000000000000
00000000001111111111111111110000000000000000000000
00000000011111111111111111110000000000000000000000
00000000111111111111111111110000000000000000000000
00000000111111111111111111110000000000000000000000
00000000011111111111111111110000000000000000000000
00000000011111111111111111110000000000000000000000
00000000011111111111111111110000000000000000000000
00000000011111110001111111111000000000000000000000
00000000001111000001111111111000000000000000000000
00000000001110000001111111111000000000000000000000
00000000001100000001111111111000000000000000000000
00000000000000000001111111111000000000000000000000
00000000000000000000111111111100000000000000000000
00000000000000000000111111111100000000000000000000
00000000000000000000111111111100000000000000000000
00000000000000000000111111111000000000000000000000
00000000000000000000111111111000000000000000000000
00000000000000000000011111111100000000000000000000
00000000000000000000011111111100000000000000000000
00000000000000000000111111111100000000000000000000
00000000000000000000111111111100000000000000000000
00000000000000000000111111111110000000000000000000
00000000000000000000011111111110000000000000000000
00000000000000000000011111111110000000000000000000
00000000000000000000011111111110000000000000000000
00000000000000000000011111111110000000110000000000
00000000000000000000001111111110000001111000000000
00000000000000000000001111111110001111111000000000
00000000000000000000001111111110111111111000000000
00000000000000000000001111111111111111110000000000
00000000000000000000001111111111111111111000000000
00000000000000000000001111111111111111111000000000
00000000000000000000001111111111111111110000000000
00000000000000000000001111111111111111100000000000
00000000000000000000001111111111111110000000000000
00000000000000000000111111111111111100000000000000
00000000000000000001111111111111111000000000000000
00000000000000000011111111111111000000000000000000
00000000000000001111111111111110000000000000000000
00000000000000011111111111111100000000000000000000
00000000000000111111111111110000000000000000000000
00000000000000111111111111100000000000000000000000
00000000000000111111111111000000000000000000000000
00000000000000111111111100000000000000000000000000
00000000000000011111111000000000000000000000000000
00000000000000011111110000000000000000000000000000
00000000000000011111000000000000000000000000000000
00000000000000011110000000000000000000000000000000
00000000000000011100000000000000000000000000000000
00000000000000001000000000000000000000000000000000
00000000000000000000000000000000000000000000000000
00000000000000000000000000000000000000000000000000
00000000000000000000000000000000000000000000000000
00000000000000000000000000000000000000000000000000
00000000000000000000000000000000000000000000000000
00000000000000000000000000000000000000000000000000
