P1
50 70
00000000000000000000000000000000000000000000000000
00000000000000000000000000000000000000000000000000
00000000000000000000000000000000000000000000000000
00000000000000000000000000000000000000000000000000
00000000000000000000000000000000000000000000000000
00000000000000000000000000000000000000000000000000
00000000000000000000000000000000000000000000000000
00000000000000000000000000000000000000000000000000
00000000000000000000000000000000000000000000000000
00000000000000000000000000000000000000000000000000
00000000000000000000000000000000000000000000000000
00000000000000000000000000000000000000000000000000
00000000000000000000000000000000000000000000000000
00000000000000000000000000000000000000000000000000
00000000000000000000000000000000000000000000000000
00000000000000000000000000000000000000000000000000
00000000000000000000000000000000000000000000000000
00000000000000000000000000000000000000000000000000
00000000000000000000000000000000000000000000000000
00000000000000000000000000000000000000000000000000
00000000000000000000000000000000000000000000000000
00000000000000000000000000000000000000000000000000
00000000000000000000000000000000000000000000000000
00000000000000000011111000000000000000000000000000
00000000000000000111111100000000000000000000000000
00000000000000011111111100000000000000000000000000
00000000000000111111111100000000000000000000000000
00000000000011111111111100000000000000000000000000
00000000000011111100111100000000000000000000000000
00000000000111111000111100000000000000000000000000
00000000000111100000111110000000000000000000000000
00000000000001000000111110000000000000000000000000
00000000000000000000111100000000000000000000000000
00000000000000000000011110000000000000000000000000
00000000000000000000011110000000000000000000000000
00000000000000000000011110000000000000000000000000
00000000000000000000011110000000000000000000000000
00000000000000000000011110000000000000000000000000
00000000000000000000011110000000000000000000000000
00000000000000000000001110000000000000000000000000
00000000000000000000001110000000000000000000000000
00000000000000000000001111000000000000000000000000
00000000000000000000001111000000000000000000000000
00000000000000000000001111000000000000000000000000
00000000000000000000001111000000000000000000000000
00000000000000000000001111000000000000000000000000
00000000000000000000000111000000000000000000000000
00000000000000000000000111100000000000000000000000
00000000000000000000000111100000000000000000000000
00000000000000000000000111100000000000000000000000
00000000000000000000000111100000000000000000000000
00000000000000000000000111100000000000000000000000
00000000000011011001101111110001100111000000000000
00000000000011111111111111111111111111100000000000
00000000000011111111111111111111111111000000000000
00000000000001111111111111111101110000000000000000
00000000000000000000000000000000000000000000000000
00000000000000000000000000000000000000000000000000
00000000000000000000000000000000000000000000000000
00000000000000000000000000000000000000000000000000
00000000000000000000000000000000000000000000000000
00000000000000000000000000000000000000000000000000
00000000000000000000000000000000000000000000000000
00000000000000000000000000000000000000000000000000
00000000000000000000000000000000000000000000000000
00000000000000000000000000000000000000000000000000
00000000000000000000000000000000000000000000000000
00000000000000000000000000000000000000000000000000
00000000000000000000000000000000000000000000000000
00000000000000000000000000000000000000000000000000
