P1
50 70
00000000000000000000000000000000000000000000000000
00000000000000000000000000000000000000000000000000
00000000000000000000000000000000000000000000000000
00000000000000000000000000000000000000000000000000
00000000000000000000000000000000000000000000000000
00000000000000000000000000000000000000000000000000
00000000000000000000000000000000000000000000000000
00000000000000000000000000000000000000000000000000
00000000000000000000000000000000000000000000000000
00000000000000000000000000000000000000000000000000
00000000000000000000000000000000000000000000000000
00000000000000000000000000000000000000000000000000
00000000000000000000000000000000000000000000000000
00000000000000000000000000000000000000000000000000
00000000000000000000000000000000000000000000000000
00000000000000000000000000000000000000000000000000
00000000000000000000000000000000000000000000000000
00000000000000000000000000000000000000000000000000
00000000000000000000000000000000000000000000000000
00000000000000000000000000000000000000000000000000
00000000000000000001110000000000000000000000000000
00000000000000000011110000000000000000000000000000
00000000000000000011110000000000000000000000000000
00000000000000000111111000000000000000000000000000
00000000000000001111111000000000000000000000000000
00000000000000001111111000000000000000000000000000
00000000000000011111111000000000000000000000000000
00000000000000011111111100000000000000000000000000
00000000000000111101111110000000000000000000000000
00000000000000111001111110000000000000000000000000
00000000000001110001111110000000000000000000000000
00000000000011100000111111000000000000000000000000
00000000000011100000111111000000000000000000000000
00000000000011100000111111000000000000000000000000
00000000000011000000111111000000000000000000000000
00000000000000000000011111100000000000000000000000
00000000000000000000011111100000000000000000000000
00000000000000000000011111100000000000000000000000
00000000000000000000011111100000000000000000000000
00000000000000000000001111110000000000000000000000
00000000000000000000001111110000000000000000000000
00000000000000000000001111110000000000000000000000
00000000000000000000001111110000000000000000000000
00000000000000000000000111111000000000000000000000
00000000000000000000000111111000000000000000000000
00000000000000000000000111111000000000000000000000
00000000000000000000000111111000000000000000000000
00000000000000000000000011111100001111000000000000
00000000000000000000000011111100001111000000000000
00000000000000000000000011111100111110000000000000
00000000000000000000000011111111111100000000000000
00000000000000000000000001111111111000000000000000
00000000000000000000000001111111110000000000000000
00000000000000000000000001111111100000000000000000
00000000000000000000000001111110000000000000000000
00000000000000000000000001111100000000000000000000
00000000000000000000000011111000000000000000000000
00000000000000000000000111110000000000000000000000
00000000000000000000001111100000000000000000000000
00000000000000000000011111000000000000000000000000
00000000000000000001111110000000000000000000000000
00000000000000000001111000000000000000000000000000
00000000000000000001110000000000000000000000000000
00000000000000000000100000000000000000000000000000
00000000000000000000000000000000000000000000000000
00000000000000000000000000000000000000000000000000
00000000000000000000000000000000000000000000000000
00000000000000000000000000000000000000000000000000
00000000000000000000000000000000000000000000000000
00000000000000000000000000000000000000000000000000
