P1
50 70
00000000000000000000000000000000000000000000000000
00000000000000000000000000000000000000000000000000
00000000000000000000000000000000000000000000000000
00000000000000000000000000000000000000000000000000
00000000000000000000000000000000000000000000000000
00000000000000000000000000000000000000000000000000
00000000000000000000000000000000000000000000000000
00000000000000000000000000000000000000000000000000
00000000000000000000000000000000000000000000000000
00000000000000000000000000000000000000000000000000
00000000000000000000000000000000000000000000000000
00000000000000000000000000000000000000000000000000
00000000000000000000000000000000000000000000000000
00000000000000000000000000000000000000000000000000
00000000000000000000000000000000000000000000000000
00000000000000000000011110000000000000000000000000
00000000000000000000111110000000000000000000000000
00000000000000000011111110000000000000000000000000
00000000000000000011111110000000000000000000000000
00000000000000000111111110000000000000000000000000
00000000000000001111111110000000000000000000000000
00000000000000011111111110000000000000000000000000
00000000000000011111111111000000000000000000000000
00000000000000011111111111000000000000000000000000
00000000000000111111111111000000000000000000000000
00000000000001111111111111000000000000000000000000
00000000000001111111111111100000000000000000000000
00000000000011111111111111100000000000000000000000
00000000000011111001111111000000000000000000000000
00000000000011111001111111000000000000000000000000
00000000000011110000111111100000000000000000000000
00000000000011110000111111100000000000000000000000
00000000000011100000111111100000000000000000000000
00000000000011100000111111100000000000000000000000
00000000000001000000011111110000000000000000000000
00000000000000000000111111110000000000000000000000
00000000000000000000111111110000000000000000000000
00000000000000000000111111110000000000000000000000
00000000000000000000011111110000000000000000000000
00000000000000000000011111110000000000000000000000
00000000000000000000011111110000000000000000000000
00000000000000000000011111110000000000000000000000
00000000000000000000001111111000001100000000000000
00000000000000000000011111111000011100000000000000
00000000000000000000011111111001111100000000000000
00000000000000000000011111111111111110000000000000
00000000000000000000001111111111111100000000000000
00000000000000000000001111111111111100000000000000
00000000000000000000001111111111111100000000000000
00000000000000000000001111111111111000000000000000
00000000000000000000000111111111100000000000000000
00000000000000000000001111111111000000000000000000
00000000000000000000011111111100000000000000000000
00000000000000000000111111111000000000000000000000
00000000000000000001111111110000000000000000000000
00000000000000000011111111100000000000000000000000
00000000000000000111111111000000000000000000000000
00000000000000001111111110000000000000000000000000
00000000000000001111111000000000000000000000000000
00000000000000001111110000000000000000000000000000
00000000000000001111100000000000000000000000000000
00000000000000001111100000000000000000000000000000
00000000000000001110000000000000000000000000000000
00000000000000000100000000000000000000000000000000
00000000000000000000000000000000000000000000000000
00000000000000000000000000000000000000000000000000
00000000000000000000000000000000000000000000000000
00000000000000000000000000000000000000000000000000
00000000000000000000000000000000000000000000000000
00000000000000000000000000000000000000000000000000
