P1
50 70
00000000000000000000000000000000000000000000000000
00000000000000000000000000000000000000000000000000
00000000000000000000000000000000000000000000000000
00000000000000000000000000000000000000000000000000
00000000000000000000000000000000000000000000000000
00000000000000000000000000000000000000000000000000
00000000000000000000000000000000000000000000000000
00000000000000000000000000000000000000000000000000
00000000000000000000000000000000000000000000000000
00000000000000000000000000000000000000000000000000
00000000000000000000000000000000000000000000000000
00000000000000000000000000000000000000000000000000
00000000000000000000000000000000000000000000000000
00000000000000000000000000000000000000000000000000
00000000000000000000000001111111110000000000000000
00000000000000000000000011111111110000000000000000
00000000000000000000001111111111110000000000000000
00000000000000000011111111111111110000000000000000
00000000000000000111111111111111110000000000000000
00000000000000001111111111111111110000000000000000
00000000000000001111111111111111110000000000000000
00000000000000001111111111111111110000000000000000
00000000000000001111111111111111110000000000000000
00000000000000001111111111111111110000000000000000
00000000000000001111111111111111100000000000000000
00000000000000001111100011111111100000000000000000
00000000000000001110000011111111100000000000000000
00000000000000001100000011111111110000000000000000
00000000000000000000000011111111110000000000000000
00000000000000000000000011111111110000000000000000
00000000000000000000000111111111110000000000000000
00000000000000000000000111111111110000000000000000
00000000000000000000000111111111110000000000000000
00000000000000000000000111111111100000000000000000
00000000000000000000000111111111100000000000000000
00000000000000000000000111111111100000000000000000
00000000000000000000000111111111100000000000000000
00000000000000000000000111111111100000000000000000
00000000000000000000000111111111100000000000000000
00000000000000000000000111111111000000000000000000
00000000000000000000001111111111100000000000000000
00000000000000000000001111111111100000000000000000
00000000000000000000001111111111100000000000000000
00000000000000000000001111111111100000000000000000
00000000000000000000001111111111100000000000000000
00000000000000000000001111111111100000000000000000
00000000000000000000011111111111100000000000000000
00000000000000000000011111111111100000000000000000
00000000000000000000111111111111000000000000000000
00000000000000000000111111111111000000000000000000
00000000000000000000111111111111000000000000000000
00000000000000000000111111111111000000011000000000
00000000000000000000111111111111000001111100000000
00000000000000000000111111111111111111111100000000
00000000000000000001111111111111111111111100000000
00000000000000000011111111111111111111111100000000
00000000000011111111111111111111111111111100000000
00000000011111111111111111111111111111111100000000
00000000011111111111111111111111111111111100000000
00000000111111111111111111111111111111111100000000
00000000111111111111111111111111111111111100000000
00000000111111111111111111111111111110000000000000
00000000111111111111111111111111000000000000000000
00000001111111111111111000000000000000000000000000
00000001111111111111110000000000000000000000000000
00000001111100000000000000000000000000000000000000
00000000000000000000000000000000000000000000000000
00000000000000000000000000000000000000000000000000
00000000000000000000000000000000000000000000000000
00000000000000000000000000000000000000000000000000
