P1
50 70
00000000000000000000000000000000000000000000000000
00000000000000000000000000000000000000000000000000
00000000000000000000000000000000000000000000000000
00000000000000000000000000000000000000000000000000
00000000000000000000000000000000000000000000000000
00000000000000000000000000000000000000000000000000
00000000000000000000000000000000000000000000000000
00000000000000000000000000000000000000000000000000
00000000000000000000000000000000000000000000000000
00000000000000000000000000000000000000000000000000
00000000000000000000000000000000000000000000000000
00000000000000000000000000000000000000000000000000
00000000000000000000000000000000000000000000000000
00000000000000000000000000000000000000000000000000
00000000000000000000000000000000000000000000000000
00000000000000000000000000000000000000000000000000
00000000000000000000000000000000000000000000000000
00000000000000000000000000000000000000000000000000
00000000000000000000000000000000000000000000000000
00000000000000000000000000000000000000000000000000
00000000000000000000000011111100000000000000000000
00000000000000000000000111111100000000000000000000
00000000000000000000001111111110000000000000000000
00000000000000000000011111111110000000000000000000
00000000000000000001111111111110000000000000000000
00000000000000000011111111111100000000000000000000
00000000000000000111111111111100000000000000000000
00000000000000001111111111111100000000000000000000
00000000000000011111111111111100000000000000000000
00000000000000011111111111111100000000000000000000
00000000000000011111000111111100000000000000000000
00000000000000011110000111111100000000000000000000
00000000000000011100000111111000000000000000000000
00000000000000011000001111111100000000000000000000
00000000000000000000001111111100000000000000000000
00000000000000000000001111111100000000000000000000
00000000000000000000001111111100000000000000000000
00000000000000000000001111111100000000000000000000
00000000000000000000001111111100000000000000000000
00000000000000000000011111111000000000000000000000
00000000000000000000011111111000000000000000000000
00000000000000000000011111111000000000000000000000
00000000000000000000001111111000000000000000000000
00000000000000000000001111111000000000000000000000
00000000000000000000001111111000000000000000000000
00000000000000000000001111111000000000000000000000
00000000000000000000011111111000000000000000000000
00000000000000000000011111111000000000000000000000
00000000000000000000011111111000000000000000000000
00000000000000000000011111111000000000000000000000
00000000000000000000011111111111011100000000000000
00000000000000000000011111111111111110000000000000
00000000000000000000111111111111111110000000000000
00000000000000011111111111111111111100000000000000
00000000000001111111111111111111111110000000000000
00000000000001111111111111111111111110000000000000
00000000000001111111111111111111111000000000000000
00000000000001111111111111111000000000000000000000
00000000000001111111111100000000000000000000000000
00000000000011111001000000000000000000000000000000
00000000000000000000000000000000000000000000000000
00000000000000000000000000000000000000000000000000
00000000000000000000000000000000000000000000000000
00000000000000000000000000000000000000000000000000
00000000000000000000000000000000000000000000000000
00000000000000000000000000000000000000000000000000
00000000000000000000000000000000000000000000000000
00000000000000000000000000000000000000000000000000
00000000000000000000000000000000000000000000000000
00000000000000000000000000000000000000000000000000
