P1
50 70
00000000000000000000000000000000000000000000000000
00000000000000000000000000000000000000000000000000
00000000000000000000000000000000000000000000000000
00000000000000000000000000000000000000000000000000
00000000000000000000000000000000000000000000000000
00000000000000000000000000000000000000000000000000
00000000000000000000000000000000000000000000000000
00000000000000000000000000000000000000000000000000
00000000000000000000000000000000000000000000000000
00000000000000000000000000000000000000000000000000
00000000000000000000000000000000000000000000000000
00000000000000000000000000000000000000000000000000
00000000000000000000000000000000000000000000000000
00000000000000000000000000000000000000000000000000
00000000000000000000000000000000000000000000000000
00000000000000000000000000000000000000000000000000
00000000000000000000000000000000000000000000000000
00000000000000000000000000000000000000000000000000
00000000000000000000000000000000000000000000000000
00000000000000000000000000000000000000000000000000
00000000000000000000000000000000000000000000000000
00000000000000000000000001000000000000000000000000
00000000000000000000000011100000000000000000000000
00000000000000000000001111100000000000000000000000
00000000000000000000011111100000000000000000000000
00000000000000000000111111100000000000000000000000
00000000000000000000111111100000000000000000000000
00000000000000000001111111100000000000000000000000
00000000000000000001111111100000000000000000000000
00000000000000000011111111000000000000000000000000
00000000000000000111111111100000000000000000000000
00000000000000000111111111100000000000000000000000
00000000000000001111001111100000000000000000000000
00000000000000011111001111100000000000000000000000
00000000000000011110001111100000000000000000000000
00000000000000011100001111100000000000000000000000
00000000000000011100001111100000000000000000000000
00000000000000001000001111100000000000000000000000
00000000000000000000001111100000000000000000000000
00000000000000000000001111110000000000000000000000
00000000000000000000001111110000000000000000000000
00000000000000000000001111100000000000000000000000
00000000000000000000001111100000000000000000000000
00000000000000000000001111100000000000000000000000
00000000000000000000001111100000000000000000000000
00000000000000000000001111100000000000000000000000
00000000000000000000001111100000000000000000000000
00000000000000000000000111100000000000000000000000
00000000000000000000000111110000000000000000000000
00000000000000000000000111110000000000000000000000
00000000000000000000000111110000000000000000000000
00000000000000000000000111110000000000000000000000
00000000000000000000000111110000000000000000000000
00000000000000000000000111110000000000000000000000
00000000000000000000000111100000000000000000000000
00000000000000000000000111100001110000000000000000
00000000000000000000001111111111111000000000000000
00000000000000000011111111111111111000000000000000
00000000000000001111111111111111110000000000000000
00000000000000001111111111111111110000000000000000
00000000000000001111111111111110000000000000000000
00000000000000000111110000000000000000000000000000
00000000000000000000000000000000000000000000000000
00000000000000000000000000000000000000000000000000
00000000000000000000000000000000000000000000000000
00000000000000000000000000000000000000000000000000
00000000000000000000000000000000000000000000000000
00000000000000000000000000000000000000000000000000
00000000000000000000000000000000000000000000000000
00000000000000000000000000000000000000000000000000
