P1
50 70
00000000000000000000000000000000000000000000000000
00000000000000000000000000000000000000000000000000
00000000000000000000000000000000000000000000000000
00000000000000000000000000000000000000000000000000
00000000000000000000000000000000000000000000000000
00000000000000000000000000000000000000000000000000
00000000000000000000000000000000000000000000000000
00000000000000000000000000000000000000000000000000
00000000000000000000000000000000000000000000000000
00000000000000000000000000000000000000000000000000
00000000000000000000000000000000000000000000000000
00000000000000000000000000000000000000000000000000
00000000000000000000000000000000000000000000000000
00000000000000000000000000000000000000000000000000
00000000000000001111110000000000000000000000000000
00000000000000001111111111100000000000000000000000
00000000000000001111111111110000000000000000000000
00000000000000011111111111111110000000000000000000
00000000000000111111111111111111110000000000000000
00000000000000111111111111111111111000000000000000
00000000000000111111111111111111111111000000000000
00000000000000111111111111111111111111000000000000
00000000000000111111111111111111111111000000000000
00000000000000011111111111111111111111000000000000
00000000000000000000001111111111111111000000000000
00000000000000000000000001111111111110000000000000
00000000000000000000000001111111111110000000000000
00000000000000000000000011111111111110000000000000
00000000000000000000000011111111111110000000000000
00000000000000000000000011111111111110000000000000
00000000000000000000000011111111111110000000000000
00000000000000000000000011111111111110000000000000
00000000000000000000000111111111111100000000000000
00000000000000000000000111111111111100000000000000
00000000000000000000000111111111111100000000000000
00000000000000000000000111111111111100000000000000
00000000000000000000000111111111111100000000000000
00000000000000000000000111111111111100000000000000
00000000000000000000000111111111111100000000000000
00000000000000000000001111111111111000000000000000
00000000000000000000001111111111111000000000000000
00000000000000000000001111111111111000000000000000
00000000000000000000001111111111111000000000000000
00000000000000000000011111111111111000000000000000
00000000000000000000011111111111111000000000000000
00000000000000000000111111111111110000000000000000
00000000000000000000111111111111110000000000000000
00000000000000000000111111111111110000000000000000
00000000000000000000111111111111110000000000000000
00000000000000000000111111111111110000000000000000
00000000000000000000111111111111110000000000000000
00000000000000000000111111111111100000000000000000
00000000111100111111111111111111110000000000000000
00000001111111111111111111111111111111100001000000
00000001111111111111111111111111111111111111000000
00000001111111111111111111111111111111111111000000
00000001111111111111111111111111111111111111000000
00000011111111111111111111111111111111111110000000
00000111111111111111111111111111111111111110000000
00000111111111111111111111111111111111111110000000
00000111111111111111111111111111111111111110000000
00000111111111111101111000110000000000000000000000
00000111110000000000000000000000000000000000000000
00000000000000000000000000000000000000000000000000
00000000000000000000000000000000000000000000000000
00000000000000000000000000000000000000000000000000
00000000000000000000000000000000000000000000000000
00000000000000000000000000000000000000000000000000
00000000000000000000000000000000000000000000000000
00000000000000000000000000000000000000000000000000
