P1
50 70
00000000000000000000000000000000000000000000000000
00000000000000000000000000000000000000000000000000
00000000000000000000000000000000000000000000000000
00000000000000000000000000000000000000000000000000
00000000000000000000000000000000000000000000000000
00000000000000000000000000000000000000000000000000
00000000000000000000000000000000000000000000000000
00000000000000000000000000000000000000000000000000
00000000000000000000000000000000000000000000000000
00000000000000000000000000000000000000000000000000
00000000000000000000000000000000000000000000000000
00000000000000000000000000000000000000000000000000
00000000000000000000000000000000000000000000000000
00000000000000000000000000000000000000000000000000
00000000000000000000000000000000000000000000000000
00000000000000000000011110000000000000000000000000
00000000000000000000111111000000000000000000000000
00000000000000000001111111000000000000000000000000
00000000000000000011111111000000000000000000000000
00000000000000000111111111100000000000000000000000
00000000000000001111111111100000000000000000000000
00000000000000011111111111100000000000000000000000
00000000000000011111111111100000000000000000000000
00000000000000011111111111100000000000000000000000
00000000000000011111111111100000000000000000000000
00000000000000011110011111100000000000000000000000
00000000000000011100011111100000000000000000000000
00000000000000000000011111100000000000000000000000
00000000000000000000011111100000000000000000000000
00000000000000000000011111100000000000000000000000
00000000000000000000011111100000000000000000000000
00000000000000000000011111100000000000000000000000
00000000000000000000011111100000000000000000000000
00000000000000000000011111100000000000000000000000
00000000000000000000001111100000000000000000000000
00000000000000000000001111100000000000000000000000
00000000000000000000001111100000000000000000000000
00000000000000000000001111100000000000000000000000
00000000000000000000001111100000000000000000000000
00000000000000000000001111110000000000000000000000
00000000000000000000001111110000000000000000000000
00000000000000000000001111110000000000000000000000
00000000000000000000001111110000000000000000000000
00000000000000000000001111110000000000000000000000
00000000000000000000001111110000000000000000000000
00000000000000000000011111110000000000000000000000
00000000000000000000011111110000000000000000000000
00000000000000111000111111110000000000000000000000
00000000000000111111111111111000000000000000000000
00000000000001111111111111111100000000000000000000
00000000000001111111111111111111111000000000000000
00000000000001111111111111111111111100000000000000
00000000000001111111111111111111111100000000000000
00000000000000111111111111111111111100000000000000
00000000000000000011111111111111111100000000000000
00000000000000000000000011111111111110000000000000
00000000000000000000000000001111111110000000000000
00000000000000000000000000000001111110000000000000
00000000000000000000000000000000001110000000000000
00000000000000000000000000000000000000000000000000
00000000000000000000000000000000000000000000000000
00000000000000000000000000000000000000000000000000
00000000000000000000000000000000000000000000000000
00000000000000000000000000000000000000000000000000
00000000000000000000000000000000000000000000000000
00000000000000000000000000000000000000000000000000
00000000000000000000000000000000000000000000000000
00000000000000000000000000000000000000000000000000
00000000000000000000000000000000000000000000000000
00000000000000000000000000000000000000000000000000
