P1
50 70
00000000000000000000000000000000000000000000000000
00000000000000000000000000000000000000000000000000
00000000000000000000000000000000000000000000000000
00000000000000000000000000000000000000000000000000
00000000000000000000000000000000000000000000000000
00000000000000000000000000000000000000000000000000
00000000000000000000000000000000000000000000000000
00000000000000000000000000000000000000000000000000
00000000000000000000000000000000000000000000000000
00000000000000011111111000000000000000000000000000
00000000000001111111111111110000000000000000000000
00000000000111111111111111110000000000000000000000
00000000111111111111111111110000000000000000000000
00000001111111111111111111110000000000000000000000
00000001111111111111111111110000000000000000000000
00000001111111111111111111110000000000000000000000
00000001111111111111111111110000000000000000000000
00000001111111111111111111110000000000000000000000
00000001111111111111111111111000000000000000000000
00000001111111111111111111111000000000000000000000
00000001111111111111111111111000000000000000000000
00000001111110000111111111111000000000000000000000
00000000110000000111111111111000000000000000000000
00000000000000000011111111111000000000000000000000
00000000000000000011111111111000000000000000000000
00000000000000000011111111111000000000000000000000
00000000000000000011111111111000000000000000000000
00000000000000000011111111111100000000000000000000
00000000000000000011111111111100000000000000000000
00000000000000000011111111111100000000000000000000
00000000000000000011111111111100000000000000000000
00000000000000000011111111111100000000000000000000
00000000000000000011111111111100000000000000000000
00000000000000000011111111111100000000000000000000
00000000000000000011111111111100000000000000000000
00000000000000000001111111111100000000000000000000
00000000000000000001111111111100000000000000000000
00000000000000000001111111111100000000000000000000
00000000000000000001111111111100000000000000000000
00000000000000000011111111111100000000000000000000
00000000000000000011111111111100000000000000000000
00000000000000000011111111111100000000000000000000
00000000000000000011111111111100000000000000000000
00000000000000000011111111111100000000000000000000
00000000000000000011111111111110000000000000000000
00000000000000000001111111111110000000000000000000
00000000000000000001111111111110000111111000000000
00000000000000000001111111111111111111111000000000
00000000000000000001111111111111111111111100000000
00000000000000000001111111111111111111111100000000
00000000000000011111111111111111111111111100000000
00000000000111111111111111111111111111111100000000
00000000011111111111111111111111111111111100000000
00000000011111111111111111111111111111111100000000
00000000011111111111111111111111111111111000000000
00000000011111111111111111111111111110000000000000
00000000011111111111111111111111100000000000000000
00000000011111111111111111111000000000000000000000
00000000011111111111111000000000000000000000000000
00000000011111111111000000000000000000000000000000
00000000011111100000000000000000000000000000000000
00000000011100000000000000000000000000000000000000
00000000000000000000000000000000000000000000000000
00000000000000000000000000000000000000000000000000
00000000000000000000000000000000000000000000000000
00000000000000000000000000000000000000000000000000
00000000000000000000000000000000000000000000000000
00000000000000000000000000000000000000000000000000
00000000000000000000000000000000000000000000000000
00000000000000000000000000000000000000000000000000
