P1
50 70
00000000000000000000000000000000000000000000000000
00000000000000000000000000000000000000000000000000
00000000000000000000000000000000000000000000000000
00000000000000000000000000000000000000000000000000
00000000000000000000000000000000000000000000000000
00000000000000000000000000000000000000000000000000
00000000000000000000000000000000000000000000000000
00000000000000000000000000000000000000000000000000
00000000000000000000000000000000000000000000000000
00000000000000000000000000000000000000000000000000
00000000000000000000000000000000000000000000000000
00000000000000000000000000000000000000000000000000
00000000000000000000000000000000000000000000000000
00000000000000000000000000000000000000000000000000
00000000000000000000000000000000000000000000000000
00000000000000000000000000000000000000000000000000
00000000000000000000000000010011100000000000000000
00000000000000000000011111111111110000000000000000
00000000000000001111111111111111110000000000000000
00000000000000011111111111111111110000000000000000
00000000000000011111111111111111100000000000000000
00000000000000011111111111111111100000000000000000
00000000000000011111110001111111100000000000000000
00000000000000010000000000111111100000000000000000
00000000000000000000000000111111100000000000000000
00000000000000000000000001111111100000000000000000
00000000000000000000000001111111100000000000000000
00000000000000000000000001111111100000000000000000
00000000000000000000000001111111100000000000000000
00000000000000000000000001111111100000000000000000
00000000000000000000000001111111000000000000000000
00000000000000000000000001111111000000000000000000
00000000000000000000000001111111000000000000000000
00000000000000000000000001111111000000000000000000
00000000000000000000000011111110000000000000000000
00000000000000000000000011111110000000000000000000
00000000000000000000000011111110000000000000000000
00000000000000000000000011111110000000000000000000
00000000000000000000000011111110000000000000000000
00000000000000000000000111111100000000000000000000
00000000000000000000000111111100000000000000000000
00000000000000000000000111111110000000000000000000
00000000000000000000000011111110000000000000000000
00000000000000000000000111111100000000000000000000
00000000000000000000000111111100000000000000000000
00000000000000000000000111111100000000000000000000
00000000000000000000000111111100000000000000000000
00000000000000000000000111111100000000000000000000
00000000000000000000001111111000000000000000000000
00000000000000000000001111111000000000000000000000
00000000000000000000001111111000000000000000000000
00000000000000000000001111111000000000000000000000
00000000000000000000011111110000000000000000000000
00000000000000000000011111110000000000000000000000
00000000000000000000011111110000000000000000000000
00000000000000000000111111110000000000000000000000
00000000000011111111111111111011100110000000000000
00000000000011111111111111111111111110000000000000
00000000000011111111111111111111111110000000000000
00000000000011111111111111111111111110000000000000
00000000000011111111111111111111111110000000000000
00000000000000000000000011001111011100000000000000
00000000000000000000000000000000000000000000000000
00000000000000000000000000000000000000000000000000
00000000000000000000000000000000000000000000000000
00000000000000000000000000000000000000000000000000
00000000000000000000000000000000000000000000000000
00000000000000000000000000000000000000000000000000
00000000000000000000000000000000000000000000000000
00000000000000000000000000000000000000000000000000
