P1
50 70
00000000000000000000000000000000000000000000000000
00000000000000000000000000000000000000000000000000
00000000000000000000000000000000000000000000000000
00000000000000000000000000000000000000000000000000
00000000000000000000000000000000000000000000000000
00000000000000000000000000000000000000000000000000
00000000000000000000000000000000000000000000000000
00000000000000000000000000000000000000000000000000
00000000000000000000000000000000000000000000000000
00000000000000000000000000000000000000000000000000
00000000000000000000000000000000000000000000000000
00000000000000000000000000000001110000000000000000
00000000000000000000000000001111110000000000000000
00000000000000000000000000011111110000000000000000
00000000000000000000000111111111110000000000000000
00000000000000000000001111111111110000000000000000
00000000000000000000111111111111100000000000000000
00000000000000000011111111111111100000000000000000
00000000000000001111111111111111110000000000000000
00000000000000011111111111111111110000000000000000
00000000000000011111111111111111110000000000000000
00000000000000111111111111111111100000000000000000
00000000000000111111111111111111100000000000000000
00000000000000111111111111111111100000000000000000
00000000000000111111100111111111100000000000000000
00000000000000111100000111111111100000000000000000
00000000000000000000000111111111100000000000000000
00000000000000000000001111111111000000000000000000
00000000000000000000001111111111000000000000000000
00000000000000000000001111111111000000000000000000
00000000000000000000011111111111000000000000000000
00000000000000000000011111111111000000000000000000
00000000000000000000011111111111000000000000000000
00000000000000000000011111111111000000000000000000
00000000000000000000011111111111000000000000000000
00000000000000000000011111111111000000000000000000
00000000000000000000011111111111000000000000000000
00000000000000000000011111111111000000000000000000
00000000000000000000011111111111000000000000000000
00000000000000000000111111111110000000000000000000
00000000000000000000111111111100000000000000000000
00000000000000000000111111111110000000000000000000
00000000000000000000111111111100000000000000000000
00000000000000000001111111111100000000000000000000
00000000000001111011111111111110000000000000000000
00000000000111111111111111111111111011000000000000
00000000001111111111111111111111111111100000000000
00000000001111111111111111111111111111100000000000
00000000001111111111111111111111111111100000000000
00000000001111111111111111111111111111100000000000
00000000001111111111111111111111111111100000000000
00000000000000001110111111111111111111100000000000
00000000000000000000000000001111111111100000000000
00000000000000000000000000000000001111100000000000
00000000000000000000000000000000000000000000000000
00000000000000000000000000000000000000000000000000
00000000000000000000000000000000000000000000000000
00000000000000000000000000000000000000000000000000
00000000000000000000000000000000000000000000000000
00000000000000000000000000000000000000000000000000
00000000000000000000000000000000000000000000000000
00000000000000000000000000000000000000000000000000
00000000000000000000000000000000000000000000000000
00000000000000000000000000000000000000000000000000
00000000000000000000000000000000000000000000000000
00000000000000000000000000000000000000000000000000
00000000000000000000000000000000000000000000000000
00000000000000000000000000000000000000000000000000
00000000000000000000000000000000000000000000000000
00000000000000000000000000000000000000000000000000
