P1
50 70
00000000000000000000000000000000000000000000000000
00000000000000000000000000000000000000000000000000
00000000000000000000000000000000000000000000000000
00000000000000000000000000000000000000000000000000
00000000000000000000000000000000000000000000000000
00000000000000000000000000000000000000000000000000
00000000000000000000000000000000000000000000000000
00000000000000000000000000000000000000000000000000
00000000000000000000000000000000000000000000000000
00000000000000000000000000000000000000000000000000
00000000000000000000000000000000000000000000000000
00000000000000000000000000000000000000000000000000
00000000000000000000000000000000000000000000000000
00000000000000000000000011100000000000000000000000
00000000000000000000001111110000000000000000000000
00000000000000000001111111111000000000000000000000
00000000000000001111111111111000000000000000000000
00000000000000011111111111111000000000000000000000
00000000000001111111111111110000000000000000000000
00000000001111111111111111111000000000000000000000
00000000011111111111111111111000000000000000000000
00000000011111111111111111111000000000000000000000
00000001111111111111111111111000000000000000000000
00000011111111111111111111111000000000000000000000
00000111111111111111111111111000000000000000000000
00000111111111111111111111111100000000000000000000
00000111111111111111111111111100000000000000000000
00000111111111111111111111111100000000000000000000
00000111111111001111111111111000000000000000000000
00000111111110001111111111111000000000000000000000
00000111110000000111111111111100000000000000000000
00000011000000001111111111111100000000000000000000
00000000000000001111111111111100000000000000000000
00000000000000001111111111111000000000000000000000
00000000000000001111111111111100000000000000000000
00000000000000001111111111111100000000000000000000
00000000000000000111111111111100000000000000000000
00000000000000000111111111111100000000000000000000
00000000000000000111111111111100000000000000000000
00000000000000000111111111111100000000000000000000
00000000000000000111111111111100000000000000000000
00000000000000000111111111111100000000000000000000
00000000000000000111111111111100000000000000000000
00000000000000000111111111111100000000000000000000
00000000000000000111111111111100000000000000000000
00000000000000000111111111111100000000000000000000
00000000000000000111111111111110000000000000000000
00000000000000000111111111111110000000000000000000
00000000000000000111111111111110000000000000000000
00000000000000000111111111111110000000000000000000
00000000000000000111111111111110000000000000000000
00000000000000000111111111111110000000000000000000
00000000000000000111111111111110000000000000000000
00000000000000000111111111111110000000000000000000
00000000000000000111111111111111011111111110000000
00000000000000000111111111111111111111111111000000
00000000000000000111111111111111111111111111000000
00000001100001111111111111111111111111111111000000
00000011111111111111111111111111111111111111000000
00000111111111111111111111111111111111111111000000
00000111111111111111111111111111111111111111100000
00000111111111111111111111111111111111111111100000
00000111111111111111111111111111111111111111100000
00000111111111111111111111111111111111111111000000
00000111111111111111111111111111111111100000000000
00000111111111111111111000010000000000000000000000
00000011111110000000000000000000000000000000000000
00000000000000000000000000000000000000000000000000
00000000000000000000000000000000000000000000000000
00000000000000000000000000000000000000000000000000
