P1
50 70
00000000000000000000000000000000000000000000000000
00000000000000000000000000000000000000000000000000
00000000000000000000000000000000000000000000000000
00000000000000000000000000000000000000000000000000
00000000000000000000000000000000000000000000000000
00000000000000000000000000000000000000000000000000
00000000000000000000000000000000000000000000000000
00000000000000000000000000000000000000000000000000
00000000000000000000000000000000000000000000000000
00000000000000000000000000000000000000000000000000
00000000000000000000000000000000000000000000000000
00000000000000000000000000000000000000000000000000
00000000000000000000000000000000000000000000000000
00000000000000000000000000000000000000000000000000
00000000000000000000000000000000000000000000000000
00000000000000000000000000000000000000000000000000
00000000000000000000000000000000000000000000000000
00000000000000000000000000011000000000000000000000
00000000000000000000000001111100000000000000000000
00000000000000000000000011111100000000000000000000
00000000000000000000011111111100000000000000000000
00000000000000000000111111111100000000000000000000
00000000000000000001111111111100000000000000000000
00000000000000000011111111111100000000000000000000
00000000000000001111111111111100000000000000000000
00000000000000011111111111111100000000000000000000
00000000000000111111111111111100000000000000000000
00000000000000111111111111111000000000000000000000
00000000000000111111111111111100000000000000000000
00000000000000111111111111111100000000000000000000
00000000000000111110011111111100000000000000000000
00000000000000111100011111111100000000000000000000
00000000000001111000011111111000000000000000000000
00000000000000110000011111111100000000000000000000
00000000000000000000011111111100000000000000000000
00000000000000000000011111111100000000000000000000
00000000000000000000011111111000000000000000000000
00000000000000000000011111111000000000000000000000
00000000000000000000011111111000000000000000000000
00000000000000000000011111111000000000000000000000
00000000000000000000011111111000000000000000000000
00000000000000000000011111111000000000000000000000
00000000000000000000011111111000000000000000000000
00000000000000000000011111111000000100000000000000
00000000000000000000011111111000011110000000000000
00000000000000000000011111111000111100000000000000
00000000000000000000011111111111111100000000000000
00000000000000000000011111111111111100000000000000
00000000000000000000111111111111111100000000000000
00000000000000000000011111111111111110000000000000
00000000000000000000011111111111111100000000000000
00000000000000000000011111111111111100000000000000
00000000000000000000111111111111100000000000000000
00000000000000000011111111111111000000000000000000
00000000000000000111111111111110000000000000000000
00000000000000001111111111111000000000000000000000
00000000000000111111111111100000000000000000000000
00000000000001111111111111000000000000000000000000
00000000000001111111111100000000000000000000000000
00000000000001111111110000000000000000000000000000
00000000000001111111100000000000000000000000000000
00000000000000111111000000000000000000000000000000
00000000000001111100000000000000000000000000000000
00000000000001110000000000000000000000000000000000
00000000000000100000000000000000000000000000000000
00000000000000000000000000000000000000000000000000
00000000000000000000000000000000000000000000000000
00000000000000000000000000000000000000000000000000
00000000000000000000000000000000000000000000000000
00000000000000000000000000000000000000000000000000
