P1
50 70
00000000000000000000000000000000000000000000000000
00000000000000000000000000000000000000000000000000
00000000000000000000000000000000000000000000000000
00000000000000000000000000000000000000000000000000
00000000000000000000000000000000000000000000000000
00000000000000000000000000000000000000000000000000
00000000000000000000000000000000000000000000000000
00000000000000000000000000000000000000000000000000
00000000000000000000000000000000000000000000000000
00000000000000000000000000000000000000000000000000
00000000000000000000000000000000000000000000000000
00000000000000000000000000000000000000000000000000
00000000000000000000000000000000000000000000000000
00000000000000000000000000000000000000000000000000
00000000000000000000000000000000000000000000000000
00000000000000000000000000000000000000000000000000
00000000000000000000000000000000000000000000000000
00000000000000000000000000000000000000000000000000
00000000000000000000000000000000000000000000000000
00000000000000000000000000110000000000000000000000
00000000000000000000000111111111000000000000000000
00000000000000000000111111111111110000000000000000
00000000000000000011111111111111110000000000000000
00000000000000000111111111111111110000000000000000
00000000000000000111111111111111110000000000000000
00000000000000000111110111111111110000000000000000
00000000000000000111000011111111100000000000000000
00000000000000000000000011111111100000000000000000
00000000000000000000000111111111100000000000000000
00000000000000000000000111111111100000000000000000
00000000000000000000000111111111100000000000000000
00000000000000000000000111111111100000000000000000
00000000000000000000000111111111100000000000000000
00000000000000000000000111111111100000000000000000
00000000000000000000001111111111100000000000000000
00000000000000000000001111111111100000000000000000
00000000000000000000001111111111000000000000000000
00000000000000000000001111111111000000000000000000
00000000000000000000001111111111000000000000000000
00000000000000000000011111111111000000000000000000
00000000000000000000011111111111000000000000000000
00000000000000000000011111111111000000000000000000
00000000000000000000011111111111000000000000000000
00000000000000000000011111111111000000000000000000
00000000000000000000111111111111000000000000000000
00000000000000000000111111111111000000000000000000
00000000000000000000111111111111000000000000000000
00000000000000000000111111111110000000000000000000
00000000000000000001111111111110000000000000000000
00000000000000000001111111111110000000000000000000
00000000000000000001111111111110000000000000000000
00000000000000000001111111111110000000000000000000
00000000000000000001111111111110000000000000000000
00000000000000000011111111111110000000000000000000
00000000000111111011111111111110000000000000000000
00000000000111111111111111111110000000000000000000
00000000000111111111111111111110000000000000000000
00000000000011111111111111111111111100000000000000
00000000000000111111111111111111111111000000000000
00000000000000000000000011111111111111000000000000
00000000000000000000000000000111111111000000000000
00000000000000000000000000000000000111000000000000
00000000000000000000000000000000000000000000000000
00000000000000000000000000000000000000000000000000
00000000000000000000000000000000000000000000000000
00000000000000000000000000000000000000000000000000
00000000000000000000000000000000000000000000000000
00000000000000000000000000000000000000000000000000
00000000000000000000000000000000000000000000000000
00000000000000000000000000000000000000000000000000
