P1
50 70
00000000000000000000000000000000000000000000000000
00000000000000000000000000000000000000000000000000
00000000000000000000000000000000000000000000000000
00000000000000000000000000000000000000000000000000
00000000000000000000000000000000000000000000000000
00000000000000000000000000000000000000000000000000
00000000000000000000000000000000000000000000000000
00000000000000000000000000000000000000000000000000
00000000000000000000000000000000000000000000000000
00000000000000000000000000000000000000000000000000
00000000000000000000111100000000000000000000000000
00000000000000000000111100000000000000000000000000
00000000000000000001111110000000000000000000000000
00000000000000000011111110000000000000000000000000
00000000000000000011111110000000000000000000000000
00000000000000000111111110000000000000000000000000
00000000000000001111111110000000000000000000000000
00000000000000011111111110000000000000000000000000
00000000000000111111111110000000000000000000000000
00000000000000111110111110000000000000000000000000
00000000000001111100111110000000000000000000000000
00000000000001111000111110000000000000000000000000
00000000000001110000111111000000000000000000000000
00000000000000110000111111000000000000000000000000
00000000000000000000111111000000000000000000000000
00000000000000000000111111000000000000000000000000
00000000000000000000111111000000000000000000000000
00000000000000000000111111000000000000000000000000
00000000000000000000111111000000000000000000000000
00000000000000000000111111000000000000000000000000
00000000000000000000111111000000000000000000000000
00000000000000000000111111000000000000000000000000
00000000000000000000111111000000000000000000000000
00000000000000000000011111100000000000000000000000
00000000000000000000011111100000000000000000000000
00000000000000000000011111100000000000000000000000
00000000000000000000011111100000000000000000000000
00000000000000000000011111100000000000000000000000
00000000000000000000011111100000000000000000000000
00000000000000000000011111100000000000000000000000
00000000000000000000011111100000000000000000000000
00000000000000000000011111100000000000000000000000
00000000000000000000011111100000000000000000000000
00000000000000000000011111100000000000000000000000
00000000000000000000011111100000000000000000000000
00000000000000000000011111110000000000000000000000
00000000000000000000011111110000000000000000000000
00000000000000000000011111110000000000000000000000
00000000000000000000011111110000000000000000000000
00000000000000000000011111110000000000000000000000
00000000000000000000011111110000000000000000000000
00000000000000000000011111110000000000000000000000
00000000000000000000011111110000000000000000000000
00000000000000000000011111110000000000000000000000
00000000000000000000011111110000000000000000000000
00000000000000000000011111110000000000000000000000
00000000000000000000011111110000000000000000000000
00000000000001110111111111110000000000000000000000
00000000000011111111111111111100000000000000000000
00000000000011111111111111111111111100000000000000
00000000000011111111111111111111111110000000000000
00000000000000110011111111111111111110000000000000
00000000000000000000000011111111111110000000000000
00000000000000000000000000000011111100000000000000
00000000000000000000000000000000000000000000000000
00000000000000000000000000000000000000000000000000
00000000000000000000000000000000000000000000000000
00000000000000000000000000000000000000000000000000
00000000000000000000000000000000000000000000000000
00000000000000000000000000000000000000000000000000
