P1
50 70
00000000000000000000000000000000000000000000000000
00000000000000000000000000000000000000000000000000
00000000000000000000000000000000000000000000000000
00000000000000000000000000000000000000000000000000
00000000000000000000000000000000000000000000000000
00000000000000000000000000000000000000000000000000
00000000000000000000000000000000000000000000000000
00000000000000000000000000000000000000000000000000
00000000000000000000000000000000000000000000000000
00000000000000000000000000000000000000000000000000
00000000000000000000000000000000000000000000000000
00000000000000000000000000000000000000000000000000
00000000000000000000000000000000000000000000000000
00000000000000000000000111111000000000000000000000
00000000000000000000111111111000000000000000000000
00000000000000000000111111111000000000000000000000
00000000000000000001111111111000000000000000000000
00000000000000000001111111111000000000000000000000
00000000000000000011111111111000000000000000000000
00000000000000000111111111111000000000000000000000
00000000000001111111111111111000000000000000000000
00000000000111111111111111111000000000000000000000
00000000001111111111111111111000000000000000000000
00000000001111111111111111111100000000000000000000
00000000000111111111011111111100000000000000000000
00000000000111111110011111111000000000000000000000
00000000000111111100011111111000000000000000000000
00000000000111110000111111111000000000000000000000
00000000000111100000111111111000000000000000000000
00000000000000000000011111111100000000000000000000
00000000000000000000011111111100000000000000000000
00000000000000000000011111111100000000000000000000
00000000000000000000011111111000000000000000000000
00000000000000000000111111111000000000000000000000
00000000000000000000111111111000000000000000000000
00000000000000000000011111111100000000000000000000
00000000000000000000011111111100000000000000000000
00000000000000000000011111111100000000000000000000
00000000000000000000011111111100000000000000000000
00000000000000000000011111111000000000000000000000
00000000000000000000011111111000000000000000000000
00000000000000000000011111111100000000000000000000
00000000000000000000011111111100000000000000000000
00000000000000000000011111111100011111000000000000
00000000000000000000011111111111111111000000000000
00000000000000000000011111111111111111000000000000
00000000000000000000011111111111111111100000000000
00000000000000000000011111111111111111100000000000
00000000000000000000111111111111111110000000000000
00000000000000000001111111111111111100000000000000
00000000000000011111111111111111100000000000000000
00000000000000111111111111111110000000000000000000
00000000000111111111111111111000000000000000000000
00000000000111111111111111000000000000000000000000
00000000000111111111111110000000000000000000000000
00000000000111111111110000000000000000000000000000
00000000000111111111000000000000000000000000000000
00000000000111111100000000000000000000000000000000
00000000000111100000000000000000000000000000000000
00000000000110000000000000000000000000000000000000
00000000000000000000000000000000000000000000000000
00000000000000000000000000000000000000000000000000
00000000000000000000000000000000000000000000000000
00000000000000000000000000000000000000000000000000
00000000000000000000000000000000000000000000000000
00000000000000000000000000000000000000000000000000
00000000000000000000000000000000000000000000000000
00000000000000000000000000000000000000000000000000
00000000000000000000000000000000000000000000000000
00000000000000000000000000000000000000000000000000
