P1
50 70
00000000000000000000000000000000000000000000000000
00000000000000000000000000000000000000000000000000
00000000000000000000000000000000000000000000000000
00000000000000000000000000000000000000000000000000
00000000000000000000000000000000000000000000000000
00000000000000000000000000000000000000000000000000
00000000000000000000000000000000000000000000000000
00000000000000000000000000000000000000000000000000
00000000000000000000000000000000000000000000000000
00000000000000000000000000000000000000000000000000
00000000000000000000000000000000000000000000000000
00000000000000000000000000000000000000000000000000
00000000000000000000000000000000000000000000000000
00000000000000000000000000000000000000000000000000
00000000000000000000000000000000000000000000000000
00000000000000000000000000110000000000000000000000
00000000000000000000000001110000000000000000000000
00000000000000000000001111111000000000000000000000
00000000000000000000001111111000000000000000000000
00000000000000000000011111111000000000000000000000
00000000000000000000011111111000000000000000000000
00000000000000000000111111111000000000000000000000
00000000000000000001111111111000000000000000000000
00000000000000000011111111111000000000000000000000
00000000000000000111111111111000000000000000000000
00000000000000011111111111111000000000000000000000
00000000000000111111111111111000000000000000000000
00000000000001111111111111111000000000000000000000
00000000000001111111111111111000000000000000000000
00000000000001111111011111111000000000000000000000
00000000000001111100001111111000000000000000000000
00000000000000111000001111111000000000000000000000
00000000000000000000001111111000000000000000000000
00000000000000000000011111111000000000000000000000
00000000000000000000011111111000000000000000000000
00000000000000000000001111111000000000000000000000
00000000000000000000001111111000000000000000000000
00000000000000000000011111111000000000000000000000
00000000000000000000011111111000000000000000000000
00000000000000000000001111111000000000000000000000
00000000000000000000001111111000000000000000000000
00000000000000000000011111111000000000000000000000
00000000000000000000011111111000000000000000000000
00000000000000000000001111111000000000000000000000
00000000000000000000001111111000000000000000000000
00000000000000000000011111111000000000000000000000
00000000000000000000011111111000000000000000000000
00000000000000000000011111111000000000000000000000
00000000000001000110011111111100000000000000000000
00000000000001111111111111111111111100000000000000
00000000000001111111111111111111111100000000000000
00000000000001111111111111111111111110000000000000
00000000000011111111111111111111111110000000000000
00000000000001111111111111111111111110000000000000
00000000000000011001100111111111111100000000000000
00000000000000000000000000000000011100000000000000
00000000000000000000000000000000000000000000000000
00000000000000000000000000000000000000000000000000
00000000000000000000000000000000000000000000000000
00000000000000000000000000000000000000000000000000
00000000000000000000000000000000000000000000000000
00000000000000000000000000000000000000000000000000
00000000000000000000000000000000000000000000000000
00000000000000000000000000000000000000000000000000
00000000000000000000000000000000000000000000000000
00000000000000000000000000000000000000000000000000
00000000000000000000000000000000000000000000000000
00000000000000000000000000000000000000000000000000
00000000000000000000000000000000000000000000000000
00000000000000000000000000000000000000000000000000
