P1
50 70
00000000000000000000000000000000000000000000000000
00000000000000000000000000000000000000000000000000
00000000000000000000000000000000000000000000000000
00000000000000000000000000000000000000000000000000
00000000000000000000000000000000000000000000000000
00000000000000000000000000000000000000000000000000
00000000000000000000000000000000000000000000000000
00000000000000000000000000000000000000000000000000
00000000000000000000000000000000000000000000000000
00000000000000000000000000000000000000000000000000
00000000000000000000000000000000000000000000000000
00000000000000000000000000000000000000000000000000
00000000000000000000000000000000000000000000000000
00000000000000000000000000000000000000000000000000
00000000000000000000110000000000000000000000000000
00000000000000000001111000000000000000000000000000
00000000000000000011111000000000000000000000000000
00000000000000000111111000000000000000000000000000
00000000000000000111111000000000000000000000000000
00000000000000000111111100000000000000000000000000
00000000000000001111111100000000000000000000000000
00000000000000001111111100000000000000000000000000
00000000000000011111111100000000000000000000000000
00000000000000111111111100000000000000000000000000
00000000000001111111111110000000000000000000000000
00000000000001111011111110000000000000000000000000
00000000000011110011111110000000000000000000000000
00000000000111110011111110000000000000000000000000
00000000000111100011111110000000000000000000000000
00000000000111000001111111000000000000000000000000
00000000000111000001111111000000000000000000000000
00000000000110000001111111000000000000000000000000
00000000000000000001111111000000000000000000000000
00000000000000000001111111000000000000000000000000
00000000000000000000111111100000000000000000000000
00000000000000000000111111100000000000000000000000
00000000000000000000111111100000000000000000000000
00000000000000000000111111000000000000000000000000
00000000000000000000111111000000000000000000000000
00000000000000000000011111100000000000000000000000
00000000000000000000111111100000000000000000000000
00000000000000000000111111100000000000000000000000
00000000000000000000111111100000000000000000000000
00000000000000000000111111100000000000000000000000
00000000000000000000011111110000000000000000000000
00000000000000000000011111110000000000000000000000
00000000000000000000011111110000000000000000000000
00000000000000000000011111110000000000000000000000
00000000000000000000001111110000000000000000000000
00000000000000000000001111111000000000000000000000
00000000000000000000001111111000000000000000000000
00000000000000000000001111111000000000000000000000
00000000000000000000011111111000000000000000000000
00000000000000000000001111111000000000000000000000
00000000000000000000001111111100000000000000000000
00000000000000000000001111111100000000000000000000
00000000000000000000001111111100000000000000000000
00000000000000000000001111111000000000000000000000
00000000000000000000000111111100000000000000000000
00000000000000000000000111111100011100000000000000
00000000000000000001101111111111111111100000000000
00000000000000011111111111111111111111100000000000
00000000000000011111111111111111111111100000000000
00000000000000011111111111111111111111100000000000
00000000000000011100111000110000000000000000000000
00000000000000000000000000000000000000000000000000
00000000000000000000000000000000000000000000000000
00000000000000000000000000000000000000000000000000
00000000000000000000000000000000000000000000000000
00000000000000000000000000000000000000000000000000
