P1
50 70
00000000000000000000000000000000000000000000000000
00000000000000000000000000000000000000000000000000
00000000000000000000000000000000000000000000000000
00000000000000000000000000000000000000000000000000
00000000000000000000000000000000000000000000000000
00000000000000000000000000000000000000000000000000
00000000000000000000000000000000000000000000000000
00000000000000000000000000000000000000000000000000
00000000000000000000000000000000000000000000000000
00000000000000000000000000000000000000000000000000
00000000000000000000000000000000000000000000000000
00000000000000000000000000000000000000000000000000
00000000000000000000000000000000000000000000000000
00000000000000000000000000000000000000000000000000
00000000000000000000000000000000000000000000000000
00000000000000000000000000000000000000000000000000
00000000000000000000000000000000000000000000000000
00000000000000000000000000000000000000000000000000
00000000000000000000000000000000000000000000000000
00000000000111110110000000000000000000000000000000
00000000001111111110000000000000000000000000000000
00000000111111111111000000000000000000000000000000
00000001111111111111100000000000000000000000000000
00000011111111111111100000000000000000000000000000
00000011111111111111110000000000000000000000000000
00000011111111111111110000000000000000000000000000
00000001111111111111111000000000000000000000000000
00000001111111011111111000000000000000000000000000
00000000111110001111111100000000000000000000000000
00000000011100000111111100000000000000000000000000
00000000011000000111111110000000000000000000000000
00000000000000000111111110000000000000000000000000
00000000000000000011111111000000000000000000000000
00000000000000000001111111000000000000000000000000
00000000000000000001111111000000000000000000000000
00000000000000000001111111110000000000000000000000
00000000000000000000111111110000000000000000000000
00000000000000000000111111110000000000000000000000
00000000000000000000011111110000000000000000000000
00000000000000000000001111111000000000000000000000
00000000000000000000001111111100000000000000000000
00000000000000000000001111111100000000000000000000
00000000000000000000000111111110000000000000000000
00000000000000000000000011111111000000000000000000
00000000000000000000000011111111000000000000000000
00000000000000000000000011111111000000000000000000
00000000000000000000000001111111100000000000000000
00000000000000000000000000111111110000000000000000
00000000000000000000000000111111110001000000000000
00000000000000000000000000111111111111111100000000
00000000000000000000000001111111111111111100000000
00000000000000000000001111111111111111111110000000
00000000000000000000111111111111111111111110000000
00000000000000000000111111111111111111111110000000
00000000000000000000011111111111111111100000000000
00000000000000000000001111111111101000000000000000
00000000000000000000001111111000000000000000000000
00000000000000000000001111000000000000000000000000
00000000000000000000000000000000000000000000000000
00000000000000000000000000000000000000000000000000
00000000000000000000000000000000000000000000000000
00000000000000000000000000000000000000000000000000
00000000000000000000000000000000000000000000000000
00000000000000000000000000000000000000000000000000
00000000000000000000000000000000000000000000000000
00000000000000000000000000000000000000000000000000
00000000000000000000000000000000000000000000000000
00000000000000000000000000000000000000000000000000
00000000000000000000000000000000000000000000000000
00000000000000000000000000000000000000000000000000
