P1
50 70
00000000000000000000000000000000000000000000000000
00000000000000000000000000000000000000000000000000
00000000000000000000000000000000000000000000000000
00000000000000000000000000000000000000000000000000
00000000000000000000000000000000000000000000000000
00000000000000000000000000000000000000000000000000
00000000000000000000000000000000000000000000000000
00000000000000000000000000000000000000000000000000
00000000000000000000000000000000000000000000000000
00000000000000000000000000000000000000000000000000
00000000011011001110000000000000000000000000000000
00000000111111111111111000000000000000000000000000
00000000111111111111111110000000000000000000000000
00000000111111111111111111111000000000000000000000
00000000011111111111111111111100000000000000000000
00000000011111111111111111111110000000000000000000
00000000011111111111111111111110000000000000000000
00000000011111111111111111111110000000000000000000
00000000011111111111111111111110000000000000000000
00000000001111111111111111111110000000000000000000
00000000001111111111111111111110000000000000000000
00000000000111100011111111111110000000000000000000
00000000000000000000111111111110000000000000000000
00000000000000000000111111111110000000000000000000
00000000000000000000111111111110000000000000000000
00000000000000000000111111111110000000000000000000
00000000000000000000111111111110000000000000000000
00000000000000000000111111111110000000000000000000
00000000000000000000011111111111000000000000000000
00000000000000000000011111111111000000000000000000
00000000000000000000011111111111000000000000000000
00000000000000000000011111111111000000000000000000
00000000000000000000011111111111000000000000000000
00000000000000000000011111111111000000000000000000
00000000000000000000001111111111000000000000000000
00000000000000000000001111111111000000000000000000
00000000000000000000001111111111000000000000000000
00000000000000000000001111111111000000000000000000
00000000000000000000011111111111000000000000000000
00000000000000000000011111111111000000000000000000
00000000000000000000001111111111000000000000000000
00000000000000000000001111111111100000000000000000
00000000000000000000001111111111100000000000000000
00000000000000000000001111111111100000000000000000
00000000000000000000001111111111100000000000000000
00000000000000000000001111111111100000000000000000
00000000000000000000000111111111100000000000000000
00000000000000000000000111111111100000000000000000
00000000000000000000000111111111100000000000000000
00000000000000000000000111111111111110000000000000
00000000000000000001111111111111111111111000000000
00000000000000011111111111111111111111111100000000
00000000000000111111111111111111111111111100000000
00000000000000111111111111111111111111111100000000
00000000000000111111111111111111111111111100000000
00000000000000111111111111111111111111111100000000
00000000000000011111111111111111111111111100000000
00000000000000011111111111111111111110011000000000
00000000000000011111111111111110000000000000000000
00000000000000011111110000000000000000000000000000
00000000000000011100000000000000000000000000000000
00000000000000000000000000000000000000000000000000
00000000000000000000000000000000000000000000000000
00000000000000000000000000000000000000000000000000
00000000000000000000000000000000000000000000000000
00000000000000000000000000000000000000000000000000
00000000000000000000000000000000000000000000000000
00000000000000000000000000000000000000000000000000
00000000000000000000000000000000000000000000000000
00000000000000000000000000000000000000000000000000
