P1
50 70
00000000000000000000000000000000000000000000000000
00000000000000000000000000000000000000000000000000
00000000000000000000000000000000000000000000000000
00000000000000000000000000000000000000000000000000
00000000000000000000000000000000000000000000000000
00000000000000000000000000000000000000000000000000
00000000000000000000000000000000000000000000000000
00000000000000000000000000000000000000000000000000
00000000000000000000000000000000000000000000000000
00000000000000000000000000000000000000000000000000
00000000000000000000000000000000000000000000000000
00000000000000000000000000000000000000000000000000
00000000000000000000000000000000000000000000000000
00000000000000000000000000000000000000000000000000
00000000000000000000000000000000000000000000000000
00000000000000000000000000011110000000000000000000
00000000000000000000000000111100000000000000000000
00000000000000000000000001111100000000000000000000
00000000000000000000000011111100000000000000000000
00000000000000000000000111111100000000000000000000
00000000000000000000001111111100000000000000000000
00000000000000000000011111111100000000000000000000
00000000000000000000011111111100000000000000000000
00000000000000000000111111111100000000000000000000
00000000000000000001111111111100000000000000000000
00000000000000000011111111111100000000000000000000
00000000000000000011111111111100000000000000000000
00000000000000000111111001111110000000000000000000
00000000000000000111110011111110000000000000000000
00000000000000000011100011111110000000000000000000
00000000000000000000000011111100000000000000000000
00000000000000000000000011111100000000000000000000
00000000000000000000000011111100000000000000000000
00000000000000000000000011111100000000000000000000
00000000000000000000000011111100000000000000000000
00000000000000000000000011111100000000000000000000
00000000000000000000000011111100000000000000000000
00000000000000000000000111111100000000000000000000
00000000000000000000000111111100000000000000000000
00000000000000000000000111111000000000000000000000
00000000000000000000000111111000000000000000000000
00000000000000000000001111111000000000000000000000
00000000000000000000000111111000000000000000000000
00000000000000000000001111111000000000000000000000
00000000000000000000001111111000000000000000000000
00000000000000000000001111111000000000000000000000
00000000000000000000001111111000000000000000000000
00000000000000000000011111111000011100000000000000
00000000000000000111111111111111111111000000000000
00000000000000111111111111111111111111100000000000
00000000000011111111111111111111111111100000000000
00000000000111111111111111111111111111100000000000
00000000000111111111111111111111111111000000000000
00000000000111111111111111111111111111000000000000
00000000000011101111111000011110000100000000000000
00000000000000000000000000000000000000000000000000
00000000000000000000000000000000000000000000000000
00000000000000000000000000000000000000000000000000
00000000000000000000000000000000000000000000000000
00000000000000000000000000000000000000000000000000
00000000000000000000000000000000000000000000000000
00000000000000000000000000000000000000000000000000
00000000000000000000000000000000000000000000000000
00000000000000000000000000000000000000000000000000
00000000000000000000000000000000000000000000000000
00000000000000000000000000000000000000000000000000
00000000000000000000000000000000000000000000000000
00000000000000000000000000000000000000000000000000
00000000000000000000000000000000000000000000000000
00000000000000000000000000000000000000000000000000
