P1
50 70
00000000000000000000000000000000000000000000000000
00000000000000000000000000000000000000000000000000
00000000000000000000000000000000000000000000000000
00000000000000000000000000000000000000000000000000
00000000000000000000000000000000000000000000000000
00000000000000000000000000000000000000000000000000
00000000000000000000000000000000000000000000000000
00000000000000000000000000000000000000000000000000
00000000000000000000000000000000000000000000000000
00000000000000000000000000000000000000000000000000
00000000000000000000000000000000000000000000000000
00000000000000000000000000000000000000000000000000
00000000000000000000000000000000000000000000000000
00000000000000000000000000000000000000000000000000
00000000000000000000000000000000000000000000000000
00000000000000000000000000000000000000000000000000
00000000000000001111100000000000000000000000000000
00000000000000011111110000000000000000000000000000
00000000000000011111110000000000000000000000000000
00000000000000111111110000000000000000000000000000
00000000000000111111110000000000000000000000000000
00000000000011111111110000000000000000000000000000
00000000001111111111111000000000000000000000000000
00000000011111111111111000000000000000000000000000
00000000111111111011111000000000000000000000000000
00000000011111110001111000000000000000000000000000
00000000011111100001111100000000000000000000000000
00000000011000000001111100000000000000000000000000
00000000000000000001111110000000000000000000000000
00000000000000000000111110000000000000000000000000
00000000000000000000111110000000000000000000000000
00000000000000000000111110000000000000000000000000
00000000000000000000111111000000000000000000000000
00000000000000000000111111000000000000000000000000
00000000000000000000011111000000000000000000000000
00000000000000000000011111000000000000000000000000
00000000000000000000001111100000000000000000000000
00000000000000000000001111100000000000000000000000
00000000000000000000001111110000000000000000000000
00000000000000000000001111110000000000000000000000
00000000000000000000000111110000000000000000000000
00000000000000000000000111111000000000000000000000
00000000000000000000000111111000000000000000000000
00000000000000000000000111111000000000000000000000
00000000000000000000000011111000000000000000000000
00000000000000000000000011111000000000000000000000
00000000000000000000000011111100000000000000000000
00000000000000000000000001111100000000000000000000
00000000000000000000000001111110000000000000000000
00000000000000000000000000111110000000000000000000
00000000000000001000000001111111000000000000000000
00000000000000011111111111111111111101110000000000
00000000000000011111111111111111111111111000000000
00000000000000011111111111111111111111111000000000
00000000000000001111111111111111111111111100000000
00000000000000001111111111111111111111111100000000
00000000000000000000111100000111111101111100000000
00000000000000000000000000000000000000000000000000
00000000000000000000000000000000000000000000000000
00000000000000000000000000000000000000000000000000
00000000000000000000000000000000000000000000000000
00000000000000000000000000000000000000000000000000
00000000000000000000000000000000000000000000000000
00000000000000000000000000000000000000000000000000
00000000000000000000000000000000000000000000000000
00000000000000000000000000000000000000000000000000
00000000000000000000000000000000000000000000000000
00000000000000000000000000000000000000000000000000
00000000000000000000000000000000000000000000000000
00000000000000000000000000000000000000000000000000
