P1
50 70
00000000000000000000000000000000000000000000000000
00000000000000000000000000000000000000000000000000
00000000000000000000000000000000000000000000000000
00000000000000000000000000000000000000000000000000
00000000000000000000000000000000000000000000000000
00000000000000000000000000000000000000000000000000
00000000000000000000000000000000000000000000000000
00000000000000000000000000000000000000000000000000
00000000000000000000000000000000000000000000000000
00000000000000000000000000000000000000000000000000
00000000000000000000000000000000000000000000000000
00000000000000000000000000000000000000000000000000
00000000000000000000000000000000000000000000000000
00000000000000000000000000000000000000000000000000
00000000000000000000000000000000000000000000000000
00000000001101110110000000000000000000000000000000
00000111111111111110000000000000000000000000000000
00011111111111111111000000000000000000000000000000
00011111111111111111000000000000000000000000000000
00011111111111111111100000000000000000000000000000
00011111111111111111100000000000000000000000000000
00001111111111111111100000000000000000000000000000
00001111100000011111110000000000000000000000000000
00000000000000011111110000000000000000000000000000
00000000000000011111110000000000000000000000000000
00000000000000011111110000000000000000000000000000
00000000000000001111111000000000000000000000000000
00000000000000001111111000000000000000000000000000
00000000000000001111111000000000000000000000000000
00000000000000001111111000000000000000000000000000
00000000000000000111111100000000000000000000000000
00000000000000000111111100000000000000000000000000
00000000000000000111111100000000000000000000000000
00000000000000000111111100000000000000000000000000
00000000000000000111111110000000000000000000000000
00000000000000000011111111000000000000000000000000
00000000000000000011111111000000000000000000000000
00000000000000000011111111000000000000000000000000
00000000000000000001111111000000000000000000000000
00000000000000000000111111100000000000000000000000
00000000000000000000111111100000000000000000000000
00000000000000000000111111100000000000000000000000
00000000000000000000111111100000000000000000000000
00000000000000000000011111110000000000000000000000
00000000000000000000011111110000000000000000000000
00000000000000000000011111110000000000000000000000
00000000000000000000011111111000000000000000000000
00000000000000000000001111111100000000000000000000
00000000000000000000001111111100000000000000000000
00000000000000000000001111111100000000000000000000
00000000000000000000001111111100000000000000000000
00000000000000000000001111111110000000000000000000
00000000000000000000000111111110000000000000000000
00000000000000000000000111111110000000000000000000
00000000000000000000000111111110000000000000000000
00000000000000000000000111111111000000000000000000
00000000000000100011001111111111110111001110000000
00000000000001111111111111111111111111111111000000
00000000000001111111111111111111111111111111100000
00000000000001111111111111111111111111111111100000
00000000000001111111111111111111111111111111110000
00000000000000111111111111111111111111111111110000
00000000000000011100110011000110011000000000000000
00000000000000000000000000000000000000000000000000
00000000000000000000000000000000000000000000000000
00000000000000000000000000000000000000000000000000
00000000000000000000000000000000000000000000000000
00000000000000000000000000000000000000000000000000
00000000000000000000000000000000000000000000000000
00000000000000000000000000000000000000000000000000
