P1
50 70
00000000000000000000000000000000000000000000000000
00000000000000000000000000000000000000000000000000
00000000000000000000000000000000000000000000000000
00000000000000000000000000000000000000000000000000
00000000000000000000000000000000000000000000000000
00000000000000000000000000000000000000000000000000
00000000000000000000000000000000000000000000000000
00000000000000000000000000000000000000000000000000
00000000000000000000000000000000000000000000000000
00000000000000000000000000000000000000000000000000
00000000000000000000000000000000000000000000000000
00000000000000000000000000000000000000000000000000
00000000000000000000000000000000000000000000000000
00000000000000000000000000000000000000000000000000
00000000000000000000000000000000000000000000000000
00000000000000000000000000000000000000000000000000
00000000000000000000000000000000000000000000000000
00000000000000000000000000000000000000000000000000
00000000000000000000110000000000000000000000000000
00000000000000000011111000000000000000000000000000
00000000000000000111111000000000000000000000000000
00000000000000001111111000000000000000000000000000
00000000000000001111111000000000000000000000000000
00000000000000111111111000000000000000000000000000
00000000000001111101111000000000000000000000000000
00000000000011111001111000000000000000000000000000
00000000000011110000111000000000000000000000000000
00000000000111100000111000000000000000000000000000
00000000001111000000111100000000000000000000000000
00000000001110000000111100000000000000000000000000
00000000000000000000111100000000000000000000000000
00000000000000000000111100000000000000000000000000
00000000000000000000111100000000000000000000000000
00000000000000000000111100000000000000000000000000
00000000000000000000111100000000000000000000000000
00000000000000000000111100000000000000000000000000
00000000000000000000011100000000000000000000000000
00000000000000000000011100000000000000000000000000
00000000000000000000011110000000000000000000000000
00000000000000000000011110000000000000000000000000
00000000000000000000011111000000000000000000000000
00000000000000000000011111000000000000000000000000
00000000000000000000011111000000000000000000000000
00000000000000000000011111000000000000000000000000
00000000000000000000011111000000000000000000000000
00000000000000000000001111000000000000000000000000
00000000000000000000001111000000000000000000000000
00000000000000000000000111000000000000000000000000
00000000000000000000000111000000000000000000000000
00000000000000000000000111100000000000000000000000
00000000000000000000000111100000000000000000000000
00000000000000000000000111100000000000000000000000
00000000000000000000000111100000000000000000000000
00000000000000000000000111100000000000000000000000
00000000000000000000000111100000000000000000000000
00000000000000000000000111100000000000000000000000
00000000000000000000000111100000000000000000000000
00000000000000000000000111110000000000000000000000
00000000000000000000000011110000000000000000000000
00000000000000000000000011111000000000000000000000
00000000000000111000000111111111111111100000000000
00000000000011111111111111111111111111110000000000
00000000000011111111111111111111111111110000000000
00000000000001111111111000111111100011110000000000
00000000000000000000000000000000000000000000000000
00000000000000000000000000000000000000000000000000
00000000000000000000000000000000000000000000000000
00000000000000000000000000000000000000000000000000
00000000000000000000000000000000000000000000000000
00000000000000000000000000000000000000000000000000
