P1
50 70
00000000000000000000000000000000000000000000000000
00000000000000000000000000000000000000000000000000
00000000000000000000000000000000000000000000000000
00000000000000000000000000000000000000000000000000
00000000000000000000000000000000000000000000000000
00000000000000000000000000000000000000000000000000
00000000000000000000000000000000000000000000000000
00000000000000000000000000000000000000000000000000
00000000000000000000000000000000000000000000000000
00000000000000000000000000000000000000000000000000
00000000000000000000000000000000000000000000000000
00000000000000000000000000000000000000000000000000
00000000000000000000000000000000000000000000000000
00000000000000000000000000000000000000000000000000
00000000000111000111100000000000000000000000000000
00000011011111111111111111000000000000000000000000
00001111111111111111111111110000000000000000000000
00011111111111111111111111111100000000000000000000
00011111111111111111111111111111000000000000000000
00011111111111111111111111111111100000000000000000
00011111111111111111111111111111110000000000000000
00011111111111111111111111111111111000000000000000
00011111111111111111111111111111111000000000000000
00001111111111000011111111111111111100000000000000
00001111110000000000001111111111111100000000000000
00001111100000000000000111111111111110000000000000
00000100000000000000000011111111111110000000000000
00000000000000000000000011111111111111000000000000
00000000000000000000000001111111111111000000000000
00000000000000000000000001111111111111000000000000
00000000000000000000000000111111111111000000000000
00000000000000000000000000111111111111000000000000
00000000000000000000000000111111111111000000000000
00000000000000000000000001111111111111000000000000
00000000000000000000000001111111111111000000000000
00000000000000000000000011111111111111000000000000
00000000000000000000000111111111111110000000000000
00000000000000000000001111111111111110000000000000
00000000000000000000011111111111111100000000000000
00000000000000000000111111111111111100000000000000
00000000000000000001111111111111111000000000000000
00000000000000000011111111111111110000000000000000
00000000000000000111111111111111100000000000000000
00000000000000001111111111111111000000000000000000
00000000000000011111111111111110000000000000000000
00000000000000111111111111111100000000000000000000
00000000000001111111111111111000000000000000000000
00000000000011111111111111110000000000000000000000
00000000000111111111111111000000000000000000000000
00000000001111111111111110000000000000000000000000
00000000011111111111111111111000010000000000000000
00000000001111111111111111111111111111111111000000
00000000000111111111111111111111111111111111100000
00000000000111111111111111111111111111111111100000
00000000000111111111111111111111111111111111100000
00000000000111111111111111111111111111111111100000
00000000000111111111111111111111111111111111110000
00000000000111111111111111111111111111111111110000
00000000000001111111111111111111111111111111110000
00000000000000000000001111011111111111111111111000
00000000000000000000000000000000000111101111111000
00000000000000000000000000000000000000000000000000
00000000000000000000000000000000000000000000000000
00000000000000000000000000000000000000000000000000
00000000000000000000000000000000000000000000000000
00000000000000000000000000000000000000000000000000
00000000000000000000000000000000000000000000000000
00000000000000000000000000000000000000000000000000
00000000000000000000000000000000000000000000000000
00000000000000000000000000000000000000000000000000
