P1
50 70
00000000000000000000000000000000000000000000000000
00000000000000000000000000000000000000000000000000
00000000000000000000000000000000000000000000000000
00000000000000000000000000000000000000000000000000
00000000000000000000000000000000000000000000000000
00000000000000000000000000000000000000000000000000
00000000000000000000000000000000000000000000000000
00000000000000000000000000000000000000000000000000
00000000000000000000000000000000000000000000000000
00000000000000000000000000000000000000000000000000
00000000000000000000000000000000000000000000000000
00000000000000000000000000000000000000000000000000
00000000000000000000000000000000000000000000000000
00000000000000000000000000000000000000000000000000
00000000000000000000000000000000000000000000000000
00000000000000000000000001000000000000000000000000
00000000000000000000000011111110000000000000000000
00000000000000000000001111111111000000000000000000
00000000000000000000011111111111100000000000000000
00000000000000000000111111101111110000000000000000
00000000000000000001111100000011110000000000000000
00000000000000000001111000000001111000000000000000
00000000000000000011110000000001111000000000000000
00000000000000000011100000000000111100000000000000
00000000000000000111100000000000011100000000000000
00000000000000000011000000000000011100000000000000
00000000000000000000000000000000011110000000000000
00000000000000000000000000000000011110000000000000
00000000000000000000000000000000011110000000000000
00000000000000000000000000000000011110000000000000
00000000000000000000000000000000011100000000000000
00000000000000000000000000000000011100000000000000
00000000000000000000000000000000111100000000000000
00000000000000000000000000000001111100000000000000
00000000000000000000000000000001111000000000000000
00000000000000000000000000000011111000000000000000
00000000000000000000000000000111100000000000000000
00000000000000000000000000001111000000000000000000
00000000000000000000000000011111000000000000000000
00000000000000000000000000111110000000000000000000
00000000000000000000000001111100000000000000000000
00000000000000000000000011111000000000000000000000
00000000000000000000001111110000000000000000000000
00000000000000000000001111100000000000000000000000
00000000000000000000011110000000000000000000000000
00000000000000000001111100000000000000000000000000
00000000000000000011111000000000000000000000000000
00000000000000001111110000000000000000000000000000
00000000000000001111100000000000000000000000000000
00000000000000011110000000000000000000000000000000
00000000000000111100000000000000001110000000000000
00000000000011110000000000000000001110000000000000
00000000000011110000000000000000011110000000000000
00000000000111111110001111000001111110000000000000
00000000000111111111111111111111111111000000000000
00000000000111111111111111111111111111000000000000
00000000000111111111111111111111111111000000000000
00000000000000000000100000011000011110000000000000
00000000000000000000000000000000000000000000000000
00000000000000000000000000000000000000000000000000
00000000000000000000000000000000000000000000000000
00000000000000000000000000000000000000000000000000
00000000000000000000000000000000000000000000000000
00000000000000000000000000000000000000000000000000
00000000000000000000000000000000000000000000000000
00000000000000000000000000000000000000000000000000
00000000000000000000000000000000000000000000000000
00000000000000000000000000000000000000000000000000
00000000000000000000000000000000000000000000000000
00000000000000000000000000000000000000000000000000
