P1
50 70
00000000000000000000000000000000000000000000000000
00000000000000000000000000000000000000000000000000
00000000000000000000000000000000000000000000000000
00000000000000000000000000000000000000000000000000
00000000000000000000000000000000000000000000000000
00000000000000000000000000000000000000000000000000
00000000000000000000000000000000000000000000000000
00000000000000000000000000000000000000000000000000
00000000000000000000000000000000000000000000000000
00000000000000000000000000000000000000000000000000
00000000000000000000000000000000000000000000000000
00000000000000000000000000000000000000000000000000
00000000000000000000000000000000101110000000000000
00000000000000000000000000000111111111111111100000
00000000000000000000000000011111111111111111110000
00000000000000000000000000111111111111111111111100
00000000000000000000000000111111111111111111111100
00000000000000000000000001111111100000111111111100
00000000000000000000000011111111000000011111111100
00000000000000000000000111111100000000001111111100
00000000000000000000000111110000000000000111111100
00000000000000000000001111110000000000001111111100
00000000000000000000001111100000000000001111111100
00000000000000000000000000000000000000001111111100
11000000000000000000000000000000000000001111111100
11000000000000000000000000000000000000011111111111
11000000000000000000000000000000000000111111111111
11000000000000000000000000000000000000111111111111
00000000000000000000000000000000000001111111111111
00000000000000000000000000000000000001111111111100
00000000000000000000000000000000000011111111111100
00000000000000000000000000000000000011111111111100
00000000000000000000000000000000000111111111111000
00000000000000000000000000000000011111111111110000
00000000000000000000000000000000111111111111000000
00000000000000000000000000000001111111111110000000
00000000000000000000000000000111111111111100000000
00000000000000000000000000011111111111100000000000
00000000000000000000000001111111111111000000000000
00000000000000000000000111111111111000000000000000
00000000000000000000111111111111000000000000000000
00000000000000000011111111111100000000000000000000
00000000000000001111111111110000000000000000000000
00000000000001111111111111000000000000011000000000
00000000001111111111111000000000000000111110000000
00000000111111111111000000000000000001111100000000
10000011111111111110000000000000000001111100000010
11011111111111111111111110011000000011111100000011
11011111111111111111111111111111111111111000000011
11111111111111111111111111111111111111110000000011
01111111111111111111111111111111111111110000000001
00111111111111111111111111111111111111110000000000
00111111111111111111111111111111111111100000000000
00111111111111111111111111111111111111000000000000
00111111111111111111111111111111111111000000000000
00000000110011001110111011111111111110000000000000
00000000000000000000000000000000000000000000000000
00000000000000000000000000000000000000000000000000
00000000000000000000000000000000000000000000000000
00000000000000000000000000000000000000000000000000
11000000000000000000000000000000000000000000000011
11000000000000000000000000000000000000000000000011
11000000000000000000000000000000000000000000000011
11000000000000000000000000000000000000000000000011
00000000000000000000000000000000000000000000000011
00000000000000000000000000000000000000000000000000
00000000000000000000000000000000000000000000000000
00000000000000000000000000000000000000000000000000
00000000000000000000000000000000000000000000000000
00000000000000000000000000000000000000000000000000
