P1
50 70
00000000000000000000000000000000000000000000000000
00000000000000000000000000000000000000000000000000
00000000000000000000000000000000000000000000000000
00000000000000000000000000000000000000000000000000
00000000000000000000000000000000000000000000000000
00000000000000000000000000000000000000000000000000
00000000000000000000000000000000000000000000000000
00000000000000000000000000000000000000000000000000
00000000000000000000000000000000000000000000000000
00000000000000000000000000000000000000000000000000
00000000000000000000000000000000000000000000000000
00000000000000000000000000000000000000000000000000
00000000000000000000000000000000000000000000000000
00000000000000000000111111111000000000000000000000
00000000000000001111111111111110000000000000000000
00000000000001111111111111111111000000000000000000
00000000000111111111111111111111110000000000000000
00000000001111111111111111111111110000000000000000
00000000111111111000001111111111111000000000000000
00000001111111110000000000111111111100000000000000
00000111111111100000000000111111111100000000000000
00000111111110000000000000011111111100000000000000
00000111111000000000000000011111111100000000000000
00000111111000000000000000001111111100000000000000
00000111110000000000000000000111111100000000000000
00000111111000000000000000000111111110000000000000
00000011111000000000000000000111111110000000000000
00000011110000000000000000001111111100000000000000
00000000000000000000000000000111111100000000000000
00000000000000000000000000000111111100000000000000
00000000000000000000000000000111111100000000000000
00000000000000000000000000000111111000000000000000
00000000000000000000000000000111111000000000000000
00000000000000000000000000001111111000000000000000
00000000000000000000000000001111110000000000000000
00000000000000000000000000011111110000000000000000
00000000000000000000000000011111110000000000000000
00000000000000000000000000111111100000000000000000
00000000000000000000000000111111000000000000000000
00000000000000000000000001111110000000000000000000
00000000000000000000000001111110000000000000000000
00000000000000000000000011111100000000000000000000
00000000000000000000000111111000000000000000000000
00000000000000000000001111110000000000000000000000
00000000000000000000011111110000000000000000000000
00000000000000000000111111100000000000000000000000
00000000000000000001111111000000000000000000000000
00000000000000000001111110000000000000100000000000
00000000000000000011111100000000000000111100000000
00000000000000000111111100000000000000111100000000
00000000000000001111111000000000000000111110000000
00000000000000011111110000000000000000111110000000
00000000000000111111110001100000000000111110000000
00000000000001111111111111111111111111111110000000
00000000000001111111111111111111111111111110000000
00000000000001111111111111111111111111111110000000
00000000000001111111111111111111111111111111000000
00000000000001111111111111111111111111111111000000
00000000000000001110011110111111111111111111000000
00000000000000000000000000000000000110011111000000
00000000000000000000000000000000000000000000000000
00000000000000000000000000000000000000000000000000
00000000000000000000000000000000000000000000000000
00000000000000000000000000000000000000000000000000
00000000000000000000000000000000000000000000000000
00000000000000000000000000000000000000000000000000
00000000000000000000000000000000000000000000000000
00000000000000000000000000000000000000000000000000
00000000000000000000000000000000000000000000000000
00000000000000000000000000000000000000000000000000
