P1
50 70
00000000000000000000000000000000000000000000000000
00000000000000000000000000000000000000000000000000
00000000000000000000000000000000000000000000000000
00000000000000000000000000000000000000000000000000
00000000000000000000000000000000000000000000000000
00000000000000000000000000000000000000000000000000
00000000000000000000000000000000000000000000000000
00000000000000000000000000000000000000000000000000
00000000000000000000000000000000000000000000000000
00000000000000000000000000000000000000000000000000
00000000000000000000000000000000000000000000000000
00000000000000000000000000000000000000000000000000
00000000000000000000000000000000000000000000000000
00000000000000000000000000000000000000000000000000
00000000000000000000000000111111110000000000000000
00000000000000000000011111111111111100000000000000
00000000000000000011111111111111111110000000000000
00000000000000000111111111111111111111000000000000
00000000000000001111111111111111111111100000000000
00000000000000011111111111111111111111100000000000
00000000000000011111111111111111111111110000000000
00000000000000111111111111111111111111110000000000
00000000000000111111111110000011111111111000000000
00000000000001111111111000000011111111111000000000
00000000000000111111111000000001111111111000000000
00000000000000111111110000000001111111110000000000
00000000000000000001110000000001111111110000000000
00000000000000000000000000000001111111110000000000
00000000000000000000000000000011111111110000000000
00000000000000000000000000000111111111100000000000
00000000000000000000000000001111111111100000000000
00000000000000000000000000011111111111000000000000
00000000000000000000000000011111111110000000000000
00000000000000000000000001111111111100000000000000
00000000000000000000000011111111111100000000000000
00000000000000000000000111111111111000000000000000
00000000000000000000001111111111110000000000000000
00000000000000000000111111111111000000000000000000
00000000000000000011111111111110000000000000000000
00000000000000000111111111111100000000000000000000
00000000000000001111111111111000000000000000000000
00000000000000011111111111100000000000000000000000
00000000000000011111111111000000000000000000000000
00000000000000111111111110000000000000000000000000
00000000000001111111111000000000000000000000000000
00000000000011111111110000000000000000000000000000
00000000000111111111100000000000000000000000000000
00000000001111111111000000000000000000000000000000
00000000011111111111000000000000000000000000000000
00000000011111111111100011111100011000000000000000
00000000011111111111111111111111111000000000000000
00000000011111111111111111111111111000000000000000
00000000011111111111111111111111111000000000000000
00000000011111111111111111111111111000000000000000
00000000111111111111111111111111110000000000000000
00000000011111111111111111111111110000000000000000
00000000000001111100001111100000100000000000000000
00000000000000000000000000000000000000000000000000
00000000000000000000000000000000000000000000000000
00000000000000000000000000000000000000000000000000
00000000000000000000000000000000000000000000000000
00000000000000000000000000000000000000000000000000
00000000000000000000000000000000000000000000000000
00000000000000000000000000000000000000000000000000
00000000000000000000000000000000000000000000000000
00000000000000000000000000000000000000000000000000
00000000000000000000000000000000000000000000000000
00000000000000000000000000000000000000000000000000
00000000000000000000000000000000000000000000000000
00000000000000000000000000000000000000000000000000
