P1
50 70
00000000000000000000000000000000000000000000000000
00000000000000000000000000000000000000000000000000
00000000000000000000000000000000000000000000000000
00000000000000000000000000000000000000000000000000
00000000000000000000000000000000000000000000000000
00000000000000000000000000000000000000000000000000
00000000000000000000000000000000000000000000000000
00000000000000000000000000000000000000000000000000
00000000000000000000000000000000000000000000000000
00000000000000000000000000000000000000000000000000
00000000000000000000000000000000000000000000000000
00000000000000000000000000000000000000000000000000
00000000000000000000000000000000000000000000000000
00000000000000000000000000000000000000000000000000
00000000000000000000000000000000000000000000000000
00000000000000000000000000000000000000000000000000
00000000000000000000000000000000000000000000000000
00000000000000000000000000000000000000000000000000
00000000000000000000000000000000000000000000000000
00000000000000000000000000000111000000000000000000
00000000000000000000000000001111110000000000000000
00000000000000000000000000111111110000000000000000
00000000000000000000000001111111111000000000000000
00000000000000000000000001100011111100000000000000
00000000000000000000000011000001111100000000000000
00000000000000000000000000000001111100000000000000
00000000000000000000000000000001111100000000000000
00000000000000000000000000000001111100000000000000
00000000000000000000000000000001111000000000000000
00000000000000000000000000000001111000000000000000
00000000000000000000000000000011111000000000000000
00000000000000000000000000000011110000000000000000
00000000000000000000000000000111100000000000000000
00000000000000000000000000011111000000000000000000
00000000000000000000000001111110000000000000000000
00000000000000000000001111111110000000000000000000
00000000000000000000001111111111000000000000000000
00000000000000000000000111111111100000000000000000
00000000000000000000000000011111110000000000000000
00000000000000000000000000001111110000000000000000
00000000000000000000000000000111110000000000000000
00000000000000000000000000000111110000000000000000
00000000000000000000000000000111110000000000000000
00000000000000000000000000000111110000000000000000
00000000000000000000000000000011110000000000000000
00000000000000000000000000000011110000000000000000
00000000000000000000000000000011111000000000000000
00000000000000000000000000000111111000000000000000
00000000000000111100000000000111110000000000000000
00000000000001111110000000000111110000000000000000
00000000000001111111100000001111100000000000000000
00000000000001111111110000001111100000000000000000
00000000000000011111111111111111000000000000000000
00000000000000001111111111111100000000000000000000
00000000000000000000011001100000000000000000000000
00000000000000000000000000000000000000000000000000
00000000000000000000000000000000000000000000000000
00000000000000000000000000000000000000000000000000
00000000000000000000000000000000000000000000000000
00000000000000000000000000000000000000000000000000
00000000000000000000000000000000000000000000000000
00000000000000000000000000000000000000000000000000
00000000000000000000000000000000000000000000000000
00000000000000000000000000000000000000000000000000
00000000000000000000000000000000000000000000000000
00000000000000000000000000000000000000000000000000
00000000000000000000000000000000000000000000000000
00000000000000000000000000000000000000000000000000
00000000000000000000000000000000000000000000000000
00000000000000000000000000000000000000000000000000
