P1
50 70
00000000000000000000000000000000000000000000000000
00000000000000000000000000000000000000000000000000
00000000000000000000000000000000000000000000000000
00000000000000000000000000000000000000000000000000
00000000000000000000000000000000000000000000000000
00000000000000000000000000000000000000000000000000
00000000000000000000000000000000000000000000000000
00000000000000000000000000000000000000000000000000
00000000000000000000000000000000000000000000000000
00000000000000000000000000000000000000000000000000
00000000000000000000000000000000000000000000000000
00000000000011111110011000000000000000000000000000
00000000001111111111111111111000000000000000000000
00000000011111111111111111111111000000000000000000
00000000011111111111111111111111110000000000000000
00000000011111111111111111111111111000000000000000
00000000001111111111111111111111111111000000000000
00000000001111111100011001111111111111100000000000
00000000000100000000000000001111111111100000000000
00000000000000000000000000000011111111110000000000
00000000000000000000000000000000111111110000000000
00000000000000000000000000000000111111110000000000
00000000000000000000000000000000011111110000000000
00000000000000000000000000000000011111110000000000
00000000000000000000000000000000111111110000000000
00000000000000000000000000000000111111100000000000
00000000000000000000000000000001111111100000000000
00000000000000000000000000000001111111000000000000
00000000000000000000000000000011111110000000000000
00000000000000000000000000111111111110000000000000
00000000000000000000001111111111111000000000000000
00000000000000000111111111111111100000000000000000
00000000000000001111111111111111000000000000000000
00000000000000001111111111111111100000000000000000
00000000000000001111111111111111110000000000000000
00000000000000001111111111111111111000000000000000
00000000000000000110000000011111111100000000000000
00000000000000000000000000001111111100000000000000
00000000000000000000000000000111111110000000000000
00000000000000000000000000000011111110000000000000
00000000000000000000000000000001111110000000000000
00000000000000000000000000000001111110000000000000
00000000000000000000000000000011111110000000000000
00000000000000000000000000000011111110000000000000
00000000000000000000000000000011111100000000000000
00000000000000000000000000000111111100000000000000
00000000000000000000000000000111111000000000000000
00000000000000000000000000001111111000000000000000
00000000000000000000000000111111110000000000000000
00000000000000000000000001111111110000000000000000
00000000000000000000000011111111100000000000000000
00000000000000000000001111111111000000000000000000
00000000011111000100011111111110000000000000000000
00000000011111111111111111111100000000000000000000
00000000011111111111111111111000000000000000000000
00000000011111111111111111100000000000000000000000
00000000011111111111111110000000000000000000000000
00000000011111111111110000000000000000000000000000
00000000011111111111000000000000000000000000000000
00000000000011010000000000000000000000000000000000
00000000000000000000000000000000000000000000000000
00000000000000000000000000000000000000000000000000
00000000000000000000000000000000000000000000000000
00000000000000000000000000000000000000000000000000
00000000000000000000000000000000000000000000000000
00000000000000000000000000000000000000000000000000
00000000000000000000000000000000000000000000000000
00000000000000000000000000000000000000000000000000
00000000000000000000000000000000000000000000000000
00000000000000000000000000000000000000000000000000
