P1
50 70
00000000000000000000000000000000000000000000000000
00000000000000000000000000000000000000000000000000
00000000000000000000000000000000000000000000000000
00000000000000000000000000000000000000000000000000
00000000000000000000000000000000000000000000000000
00000000000000000000000000000000000000000000000000
00000000000000000000000000000000000000000000000000
00000000000000000000000000000000000000000000000000
00000000000000000000000000000000000000000000000000
00000000000000000000000000000000000000000000000000
00000000000000000000000000000000000000000000000000
00000000000000000000000000000000000000000000000000
00000000000000000000000000000111110000000000000000
00000000000000000000000000011111111111000000000000
00000000000000000000000000011111111111111100000000
00000000000000000000000000111111111111111111100000
00000000000000000000000000111111111111111111111110
00000000000000000000000001111111111011111111111110
00000000000000000000000001111111000000011111111110
00000000000000000000000011111110000000001111111110
00000000000000000000000111111000000000001111111110
00000000000000000000000111110000000000000111111110
00000000000000000000000111100000000000001111111110
00000000000000000000000000000000000000001111111110
00000000000000000000000000000000000000001111111110
00000000000000000000000000000000000000001111111110
00000000000000000000000000000000000000001111111110
00000000000000000000000000000000000000011111111110
00000000000000000000000000000000000000011111111110
00000000000000000000000000000000000000111111111110
00000000000000000000000000000000000001111111111110
00000000000000000000000000000000000111111111111110
00000000000000000000000000000000000111111111111110
00000000000000000000000001111111111111111111111110
00000000000000000000000011111111111111111111111100
00000000000000000000000011111111111111111111111100
00000000000000000000000111111111111111111111111000
00000000000000000000000011111111111111111111100000
11000000000000000000000001111111111111111111000000
00000000000000000000000000001111111111111000000001
11000000000000000000000000000111111111110000000000
00000000000000000000000000000011111111111000000001
11000000000000000000000000000011111111111100000000
11000000000000000000000000000001111111111100000001
11000111000000000000000000000001111111111110000001
00000111110000000000000000000011111111111110000001
01001111110000000000000000000011111111111110000000
11011111110000000000000000000011111111111111000000
00111111100000000000000000000011111111111111000001
00111111100000000000000000000111111111111111000000
11111111100000000000000000000111111111111111000000
11111111100000000000000000000111111111111111000001
00111111100000000000000000001111111111111110000001
00111111110000000000000000011111111111111110000001
00111111110000000000000000111111111111111110000000
11111111111000000000000001111111111111111100000000
11011111111110000000000111111111111111111100000000
00011111111111111100111111111111111111111000000001
00000111111111111111111111111111111111111000000000
00000001111111111111111111111111111111110000000000
11000000001111111111111111111111111111000000000000
00000000000011111111111111111111111110000000000001
11000000000000111111111111111111111100000000000000
11000000000000000011111111111111110000000000000001
00000000000000000000011111111111000000000000000001
00000000000000000000000000000000000000000000000000
00000000000000000000000000000000000000000000000000
00000000000000000000000000000000000000000000000000
00000000000000000000000000000000000000000000000000
00000000000000000000000000000000000000000000000000
