P1
50 70
00000000000000000000000000000000000000000000000000
00000000000000000000000000000000000000000000000000
00000000000000000000000000000000000000000000000000
00000000000000000000000000000000000000000000000000
00000000000000000000000000000000000000000000000000
00000000000000000000000000000000000000000000000000
00000000000000000000000000000000000000000000000000
00000000000000000000000000000000000000000000000000
00000000000000000000000000000000000000000000000000
00000000000000000000000000000000000000000000000000
00000000000000000000000000000000000000000000000000
00000000000000001111111000000000000000000000000000
00000000000000011111111111111010000000000000000000
00000000000111111111111111111111100000000000000000
00000000000111111111111111111111111000000000000000
00000000000111111111111111111111111100000000000000
00000000000111111111111111111111111100000000000000
00000000000111111111111111111111111110000000000000
00000000000111111111111111111111111111000000000000
00000000000111111111111011111111111111000000000000
00000000000111111111000000111111111111000000000000
00000000000111110000000000001111111111000000000000
00000000000000000000000000001111111111000000000000
00000000000000000000000000000111111111000000000000
00000000000000000000000000000111111111000000000000
00000000000000000000000000000111111111000000000000
00000000000000000000000000001111111111000000000000
00000000000000000000000000011111111110000000000000
00000000000000000000000011111111111100000000000000
00000000000000000011111111111111111000000000000000
00000000000000000011111111111111111000000000000000
00000000000000000011111111111111110000000000000000
00000000000000000011111111111111100000000000000000
00000000000000000011111111111111110000000000000000
00000000000000000011111111111111111000000000000000
00000000000000000011111111111111111100000000000000
00000000000000000011111111111111111110000000000000
00000000000000000000000011111111111110000000000000
00000000000000000000000000001111111110000000000000
00000000000000000000000000000111111111000000000000
00000000000000000000000000000111111111000000000000
00000000000000000000000000000011111111000000000000
00000000000000000000000000000011111111000000000000
00000000000000000000000000000011111111000000000000
00000000000000000000000000000111111111000000000000
00000000000000000000000000000111111111000000000000
00000000000000000000000000001111111111000000000000
00000000000001000000000000001111111111000000000000
00000000000011110000000001111111111111000000000000
00000000000011111111111011111111111110000000000000
00000000000011111111111111111111111110000000000000
00000000000011111111111111111111111100000000000000
00000000000011111111111111111111111000000000000000
00000000000011111111111111111111110000000000000000
00000000000011111111111111111111100000000000000000
00000000000011111111111111111110000000000000000000
00000000000001111111111111111000000000000000000000
00000000000000111111100011000000000000000000000000
00000000000000000000000000000000000000000000000000
00000000000000000000000000000000000000000000000000
00000000000000000000000000000000000000000000000000
00000000000000000000000000000000000000000000000000
00000000000000000000000000000000000000000000000000
00000000000000000000000000000000000000000000000000
00000000000000000000000000000000000000000000000000
00000000000000000000000000000000000000000000000000
00000000000000000000000000000000000000000000000000
00000000000000000000000000000000000000000000000000
00000000000000000000000000000000000000000000000000
00000000000000000000000000000000000000000000000000
