P1
50 70
00000000000000000000000000000000000000000000000000
00000000000000000000000000000000000000000000000000
00000000000000000000000000000000000000000000000000
00000000000000000000000000000000000000000000000000
00000000000000000000000000000000000000000000000000
00000000000000000000000000000000000000000000000000
00000000000000000000000000000000000000000000000000
00000000000000000000000000000000000000000000000000
00000000000000000000000000000000000000000000000000
00000000000000000000000000000000000000000000000000
00000000000000000000000000000000000000000000000000
00000000000000000001111111110000000000000000000000
00000000000000000011111111111111000000000000000000
00000000000000000011111111111111111000000000000000
00000000000000000011111111111111111110000000000000
00000000000000000011111111111111111111000000000000
00000000000000000111111111111111111111100000000000
00000000000000000111111111111111111111110000000000
00000000000000000111111111111111111111110000000000
00000000000000000111100000000111111111111000000000
00000000000000000110000000000011111111111100000000
00000000000000000000000000000000111111111100000000
00000000000000000000000000000000011111111100000000
00000000000000000000000000000000011111111000000000
00000000000000000000000000000000011111111000000000
00000000000000000000000000000000111111111000000000
00000000000000000000000000000001111111111000000000
00000000000000000000001000011111111111111000000000
00000000000000000000011111111111111111110000000000
00000000000000000000011111111111111111100000000000
00000000000000000000011111111111111110000000000000
00000000000000000000111111111111111100000000000000
00000000000000000000111111111111111110000000000000
00000000000000000000111111111111111111000000000000
00000000000000000000111111111111111111000000000000
00000000000000000000110111111111111111100000000000
00000000000000000000000000000011111111110000000000
00000000000000000000000000000011111111110000000000
00000000000000000000000000000001111111110000000000
00000000000000000000000000000001111111110000000000
00000000000000000000000000000000111111111000000000
00000000000000000000000000000001111111111000000000
00000000000000000000000000000001111111110000000000
00000000000000000000000000000011111111110000000000
00000000000000000000000000001111111111110000000000
00000000000000000000000000111111111111100000000000
00000000001111100111111111111111111111000000000000
00000000011111111111111111111111111110000000000000
00000000011111111111111111111111111100000000000000
00000000011111111111111111111111111000000000000000
00000000011111111111111111111111100000000000000000
00000000011111111111111111111100000000000000000000
00000000111111111111111111110000000000000000000000
00000000111111111111111100000000000000000000000000
00000000111111111111000000000000000000000000000000
00000000111111000000000000000000000000000000000000
00000000000000000000000000000000000000000000000000
00000000000000000000000000000000000000000000000000
00000000000000000000000000000000000000000000000000
00000000000000000000000000000000000000000000000000
00000000000000000000000000000000000000000000000000
00000000000000000000000000000000000000000000000000
00000000000000000000000000000000000000000000000000
00000000000000000000000000000000000000000000000000
00000000000000000000000000000000000000000000000000
00000000000000000000000000000000000000000000000000
00000000000000000000000000000000000000000000000000
00000000000000000000000000000000000000000000000000
00000000000000000000000000000000000000000000000000
00000000000000000000000000000000000000000000000000
