P1
50 70
00000000000000000000000000000000000000000000000000
00000000000000000000000000000000000000000000000000
00000000000000000000000000000000000000000000000000
00000000000000000000000000000000000000000000000000
00000000000000000000000000000000000000000000000000
00000000000000000000000000000000000000000000000000
00000000000000000000000000000000000000000000000000
00000000000000000000000000000000000000000000000000
00000000000000000000000000000000000000000000000000
00000000000000000000000000000000000000000000000000
00000000000000000000000000000000000000000000000000
00000000000000000000000000000000000000000000000000
00000000000000000000000000000000000000000000000000
00000000000000000000000000000000000000000000000000
00000000000000000000000000000000000000000000000000
00000000000000000000011111111000000000000000000000
00000000000000000000111111111100000000000000000000
00000000000000000000111111111100000000000000000000
00000000000000000001111111111100000000000000000000
00000000000000000001111111111100000000000000000000
00000000000000000011111111111100000000000000000000
00000000000000000011111111111100000000000000000000
00000000000000000111111111111110000000000000000000
00000000000000000111111111111110000000000000000000
00000000000000000111111111111110000000000000000000
00000000000000001111111111111110000000000000000000
00000000000000001111111111111110000000000000000000
00000000000000001111001111111110000000000000000000
00000000000000011111001111111110000000000000000000
00000000000000111110001111111110000000000000000000
00000000000000111110001111111110000000000000000000
00000000000000111110001111111111000000000000000000
00000000000001111100001111111111000000000000000000
00000000000001111100000111111111000000000000000000
00000000000001111000000111111111000000000000000000
00000000000011111000000111111111000000000000000000
00000000000011110000000111111111000000000000000000
00000000000111110000000111111111000000000000000000
00000000000111110000000111111111100011000000000000
00000000001111110000000111111111111111000000000000
00000000001111110001111111111111111111000000000000
00000000001111111111111111111111111111000000000000
00000000001111111111111111111111111111000000000000
00000000001111111111111111111111100000000000000000
00000000001111111111000111111111100000000000000000
00000000001100000000000011111111100000000000000000
00000000000000000000000011111111100000000000000000
00000000000000000000000011111111110000000000000000
00000000000000000000000011111111111011100000000000
00000000000000000000000011111111111111100000000000
00000000000000000000110011111111111111100000000000
00000000000000000000111111111111111111100000000000
00000000000000000000111111111111111111000000000000
00000000000000000000111111111000000000000000000000
00000000000000000000000000000000000000000000000000
00000000000000000000000000000000000000000000000000
00000000000000000000000000000000000000000000000000
00000000000000000000000000000000000000000000000000
00000000000000000000000000000000000000000000000000
00000000000000000000000000000000000000000000000000
00000000000000000000000000000000000000000000000000
00000000000000000000000000000000000000000000000000
00000000000000000000000000000000000000000000000000
00000000000000000000000000000000000000000000000000
00000000000000000000000000000000000000000000000000
00000000000000000000000000000000000000000000000000
00000000000000000000000000000000000000000000000000
00000000000000000000000000000000000000000000000000
00000000000000000000000000000000000000000000000000
00000000000000000000000000000000000000000000000000
