P1
50 70
00000000000000000000000000000000000000000000000000
00000000000000000000000000000000000000000000000000
00000000000000000000000000000000000000000000000000
00000000000000000000000000000000000000000000000000
00000000000000000000000000000000000000000000000000
00000000000000000000000000000000000000000000000000
00000000000000000000000000000000000000000000000000
00000000000000000000000000000000000000000000000000
00000000000000000000000000000000000000000000000000
00000000000000000000000000000000000000000000000000
00000000000000000000000000000000000000000000000000
00000000000000000000000000000000000000000000000000
00000000000000000000000000000000000000000000000000
00000000000000000000000000000000000000000000000000
00000000000000000000000110000000000000000000000000
00000000000000000000111111000000000000000000000000
00000000000000000001111111100000000000000000000000
00000000000000000011111111100000000000000000000000
00000000000000000111111111100000000000000000000000
00000000000000000111111111100000000000000000000000
00000000000000000111111111110000000000000000000000
00000000000000000111111111110000000000000000000000
00000000000000000111111111110000000000000000000000
00000000000000001111111111110000000000000000000000
00000000000000001111111111111000000000000000000000
00000000000000001111111111111100000000000000000000
00000000000000001111111111111100000000000000000000
00000000000000001111111111111100000000000000000000
00000000000000011111111111111100000000000000000000
00000000000000011111101111111100000000000000000000
00000000000000011111001111111110000000000000000000
00000000000000011111000111111110000000000000000000
00000000000000111111000111111111000000000000000000
00000000000000111111000111111111000000000000000000
00000000000001111110000111111111000000000000000000
00000000000001111110000011111111000000000000000000
00000000000001111100000001111111100011000000000000
00000000000001111110000001111111111111100000000000
00000000000011111100000001111111111111100000000000
00000000000011111100000001111111111111110000000000
00000000000111111100000001111111111111110000000000
00000000000111111000000011111111111111110000000000
00000000000111111000011111111111111111110000000000
00000000001111111000111111111111111110000000000000
00000000001111111111111111111111111100000000000000
00000000011111111111111111111111111100000000000000
00000000011111111111111111111111111110000000000000
00000000011111111111111111111111111110000000000000
00000000011111111111111110001111111111000000000000
00000000011111111111110000001111111111000000000000
00000000011111111111000000001111111111000000000000
00000000011111111000000000000111111111000000000000
00000000011111100000000000000111111100000000000000
00000000011100000000000000000111111000000000000000
00000000000000000000000000000010000000000000000000
00000000000000000000000000000000000000000000000000
00000000000000000000000000000000000000000000000000
00000000000000000000000000000000000000000000000000
00000000000000000000000000000000000000000000000000
00000000000000000000000000000000000000000000000000
00000000000000000000000000000000000000000000000000
00000000000000000000000000000000000000000000000000
00000000000000000000000000000000000000000000000000
00000000000000000000000000000000000000000000000000
00000000000000000000000000000000000000000000000000
00000000000000000000000000000000000000000000000000
00000000000000000000000000000000000000000000000000
00000000000000000000000000000000000000000000000000
00000000000000000000000000000000000000000000000000
00000000000000000000000000000000000000000000000000
