P1
50 70
00000000000000000000000000000000000000000000000000
00000000000000000000000000000000000000000000000000
00000000000000000000000000000000000000000000000000
00000000000000000000000000000000000000000000000000
00000000000000000000000000000000000000000000000000
00000000000000000000000000000000000000000000000000
00000000000000000000000000000000000000000000000000
00000000000000000000000000000000000000000000000000
00000000000000000000000000000000000000000000000000
00000000000000000000000000000000000000000000000000
00000000000000000000000000000000000000000000000000
00000000000000000000000000000000000000000000000000
00000000000000000000000000000011000000000000000000
00000000000000000000000000011111000000000000000000
00000000000000000000000011111111000000000000000000
00000000000000000000000011111111000000000000000000
00000000000000000000000111111111000000000000000000
00000000000000000000000111111111000000000000000000
00000000000000000000001111111111000000000000000000
00000000000000000000001111111111000000000000000000
00000000000000000000011111111111000000000000000000
00000000000000000000011111111111000000000000000000
00000000000000000000111111111111000000000000000000
00000000000000000000111111111111000000000000000000
00000000000000000000111111111111000000000000000000
00000000000000000001111111111111000000000000000000
00000000000000000001111110111111000000000000000000
00000000000000000011111100111111000000000000000000
00000000000000000011111100111111000000000000000000
00000000000000000011111100111111000000000000000000
00000000000000000111111000111111000000000000000000
00000000000000000111111000011111100000000000000000
00000000000000000111111000111111111000000000000000
00000000000000000111111000111111111100000000000000
00000000000000001111110000111111111100000000000000
00000000000000001111100000111111111100000000000000
00000000000000001111100001111111111000000000000000
00000000000000011111100111111111110000000000000000
00000000000000011111111111111111110000000000000000
00000000000000011111111111111111100000000000000000
00000000000000111111111111111111110000000000000000
00000000000000111111111111111111111000000000000000
00000000000000111111111111111111111100000000000000
00000000000000111111111111111111111100000000000000
00000000000000111111111110111111111100000000000000
00000000000000111111111001111111111000000000000000
00000000000000111111110011111111111000000000000000
00000000000000111110000111111111110000000000000000
00000000000000111100000111111111000000000000000000
00000000000000111000000111111110000000000000000000
00000000000000000000001111111100000000000000000000
00000000000000000000001111110000000000000000000000
00000000000000000000000111100000000000000000000000
00000000000000000000000000000000000000000000000000
00000000000000000000000000000000000000000000000000
00000000000000000000000000000000000000000000000000
00000000000000000000000000000000000000000000000000
00000000000000000000000000000000000000000000000000
00000000000000000000000000000000000000000000000000
00000000000000000000000000000000000000000000000000
00000000000000000000000000000000000000000000000000
00000000000000000000000000000000000000000000000000
00000000000000000000000000000000000000000000000000
00000000000000000000000000000000000000000000000000
00000000000000000000000000000000000000000000000000
00000000000000000000000000000000000000000000000000
00000000000000000000000000000000000000000000000000
00000000000000000000000000000000000000000000000000
00000000000000000000000000000000000000000000000000
00000000000000000000000000000000000000000000000000
