P1
50 70
00000000000000000000000000000000000000000000000000
00000000000000000000000000000000000000000000000000
00000000000000000000000000000000000000000000000000
00000000000000000000000000000000000000000000000000
00000000000000000000000000000000000000000000000000
00000000000000000000000000000000000000000000000000
00000000000000000000000000000000000000000000000000
00000000000000000000000000000000000000000000000000
00000000000000000000000000000000000000000000000000
00000000000000000000000000000000000000000000000000
00000000000000000000000000000000000000000000000000
00000000000000000000000000000000000000000000000000
00000000000000000000000000000000000000000000000000
00000000000000000000000000000000000000000000000000
00000000000000000000000000000011111000000000000000
00000000000000000000000000000111111100000000000000
00000000000000000000000000001111111100000000000000
00000000000000000000000000001111111100000000000000
00000000000000000000000000011111111000000000000000
00000000000000000000000000111111111000000000000000
00000000000000000000000000111111111100000000000000
00000000000000000000000001111111111100000000000000
00000000000000000000000011111111111100000000000000
00000000000000000000000011111111111000000000000000
00000000000000000000000111111111111000000000000000
00000000000000000000000111101111111000000000000000
00000000000000000000001111101111111000000000000000
00000000000000000000011111001111111000000000000000
00000000000000000000011110001111111000000000000000
00000000000000000000111110001111111000000000000000
00000000000000000001111100001111111000000000000000
00000000000000000001111100001111110000000000000000
00000000000000000011111000001111110000000000000000
00000000000000000111110000001111110000000000000000
00000000000000000111110000011111110000000000000000
00000000000000001111100000011111110000000000000000
00000000000000001111000000011111110000000000000000
00000000000000011111000000001111110000000000000000
00000000000000111110000000011111110000000000000000
00000000000000111110000000011111110000000000000000
00000000000001111100000000011111100000000000000000
00000000000011111100000000011111100000000000000000
00000000000011111000000000011111100000000000000000
00000000000011111000000000011111110100000000000000
00000000000111111111111111111111111111110000000000
00000000001111111111111111111111111111110000000000
00000000000111111111111111111111111111110000000000
00000000000111111111111111111111111111100000000000
00000000000011001100010001111111110000000000000000
00000000000000000000000000111111100000000000000000
00000000000000000000000000111111100000000000000000
00000000000000000000000000111111100000000000000000
00000000000000000000000000111111000000000000000000
00000000000000000000000000111111000000000000000000
00000000000000000000000000111111000000000000000000
00000000000000000000000001111111001000000000000000
00000000000000000000111111111111111110000000000000
00000000000000000000111111111111111110000000000000
00000000000000000000111111111111111110000000000000
00000000000000000000111111111101110000000000000000
00000000000000000000000000000000000000000000000000
00000000000000000000000000000000000000000000000000
00000000000000000000000000000000000000000000000000
00000000000000000000000000000000000000000000000000
00000000000000000000000000000000000000000000000000
00000000000000000000000000000000000000000000000000
00000000000000000000000000000000000000000000000000
00000000000000000000000000000000000000000000000000
00000000000000000000000000000000000000000000000000
00000000000000000000000000000000000000000000000000
