P1
50 70
00000000000000000000000000000000000000000000000000
00000000000000000000000000000000000000000000000000
00000000000000000000000000000000000000000000000000
00000000000000000000000000000000000000000000000000
00000000000000000000000000000000000000000000000000
00000000000000000000000000000000000000000000000000
00000000000000000000000000000000000000000000000000
00000000000000000000000000000000000000000000000000
00000000000000000000000000000000000000000000000000
00000000000000000000000000000000000000000000000000
00000000000000000000000000000000000000000000000000
00000000000000000000000000000000000000000000000000
00000000000000000000000000000000000000000000000000
00000000000000000000000000000000000000000000000000
00000000000000000000000000000000000000000000000000
00000000000000000000000000000000000000000000000000
00000000000000000000000000000000000000000000000000
00000000000000000000000000111111000000000000000000
00000000000000000000000001111111100000000000000000
00000000000000000000000001111111100000000000000000
00000000000000000000000011111111000000000000000000
00000000000000000000000111111111000000000000000000
00000000000000000000001111111111000000000000000000
00000000000000000000001111111111000000000000000000
00000000000000000000011111111111000000000000000000
00000000000000000000011111111111100000000000000000
00000000000000000000111111011111100000000000000000
00000000000000000000111110001111100000000000000000
00000000000000000001111100001111100000000000000000
00000000000000000011111100001111000000000000000000
00000000000000000011111100011111000000000000000000
00000000000000000111111000011111000000000000000000
00000000000000001111110000011111000000000000000000
00000000000000011111110000011111100000000000000000
00000000000000111111100000011111100000000000000000
00000000000000111111100000011111100000000000000000
00000000000001111111000000011111100000000000000000
00000000000001111110000000011111100000000000000000
00000000000011111100000000001111000000000000000000
00000000000111111100000000011111000000000000000000
00000000001111111000000000011111100000000000000000
00000000011111110000000000011111100000000000000000
00000000011111100000000000011111100000000000000000
00000000011111110000000000011111100000000000000000
00000000011111111111100000011111100000000000000000
00000000011111111111111110111111100000000000000000
00000000011111111111111111111111110000000000000000
00000000011111111111111111111111111111100000000000
00000000011111111111111111111111111111100000000000
00000000000000000111111111111111111111100000000000
00000000000000000000000001111111111111100000000000
00000000000000000000000000111111111111110000000000
00000000000000000000000000011111111011110000000000
00000000000000000000000000011111110000000000000000
00000000000000000000000000001111110000000000000000
00000000000000000000000000001111110000000000000000
00000000000000000000000000001111110000000000000000
00000000000000000000000000001111110000000000000000
00000000000000000000000000011111110000000000000000
00000000000000000000000000001111110000000000000000
00000000000000000000000000001111110000000000000000
00000000000000000000000000001111111000000000000000
00000000000000000000000000000011111000000000000000
00000000000000000000000000000000000000000000000000
00000000000000000000000000000000000000000000000000
00000000000000000000000000000000000000000000000000
00000000000000000000000000000000000000000000000000
00000000000000000000000000000000000000000000000000
00000000000000000000000000000000000000000000000000
00000000000000000000000000000000000000000000000000
