P1
50 70
00000000000000000000000000000000000000000000000000
00000000000000000000000000000000000000000000000000
00000000000000000000000000000000000000000000000000
00000000000000000000000000000000000000000000000000
00000000000000000000000000000000000000000000000000
00000000000000000000000000000000000000000000000000
00000000000000000000000000000000000000000000000000
00000000000000000000000000000000000000000000000000
00000000000000000000000000000000000000000000000000
00000000000000000000000000000000000000000000000000
00000000000000000000000000000000000000000000000000
00000000000000000000000000000001111000000000000000
00000000000000000000000000001111111111000000000000
00000000000000000000000000011111111111100000000000
00000000000000000000000000111111111111100000000000
00000000000000000000000001111111111111100000000000
00000000000000000000000001111111111111100000000000
00000000000000000000000011111111111111100000000000
00000000000000000000000111111111111111000000000000
00000000000000000000001111111111111111000000000000
00000000000000000000011111111111111111000000000000
00000000000000000000111111111111111111000000000000
00000000000000000001111111111111111111000000000000
00000000000000000001111100111111111110000000000000
00000000000000000011111100111111111110000000000000
00000000000000000111111000111111111110000000000000
00000000000000000111110000111111111110000000000000
00000000000000001111110001111111111110000000000000
00000000000000011111100001111111111100000000000000
00000000000000011111100001111111111100000000000000
00000000000000111111000001111111111100000000000000
00000000000000111110000001111111111100000000000000
00000000000001111100000001111111111100000000000000
00000000000011111100000001111111111100000000000000
00000000000011111000000001111111111000000000000000
00000000000111110000000001111111111000000000000000
00000000000111110000000001111111111000000000000000
00000000001111100000000011111111111000000000000000
00000000011111100000000011111111111000111100000000
00000000011111000000000011111111111111111100000000
00000000111111000000000111111111111111111100000000
00000000111111000111111111111111111111111000000000
00000001111111111111111111111111111111110000000000
00000001111111111111111111111111111000000000000000
00000001111111111111111111111111111000000000000000
00000001111111111111101111111111110000000000000000
00000001111111100000000111111111110000000000000000
00000001000000000000000111111111110000000000000000
00000000000000000000000111111111110000000000000000
00000000000000000000000111111111110000000000000000
00000000000000000000001111111111111111100000000000
00000000000000000000001111111111111111100000000000
00000000000000000000001111111111111111100000000000
00000000000000000000011111111111111111100000000000
00000000000000001111111111111111111000000000000000
00000000000000001111111111111000000000000000000000
00000000000000011111111110000000000000000000000000
00000000000000011111110000000000000000000000000000
00000000000000001110000000000000000000000000000000
00000000000000000000000000000000000000000000000000
00000000000000000000000000000000000000000000000000
00000000000000000000000000000000000000000000000000
00000000000000000000000000000000000000000000000000
00000000000000000000000000000000000000000000000000
00000000000000000000000000000000000000000000000000
00000000000000000000000000000000000000000000000000
00000000000000000000000000000000000000000000000000
00000000000000000000000000000000000000000000000000
00000000000000000000000000000000000000000000000000
00000000000000000000000000000000000000000000000000
