P1
50 70
00000000000000000000000000000000000000000000000000
00000000000000000000000000000000000000000000000000
00000000000000000000000000000000000000000000000000
00000000000000000000000000000000000000000000000000
00000000000000000000000000000000000000000000000000
00000000000000000000000000000000000000000000000000
00000000000000000000000000000000000000000000000000
00000000000000000000000000000000000000000000000000
00000000000000000000000000000000000000000000000000
00000000000000000000000000000000000000000000000000
00000000000000000000000000000000000000000000000000
00000000000000000000000000000000000000000000000000
00000000000000000000000000000000000000000000000000
00000000000000000000000000000000000000000000000000
00000000000000000000000000000000000000000000000000
00000000000000000000000000000000000000000000000000
00000000000000000000000000000000000000000000000000
00000000000000000000000000000000000000000000000000
00000000000000000000000000000000000000000000000000
00000000000000000000000000000000000000000000000000
00000000000000000000000000000000001111000000000000
00000000000000000000000000000000011111100000000000
00000000000000000000000000000001111111100000000000
00000000000000000000000000000001111111100000000000
00000000000000000000000000000111111111100000000000
00000000000000000000000000001111111111100000000000
00000000000000000000000000001111101111000000000000
00000000000000000000000000011111001111000000000000
00000000000000000000000000111100001111000000000000
00000000000000000000000011111100001111000000000000
00000000000000000000000111111000001111000000000000
00000000000000000000001111110000001111000000000000
00000000000000000000011111100000001110000000000000
00000000000000000000111110000000011110000000000000
00000000000000000001111110000000011110000000000000
00000000000000000011111100000000011110000000000000
00000000000000000011111000000000011110000000000000
00000000000000000111110000000000011110000000000000
00000000000000011111100000000000011110000000000000
00000000000000111111000000000000011100000000000000
00000000000001111110000000000000111100000000000000
00000000000011111100000000000000111100000000000000
00000000000111111000000000000000111100000000000000
00000000001111110000000000000000111100000000000000
00000000011111110000000000000000111100000000000000
00000000011111111111111111111001111100000000000000
00000000111111111111111111111111111111111100000000
00000000111111111111111111111111111111111100000000
00000000111011110011111001111111111111111100000000
00000000000000000000000000000001111000000000000000
00000000000000000000000000000001111000000000000000
00000000000000000000000000000001111000000000000000
00000000000000000000000000000001110000000000000000
00000000000000000000000000000011110000000000000000
00000000000000000000000000000011110000000000000000
00000000000000000000000000000011110000000000000000
00000000000000000000000000000111110000000000000000
00000000000000000000000000000111110000000000000000
00000000000000000000000000000011100000000000000000
00000000000000000000000000000000000000000000000000
00000000000000000000000000000000000000000000000000
00000000000000000000000000000000000000000000000000
00000000000000000000000000000000000000000000000000
00000000000000000000000000000000000000000000000000
00000000000000000000000000000000000000000000000000
00000000000000000000000000000000000000000000000000
00000000000000000000000000000000000000000000000000
00000000000000000000000000000000000000000000000000
00000000000000000000000000000000000000000000000000
00000000000000000000000000000000000000000000000000
