P1
50 70
00000000000000000000000000000000000000000000000000
00000000000000000000000000000000000000000000000000
00000000000000000000000000000000000000000000000000
00000000000000000000000000000000000000000000000000
00000000000000000000000000000000000000000000000000
00000000000000000000000000000000000000000000000000
00000000000000000000000000000000000000000000000000
00000000000000000000000000000000000000000000000000
00000000000000000000000000000000000000000000000000
00000000000000000000000000000000000000000000000000
00000000000000000000000000000000000000000000000000
00000000000000000000000000000100000000000000000000
00000000000000000000000001111110000000000000000000
00000000000000000000000011111110000000000000000000
00000000000000000000000011111100000000000000000000
00000000000000000000000111111100000000000000000000
00000000000000000000000111111100000000000000000000
00000000000000000000000111111110000000000000000000
00000000000000000000001111111110000000000000000000
00000000000000000000011111111110000000000000000000
00000000000000000000011111111110000000000000000000
00000000000000000000011111111110000000000000000000
00000000000000000000111111111110000000000000000000
00000000000000000000111111111111000000000000000000
00000000000000000000111111011111000000000000000000
00000000000000000001111110011111000000000000000000
00000000000000000001111100111111000000000000000000
00000000000000000001111100111111000000000000000000
00000000000000000011111000111111000000000000000000
00000000000000000011111000011111100000000000000000
00000000000000000011111000011111100000000000000000
00000000000000000111110000011111100000000000000000
00000000000000000111110000011111100000000000000000
00000000000000001111110000011111100000000000000000
00000000000000001111100000011111100000000000000000
00000000000000011111100000001111100000000000000000
00000000000000011111000000001111100000000000000000
00000000000000011111000000001111100000000000000000
00000000000000111111000000001111100111000000000000
00000000000000111111000000001111111111000000000000
00000000000000111110000000011111111111000000000000
00000000000001111110000001111111111111000000000000
00000000000001111100011111111111111111000000000000
00000000000001111111111111111111111100000000000000
00000000000011111111111111111111110000000000000000
00000000000011111111111111111111110000000000000000
00000000000011111111111110001111110000000000000000
00000000000011111111111100001111110000000000000000
00000000000011111111000000000111111000000000000000
00000000000001111100000000000111111000000000000000
00000000000001100000000000000111111000000000000000
00000000000000000000000000000111111000000000000000
00000000000000000000000000000111111000000000000000
00000000000000000000000000000111111000000000000000
00000000000000000000000000000011000000000000000000
00000000000000000000000000000000000000000000000000
00000000000000000000000000000000000000000000000000
00000000000000000000000000000000000000000000000000
00000000000000000000000000000000000000000000000000
00000000000000000000000000000000000000000000000000
00000000000000000000000000000000000000000000000000
00000000000000000000000000000000000000000000000000
00000000000000000000000000000000000000000000000000
00000000000000000000000000000000000000000000000000
00000000000000000000000000000000000000000000000000
00000000000000000000000000000000000000000000000000
00000000000000000000000000000000000000000000000000
00000000000000000000000000000000000000000000000000
00000000000000000000000000000000000000000000000000
00000000000000000000000000000000000000000000000000
