P1
50 70
00000000000000000000000000000000000000000000000000
00000000000000000000000000000000000000000000000000
00000000000000000000000000000000000000000000000000
00000000000000000000000000000000000000000000000000
00000000000000000000000000000000000000000000000000
00000000000000000000000000000000000000000000000000
00000000000000000000000000000000000000000000000000
00000000000000000000000000000000000000000000000000
00000000000000000000000000000000000000000000000000
00000000000000000000000000000000000000000000000000
00000000000000000000000000000000000000110000000000
00000000000000000000000000001111111111110000000000
00000000000000000000000000011111111111110000000000
00000000000000000000000000111111111111100000000000
00000000000000000000000001111111111111100000000000
00000000000000000000000011111111111111100000000000
00000000000000000000000011111111111111000000000000
00000000000000000000000111111111111111000000000000
00000000000000000000000111111111111111000000000000
00000000000000000000001111111111111110000000000000
00000000000000000000011111111111111100000000000000
00000000000000000000011111111111111100000000000000
00000000000000000000111111111111111100000000000000
00000000000000000001111111111111111100000000000000
00000000000000000011111111011111111000000000000000
00000000000000000011111111011111111000000000000000
00000000000000000111111110111111111000000000000000
00000000000000000111111100111111110000000000000000
00000000000000001111111100111111110000000000000000
00000000000000011111111000111111110000000000000000
00000000000000011111111000111111100000000000000000
00000000000000011111110001111111100000000000000000
00000000000000011111100001111111000000000000000000
00000000000000111111100001111111000000000000000000
00000000000000111111000001111111000000000000000000
00000000000001111111000001111111000000000000000000
00000000000001111110000001111111000000000000000000
00000000000001111110000001111110000000000000000000
00000000000001111110000011111110000000000000000000
00000000000011111100000011111110000000000000000000
00000000000011111100000011111110000000000000000000
00000000000111111000000111111111100000000000000000
00000000001111110000000111111111110000000000000000
00000000001111111000001111111111110000000000000000
00000000001111111111111111111111110000000000000000
00000000001111111111111111111111110000000000000000
00000000001111111111111111111111100000000000000000
00000000001111111111111111111111100000000000000000
00000000001111111111111111111111100000000000000000
00000000001111111111111111111111100000000000000000
00000000001111111111111111111000000000000000000000
00000000001111111111111111110000000000000000000000
00000000001111111110001111110000000000000000000000
00000000001110000000001111110000000000000000000000
00000000000000000000011111110000000000000000000000
00000000000000000000011111110000000000000000000000
00000000000000000000011111110000000000000000000000
00000000000000000000011111100000000000000000000000
00000000000000000000011111100000000000000000000000
00000000000000000000011111100000000000000000000000
00000000000000000000011110000000000000000000000000
00000000000000000000000000000000000000000000000000
00000000000000000000000000000000000000000000000000
00000000000000000000000000000000000000000000000000
00000000000000000000000000000000000000000000000000
00000000000000000000000000000000000000000000000000
00000000000000000000000000000000000000000000000000
00000000000000000000000000000000000000000000000000
00000000000000000000000000000000000000000000000000
00000000000000000000000000000000000000000000000000
