P1
50 70
00000000000000000000000000000000000000000000000000
00000000000000000000000000000000000000000000000000
00000000000000000000000000000000000000000000000000
00000000000000000000000000000000000000000000000000
00000000000000000000000000000000000000000000000000
00000000000000000000000000000000000000000000000000
00000000000000000000000000000000000000000000000000
00000000000000000000000000000000000000000000000000
00000000000000000000000000000000000000000000000000
00000000000000000000000000000000000000000000000000
00000000000000000000000000000000000000000000000000
00000000000000000000000000000000000000000000000000
00000000000000000000000000000000000000000000000000
00000000000000000000000000000000000000000000000000
00000000000000000000000000000000000000000000000000
00000000000000000000000000000000000000000000000000
00000000000000000000000000000000000000000000000000
00000000000000000000000000000000000000000000000000
00000000000000000000000000000000000000000000000000
00000000000000000000000000111000000000000000000000
00000000000000000000000001111110000000000000000000
00000000000000000000000011111111000000000000000000
00000000000000000000000111111111100000000000000000
00000000000000000000001111111111100000000000000000
00000000000000000000001111111111000000000000000000
00000000000000000000011111111111000000000000000000
00000000000000000000111111111111000000000000000000
00000000000000000001111111111111000000000000000000
00000000000000000011111110111111000000000000000000
00000000000000000111111101111111000000000000000000
00000000000000000111111001111111100000000000000000
00000000000000001111110001111111100000000000000000
00000000000000011111110001111111000000000000000000
00000000000000011111100000111111000000000000000000
00000000000000111111000000111111000000000000000000
00000000000001111111000000111111000000000000000000
00000000000001111110000000111111000000000000000000
00000000000001111100000000111111000000000000000000
00000000000011111000000000111111000000000000000000
00000000000011111000000000111111000000000000000000
00000000000111110000000000111111000000000000000000
00000000001111100000000000111111000000000000000000
00000000001111100000000000111111000000000000000000
00000000001111111100000001111111000000000000000000
00000000001111111111111111111111000000000000000000
00000000001111111111111111111111100000000000000000
00000000000111111111111111111111111111100000000000
00000000000000001111111111111111111111100000000000
00000000000000000000000001111111111111100000000000
00000000000000000000000000111111011111000000000000
00000000000000000000000000111111000000000000000000
00000000000000000000000000111111000000000000000000
00000000000000000000000000111111000000000000000000
00000000000000000000000000111111000000000000000000
00000000000000000000011000111111000000000000000000
00000000000000000000111111111111111100000000000000
00000000000000000000111111111111111110000000000000
00000000000000000000111111111111111110000000000000
00000000000000000000011111001111111110000000000000
00000000000000000000000000000000000000000000000000
00000000000000000000000000000000000000000000000000
00000000000000000000000000000000000000000000000000
00000000000000000000000000000000000000000000000000
00000000000000000000000000000000000000000000000000
00000000000000000000000000000000000000000000000000
00000000000000000000000000000000000000000000000000
00000000000000000000000000000000000000000000000000
00000000000000000000000000000000000000000000000000
00000000000000000000000000000000000000000000000000
00000000000000000000000000000000000000000000000000
