P1
50 70
00000000000000000000000000000000000000000000000000
00000000000000000000000000000000000000000000000000
00000000000000000000000000000000000000000000000000
00000000000000000000000000000000000000000000000000
00000000000000000000000000000000000000000000000000
00000000000000000000000000000000000000000000000000
00000000000000000000000000000000000000000000000000
00000000000000000000000000000000000000000000000000
00000000000000000000000000000000000000000000000000
00000000000000000000000000000000000000000000000000
00000000000000000000000000000000000000000000000000
00000000000000000000000000000000000000000000000000
00000000000000000000000000000000000000000000000000
00000000000000000000000000000000000000000000000000
00000000000000000000000000000000001111100000000000
00000000000000000000000000000000011111110000000000
00000000000000000000000000000000111111110000000000
00000000000000000000000000000001111111110000000000
00000000000000000000000000000001111111110000000000
00000000000000000000000000000011111111110000000000
00000000000000000000000000000111111111110000000000
00000000000000000000000000001111111111110000000000
00000000000000000000000000001111111111100000000000
00000000000000000000000000011111111111100000000000
00000000000000000000000000111110111111100000000000
00000000000000000000000001111100111111100000000000
00000000000000000000000001111100111111100000000000
00000000000000000000000011111000111111000000000000
00000000000000000000000011110000111111000000000000
00000000000000000000000111110000111111000000000000
00000000000000000000001111100001111111000000000000
00000000000000000000011111000001111110000000000000
00000000000000000000011110000001111110000000000000
00000000000000000000111110000001111110000000000000
00000000000000000001111100000001111110000000000000
00000000000000000011111000000001111100000000000000
00000000000000000011111000000011111100000000000000
00000000000000000111110000000011111100000000000000
00000000000000001111100000000011111100110000000000
00000000000000001111000000000011111111111000000000
00000000000000011111000000000111111111111000000000
00000000000000111110000000111111111111110000000000
00000000000001111100000111111111111111110000000000
00000000000011111111111111111111111111110000000000
00000000000011111111111111111111111100000000000000
00000000000111111111111111111111111000000000000000
00000000000111111111111111111111110000000000000000
00000000000111111111111100001111110000000000000000
00000000001111111111100000001111110000000000000000
00000000001111111100000000001111110000000000000000
00000000001111100000000000011111110000000000000000
00000000011110000000000000011111100000000000000000
00000000000000000000000000111111100000000000000000
00000000000000000000000000111111100000000000000000
00000000000000000000000000111111100000000000000000
00000000000000000000000000111100000000000000000000
00000000000000000000000000000000000000000000000000
00000000000000000000000000000000000000000000000000
00000000000000000000000000000000000000000000000000
00000000000000000000000000000000000000000000000000
00000000000000000000000000000000000000000000000000
00000000000000000000000000000000000000000000000000
00000000000000000000000000000000000000000000000000
00000000000000000000000000000000000000000000000000
00000000000000000000000000000000000000000000000000
00000000000000000000000000000000000000000000000000
00000000000000000000000000000000000000000000000000
00000000000000000000000000000000000000000000000000
00000000000000000000000000000000000000000000000000
00000000000000000000000000000000000000000000000000
