P1
50 70
00000000000000000000000000000000000000000000000000
00000000000000000000000000000000000000000000000000
00000000000000000000000000000000000000000000000000
00000000000000000000000000000000000000000000000000
00000000000000000000000000000000000000000000000000
00000000000000000000000000000000000000000000000000
00000000000000000000000000000000000000000000000000
00000000000000000000000000000000000000000000000000
00000000000000000000000000000000000000000000000000
00000000000000000000000000000000000000000000000000
00000000000000000000000000000000000000000000000000
00000000000000000000000000000000000000000000000000
00000000000000000000000000000110000000000000000000
00000000000000000000000000001111000000000000000000
00000000000000000000000000111111000000000000000000
00000000000000000000000011111111000000000000000000
00000000000000000000000011111111000000000000000000
00000000000000000000000111111111000000000000000000
00000000000000000000000111111111000000000000000000
00000000000000000000000111111111100000000000000000
00000000000000000000001111111111000000000000000000
00000000000000000000001111111111000000000000000000
00000000000000000000011111111111100000000000000000
00000000000000000000011111111111100000000000000000
00000000000000000000111111111111100000000000000000
00000000000000000000111111111111100000000000000000
00000000000000000000111110111111100000000000000000
00000000000000000001111110011111110000000000000000
00000000000000000001111100011111110000000000000000
00000000000000000001111100011111110000000000000000
00000000000000000011111000011111110000000000000000
00000000000000000111111000011111110000000000000000
00000000000000001111110000011111111000000000000000
00000000000000001111110000011111111000000000000000
00000000000000001111110000001111110000000000000000
00000000000000011111100000001111111000000000000000
00000000000000011111000000001111111000000000000000
00000000000000111111000000001111111000000000000000
00000000000000111110000000001111111000000000000000
00000000000001111110000000001111111000000000000000
00000000000011111100000000001111111101111100000000
00000000000011111100000000001111111111111100000000
00000000000111111000000000001111111111111100000000
00000000000111111000000000111111111111111100000000
00000000001111110000111111111111111111111100000000
00000000011111111111111111111111111111111000000000
00000000111111111111111111111111111110000000000000
00000000111111111111111111111111111100000000000000
00000000111111111111111110001111111110000000000000
00000000111111111111000000000111111110000000000000
00000000111111000000000000000111111110000000000000
00000000000000000000000000000111111110000000000000
00000000000000000000000000000011111110000000000000
00000000000000000000000000000011111111000000000000
00000000000000000000000000000111111111000000000000
00000000000000000000000000000111111111000000000000
00000000000000000000000000000111111111000000000000
00000000000000000000000000000011111110000000000000
00000000000000000000000000000000000000000000000000
00000000000000000000000000000000000000000000000000
00000000000000000000000000000000000000000000000000
00000000000000000000000000000000000000000000000000
00000000000000000000000000000000000000000000000000
00000000000000000000000000000000000000000000000000
00000000000000000000000000000000000000000000000000
00000000000000000000000000000000000000000000000000
00000000000000000000000000000000000000000000000000
00000000000000000000000000000000000000000000000000
00000000000000000000000000000000000000000000000000
00000000000000000000000000000000000000000000000000
