P1
50 70
00000000000000000000000000000000000000000000000000
00000000000000000000000000000000000000000000000000
00000000000000000000000000000000000000000000000000
00000000000000000000000000000000000000000000000000
00000000000000000000000000000000000000000000000000
00000000000000000000000000000000000000000000000000
00000000000000000000000000000000000000000000000000
00000000000000000000000000000000000000000000000000
00000000000000000000000000000000000000000000000000
00000000000000000000000000000000000000000000000000
00000000000000000000000000000000000000000000000000
00000000000000000000000000000000000000000000000000
00000000000000000000000000000000000000000000000000
00000000000000000000000000000000000000000000000000
00000000000000000000001111000000000000000000000000
00000000000000000000001111000000000000000000000000
00000000000000000000011111000000000000000000000000
00000000000000000000111111000000000000000000000000
00000000000000000000111111100000000000000000000000
00000000000000000000111111110000000000000000000000
00000000000000000000111111110000000000000000000000
00000000000000000001111111110000000000000000000000
00000000000000000001111111110000000000000000000000
00000000000000000011111111110000000000000000000000
00000000000000000011111111110000000000000000000000
00000000000000000111100111111000000000000000000000
00000000000000000111100111111000000000000000000000
00000000000000001111100111111100000000000000000000
00000000000000001111000111111100000000000000000000
00000000000000001111000011111100000000000000000000
00000000000000001110000011111100000000000000000000
00000000000000011110000001111110000000000000000000
00000000000000011110000001111110000000000000000000
00000000000000011110000001111110000000000000000000
00000000000000011100000001111110000010000000000000
00000000000000111100000001111110000111000000000000
00000000000000111100000001111111111111000000000000
00000000000001111000000000111111111111100000000000
00000000000001111000000000111111111111000000000000
00000000000001111000000000111111111100000000000000
00000000000001110000000011111111110000000000000000
00000000000011110000000111111111100000000000000000
00000000000011110000111111111111100000000000000000
00000000000011100011111111111111110000000000000000
00000000000011100111111111111111110000000000000000
00000000000111111111111110001111111000000000000000
00000000000111111111111000001111111000000000000000
00000000001111111111110000001111111000000000000000
00000000001111111110000000000111111000000000000000
00000000001111111100000000000011110000000000000000
00000000000111110000000000000011100000000000000000
00000000000111100000000000000000000000000000000000
00000000000110000000000000000000000000000000000000
00000000000000000000000000000000000000000000000000
00000000000000000000000000000000000000000000000000
00000000000000000000000000000000000000000000000000
00000000000000000000000000000000000000000000000000
00000000000000000000000000000000000000000000000000
00000000000000000000000000000000000000000000000000
00000000000000000000000000000000000000000000000000
00000000000000000000000000000000000000000000000000
00000000000000000000000000000000000000000000000000
00000000000000000000000000000000000000000000000000
00000000000000000000000000000000000000000000000000
00000000000000000000000000000000000000000000000000
00000000000000000000000000000000000000000000000000
00000000000000000000000000000000000000000000000000
00000000000000000000000000000000000000000000000000
00000000000000000000000000000000000000000000000000
00000000000000000000000000000000000000000000000000
