P1
50 70
00000000000000000000000000000000000000000000000000
00000000000000000000000000000000000000000000000000
00000000000000000000000000000000000000000000000000
00000000000000000000000000000000000000000000000000
00000000000000000000000000000000000000000000000000
00000000000000000000000000000000000000000000000000
00000000000000000000000000000000000000000000000000
00000000000000000000000000000000000000000000000000
00000000000000000000000000000000000000000000000000
00000000000000000000000000000000000000000000000000
00000000000000000000000000000000000000000000000000
00000000000000000000000000000000000000000000000000
00000000000000000000000000000000000000000000000000
00000000000000000000000000000000000000000000000000
00000000000000000000000000000011000000000000000000
00000000000000000000000000000111000000000000000000
00000000000000000000000000000111100000000000000000
00000000000000000000000000001111100000000000000000
00000000000000000000000000001111100000000000000000
00000000000000000000000000001111100000000000000000
00000000000000000000000000011111000000000000000000
00000000000000000000000000011111000000000000000000
00000000000000000000000000011111100000000000000000
00000000000000000000000000111111000000000000000000
00000000000000000000000000111111000000000000000000
00000000000000000000000000111111100000000000000000
00000000000000000000000001111111100000000000000000
00000000000000000000000001111111100000000000000000
00000000000000000000000011111111100000000000000000
00000000000000000000000111111111100000000000000000
00000000000000000000000111001111100000000000000000
00000000000000000000001110011111100000000000000000
00000000000000000000001110011111100000000000000000
00000000000000000000011110011111100000000000000000
00000000000000000000111100011111100000000000000000
00000000000000000000111100001111100000000000000000
00000000000000000000111000001111100000000000000000
00000000000000000001110000001111100000000000000000
00000000000000000011100000001111100000000000000000
00000000000000000111100000001111100000000000000000
00000000000000000111000000011111100000000000000000
00000000000000001111000000011111100000000000000000
00000000000000011110000000011111100000000000000000
00000000000000111100000000011111100000000000000000
00000000000000111000000000011111111111000000000000
00000000000001110000000001111111111111100000000000
00000000000011110011111111111111111111100000000000
00000000000111111111111111111111111111100000000000
00000000001111111111111111111111111111000000000000
00000000001111111111111111111111111110000000000000
00000000001111111111111011111111100000000000000000
00000000001111111100000000111111000000000000000000
00000000000000000000000000111111000000000000000000
00000000000000000000000000111111000000000000000000
00000000000000000000000000111111000000000000000000
00000000000000000000000001111111000000000000000000
00000000000000000000000001111110000000000000000000
00000000000000000000000001111110000000000000000000
00000000000000000000000001111110000000000000000000
00000000000000000000000001111110000000000000000000
00000000000000000000000000111000000000000000000000
00000000000000000000000000000000000000000000000000
00000000000000000000000000000000000000000000000000
00000000000000000000000000000000000000000000000000
00000000000000000000000000000000000000000000000000
00000000000000000000000000000000000000000000000000
00000000000000000000000000000000000000000000000000
00000000000000000000000000000000000000000000000000
00000000000000000000000000000000000000000000000000
00000000000000000000000000000000000000000000000000
