P1
50 70
00000000000000000000000000000000000000000000000000
00000000000000000000000000000000000000000000000000
00000000000000000000000000000000000000000000000000
00000000000000000000000000000000000000000000000000
00000000000000000000000000000000000000000000000000
00000000000000000000000000000000000000000000000000
00000000000000000000000000000000000000000000000000
00000000000000000000000000000000000000000000000000
00000000000000000000000000000000000000000000000000
00000000000000000000000000000000000000000000000000
00000000000000000000000000000000000000000000000000
00000000000000000000000000000000000000000000000000
00000000000000000000000000000000000000000000000000
00000000000000000000000000000000000000000000000000
00000000000000000000000000000000000000000000000000
00000000000000000000000000000000000000000000000000
00000000000000000000000000000000000000000000000000
00000000000000000000000000000000000000000000000000
00000000000000000000000000000000000000000000000000
00000000000000000000000000000000000000000000000000
00000000000000000000000000000000000000000000000000
00000000000000000000000000000000001100000000000000
00000000000000000000000000000000011111000000000000
00000000000000000000000000000001111110000000000000
00000000000000000000000000000011111110000000000000
00000000000000000000000000000111111110000000000000
00000000000000000000000000011111111100000000000000
00000000000000000000000000111111111100000000000000
00000000000000000000000001111111111100000000000000
00000000000000000000000011110011111000000000000000
00000000000000000000001111100111110000000000000000
00000000000000000000011111100111110000000000000000
00000000000000000000011111000111110000000000000000
00000000000000000000111110000111110000000000000000
00000000000000000001111000000111110000000000000000
00000000000000000111110000001111100000000000000000
00000000000000000111100000011111100000000000000000
00000000000000001111100000011111000000000000000000
00000000000000001111000000011111000000000000000000
00000000000000011110000000011111000000000000000000
00000000000000111100000000111110000000000000000000
00000000000001111100000000111110000000000000000000
00000000000001111000000000111110000000000000000000
00000000000001111010000000111110000000000000000000
00000000000011111111111111111110000000000000000000
00000000000011111111111111111111110000000000000000
00000000000011111111111111111111110000000000000000
00000000000011111111111111111111110000000000000000
00000000000011111111111111111111100000000000000000
00000000000000000000000011111111000000000000000000
00000000000000000000000011110000000000000000000000
00000000000000000000000011110000000000000000000000
00000000000000000000000011110000000000000000000000
00000000000000000000000011110000000000000000000000
00000000000000000000000111100000000000000000000000
00000000000000000000001111100000000000000000000000
00000000000000000000000011100000000000000000000000
00000000000000000000000000000000000000000000000000
00000000000000000000000000000000000000000000000000
00000000000000000000000000000000000000000000000000
00000000000000000000000000000000000000000000000000
00000000000000000000000000000000000000000000000000
00000000000000000000000000000000000000000000000000
00000000000000000000000000000000000000000000000000
00000000000000000000000000000000000000000000000000
00000000000000000000000000000000000000000000000000
00000000000000000000000000000000000000000000000000
00000000000000000000000000000000000000000000000000
00000000000000000000000000000000000000000000000000
00000000000000000000000000000000000000000000000000
