P1
50 70
00000000000000000000000000000000000000000000000000
00000000000000000000000000000000000000000000000000
00000000000000000000000000000000000000000000000000
00000000000000000000000000000000000000000000000000
00000000000000000000000000000000000000000000000000
00000000000000000000000000000000000000000000000000
00000000000000000000000000000000000000000000000000
00000000000000000000000000000000000000000000000000
00000000000000000000000000000000000000000000000000
00000000000000000000000000000000000000000000000000
00000000000000000000000000000000000000000000000000
00000000000000000000000000000000000000000000000000
00000000000000000000000001110000000000000000000000
00000000000000000000001111111000000000000000000000
00000000000000000000011111111000000000000000000000
00000000000000000000111111111000000000000000000000
00000000000000000000111101111000000000000000000000
00000000000000000000111100111000000000000000000000
00000000000000000001111000111000000000000000000000
00000000000000000001111001111000000000000000000000
00000000000000000001110001111000000000000000000000
00000000000000000011110001111100000000000000000000
00000000000000000011110000111100000000000000000000
00000000000000000111100000111100000000000000000000
00000000000000000111100000111100000000000000000000
00000000000000001111100000111110000000000000000000
00000000000000001111000000011110000000000000000000
00000000000000001111000000011110000000000000000000
00000000000000001111000000011110000000000000000000
00000000000000011110000000011110000000000000000000
00000000000000011110000000001110000000000000000000
00000000000000001110000000001110000000000000000000
00000000000000011100000000001110000000000000000000
00000000000000011100000000001110000000000000000000
00000000000000011100000000000111010000000000000000
00000000000000111100000000000111111000000000000000
00000000000000111100000000001111111000000000000000
00000000000000111100000001111111100000000000000000
00000000000001111000000011111111100000000000000000
00000000000000111000011111111111100000000000000000
00000000000000111000111111110111100000000000000000
00000000000001111111111110000111100000000000000000
00000000000001111111111100000111100000000000000000
00000000000001111111100000000011110000000000000000
00000000000000111111000000000011111110000000000000
00000000000000111100000000000011111110000000000000
00000000000000111000000000000011111110000000000000
00000000000000000000000000000111111100000000000000
00000000000000000000000000011111110000000000000000
00000000000000000000000000111111000000000000000000
00000000000000000000000000111100000000000000000000
00000000000000000000000000011100000000000000000000
00000000000000000000000000000000000000000000000000
00000000000000000000000000000000000000000000000000
00000000000000000000000000000000000000000000000000
00000000000000000000000000000000000000000000000000
00000000000000000000000000000000000000000000000000
00000000000000000000000000000000000000000000000000
00000000000000000000000000000000000000000000000000
00000000000000000000000000000000000000000000000000
00000000000000000000000000000000000000000000000000
00000000000000000000000000000000000000000000000000
00000000000000000000000000000000000000000000000000
00000000000000000000000000000000000000000000000000
00000000000000000000000000000000000000000000000000
00000000000000000000000000000000000000000000000000
00000000000000000000000000000000000000000000000000
00000000000000000000000000000000000000000000000000
00000000000000000000000000000000000000000000000000
00000000000000000000000000000000000000000000000000
