P1
50 70
00000000000000000000000000000000000000000000000000
00000000000000000000000000000000000000000000000000
00000000000000000000000000000000000000000000000000
00000000000000000000000000000000000000000000000000
00000000000000000000000000000000000000000000000000
00000000000000000000000000000000000000000000000000
00000000000000000000000000000000000000000000000000
00000000000000000000000000000000000000000000000000
00000000000000000000000000000000000000000000000000
00000000000000000000000000000000000000000000000000
00000000000000000000000000000000000000000000000000
00000000000000000000000000000000000000000000000000
00000000000000000000000000000000111000000000000000
00000000000000000000000000000001111100000000000000
00000000000000000000000000111111111100000000000000
00000000000000000000000001111111111100000000000000
00000000000000000000000001111111111100000000000000
00000000000000000000000001111111111100000000000000
00000000000000000000000011111111111100000000000000
00000000000000000000000011111111111100000000000000
00000000000000000000000111111111111100000000000000
00000000000000000000000111111111111100000000000000
00000000000000000000001111111111111100000000000000
00000000000000000000001111111111111100000000000000
00000000000000000000011111111111111100000000000000
00000000000000000000011111111111111100000000000000
00000000000000000000111111111111111100000000000000
00000000000000000001111111111111111100000000000000
00000000000000000001111101111111111100000000000000
00000000000000000011111101111111111100000000000000
00000000000000000011111000111111111100000000000000
00000000000000000111110000111111111100000000000000
00000000000000001111110001111111111100000000000000
00000000000000001111100001111111111100000000000000
00000000000000011111100001111111111100000000000000
00000000000000111111100001111111111100000000000000
00000000000000111111000001111111111100000000000000
00000000000001111110000001111111111100000000000000
00000000000001111100000001111111111100000000000000
00000000000011111100000001111111111100000000000000
00000000000111111000000001111111111100000000000000
00000000000111110000000001111111111100000000000000
00000000001111100000000011111111111100000000000000
00000000011111100000000011111111111100000000000000
00000000111111111111000011111111111111111100000000
00000000111111111111111111111111111111111110000000
00000001111111111111111111111111111111111110000000
00000001111111111111111111111111111111111110000000
00000001111111111111111111111111111111111110000000
00000000001111000001110111111111111111100100000000
00000000000000000000000011111111111100000000000000
00000000000000000000000011111111111100000000000000
00000000000000000000000111111111111100000000000000
00000000000000000000000111111111111100000000000000
00000000000000000000000111111111111100000000000000
00000000000000000110011111111111111000000000000000
00000000000000000111111111111111111100000000000000
00000000000000001111111111111111111111111000000000
00000000000000001111111111111111111111111100000000
00000000000000000011111111111111111111111100000000
00000000000000000000000000011111111111111100000000
00000000000000000000000000000000000011111100000000
00000000000000000000000000000000000000000000000000
00000000000000000000000000000000000000000000000000
00000000000000000000000000000000000000000000000000
00000000000000000000000000000000000000000000000000
00000000000000000000000000000000000000000000000000
00000000000000000000000000000000000000000000000000
00000000000000000000000000000000000000000000000000
00000000000000000000000000000000000000000000000000
