P1
50 70
00000000000000000000000000000000000000000000000000
00000000000000000000000000000000000000000000000000
00000000000000000000000000000000000000000000000000
00000000000000000000000000000000000000000000000000
00000000000000000000000000000000000000000000000000
00000000000000000000000000000000000000000000000000
00000000000000000000000000000000000000000000000000
00000000000000000000000000000000000000000000000000
00000000000000000000000000000000000000000000000000
00000000000000000000000000000000000000000000000000
00000000000000000000000000000000000000000000000000
00000000000000000000000000000000000000000000000000
00000000000000000000000000000000000000000000000000
00000000000000000000000000000000000000000000000000
00000000000000000000000000000000000000000000000000
00000000000000000000000000000000000000000000000000
00000000000000000000000000000100000000000000000000
00000000000000000000000000001111100000000000000000
00000000000000000000000000001111110000000000000000
00000000000000000000000000011111111100000000000000
00000000000000000000000000111111111100000000000000
00000000000000000000000001111111111100000000000000
00000000000000000000000011111111111100000000000000
00000000000000000000000111111111111100000000000000
00000000000000000000000111111111111100000000000000
00000000000000000000011111111111111100000000000000
00000000000000000000011111101111111000000000000000
00000000000000000000111111001111111000000000000000
00000000000000000001111110001111111000000000000000
00000000000000000011111110001111111000000000000000
00000000000000000011111100001111111000000000000000
00000000000000000011111000000111111000000000000000
00000000000000001111111000000111111000000000000000
00000000000000001111110000000111111000000000000000
00000000000000001111100000000111111000000000000000
00000000000000011111000000000111111000000000000000
00000000000000011111000000000111110000000000000000
00000000000000111110000000001111110000000000000000
00000000000001111110000000001111110000000000000000
00000000000001111110000000001111110000000000000000
00000000000011111100000000001111110000000000000000
00000000000011111000000000001111110000000000000000
00000000000011111000000000001111110000000000000000
00000000000111110000000000001111110000000000000000
00000000000111110000000000001111110000000000000000
00000000000111111111111000001111100000000000000000
00000000000111111111111100011111100000000000000000
00000000000111111111111111111111110000000000000000
00000000000000111111111111111111111111100000000000
00000000000000011111111111111111111111100000000000
00000000000000000000000001111111111111100000000000
00000000000000000000000000011111101111100000000000
00000000000000000000000000011111000000000000000000
00000000000000000000000000011111000000000000000000
00000000000000000000000000011111000000000000000000
00000000000000000000000000011110000000000000000000
00000000000000000000000000111110000000000000000000
00000000000000000000000000111110000000000000000000
00000000000000000000010000111110000000000000000000
00000000000000000000111111111111001110000000000000
00000000000000000000111111111111111110000000000000
00000000000000000000111111111111111110000000000000
00000000000000000000000011111111111100000000000000
00000000000000000000000000000000011000000000000000
00000000000000000000000000000000000000000000000000
00000000000000000000000000000000000000000000000000
00000000000000000000000000000000000000000000000000
00000000000000000000000000000000000000000000000000
00000000000000000000000000000000000000000000000000
00000000000000000000000000000000000000000000000000
