P1
50 70
00000000000000000000000000000000000000000000000000
00000000000000000000000000000000000000000000000000
00000000000000000000000000000000000000000000000000
00000000000000000000000000000000000000000000000000
00000000000000000000000000000000000000000000000000
00000000000000000000000000000000000000000000000000
00000000000000000000000000000000000000000000000000
00000000000000000000000000000000000000000000000000
00000000000000000000000000000000000000000000000000
00000000000000000000000000000000000000000000000000
00000000000000000000000000000000000000000000000000
00000000000000000000000000000000000000000000000000
00000000000000000000000000000000000000000000000000
00000000000000000000000000000000000000000000000000
00000000000000000000000000000000000000000000000000
00000000000000000000000000000000000000000000000000
00000000000000000000000000000000000000000000000000
00000000000000000000000000000000000000000000000000
00000000000000000000000000000000000000000000000000
00000000000000000000000000000000000000000000000000
00000000000000000000000000000000111000000000000000
00000000000000000000000000000001111111000000000000
00000000000000000000000000000111111111000000000000
00000000000000000000000000001111111111000000000000
00000000000000000000000000011111111110000000000000
00000000000000000000000000011111111110000000000000
00000000000000000000000001111111111110000000000000
00000000000000000000000011111001111100000000000000
00000000000000000000000111110001111000000000000000
00000000000000000000001111000011111000000000000000
00000000000000000000011110000011111000000000000000
00000000000000000001111110000111111000000000000000
00000000000000000011111100000111111000000000000000
00000000000000000111111000000111110000000000000000
00000000000000001111110000000111110000000000000000
00000000000000011111000000001111110000000000000000
00000000000001111110000000001111110000000000000000
00000000000011111100000000001111100000000000000000
00000000000011110000000000011111000000000000000000
00000000000111110000000000011111000000000000000000
00000000000111111000000000111111000000000000000000
00000000000111111111000000111111000000000000000000
00000000000001111111111000111111000000000000000000
00000000000000001111111111111110000000000000000000
00000000000000000011111111111110000000000000000000
00000000000000000000011111111110000000000000000000
00000000000000000000000011111111100000000000000000
00000000000000000000000011111111111000000000000000
00000000000000000000000011111111111100000000000000
00000000000000000000000011111101111100000000000000
00000000000000000000000111111000000000000000000000
00000000000000000111000111111000000000000000000000
00000000000000000111111111110000000000000000000000
00000000000000000111111111110000000000000000000000
00000000000000000011111111110000000000000000000000
00000000000000000000011111111100000000000000000000
00000000000000000000000011111111000000000000000000
00000000000000000000000000111111000000000000000000
00000000000000000000000000001111000000000000000000
00000000000000000000000000000000000000000000000000
00000000000000000000000000000000000000000000000000
00000000000000000000000000000000000000000000000000
00000000000000000000000000000000000000000000000000
00000000000000000000000000000000000000000000000000
00000000000000000000000000000000000000000000000000
00000000000000000000000000000000000000000000000000
00000000000000000000000000000000000000000000000000
00000000000000000000000000000000000000000000000000
00000000000000000000000000000000000000000000000000
00000000000000000000000000000000000000000000000000
