P1
50 70
00000000000000000000000000000000000000000000000000
00000000000000000000000000000000000000000000000000
00000000000000000000000000000000000000000000000000
00000000000000000000000000000000000000000000000000
00000000000000000000000000000000000000000000000000
00000000000000000000000000000000000000000000000000
00000000000000000000000000000000000000000000000000
00000000000000000000000000000000000000000000000000
00000000000000000000000000000000000000000000000000
00000000000000000000000000000000000000000000000000
00000000000000000000000000000000000001111110110000
00000000000000000000000000000000000111111111110000
00000000000000000000000000000000001111111111100000
00000000000000000000000000000000011111111111000000
00000000000000000000000000000000111111111111000000
00000000000000000000000000000011111111111111000000
00000000000000000000000000000111111111111110000000
00000000000000000000000000001111111111111110000000
00000000000000000000000000011111111111111100000000
00000000000000000000000000111111111111111000000000
00000000000000000000000001111111111111111000000000
00000000000000000000000011111110111111111000000000
00000000000000000000000111111100111111110000000000
00000000000000000000011111111000111111100000000000
00000000000000000000111111110001111111000000000000
00000000000000000001111111100001111111000000000000
00000000000000000001111111000011111111000000000000
00000000000000000011111110000111111111000000000000
00000000000000001111111100000111111110000000000000
00000000000000011111111000000111111100000000000000
00000000000000111111110000001111111000000000000000
00000000000001111111100000001111111000000000000000
00000000000011111111000000011111111000000000000000
00000000000111111100000000011111110000000000000000
00000000001111111000000000011111110000000000000000
00000000011111110000000000111111100000000000000000
00000000111111100000000001111111100000000000000000
00000001111111000000000011111111000000000000000000
00000001111110000000000011111111000000000000000000
00000011111100000000000011111110000000000000000000
00000111111000000000000011111110000000000000000000
00001111111000000000000111111100000000000000000000
00001111111111111000001111111100000000000000000000
00001111111111111111111111111100000000000000000000
00011111111111111111111111111100110000000000000000
00011111111111111111111111111111110000000000000000
00011111111111111111111111111111110000000000000000
00001111111111111111111111111111100000000000000000
00000000001111111111111111111111100000000000000000
00000000000000001111111111111111100000000000000000
00000000000000000001111111111111000000000000000000
00000000000000000001111111000000000000000000000000
00000000000000000011111110000000000000000000000000
00000000000000000011111110000000000000000000000000
00000000000000000111111110000000000000000000000000
00000000000000000111111100000000000000000000000000
00000000000000000111111100000000000000000000000000
00000000000000001111111000000000000000000000000000
00000000000000001111111000000000000000000000000000
00000000000000011111111000000000000000000000000000
00000000000000011111110000000000000000000000000000
00000000000000000001110000000000000000000000000000
00000000000000000000000000000000000000000000000000
00000000000000000000000000000000000000000000000000
00000000000000000000000000000000000000000000000000
00000000000000000000000000000000000000000000000000
00000000000000000000000000000000000000000000000000
00000000000000000000000000000000000000000000000000
00000000000000000000000000000000000000000000000000
00000000000000000000000000000000000000000000000000
