P1
50 70
00000000000000000000000000000000000000000000000000
00000000000000000000000000000000000000000000000000
00000000000000000000000000000000000000000000000000
00000000000000000000000000000000000000000000000000
00000000000000000000000000000000000000000000000000
00000000000000000000000000000000000000000000000000
00000000000000000000000000000000000000000000000000
00000000000000000000000000000000000000000000000000
00000000000000000000000000000000000000000000000000
00000000000000000000000000000000000000000000000000
00000000000000000000000000000000000000000000000000
00000000000000000000000000000000000000000000000000
00000000000000000000000000000000000000000000000000
00000000000000000000000000000000000000000000000000
00000000000000000000000000000000000000000000000000
00000000000000000000000000000000000000000000000000
00000000000000000000000000000000111100000000000000
00000000000000000000000000000001111110000000000000
00000000000000000000000000000011111110000000000000
00000000000000000000000000000111111100000000000000
00000000000000000000000000001111111100000000000000
00000000000000000000000000011111111100000000000000
00000000000000000000000000111110011100000000000000
00000000000000000000000001111000111100000000000000
00000000000000000000000011110000111000000000000000
00000000000000000000001111100001111000000000000000
00000000000000000000011111000001111000000000000000
00000000000000000000111110000011110000000000000000
00000000000000000001111100000001111000000000000000
00000000000000000111111000000001110000000000000000
00000000000000001111110000000011110000000000000000
00000000000000011111100000000011100000000000000000
00000000000001111110000000000111100000000000000000
00000000000011111000000000000111100000000000000000
00000000000011111000000000001111100000000000000000
00000000000011111100000000001111000000000000000000
00000000000001111111110000001111000000000000000000
00000000000000111111111000001111000000000000000000
00000000000000000011111111011110000000000000000000
00000000000000000001111111111110000000000000000000
00000000000000000000000111111110000000000000000000
00000000000000000000000011111111100000000000000000
00000000000000000000000001111111110000000000000000
00000000000000000000000001111111110000000000000000
00000000000000000000000001111111100000000000000000
00000000000000000000000001111000000000000000000000
00000000000000000110000011111000000000000000000000
00000000000000001111110011110000000000000000000000
00000000000000000111111111110000000000000000000000
00000000000000000011111111100000000000000000000000
00000000000000000000111111110000000000000000000000
00000000000000000000001111110000000000000000000000
00000000000000000000000111111100000000000000000000
00000000000000000000000001111110000000000000000000
00000000000000000000000000001110000000000000000000
00000000000000000000000000000100000000000000000000
00000000000000000000000000000000000000000000000000
00000000000000000000000000000000000000000000000000
00000000000000000000000000000000000000000000000000
00000000000000000000000000000000000000000000000000
00000000000000000000000000000000000000000000000000
00000000000000000000000000000000000000000000000000
00000000000000000000000000000000000000000000000000
00000000000000000000000000000000000000000000000000
00000000000000000000000000000000000000000000000000
00000000000000000000000000000000000000000000000000
00000000000000000000000000000000000000000000000000
00000000000000000000000000000000000000000000000000
00000000000000000000000000000000000000000000000000
00000000000000000000000000000000000000000000000000
