P1
50 70
00000000000000000000000000000000000000000000000000
00000000000000000000000000000000000000000000000000
00000000000000000000000000000000000000000000000000
00000000000000000000000000000000000000000000000000
00000000000000000000000000000000000000000000000000
00000000000000000000000000000000000000000000000000
00000000000000000000000000000000000000000000000000
00000000000000000000000000000000000000000000000000
00000000000000000000000000000000000000000000000000
00000000000000000000000000000000000000000000000000
00000000000000000000000000000000000000000000000000
00000000000000000000000000000000000000000000000000
00000000000000000000000000000000000011100000000000
00000000000000000000000000000000000111110000000000
00000000000000000000000000000000001111100000000000
00000000000000000000000000000000001111100000000000
00000000000000000000000000000000011111000000000000
00000000000000000000000000000000111111000000000000
00000000000000000000000000000001111111000000000000
00000000000000000000000000000011111111000000000000
00000000000000000000000000000111111111000000000000
00000000000000000000000000001111111110000000000000
00000000000000000000000000011111111110000000000000
00000000000000000000000000111101111110000000000000
00000000000000000000000001111001111110000000000000
00000000000000000000000001110011111110000000000000
00000000000000000000000011110011111110000000000000
00000000000000000000000111100011111100000000000000
00000000000000000000001111000011111100000000000000
00000000000000000000011110000011111100000000000000
00000000000000000000011100000011111100000000000000
00000000000000000000111100000011111100000000000000
00000000000000000001111000000111111000000000000000
00000000000000000011110000000111111000000000000000
00000000000000000011100000000111110000000000000000
00000000000000000111000000000111110000000000000000
00000000000000000111000000001111110001110000000000
00000000000000001110000000001111111111110000000000
00000000000000011100000000001111111111110000000000
00000000000000111000000000001111111111100000000000
00000000000001111000000011111111111111100000000000
00000000000001110000011111111111111100000000000000
00000000000011110111111111111111100000000000000000
00000000000111111111111111111111100000000000000000
00000000001111111111111110111111100000000000000000
00000000001111111111111000011111100000000000000000
00000000001111111111000000011111100000000000000000
00000000001111111000000000011111000000000000000000
00000000001111000000000000011111000000000000000000
00000000000000000000000000111111000000000000000000
00000000000000000000000000111110000000000000000000
00000000000000000000000000111110000000000000000000
00000000000000000000000000111100000000000000000000
00000000000000000000000000000000000000000000000000
00000000000000000000000000000000000000000000000000
00000000000000000000000000000000000000000000000000
00000000000000000000000000000000000000000000000000
00000000000000000000000000000000000000000000000000
00000000000000000000000000000000000000000000000000
00000000000000000000000000000000000000000000000000
00000000000000000000000000000000000000000000000000
00000000000000000000000000000000000000000000000000
00000000000000000000000000000000000000000000000000
00000000000000000000000000000000000000000000000000
00000000000000000000000000000000000000000000000000
00000000000000000000000000000000000000000000000000
00000000000000000000000000000000000000000000000000
00000000000000000000000000000000000000000000000000
00000000000000000000000000000000000000000000000000
00000000000000000000000000000000000000000000000000
