P1
50 70
00000000000000000000000000000000000000000000000000
00000000000000000000000000000000000000000000000000
00000000000000000000000000000000000000000000000000
00000000000000000000000000000000000000000000000000
00000000000000000000000000000000000000000000000000
00000000000000000000000000000000000000000000000000
00000000000000000000000000000000000000000000000000
00000000000000000000000000000000000000000000000000
00000000000000000000000000000000010000000000000000
00000000000000000000000000000001111000000000000000
00000000000000000000000000000011111000000000000000
00000000000000000000000000001111111000000000000000
00000000000000000000000000011111111000000000000000
00000000000000000000000001111111111000000000000000
00000000000000000000000011111111111000000000000000
00000000000000000000000111111111111000000000000000
00000000000000000000000111111111110000000000000000
00000000000000000000000111111111110000000000000000
00000000000000000000001111111111110000000000000000
00000000000000000000001111111111110000000000000000
00000000000000000000011111111111110000000000000000
00000000000000000000011111111111110000000000000000
00000000000000000000111111111111110000000000000000
00000000000000000000111111111111110000000000000000
00000000000000000000111111111111111000000000000000
00000000000000000000111111111111111000000000000000
00000000000000000001111111111111110000000000000000
00000000000000000001111101111111111000000000000000
00000000000000000011111100111111111000000000000000
00000000000000000011111101111111111000000000000000
00000000000000000011111001111111111000000000000000
00000000000000000111111001111111111000000000000000
00000000000000000111111001111111111000000000000000
00000000000000001111110001111111111000000000000000
00000000000000001111110001111111111000000000000000
00000000000000001111100001111111111000000000000000
00000000000000001111100000111111111000000000000000
00000000000000011111100000111111111111100000000000
00000000000000011111000000111111111111100000000000
00000000000000111111000000111111111111100000000000
00000000000000111111000000011111111111100000000000
00000000000000111110000000111111111111100000000000
00000000000001111110000011111111111111100000000000
00000000000001111110000111111111111111100000000000
00000000000011111110111111111111111111000000000000
00000000000011111111111111111111111100000000000000
00000000000011111111111111111111111000000000000000
00000000000011111111111111111111111000000000000000
00000000000111111111111111111111111000000000000000
00000000000111111111111111111111111000000000000000
00000000000011111111111100111111111000000000000000
00000000000011111111111000011111111000000000000000
00000000000011111111000000011111111000000000000000
00000000000011111100000000011111111000000000000000
00000000000011110000000000011111111000000000000000
00000000000000000000000000001111111100000000000000
00000000000000000000000000001111111000000000000000
00000000000000000000000000001111000000000000000000
00000000000000000000000000000000000000000000000000
00000000000000000000000000000000000000000000000000
00000000000000000000000000000000000000000000000000
00000000000000000000000000000000000000000000000000
00000000000000000000000000000000000000000000000000
00000000000000000000000000000000000000000000000000
00000000000000000000000000000000000000000000000000
00000000000000000000000000000000000000000000000000
00000000000000000000000000000000000000000000000000
00000000000000000000000000000000000000000000000000
00000000000000000000000000000000000000000000000000
00000000000000000000000000000000000000000000000000
