P1
50 70
00000000000000000000000000000000000000000000000000
00000000000000000000000000000000000000000000000000
00000000000000000000000000000000000000000000000000
00000000000000000000000000000000000000000000000000
00000000000000000000000000000000000000000000000000
00000000000000000000000000000000000000000000000000
00000000000000000000000000000000000000000000000000
00000000000000000000000000000000000000000000000000
00000000000000000000000000000000000000000000000000
00000000000000000000000000000000000000000000000000
00000000000000000000000000000000000000000000000000
00000000000000000000000000000000000000000000000000
00000000000000000000000000000000000000000000000000
00000000000000000000000000000000000000000000000000
00000000000000000000000000000000000000000000000000
00000000000000000000000000000000000000000000000000
00000000000000000000000000000000000000000000000000
00000000000000000000000000000000000000000000000000
00000000000000000000000000000000000000000000000000
00000000000000000000000000000000000000000000000000
00000000000000000000000000000000000000000000000000
00000000000000000000000000000000010000000000000000
00000000000000000000000000000001111100000000000000
00000000000000000000000000000011111111100000000000
00000000000000000000000000000111111111100000000000
00000000000000000000000000001111111111110000000000
00000000000000000000000000011111111111110000000000
00000000000000000000000000111111111111110000000000
00000000000000000000000001111111111111100000000000
00000000000000000000000001111111111111100000000000
00000000000000000000000011111111111111100000000000
00000000000000000000000111111111111111100000000000
00000000000000000000001111111111111111100000000000
00000000000000000000011111111111111111000000000000
00000000000000000001111111111101111111000000000000
00000000000000000011111111111001111111000000000000
00000000000000000011111111110001111111000000000000
00000000000000001111111111100011111111000000000000
00000000000000011111111111000011111110000000000000
00000000000000111111111110000011111110000000000000
00000000000001111111111000000111111110000000000000
00000000000011111111110000000111111110000000000000
00000000000111111111110000000111111110000000000000
00000000000111111111111110000111111100000000000000
00000000001111111111111111101111111110000000000000
00000000001111111111111111111111111100000000000000
00000000011111111111111111111111111100000000000000
00000000011111111111111111111111111110000000000000
00000000000011111111111111111111111111000000000000
00000000000000001111111111111111111111100000000000
00000000000000000001111111111111111111100000000000
00000000000000000000000001111111111111100000000000
00000000000000000000000111111111111111100000000000
00000000000000000001111111111111111111000000000000
00000000000000000001111111111111111000000000000000
00000000000000000011111111111111111100000000000000
00000000000000000011111111111111111110000000000000
00000000000000000011111111111111111111000000000000
00000000000000000001111111111111111111000000000000
00000000000000000000111111111111111111000000000000
00000000000000000000000000011111111110000000000000
00000000000000000000000000000000111110000000000000
00000000000000000000000000000000000000000000000000
00000000000000000000000000000000000000000000000000
00000000000000000000000000000000000000000000000000
00000000000000000000000000000000000000000000000000
00000000000000000000000000000000000000000000000000
00000000000000000000000000000000000000000000000000
00000000000000000000000000000000000000000000000000
00000000000000000000000000000000000000000000000000
