P1
50 70
00000000000000000000000000000000000000000000000000
00000000000000000000000000000000000000000000000000
00000000000000000000000000000000000000000000000000
00000000000000000000000000000000000000000000000000
00000000000000000000000000000000000000000000000000
00000000000000000000000000000000000000000000000000
00000000000000000000000000000000000000000000000000
00000000000000000000000000000000000000000000000000
00000000000000000000000000000000000000000000000000
00000000000000000000000000000000000000000000000000
00000000000000000000000000000000000000000000000000
00000000000000000000000000000000000000000000000000
00000000000000000000000000000000000000000000000000
00000000000000000000000000000000000000000000000000
00000000000000000000000000000000000000000000000000
00000000000000000000000000000011100000000000000000
00000000000000000000000000001111111000000000000000
00000000000000000000000000111111111110000000000000
00000000000000000000000001111111111111100000000000
00000000000000000000000111111111111111110000000000
00000000000000000000001111111111111111111100000000
00000000000000000000111111111111111111111100000000
00000000000000000001111111111111111111111100000000
00000000000000000011111111111111111111111100000000
00000000000000000111111111011111111111111000000000
00000000000000001111111110011111111111110000000000
00000000000000111111111100011111111111110000000000
00000000000001111111111000011111111111110000000000
00000000000011111111100000011111111111100000000000
00000000001111111111000000011111111111100000000000
00000000011111111100000000111111111111000000000000
00000000011111111000000001111111111111000000000000
00000000111111110000000001111111111111000000000000
00000001111111100000000001111111111111000000000000
00000001111111000000000001111111111110000000000000
00000001111111100000000011111111111100000000000000
00000000111111111000000011111111111100000000000000
00000000111111111100000011111111111100000000000000
00000000000011111111100011111111111100000000000000
00000000000001111111110111111111111000000000000000
00000000000000011111111111111111111000000000000000
00000000000000000011111111111111110000000000000000
00000000000000000001111111111111110000000000000000
00000000000000000000011111111111110000000000000000
00000000000000000000001111111111110000000000000000
00000000000000000000011111111111111100000000000000
00000000000000000000011111111111111110000000000000
00000000000000000000011111111111111111100000000000
00000000000000000000011111111111111111100000000000
00000000000000011110111111111111000111100000000000
00000000000000111111111111111111000000000000000000
00000000000000111111111111111110000000000000000000
00000000000000001111111111111110000000000000000000
00000000000000000111111111111100000000000000000000
00000000000000000000011111111110000000000000000000
00000000000000000000001111111111000000000000000000
00000000000000000000000001111111111000000000000000
00000000000000000000000000011111111000000000000000
00000000000000000000000000000111111000000000000000
00000000000000000000000000000000111000000000000000
00000000000000000000000000000000000000000000000000
00000000000000000000000000000000000000000000000000
00000000000000000000000000000000000000000000000000
00000000000000000000000000000000000000000000000000
00000000000000000000000000000000000000000000000000
00000000000000000000000000000000000000000000000000
00000000000000000000000000000000000000000000000000
00000000000000000000000000000000000000000000000000
00000000000000000000000000000000000000000000000000
00000000000000000000000000000000000000000000000000
