P1
50 70
00000000000000000000000000000000000000000000000000
00000000000000000000000000000000000000000000000000
00000000000000000000000000000000000000000000000000
00000000000000000000000000000000000000000000000000
00000000000000000000000000000000000000000000000000
00000000000000000000000000000000000000000000000000
00000000000000000000000000000000000000000000000000
00000000000000000000000000000000000000000000000000
00000000000000000000000000000000000000000000000000
00000000000000000000000000000000000000000000000000
00000000000000000000000000000000000000000000000000
00000000000000000000000000000000000000000000000000
00000000000000000000000000000000000000000000000000
00000000000000000000000000000000000000000000000000
00000000000000000000000000000000000000000000000000
00000000000000000000000000000000000000000000000000
00000000000000000000000000000000000000000000000000
00000000000000000000000000000000000100000000000000
00000000000000000000000000000000011100000000000000
00000000000000000000000000000000111100000000000000
00000000000000000000000000000001111100000000000000
00000000000000000000000000000011111100000000000000
00000000000000000000000000000011111100000000000000
00000000000000000000000000000111111100000000000000
00000000000000000000000000001111111100000000000000
00000000000000000000000000001111111100000000000000
00000000000000000000000000011111111100000000000000
00000000000000000000000000111111111000000000000000
00000000000000000000000001111111111000000000000000
00000000000000000000000001110011111000000000000000
00000000000000000000000011100011111000000000000000
00000000000000000000001111000011111000000000000000
00000000000000000000011110000011111000000000000000
00000000000000000000111100000011111000000000000000
00000000000000000001111000000011111000000000000000
00000000000000000011110000000011110000000000000000
00000000000000000111100000000111110000000000000000
00000000000000011111000000000111110000000000000000
00000000000000111110000000000111100000000000000000
00000000000001111110000000001111100000000000000000
00000000000011111111110000001111100000000000000000
00000000000011111111111100001111100000000000000000
00000000000011111111111111111111110000000000000000
00000000000001111111111111111111111110000000000000
00000000000000000011111111111111111111000000000000
00000000000000000000000001111111111111000000000000
00000000000000000000000000111111111111000000000000
00000000000000000000000000011111111111000000000000
00000000000000000000000000011111001110000000000000
00000000000000000000000000011111000000000000000000
00000000000000000000000000011111000000000000000000
00000000000000000000000000011111000000000000000000
00000000000000000000000000111111000000000000000000
00000000000000000000000000011111000000000000000000
00000000000000000000000000000110000000000000000000
00000000000000000000000000000000000000000000000000
00000000000000000000000000000000000000000000000000
00000000000000000000000000000000000000000000000000
00000000000000000000000000000000000000000000000000
00000000000000000000000000000000000000000000000000
00000000000000000000000000000000000000000000000000
00000000000000000000000000000000000000000000000000
00000000000000000000000000000000000000000000000000
00000000000000000000000000000000000000000000000000
00000000000000000000000000000000000000000000000000
00000000000000000000000000000000000000000000000000
00000000000000000000000000000000000000000000000000
00000000000000000000000000000000000000000000000000
00000000000000000000000000000000000000000000000000
00000000000000000000000000000000000000000000000000
