P1
50 70
00000000000000000000000000000000000000000000000000
00000000000000000000000000000000000000000000000000
00000000000000000000000000000000000000000000000000
00000000000000000000000000000000000000000000000000
00000000000000000000000000000000000000000000000000
00000000000000000000000000000000000000000000000000
00000000000000000000000000000000000000000000000000
00000000000000000000000000000000000000000000000000
00000000000000000000000000000000000000000000000000
00000000000000000000000000000000000000000000000000
00000000000000000000000000000000000000000000000000
00000000000000000000000000000000000000000000000000
00000000000000000000000000000001100000000000000000
00000000000000000000000000000011111110000000000000
00000000000000000000000000000111111110000000000000
00000000000000000000000000000111111110000000000000
00000000000000000000000000001111111110000000000000
00000000000000000000000000011111111110000000000000
00000000000000000000000000111111111100000000000000
00000000000000000000000000111111111100000000000000
00000000000000000000000001111111111100000000000000
00000000000000000000000011111111111100000000000000
00000000000000000000000111111111111100000000000000
00000000000000000000000111111111111100000000000000
00000000000000000000001111111111111100000000000000
00000000000000000000001111100111111100000000000000
00000000000000000000011111000111111000000000000000
00000000000000000000111110000111111000000000000000
00000000000000000000111110000111111000000000000000
00000000000000000001111100001111111000000000000000
00000000000000000011111100001111110000000000000000
00000000000000000111111000001111110000000000000000
00000000000000000111111000001111110000000000000000
00000000000000001111110000011111110000000000000000
00000000000000001111100000001111110000000000000000
00000000000000011111000000001111110000000000000000
00000000000000111111000000001111100000000000000000
00000000000000111110000000011111100000000000000000
00000000000001111100000000011111100000000000000000
00000000000001111100000000011111100000000000000000
00000000000011111000000000011111100000000000000000
00000000000011111010000000111111100000000000000000
00000000000111111111111000111111000000000000000000
00000000000011111111111111111111000000000000000000
00000000000011111111111111111111000000000000000000
00000000000001111111111111111111111000000000000000
00000000000000000000111111111111111111000000000000
00000000000000000000000011111111111111000000000000
00000000000000000000000001111111111111000000000000
00000000000000000000000001111111111111000000000000
00000000000000000000000001111110000000000000000000
00000000000000000000000001111110000000000000000000
00000000000000000000000011111110000000000000000000
00000000000000000000000011111110000000000000000000
00000000000000000000000011111100000000000000000000
00000000000000000001111111111100000000000000000000
00000000000000000001111111111101000000000000000000
00000000000000000001111111111111110000000000000000
00000000000000000001111111111111110000000000000000
00000000000000000000011111111111110000000000000000
00000000000000000000000001100111100000000000000000
00000000000000000000000000000000000000000000000000
00000000000000000000000000000000000000000000000000
00000000000000000000000000000000000000000000000000
00000000000000000000000000000000000000000000000000
00000000000000000000000000000000000000000000000000
00000000000000000000000000000000000000000000000000
00000000000000000000000000000000000000000000000000
00000000000000000000000000000000000000000000000000
00000000000000000000000000000000000000000000000000
