P1
50 70
00000000000000000000000000000000000000000000000000
00000000000000000000000000000000000000000000000000
00000000000000000000000000000000000000000000000000
00000000000000000000000000000000000000000000000000
00000000000000000000000000000000000000000000000000
00000000000000000000000000000000000000000000000000
00000000000000000000000000000000000000000000000000
00000000000000000000000000000000000000000000000000
00000000000000000000000000000000000000000000000000
00000000000000000000000000000000000000000000000000
00000000000000000000000000000000000000000000000000
00000000000000000000000000000000000000000000000000
00000000000000000000000000000000000000000000000000
00000000000000000000111111100000000000000000000000
00000000000000000000111111100000000000000000000000
00000000000000000000111111100000000000000000000000
00000000000000000000111111110000000000000000000000
00000000000000000001111111110000000000000000000000
00000000000000000001111111110000000000000000000000
00000000000000000001111111110000000000000000000000
00000000000000000011111111110000000000000000000000
00000000000000000011111111110000000000000000000000
00000000000000000011111111110000000000000000000000
00000000000000000011111111111000000000000000000000
00000000000000000111111111111100000000000000000000
00000000000000000111111111111100000000000000000000
00000000000000000111111111111100000000000000000000
00000000000000000111110111111100000000000000000000
00000000000000000111110011111100000000000000000000
00000000000000001111110011111110000000000000000000
00000000000000001111100011111110000000000000000000
00000000000000011111100011111110000000000000000000
00000000000000011111100011111110000000000000000000
00000000000000011111100011111111000000000000000000
00000000000000111111000011111111001100000000000000
00000000000000011111000001111111111110000000000000
00000000000000011111000001111111111110000000000000
00000000000000111110000001111111111110000000000000
00000000000000111110000011111111111110000000000000
00000000000000111111111111111111111110000000000000
00000000000001111111111111111111111000000000000000
00000000000001111111111111111111111000000000000000
00000000000001111111111111111111111000000000000000
00000000000001111111111111111111111000000000000000
00000000000001111111111111111111111000000000000000
00000000000001111111111100011111111000000000000000
00000000000001111111100000011111111000000000000000
00000000000001111110000000001111111000000000000000
00000000000001111100000000001111111000000000000000
00000000000001111000000000001111000000000000000000
00000000000000000000000000001110000000000000000000
00000000000000000000000000000000000000000000000000
00000000000000000000000000000000000000000000000000
00000000000000000000000000000000000000000000000000
00000000000000000000000000000000000000000000000000
00000000000000000000000000000000000000000000000000
00000000000000000000000000000000000000000000000000
00000000000000000000000000000000000000000000000000
00000000000000000000000000000000000000000000000000
00000000000000000000000000000000000000000000000000
00000000000000000000000000000000000000000000000000
00000000000000000000000000000000000000000000000000
00000000000000000000000000000000000000000000000000
00000000000000000000000000000000000000000000000000
00000000000000000000000000000000000000000000000000
00000000000000000000000000000000000000000000000000
00000000000000000000000000000000000000000000000000
00000000000000000000000000000000000000000000000000
00000000000000000000000000000000000000000000000000
00000000000000000000000000000000000000000000000000
