P1
50 70
00000000000000000000000000000000000000000000000000
00000000000000000000000000000000000000000000000000
00000000000000000000000000000000000000000000000000
00000000000000000000000000000000000000000000000000
00000000000000000000000000000000000000000000000000
00000000000000000000000000000000000000000000000000
00000000000000000000000000000000000000000000000000
00000000000000000000000000000000000000000000000000
00000000000000000000000000000000000000000000000000
00000000000000000000000000000000000000000000000000
00000000000000000000000000000000000000000000000000
00000000000000000000000000000000000000000000000000
00000000000000000000000000000000000000000000000000
00000000000000000000000000000000000000000000000000
00000000000000000000000000000000000000000000000000
00000000000000000000000000000000000000000000000000
00000000000000000000000000000000000000000000000000
00000000000000000000000000000000000000000000000000
00000000000000000000000000000000000000110000000000
00000000000000000000000000000011111111111100000000
00000000000000000000000000000111111111111000000000
00000000000000000000000000001111111111111000000000
00000000000000000000000000111111111111110000000000
00000000000000000000000001111111111111110000000000
00000000000000000000000011111111111111110000000000
00000000000000000000000111111111111111100000000000
00000000000000000000001111111111111111100000000000
00000000000000000000001111111111111111100000000000
00000000000000000000011111111111111111100000000000
00000000000000000001111111111111111111000000000000
00000000000000000011111111101111111110000000000000
00000000000000000011111111001111111110000000000000
00000000000000000111111110001111111110000000000000
00000000000000001111111100011111111100000000000000
00000000000000011111111000011111111100000000000000
00000000000001111111110000111111111100000000000000
00000000000011111111100000111111111000000000000000
00000000000011111111100000111111111000000000000000
00000000000111111110000000111111111000000000000000
00000000011111111100000001111111110000000000000000
00000000011111111000000001111111110000000000000000
00000000111111111100000011111111100000000000000000
00000001111111111111111111111111110110000000000000
00000001111111111111111111111111111111000000000000
00000001111111111111111111111111111111000000000000
00000001111111111111111111111111111110000000000000
00000001111111111111111111111111111110000000000000
00000000001111111111111111111111111100000000000000
00000000000000000010011111111111111100000000000000
00000000000000000000011111111110011000000000000000
00000000000000000000011111111110000000000000000000
00000000000000000000011111111100000000000000000000
00000000000000000000111111111000000000000000000000
00000000000000000000111111111000000000000000000000
00000000000000000000111111111000000000000000000000
00000000000000000000011111110000000000000000000000
00000000000000000000000000000000000000000000000000
00000000000000000000000000000000000000000000000000
00000000000000000000000000000000000000000000000000
00000000000000000000000000000000000000000000000000
00000000000000000000000000000000000000000000000000
00000000000000000000000000000000000000000000000000
00000000000000000000000000000000000000000000000000
00000000000000000000000000000000000000000000000000
00000000000000000000000000000000000000000000000000
00000000000000000000000000000000000000000000000000
00000000000000000000000000000000000000000000000000
00000000000000000000000000000000000000000000000000
00000000000000000000000000000000000000000000000000
00000000000000000000000000000000000000000000000000
