P1
50 70
00000000000000000000000000000000000000000000000000
00000000000000000000000000000000000000000000000000
00000000000000000000000000000000000000000000000000
00000000000000000000000000000000000000000000000000
00000000000000000000000000000000000000000000000000
00000000000000000000000000000000000000000000000000
00000000000000000000000000000000000000000000000000
00000000000000000000000000000000000000000000000000
00000000000000000000000000000000000000000000000000
00000000000000000000000000000000000000000000000000
00000000000000000000000000000000000000000000000000
00000000000000000000000000000000000000000000000000
00000000000000000000000000000000000000000000000000
00000000000000000000000000000000000000000000000000
00000000000000000000000000000000000000000000000000
00000000000000000000000000000000000000000000000000
00000000000000000000000000000000000000000000000000
00000000000000000000000000000000000000000000000000
00000000000000000000000000000000000000000000000000
00000000000000000000000000000011111110000000000000
00000000000000000000000000000111111110000000000000
00000000000000000000000000001111111100000000000000
00000000000000000000000000011111111100000000000000
00000000000000000000000000011111111100000000000000
00000000000000000000000000111001111100000000000000
00000000000000000000000001111001111000000000000000
00000000000000000000000001110001111000000000000000
00000000000000000000000011100001111000000000000000
00000000000000000000000111100001110000000000000000
00000000000000000000001111000011110000000000000000
00000000000000000000001111000011110000000000000000
00000000000000000000011110000011110000000000000000
00000000000000000000111100000011100000000000000000
00000000000000000000111000000011100000000000000000
00000000000000000001110000000011100000000000000000
00000000000000000001110000000011100000000000000000
00000000000000000011110000000011100000000000000000
00000000000000000111100000000011000000000000000000
00000000000000000111000000000011100000000000000000
00000000000000001111000000000111110000000000000000
00000000000000001110000000000111111000000000000000
00000000000000001100000000011111111000000000000000
00000000000000011100000111111111110000000000000000
00000000000000111111111111111111000000000000000000
00000000000000111111111111111111000000000000000000
00000000000001111111111000001111000000000000000000
00000000000000111110000000001110000000000000000000
00000000000000000000000000001110000000000000000000
00000000000000000000000000001110000000000000000000
00000000000000000000000000001111000000000000000000
00000000000000000000000000011111110000000000000000
00000000000000000000000001111111110000000000000000
00000000000000000000001111111111000000000000000000
00000000000000000000001111111000000000000000000000
00000000000000000000001110000000000000000000000000
00000000000000000000000000000000000000000000000000
00000000000000000000000000000000000000000000000000
00000000000000000000000000000000000000000000000000
00000000000000000000000000000000000000000000000000
00000000000000000000000000000000000000000000000000
00000000000000000000000000000000000000000000000000
00000000000000000000000000000000000000000000000000
00000000000000000000000000000000000000000000000000
00000000000000000000000000000000000000000000000000
00000000000000000000000000000000000000000000000000
00000000000000000000000000000000000000000000000000
00000000000000000000000000000000000000000000000000
00000000000000000000000000000000000000000000000000
00000000000000000000000000000000000000000000000000
00000000000000000000000000000000000000000000000000
