P1
50 70
00000000000000000000000000000000000000000000000000
00000000000000000000000000000000000000000000000000
00000000000000000000000000000000000000000000000000
00000000000000000000000000000000000000000000000000
00000000000000000000000000000000000000000000000000
00000000000000000000000000000000000000000000000000
00000000000000000000000000000000000000000000000000
00000000000000000000000000000000000000000000000000
00000000000000000000000000000000000000000000000000
00000000000000000000000000000000000000000000000000
00000000000000000000000000000000000000000000000000
00000000000000000000000000000000000000000000000000
00000000000000000000000000000000000000000000000000
00000000000000000000000000000000000000000000000000
00000000000000000000000000000000000000000000000000
00000000000000000000000000000000000000000000000000
00000000000000000000000000010000000000000000000000
00000000000000000000000000111111000000000000000000
00000000000000000000000001111111110000000000000000
00000000000000000000000011111111111000000000000000
00000000000000000000000011111111111000000000000000
00000000000000000000000111111111111000000000000000
00000000000000000000001111111111111000000000000000
00000000000000000000001111111111111000000000000000
00000000000000000000011111111111111000000000000000
00000000000000000000011111111111111000000000000000
00000000000000000000111111111111111000000000000000
00000000000000000001111111111111111000000000000000
00000000000000000001111111111111111000000000000000
00000000000000000011111100111111111000000000000000
00000000000000000111111101111111111000000000000000
00000000000000000111111001111111111000000000000000
00000000000000001111110001111111111000000000000000
00000000000000011111100001111111111000000000000000
00000000000000011111100001111111111000000000000000
00000000000000111111000001111111111000000000000000
00000000000000111110000001111111111000000000000000
00000000000001111110000001111111111000000000000000
00000000000011111100000011111111111000000000000000
00000000000111111000000011111111111000000000000000
00000000000111111000000001111111111000000000000000
00000000001111110000000011111111111000000000000000
00000000011111110000000011111111111000000000000000
00000000011111111111110011111111111000000000000000
00000000111111111111111111111111111000000000000000
00000000111111111111111111111111111000000000000000
00000000011111111111111111111111111111110000000000
00000000000111111111111111111111111111111000000000
00000000000000011111111111111111111111111000000000
00000000000000000000000111111111111111111000000000
00000000000000000000000011111111111111111000000000
00000000000000000000000011111111111000000000000000
00000000000000000000000011111111111000000000000000
00000000000000000000000011111111111000000000000000
00000000000000000000000011111111110000000000000000
00000000000000000011111111111111110000000000000000
00000000000000000011111111111111111000000000000000
00000000000000000111111111111111111111110000000000
00000000000000000111111111111111111111110000000000
00000000000000000111111111111111111111111000000000
00000000000000000000000000000000000011110000000000
00000000000000000000000000000000000000000000000000
00000000000000000000000000000000000000000000000000
00000000000000000000000000000000000000000000000000
00000000000000000000000000000000000000000000000000
00000000000000000000000000000000000000000000000000
00000000000000000000000000000000000000000000000000
00000000000000000000000000000000000000000000000000
00000000000000000000000000000000000000000000000000
00000000000000000000000000000000000000000000000000
