P1
50 70
00000000000000000000000000000000000000000000000000
00000000000000000000000000000000000000000000000000
00000000000000000000000000000000000000000000000000
00000000000000000000000000000000000000000000000000
00000000000000000000000000000000000000000000000000
00000000000000000000000000000000000000000000000000
00000000000000000000000000000000000000000000000000
00000000000000000000000000000000000000000000000000
00000000000000000000000000000000000000000000000000
00000000000000000000000000000000000000000000000000
00000000000000000000000000000000000000000000000000
00000000000000000000000000000000000000000000000000
00000000000000000000000000000000000000000000000000
00000000000000000000000000000000000000000000000000
00000000000000000000000000000000000000000000000000
00000000000000000000000000000000000000000000000000
00000000000000000000000000000000000000000000000000
00000000000000000000000000000000001110000000000000
00000000000000000000000000000001111111000000000000
00000000000000000000000000000011111111000000000000
00000000000000000000000000000111111111000000000000
00000000000000000000000000001111111110000000000000
00000000000000000000000000011111111110000000000000
00000000000000000000000000011111111110000000000000
00000000000000000000000000111111111110000000000000
00000000000000000000000000111111111100000000000000
00000000000000000000000001111111111100000000000000
00000000000000000000000011111111111100000000000000
00000000000000000000000111111111111000000000000000
00000000000000000000000111110111111000000000000000
00000000000000000000001111100111111000000000000000
00000000000000000000001111100111111000000000000000
00000000000000000000111111001111111000000000000000
00000000000000000000111110001111111000000000000000
00000000000000000001111100001111110000000000000000
00000000000000000001111000001111110000000000000000
00000000000000000111110000000111110000000000000000
00000000000000000111110000000111110000000000000000
00000000000000001111100000000111100000000000000000
00000000000000011111000000001111100000000000000000
00000000000000111110000000001111100000000000000000
00000000000001111110000000001111110000000000000000
00000000000001111100000000001111110000000000000000
00000000000011111100000001111111110000000000000000
00000000000011111111111111111111111110000000000000
00000000000011111111111111111111111111000000000000
00000000000011111111111111111111111111000000000000
00000000000011111111111111111111111110000000000000
00000000000000000000000000011111111110000000000000
00000000000000000000000000011111100000000000000000
00000000000000000000000000011111100000000000000000
00000000000000000000000000011111000000000000000000
00000000000000000000000000011111000000000000000000
00000000000000000000000000111111000000000000000000
00000000000000000000000000111111000000000000000000
00000000000000000000000000111111000000000000000000
00000000000000000000000000011110000000000000000000
00000000000000000000000000000000000000000000000000
00000000000000000000000000000000000000000000000000
00000000000000000000000000000000000000000000000000
00000000000000000000000000000000000000000000000000
00000000000000000000000000000000000000000000000000
00000000000000000000000000000000000000000000000000
00000000000000000000000000000000000000000000000000
00000000000000000000000000000000000000000000000000
00000000000000000000000000000000000000000000000000
00000000000000000000000000000000000000000000000000
00000000000000000000000000000000000000000000000000
00000000000000000000000000000000000000000000000000
00000000000000000000000000000000000000000000000000
