P1
50 70
00000000000000000000000000000000000000000000000000
00000000000000000000000000000000000000000000000000
00000000000000000000000000000000000000000000000000
00000000000000000000000000000000000000000000000000
00000000000000000000000000000000000000000000000000
00000000000000000000000000000000000000000000000000
00000000000000000000000000000000000000000000000000
00000000000000000000000000000000000000000000000000
00000000000000000000000000000000000000000000000000
00000000000000000000000000000000000000000000000000
00000000000000000000000000000000000000000000000000
00000000000000000000000000000000000000000000000000
00000000000000000000000000000000000000000000000000
00000000000000000000000000000000000000000000000000
00000000000000000000000000000000000000000000000000
00000000000000000000000000000001110000000000000000
00000000000000000000000000000111110000000000000000
00000000000000000000000000011111110000000000000000
00000000000000000000000000111111110000000000000000
00000000000000000000000001111111110000000000000000
00000000000000000000000011111111110000000000000000
00000000000000000000000011111111110000000000000000
00000000000000000000000111111111110000000000000000
00000000000000000000000111111111110000000000000000
00000000000000000000001111111111110000000000000000
00000000000000000000011111111111110000000000000000
00000000000000000000011111111111110000000000000000
00000000000000000000011111111111110000000000000000
00000000000000000000111111111111110000000000000000
00000000000000000001111110111111110000000000000000
00000000000000000001111100111111110000000000000000
00000000000000000011111100111111110000000000000000
00000000000000000011111000111111110000000000000000
00000000000000000011111000111111110000000000000000
00000000000000000111110000111111110000000000000000
00000000000000001111110000111111110010000000000000
00000000000000001111100000111111111111000000000000
00000000000000011111100000111111111111000000000000
00000000000000111111000000111111111111000000000000
00000000000000111111000000111111111111000000000000
00000000000001111110000111111111111111100000000000
00000000000011111111111111111111111111000000000000
00000000000011111111111111111111111110000000000000
00000000000111111111111111111111111000000000000000
00000000000111111111111111111111110000000000000000
00000000001111111111111111111111111000000000000000
00000000001111111111111111111111111000000000000000
00000000001111111111111001111111111000000000000000
00000000001111111111100001111111110000000000000000
00000000001111111000000000111111110000000000000000
00000000001110000000000000111111110000000000000000
00000000000000000000000001111111110000000000000000
00000000000000000000000001111110000000000000000000
00000000000000000000000001110000000000000000000000
00000000000000000000000000000000000000000000000000
00000000000000000000000000000000000000000000000000
00000000000000000000000000000000000000000000000000
00000000000000000000000000000000000000000000000000
00000000000000000000000000000000000000000000000000
00000000000000000000000000000000000000000000000000
00000000000000000000000000000000000000000000000000
00000000000000000000000000000000000000000000000000
00000000000000000000000000000000000000000000000000
00000000000000000000000000000000000000000000000000
00000000000000000000000000000000000000000000000000
00000000000000000000000000000000000000000000000000
00000000000000000000000000000000000000000000000000
00000000000000000000000000000000000000000000000000
00000000000000000000000000000000000000000000000000
00000000000000000000000000000000000000000000000000
