P1
50 70
00000000000000000000000000000000000000000000000000
00000000000000000000000000000000000000000000000000
00000000000000000000000000000000000000000000000000
00000000000000000000000000000000000000000000000000
00000000000000000000000000000000000000000000000000
00000000000000000000000000000000000000000000000000
00000000000000000000000000000000000000000000000000
00000000000000000000000000000000000000000000000000
00000000000000000000000000000000000000000000000000
00000000000000000000000000000000000000000000000000
00000000000000000000000000000000000000000000000000
00000000000000000000000000000000000000000000000000
00000000000000000000000000000000000000000000000000
00000000000000000000000000000000001111110000000000
00000000000000000000000000000000011111110000000000
00000000000000000000000000000000111111110000000000
00000000000000000000000000000001111111110000000000
00000000000000000000000000000011111111110000000000
00000000000000000000000000000111111111100000000000
00000000000000000000000000001111111111000000000000
00000000000000000000000000011111111111000000000000
00000000000000000000000000111111111111000000000000
00000000000000000000000001111101111111000000000000
00000000000000000000000011111001111111000000000000
00000000000000000000000111110001111110000000000000
00000000000000000000000111100011111110000000000000
00000000000000000000001111000011111100000000000000
00000000000000000000111110000011111100000000000000
00000000000000000001111100000111111100000000000000
00000000000000000011111000000111111000000000000000
00000000000000000111110000000111111000000000000000
00000000000000001111100000000111111000000000000000
00000000000000011111000000000111111000000000000000
00000000000000111110000000000111111000000000000000
00000000000011111100000000001111111000000000000000
00000000000011111000000000001111110000000000000000
00000000000111110000000000011111100000000000000000
00000000001111110000000000011111100000000000000000
00000000001111111110000000111111100000000000000000
00000000011111111111111100111111100000000000000000
00000000001111111111111111111111000000000000000000
00000000000011111111111111111111111000000000000000
00000000000000000010111111111111111110000000000000
00000000000000000000000001111111111111000000000000
00000000000000000000000001111111111111000000000000
00000000000000000000000001111111111110000000000000
00000000000000000000000001111110000000000000000000
00000000000000000000000001111110000000000000000000
00000000000000000000000011111100000000000000000000
00000000000000000000000011111100000000000000000000
00000000000000000000000111111100000000000000000000
00000000000000000000000111111000000000000000000000
00000000000000000000000011111000000000000000000000
00000000000000000000000000011000000000000000000000
00000000000000000000000000000000000000000000000000
00000000000000000000000000000000000000000000000000
00000000000000000000000000000000000000000000000000
00000000000000000000000000000000000000000000000000
00000000000000000000000000000000000000000000000000
00000000000000000000000000000000000000000000000000
00000000000000000000000000000000000000000000000000
00000000000000000000000000000000000000000000000000
00000000000000000000000000000000000000000000000000
00000000000000000000000000000000000000000000000000
00000000000000000000000000000000000000000000000000
00000000000000000000000000000000000000000000000000
00000000000000000000000000000000000000000000000000
00000000000000000000000000000000000000000000000000
00000000000000000000000000000000000000000000000000
00000000000000000000000000000000000000000000000000
