P1
50 70
00000000000000000000000000000000000000000000000000
00000000000000000000000000000000000000000000000000
00000000000000000000000000000000000000000000000000
00000000000000000000000000000000000000000000000000
00000000000000000000000000000000000000000000000000
00000000000000000000000000000000000000000000000000
00000000000000000000000000000000000000000000000000
00000000000000000000000000000000000000000000000000
00000000000000000000000000000000000000000000000000
00000000000000000000000000000000000000000000000000
00000000000000000000000000000000000000000000000000
00000000000000000000000000000000000000000000000000
00000000000000000000000000000000000000000000000000
00000000000000000000000000000000000000000000000000
00000000000000000000000000000000000000000000000000
00000000000000000000000000000000000000000000000000
00000000000000000000000000000000011100000000000000
00000000000000000000000000000000111110000000000000
00000000000000000000000000000001111110000000000000
00000000000000000000000000000011111110000000000000
00000000000000000000000000000111111110000000000000
00000000000000000000000000000111111110000000000000
00000000000000000000000000001111011100000000000000
00000000000000000000000000011110011100000000000000
00000000000000000000000000111100011100000000000000
00000000000000000000000000111100111100000000000000
00000000000000000000000001111000111100000000000000
00000000000000000000000011110000111000000000000000
00000000000000000000000011100000110000000000000000
00000000000000000000000111000001110000000000000000
00000000000000000000001111000001110000000000000000
00000000000000000000011110000011110000000000000000
00000000000000000000111100000011110000000000000000
00000000000000000001111100000011110000000000000000
00000000000000000011110000000011100000000000000000
00000000000000000011100000000011100000000000000000
00000000000000000111100000000011100000000000000000
00000000000000000111000000000011100000000000000000
00000000000000001110000000000111000000000000000000
00000000000000011100000000001111000000000000000000
00000000000000111100000000001111000000000000000000
00000000000001111000000000001110000000000000000000
00000000000001111000000000001110000000000000000000
00000000000011111111111100011110000000000000000000
00000000000011111111111111111110000000000000000000
00000000000011111111111111111111000000000000000000
00000000000000011111111111111111100000000000000000
00000000000000000000000001111111000000000000000000
00000000000000000000000000111111000000000000000000
00000000000000000000000000111100000000000000000000
00000000000000000000000001111000000000000000000000
00000000000000000000000001111000000000000000000000
00000000000000000000000001110000000000000000000000
00000000000000000000000001110000000000000000000000
00000000000000000000000001110000000000000000000000
00000000000000000000000001110000000000000000000000
00000000000000000001111111110000000000000000000000
00000000000000000001111111111000000000000000000000
00000000000000000001111111111000000000000000000000
00000000000000000001111111111000000000000000000000
00000000000000000000000001111000000000000000000000
00000000000000000000000000000000000000000000000000
00000000000000000000000000000000000000000000000000
00000000000000000000000000000000000000000000000000
00000000000000000000000000000000000000000000000000
00000000000000000000000000000000000000000000000000
00000000000000000000000000000000000000000000000000
00000000000000000000000000000000000000000000000000
00000000000000000000000000000000000000000000000000
00000000000000000000000000000000000000000000000000
