P1
50 70
00000000000000000000000000000000000000000000000000
00000000000000000000000000000000000000000000000000
00000000000000000000000000000000000000000000000000
00000000000000000000000000000000000000000000000000
00000000000000000000000000000000000000000000000000
00000000000000000000000000000000000000000000000000
00000000000000000000000000000000000000000000000000
00000000000000000000000000000000000000000000000000
00000000000000000000000000000000000000000000000000
00000000000000000000000000000000000000000000000000
00000000000000000000000000000000000000000000000000
00000000000000000000000000000000000000000000000000
00000000000000000000000000000000000000000000000000
00000000000000000000001111000000000000000000000000
00000000000000000000011111000000000000000000000000
00000000000000000011111111000000000000000000000000
00000000000000000111111111000000000000000000000000
00000000000000001111111111100000000000000000000000
00000000000000001111111111100000000000000000000000
00000000000000011111111111110000000000000000000000
00000000000000011111111111110000000000000000000000
00000000000000011111111111111000000000000000000000
00000000000000011111111111111000000000000000000000
00000000000000011111111111111000000000000000000000
00000000000000011111111111111000000000000000000000
00000000000000111111111111111000000000000000000000
00000000000000111111111111111100000000000000000000
00000000000000111111111111111110000000000000000000
00000000000000111111011111111110000000000000000000
00000000000001111110001111111110000000000000000000
00000000000001111110001111111110000000000000000000
00000000000001111110001111111111000000000000000000
00000000000001111110000111111111000000000000000000
00000000000001111110000111111111100110000000000000
00000000000001111100000111111111111110000000000000
00000000000001111100000111111111111110000000000000
00000000000001111100000011111111111111000000000000
00000000000001111100000001111111111111000000000000
00000000000011111100000001111111111111000000000000
00000000000001111100000011111111111111000000000000
00000000000011111100001111111111111111000000000000
00000000000011111000111111111111111100000000000000
00000000000011111001111111111111111100000000000000
00000000000011111111111111111111111100000000000000
00000000000111111111111111111111111100000000000000
00000000000111111111111111111111111100000000000000
00000000000111111111111111011111111110000000000000
00000000000111111111111100001111111110000000000000
00000000000011111111110000001111111111000000000000
00000000000011111111000000001111111111000000000000
00000000000001111110000000001111111000000000000000
00000000000001111000000000000111110000000000000000
00000000000001100000000000000011000000000000000000
00000000000000000000000000000000000000000000000000
00000000000000000000000000000000000000000000000000
00000000000000000000000000000000000000000000000000
00000000000000000000000000000000000000000000000000
00000000000000000000000000000000000000000000000000
00000000000000000000000000000000000000000000000000
00000000000000000000000000000000000000000000000000
00000000000000000000000000000000000000000000000000
00000000000000000000000000000000000000000000000000
00000000000000000000000000000000000000000000000000
00000000000000000000000000000000000000000000000000
00000000000000000000000000000000000000000000000000
00000000000000000000000000000000000000000000000000
00000000000000000000000000000000000000000000000000
00000000000000000000000000000000000000000000000000
00000000000000000000000000000000000000000000000000
00000000000000000000000000000000000000000000000000
