P1
50 70
00000000000000000000000000000000000000000000000000
00000000000000000000000000000000000000000000000000
00000000000000000000000000000000000000000000000000
00000000000000000000000000000000000000000000000000
00000000000000000000000000000000000000000000000000
00000000000000000000000000000000000000000000000000
00000000000000000000000000000000000000000000000000
00000000000000000000000000000000000000000000000000
00000000000000000000000000000000000000000000000000
00000000000000000000000000000000000000000000000000
00000000000000000000000000000000000000000000000000
00000000000000000000000000000000000000000000000000
00000000000000000000000000000000000000000000000000
00000000000000000000000000000000000000000000000000
00000000000000000000000000000000000000000000000000
00000000000000000000000000000000000000000000000000
00000000000000000000000000000000000000000000000000
00000000000000000000000000000000000000000000000000
00000000000000000000000000000000000000000000000000
00000000000000000000000000000000000000000000000000
00000000000000000000000111111111000000000000000000
00000000000000000000001111111111100000000000000000
00000000000000000000011111111111000000000000000000
00000000000000000000011111111111000000000000000000
00000000000000000000011111111111100000000000000000
00000000000000000000111111111111100000000000000000
00000000000000000000111111111111100000000000000000
00000000000000000001111111111111100000000000000000
00000000000000000001111111111111100000000000000000
00000000000000000011111111111111100000000000000000
00000000000000000011111111111111100000000000000000
00000000000000000111111111111111100000000000000000
00000000000000001111111001111111100000000000000000
00000000000000001111111001111111100000000000000000
00000000000000011111111011111111100000000000000000
00000000000000011111110001111111110000000000000000
00000000000000111111100001111111110000000000000000
00000000000000111111100001111111100000000000000000
00000000000001111111100001111111100000000000000000
00000000000011111111000001111111110000000000000000
00000000000011111111000001111111110000000000000000
00000000000111111110000001111111110000000000000000
00000000000111111111001101111111110000000000000000
00000000000111111111111111111111111110000000000000
00000000000011111111111111111111111111000000000000
00000000000011111111111111111111111111000000000000
00000000000111111111111111111111111111100000000000
00000000000111111111111111111111111111100000000000
00000000000011111111111111111111111111100000000000
00000000000001111111111111111111111111000000000000
00000000000000000000000111111111111111000000000000
00000000000000000000000000111111111100000000000000
00000000000000000000000000111111111000000000000000
00000000000000000000000000111111110000000000000000
00000000000000000000000000111111110000000000000000
00000000000000000000000000111111111000000000000000
00000000000000000000000000011111111000000000000000
00000000000000000000000000000000000000000000000000
00000000000000000000000000000000000000000000000000
00000000000000000000000000000000000000000000000000
00000000000000000000000000000000000000000000000000
00000000000000000000000000000000000000000000000000
00000000000000000000000000000000000000000000000000
00000000000000000000000000000000000000000000000000
00000000000000000000000000000000000000000000000000
00000000000000000000000000000000000000000000000000
00000000000000000000000000000000000000000000000000
00000000000000000000000000000000000000000000000000
00000000000000000000000000000000000000000000000000
00000000000000000000000000000000000000000000000000
