P1
50 70
00000000000000000000000000000000000000000000000000
00000000000000000000000000000000000000000000000000
00000000000000000000000000000000000000000000000000
00000000000000000000000000000000000000000000000000
00000000000000000000000000000000000000000000000000
00000000000000000000000000000000000000000000000000
00000000000000000000000000000000000000000000000000
00000000000000000000000000000000000000000000000000
00000000000000000000000000000000000000000000000000
00000000000000000000000000000000000000000000000000
00000000000000000000000000000000000000000000000000
00000000000000000000000000000000000000000000000000
00000000000000000000000000000000000000000000000000
00000000000000000000000000000000000000000000000000
00000000000000000000000000000000000000000000000000
00000000000000000000000000000000000000000000000000
00000000000000000000000000000000000000000000000000
00000000000000000000000000000000001111111000000000
00000000000000000000000000000000111111111000000000
00000000000000000000000000000001111111111000000000
00000000000000000000000000000011111111111000000000
00000000000000000000000000000011111111111000000000
00000000000000000000000000000111111111110000000000
00000000000000000000000000011111111111110000000000
00000000000000000000000000011111111111110000000000
00000000000000000000000000111111111111110000000000
00000000000000000000000001111111111111110000000000
00000000000000000000000011111111111111100000000000
00000000000000000000000111111111111111100000000000
00000000000000000000000111111111111111100000000000
00000000000000000000001111111111111111100000000000
00000000000000000000011111001111111111000000000000
00000000000000000000111110001111111111000000000000
00000000000000000001111110001111111111000000000000
00000000000000000001111100001111111111000000000000
00000000000000000011111000011111111111000000000000
00000000000000000111110000011111111110000000000000
00000000000000011111100000011111111110000000000000
00000000000000111111000000111111111110000000000000
00000000000001111111000000111111111110000000000000
00000000000001111110000000111111111110000000000000
00000000000011111100000000111111111100000000000000
00000000000111111000000000111111111100000000000000
00000000001111111000110111111111111111111100000000
00000000011111111111111111111111111111111100000000
00000000111111111111111111111111111111111100000000
00000000111111111111111111111111111111111100000000
00000000111111111111111111111111111111010000000000
00000000010001100000000111111111111000000000000000
00000000000000000000000011111111111000000000000000
00000000000000000000000111111111111000000000000000
00000000000000000000000111111111110000000000000000
00000000000000000000000111111111110000000000000000
00000000000000000000001111111111110110000000000000
00000000000000001111111111111111111111100000000000
00000000000000001111111111111111111111100000000000
00000000000000001111111111111111111111000000000000
00000000000000011111111111111111111100000000000000
00000000000000000000000000000000000000000000000000
00000000000000000000000000000000000000000000000000
00000000000000000000000000000000000000000000000000
00000000000000000000000000000000000000000000000000
00000000000000000000000000000000000000000000000000
00000000000000000000000000000000000000000000000000
00000000000000000000000000000000000000000000000000
00000000000000000000000000000000000000000000000000
00000000000000000000000000000000000000000000000000
00000000000000000000000000000000000000000000000000
00000000000000000000000000000000000000000000000000
00000000000000000000000000000000000000000000000000
