P1
50 70
00000000000000000000000000000000000000000000000000
00000000000000000000000000000000000000000000000000
00000000000000000000000000000000000000000000000000
00000000000000000000000000000000000000000000000000
00000000000000000000000000000000000000000000000000
00000000000000000000000000000000000000000000000000
00000000000000000000000000000000000000000000000000
00000000000000000000000000000000000000000000000000
00000000000000000000000000000000000000000000000000
00000000000000000000000000000000000000000000000000
00000000000000000000000000000000000000000000000000
00000000000000000000000000000000000000000000000000
00000000000000000000000000000000000000000000000000
00000000000000000000001000000000000000000000000000
00000000000000000000011000000000000000000000000000
00000000000000000000111100000000000000000000000000
00000000000000000011111100000000000000000000000000
00000000000000000111111100000000000000000000000000
00000000000000001111111100000000000000000000000000
00000000000000001111111110000000000000000000000000
00000000000000001111111111000000000000000000000000
00000000000000001111111111000000000000000000000000
00000000000000011111111111000000000000000000000000
00000000000000011111111111100000000000000000000000
00000000000000011111111111100000000000000000000000
00000000000000011111111111100000000000000000000000
00000000000000011110011111100000000000000000000000
00000000000000111110011111100000000000000000000000
00000000000000011110001111110000000000000000000000
00000000000000011110001111110000000000000000000000
00000000000000111110000111111000000000000000000000
00000000000000111110000111111000000000000000000000
00000000000000111110000111111100000000000000000000
00000000000000111110000111111100000000000000000000
00000000000000111110000011111100000000000000000000
00000000000000111100000011111100001000000000000000
00000000000000111100000011111110011100000000000000
00000000000000111100000001111111111100000000000000
00000000000000111100000001111111111100000000000000
00000000000001111100000000111111111100000000000000
00000000000001111100000000111111111100000000000000
00000000000001111000000011111111111000000000000000
00000000000001111100000111111111100000000000000000
00000000000001111000011111111111100000000000000000
00000000000001111100111111111111100000000000000000
00000000000001111111111111111111110000000000000000
00000000000001111111111111111111110000000000000000
00000000000001111111111110001111110000000000000000
00000000000001111111111100000111110000000000000000
00000000000001111111100000000111111000000000000000
00000000000000111111000000000011111000000000000000
00000000000000111100000000000011111000000000000000
00000000000000000000000000000011110000000000000000
00000000000000000000000000000001100000000000000000
00000000000000000000000000000000000000000000000000
00000000000000000000000000000000000000000000000000
00000000000000000000000000000000000000000000000000
00000000000000000000000000000000000000000000000000
00000000000000000000000000000000000000000000000000
00000000000000000000000000000000000000000000000000
00000000000000000000000000000000000000000000000000
00000000000000000000000000000000000000000000000000
00000000000000000000000000000000000000000000000000
00000000000000000000000000000000000000000000000000
00000000000000000000000000000000000000000000000000
00000000000000000000000000000000000000000000000000
00000000000000000000000000000000000000000000000000
00000000000000000000000000000000000000000000000000
00000000000000000000000000000000000000000000000000
00000000000000000000000000000000000000000000000000
