P1
50 70
00000000000000000000000000000000000000000000000000
00000000000000000000000000000000000000000000000000
00000000000000000000000000000000000000000000000000
00000000000000000000000000000000000000000000000000
00000000000000000000000000000000000000000000000000
00000000000000000000000000000000000000000000000000
00000000000000000000000000000000000000000000000000
00000000000000000000000000000000000000000000000000
00000000000000000000000000000000000000000000000000
00000000000000000000000000000000000000000000000000
00000000000000000000000000000000000000000000000000
00000000000000000000000000000000000000000000000000
00000000000000000000000000000000000000000000000000
00000000000000000000000000000000000000000000000000
00000000000000000000000000000000000000000000000000
00000000000000000000000000000000001000000000000000
00000000000000000000000000000011111000000000000000
00000000000000000000000000000111111000000000000000
00000000000000000000000000000111110000000000000000
00000000000000000000000000001111110000000000000000
00000000000000000000000000011111111000000000000000
00000000000000000000000000011111111000000000000000
00000000000000000000000000111111111000000000000000
00000000000000000000000000111111110000000000000000
00000000000000000000000001111111110000000000000000
00000000000000000000000001111111110000000000000000
00000000000000000000000011111111110000000000000000
00000000000000000000000011111111110000000000000000
00000000000000000000000111111111110000000000000000
00000000000000000000000111100111100000000000000000
00000000000000000000000111000111100000000000000000
00000000000000000000001111001111100000000000000000
00000000000000000000011110001111100000000000000000
00000000000000000000011110001111100000000000000000
00000000000000000000111110001111100000000000000000
00000000000000000001111100001111100000000000000000
00000000000000000001111000001111100000000000000000
00000000000000000011110000001111100000000000000000
00000000000000000011110000001111100000000000000000
00000000000000000111100000001111100000000000000000
00000000000000001111100000001111100000000000000000
00000000000000001111100000001111111100000000000000
00000000000000001111000000011111111100000000000000
00000000000000011110000000111111111100000000000000
00000000000000111111001111111111111100000000000000
00000000000000111111111111111111111000000000000000
00000000000000111111111111111111000000000000000000
00000000000001111111111111111111000000000000000000
00000000000001111111111000111111000000000000000000
00000000000001111110000000011111000000000000000000
00000000000000000000000000011111000000000000000000
00000000000000000000000000011110000000000000000000
00000000000000000000000000011110000000000000000000
00000000000000000000000000011110000000000000000000
00000000000000000000000000011110000000000000000000
00000000000000000000000000011000000000000000000000
00000000000000000000000000000000000000000000000000
00000000000000000000000000000000000000000000000000
00000000000000000000000000000000000000000000000000
00000000000000000000000000000000000000000000000000
00000000000000000000000000000000000000000000000000
00000000000000000000000000000000000000000000000000
00000000000000000000000000000000000000000000000000
00000000000000000000000000000000000000000000000000
00000000000000000000000000000000000000000000000000
00000000000000000000000000000000000000000000000000
00000000000000000000000000000000000000000000000000
00000000000000000000000000000000000000000000000000
00000000000000000000000000000000000000000000000000
00000000000000000000000000000000000000000000000000
