P1
50 70
00000000000000000000000000000000000000000000000000
00000000000000000000000000000000000000000000000000
00000000000000000000000000000000000000000000000000
00000000000000000000000000000000000000000000000000
00000000000000000000000000000000000000000000000000
00000000000000000000000000000000000000000000000000
00000000000000000000000000000000000000000000000000
00000000000000000000000000000000000000000000000000
00000000000000000000000000000000000000000000000000
00000000000000000000000000000000000000000000000000
00000000000000000000000000000000000000000000000000
00000000000000000000000000000000000000000000000000
00000000000000000000000000000000000000000000000000
00000000000000000000000000000000000000000000000000
00000000000000000000000000000000000000000000000000
00000000000000000000000000000000000000000000000000
00000000000000000000000000000000000000000000000000
00000000000000000000000000000000011111000000000000
00000000000000000000000000000000111111111100000000
00000000000000000000000000000001111111111100000000
00000000000000000000000000000011111111111100000000
00000000000000000000000000000011111111111100000000
00000000000000000000000000000111111111111100000000
00000000000000000000000000001111111111111100000000
00000000000000000000000000011111111111111100000000
00000000000000000000000000111111111111111000000000
00000000000000000000000001111111111111111000000000
00000000000000000000000001111111111111111000000000
00000000000000000000000011111111111111110000000000
00000000000000000000001111110111111111110000000000
00000000000000000000011111110111111111110000000000
00000000000000000000011111101111111111110000000000
00000000000000000000111111001111111111110000000000
00000000000000000001111110001111111111100000000000
00000000000000000011111100001111111111100000000000
00000000000000000111111000001111111111000000000000
00000000000000001111110000011111111111000000000000
00000000000000011111110000011111111111000000000000
00000000000000111111000000011111111111000000000000
00000000000001111110000000011111111111000000000000
00000000000001111100000000111111111110000000000000
00000000000011111000000001111111111110000000000000
00000000000111110000000001111111111110000000000000
00000000001111100000000001111111111100000000000000
00000000011111111111111111111111111110011000000000
00000000111111111111111111111111111111111100000000
00000001111111111111111111111111111111111100000000
00000001111111111111111111111111111111111100000000
00000001111111111111111111111111111111111100000000
00000000100011000110001111111111111000110000000000
00000000000000000000000111111111110000000000000000
00000000000000000000001111111111110000000000000000
00000000000000000000001111111111110000000000000000
00000000000000000000001111111111110000000000000000
00000000000000000000001111111111110000000000000000
00000000000000000111111111111111111101000000000000
00000000000000011111111111111111111111100000000000
00000000000000011111111111111111111111100000000000
00000000000000011111111111111111111111100000000000
00000000000000001111111110111101110000000000000000
00000000000000000000000000000000000000000000000000
00000000000000000000000000000000000000000000000000
00000000000000000000000000000000000000000000000000
00000000000000000000000000000000000000000000000000
00000000000000000000000000000000000000000000000000
00000000000000000000000000000000000000000000000000
00000000000000000000000000000000000000000000000000
00000000000000000000000000000000000000000000000000
00000000000000000000000000000000000000000000000000
00000000000000000000000000000000000000000000000000
