P1
50 70
00000000000000000000000000000000000000000000000000
00000000000000000000000000000000000000000000000000
00000000000000000000000000000000000000000000000000
00000000000000000000000000000000000000000000000000
00000000000000000000000000000000000000000000000000
00000000000000000000000000000000000000000000000000
00000000000000000000000000000000000000000000000000
00000000000000000000000000000000000000000000000000
00000000000000000000000000000000000000000000000000
00000000000000000000000000000000000000000000000000
00000000000000000000000000000000000000000000000000
00000000000000000000000000000000000000000000000000
00000000000000000000000000000000000000000000000000
00000000000000000000000000000000000000000000000000
00000000000000000000000000000000000000000000000000
00000000000000000000000000000000111110000000000000
00000000000000000000000000000011111111000000000000
00000000000000000000000000000011111111000000000000
00000000000000000000000000000111111111000000000000
00000000000000000000000000001111111111000000000000
00000000000000000000000000011111111110000000000000
00000000000000000000000000111111011110000000000000
00000000000000000000000001111110011110000000000000
00000000000000000000000001111100111110000000000000
00000000000000000000000011111000111100000000000000
00000000000000000000000111110000111100000000000000
00000000000000000000001111100001111100000000000000
00000000000000000000011111000001111100000000000000
00000000000000000000011111000001111100000000000000
00000000000000000000111111000001111000000000000000
00000000000000000001111110000001111000000000000000
00000000000000000011111100000001110000000000000000
00000000000000000011111000000011110000000000000000
00000000000000000111110000000011110000000000000000
00000000000000000111110000000011110000000000000000
00000000000000001111100000000011110000000000000000
00000000000000001111000000000011100000000000000000
00000000000000011110000000000011100000000000000000
00000000000000111110000000000111100000000000000000
00000000000000111100000000000111100000000000000000
00000000000001111100000000000111100000000000000000
00000000000001111000000000000111100000000000000000
00000000000001110000000000000111000000000000000000
00000000000011110000000000000111000000000000000000
00000000000011111110000000001111000000000000000000
00000000000011111111111110011110000000000000000000
00000000000011111111111111111111000000000000000000
00000000000000111111111111111111110000000000000000
00000000000000000000111111111111111000000000000000
00000000000000000000000000111111111000000000000000
00000000000000000000000000011110110000000000000000
00000000000000000000000000111100000000000000000000
00000000000000000000000000111100000000000000000000
00000000000000000000000000111100000000000000000000
00000000000000000000000000111000000000000000000000
00000000000000000000000000111000000000000000000000
00000000000000000000000001111000000000000000000000
00000000000000000000000001111000000000000000000000
00000000000000000000000001111000000000000000000000
00000000000000000000000001111000000000000000000000
00000000000000000000000001110000000000000000000000
00000000000000000000000000110000000000000000000000
00000000000000000000000000000000000000000000000000
00000000000000000000000000000000000000000000000000
00000000000000000000000000000000000000000000000000
00000000000000000000000000000000000000000000000000
00000000000000000000000000000000000000000000000000
00000000000000000000000000000000000000000000000000
00000000000000000000000000000000000000000000000000
00000000000000000000000000000000000000000000000000
