P1
50 70
00000000000000000000000000000000000000000000000000
00000000000000000000000000000000000000000000000000
00000000000000000000000000000000000000000000000000
00000000000000000000000000000000000000000000000000
00000000000000000000000000000000000000000000000000
00000000000000000000000000000000000000000000000000
00000000000000000000000000000000000000000000000000
00000000000000000000000000000000000000000000000000
00000000000000000000000000000000000000000000000000
00000000000000000000000000000000000000000000000000
00000000000000000000000000000000000000000000000000
00000000000000000000000000000000000000000000000000
00000000000000000000000000000000000000000000000000
00000000000000000000000000000000000000000000000000
00000000000000000000000000000010000000000000000000
00000000000000000000000001111110000000000000000000
00000000000000000000000111111110000000000000000000
00000000000000000000000111111110000000000000000000
00000000000000000000000111111110000000000000000000
00000000000000000000001111111110000000000000000000
00000000000000000000001111111110000000000000000000
00000000000000000000001111111110000000000000000000
00000000000000000000011111111110000000000000000000
00000000000000000000011111111110000000000000000000
00000000000000000000111111111110000000000000000000
00000000000000000000111111111110000000000000000000
00000000000000000000111111111111000000000000000000
00000000000000000001111111111111000000000000000000
00000000000000000001111100111110000000000000000000
00000000000000000001111100111110000000000000000000
00000000000000000011111000111111000000000000000000
00000000000000000011111000111111000000000000000000
00000000000000000011111000111111000000000000000000
00000000000000000111110000111111000000000000000000
00000000000000001111110000111111000000000000000000
00000000000000001111110000111111000000000000000000
00000000000000001111110000111111000000000000000000
00000000000000011111100000111111000000000000000000
00000000000000011111100000111111000000000000000000
00000000000000111111000000111111100000000000000000
00000000000000111111000000111111110000000000000000
00000000000001111111000000111111111100000000000000
00000000000001111111111111111111111110000000000000
00000000000001111111111111111111111110000000000000
00000000000001111111111111111111111110000000000000
00000000000001111111111111111111111110000000000000
00000000000001111111111111111111111110000000000000
00000000000000111111111111111111111110000000000000
00000000000000011000000000111111110000000000000000
00000000000000000000000000111111100000000000000000
00000000000000000000000000011111100000000000000000
00000000000000000000000000011111110000000000000000
00000000000000000000000000011111110000000000000000
00000000000000000000000000111111110000000000000000
00000000000000000000000000111111110000000000000000
00000000000000000000000000011111110000000000000000
00000000000000000000000000000000110000000000000000
00000000000000000000000000000000000000000000000000
00000000000000000000000000000000000000000000000000
00000000000000000000000000000000000000000000000000
00000000000000000000000000000000000000000000000000
00000000000000000000000000000000000000000000000000
00000000000000000000000000000000000000000000000000
00000000000000000000000000000000000000000000000000
00000000000000000000000000000000000000000000000000
00000000000000000000000000000000000000000000000000
00000000000000000000000000000000000000000000000000
00000000000000000000000000000000000000000000000000
00000000000000000000000000000000000000000000000000
00000000000000000000000000000000000000000000000000
