P1
50 70
00000000000000000000000000000000000000000000000000
00000000000000000000000000000000000000000000000000
00000000000000000000000000000000000000000000000000
00000000000000000000000000000000000000000000000000
00000000000000000000000000000000000000000000000000
00000000000000000000000000000000000000000000000000
00000000000000000000000000000000000000000000000000
00000000000000000000000000000000000000000000000000
00000000000000000000000000000000000000000000000000
00000000000000000000000000000000000000000000000000
00000000000000000000000000000000000000000000000000
00000000000000000000000000000000000000000000000000
00000000000000000000000000000000000000000000000000
00000000000000000000000000000000000000000000000000
00000000000000000000000000111110000000000000000000
00000000000000000000000001111110000000000000000000
00000000000000000000000001111110000000000000000000
00000000000000000000000011111110000000000000000000
00000000000000000000000011111110000000000000000000
00000000000000000000000011111110000000000000000000
00000000000000000000000111111111000000000000000000
00000000000000000000000111111111000000000000000000
00000000000000000000001111111110000000000000000000
00000000000000000000001111111110000000000000000000
00000000000000000000001111111111000000000000000000
00000000000000000000001111111111000000000000000000
00000000000000000000011111111111000000000000000000
00000000000000000000011111111111000000000000000000
00000000000000000000111110011111000000000000000000
00000000000000000000111110011111000000000000000000
00000000000000000001111100111111000000000000000000
00000000000000000001111100111111000000000000000000
00000000000000000011111000111111000000000000000000
00000000000000000011111000111111000000000000000000
00000000000000000011110000111111000000000000000000
00000000000000000111110000111111000000000000000000
00000000000000000111100000111111000000000000000000
00000000000000001111100000111111000000000000000000
00000000000000001111000000111111000000000000000000
00000000000000011111000000111111000000000000000000
00000000000000111111000000111111000000000000000000
00000000000000111110000000111111000000000000000000
00000000000001111110000000011111000000000000000000
00000000000001111100000000111111111110000000000000
00000000000001111111100111111111111110000000000000
00000000000011111111111111111111111110000000000000
00000000000011111111111111111111111110000000000000
00000000000011111111111111111111111110000000000000
00000000000011111111111111111111111100000000000000
00000000000011111111111011111111000000000000000000
00000000000001111100000000011111000000000000000000
00000000000000000000000000011111000000000000000000
00000000000000000000000000011111000000000000000000
00000000000000000000000000111111000000000000000000
00000000000000000000000000111111000000000000000000
00000000000000000000000000111111000000000000000000
00000000000000000000000000111111000000000000000000
00000000000000000000000000011111000000000000000000
00000000000000000000000000011111000000000000000000
00000000000000000000000000000000000000000000000000
00000000000000000000000000000000000000000000000000
00000000000000000000000000000000000000000000000000
00000000000000000000000000000000000000000000000000
00000000000000000000000000000000000000000000000000
00000000000000000000000000000000000000000000000000
00000000000000000000000000000000000000000000000000
00000000000000000000000000000000000000000000000000
00000000000000000000000000000000000000000000000000
00000000000000000000000000000000000000000000000000
00000000000000000000000000000000000000000000000000
