P1
50 70
00000000000000000000000000000000000000000000000000
00000000000000000000000000000000000000000000000000
00000000000000000000000000000000000000000000000000
00000000000000000000000000000000000000000000000000
00000000000000000000000000000000000000000000000000
00000000000000000000000000000000000000000000000000
00000000000000000000000000000000000000000000000000
00000000000000000000000000000000000000000000000000
00000000000000000000000000000000000000000000000000
00000000000000000000000000000000000000000000000000
00000000000000000000000000000000000000000000000000
00000000000000000000000000000000000000000000000000
00000000000000000000000000000000000000000000000000
00000000000000000000000000000000000000000000000000
00000000000000000000000000000000000000000000000000
00000000000000000000000000000000000000000000000000
00000000000000000000000000000000000000000000000000
00000000000000000000000000000111100000000000000000
00000000000000000000000000001111100000000000000000
00000000000000000000000000001111100000000000000000
00000000000000000000000000011111100000000000000000
00000000000000000000000000011111100000000000000000
00000000000000000000000000111111100000000000000000
00000000000000000000000000111111110000000000000000
00000000000000000000000001111111110000000000000000
00000000000000000000000001111111110000000000000000
00000000000000000000000001111111110000000000000000
00000000000000000000000011111111110000000000000000
00000000000000000000000111110111110000000000000000
00000000000000000000000111100111110000000000000000
00000000000000000000001111100111110000000000000000
00000000000000000000001111000111110000000000000000
00000000000000000000011111000111110000000000000000
00000000000000000000111110000111110000000000000000
00000000000000000000111100000111110000000000000000
00000000000000000000111100000111110000000000000000
00000000000000000001111000000111100000000000000000
00000000000000000001111000000111100000000000000000
00000000000000000011110000000111100000000000000000
00000000000000000011110000000111100000000000000000
00000000000000000111100000000111110110000000000000
00000000000000001111100000001111111110000000000000
00000000000000001111000001111111111110000000000000
00000000000000011111111111111111111110000000000000
00000000000000011111111111111111111110000000000000
00000000000000111111111111111111100000000000000000
00000000000001111111111111111111100000000000000000
00000000000001111111111000001111100000000000000000
00000000000001111111000000001111100000000000000000
00000000000001111000000000001111100000000000000000
00000000000000000000000000001111100000000000000000
00000000000000000000000000001111100000000000000000
00000000000000000000000000001111100000000000000000
00000000000000000000000000001111000000000000000000
00000000000000000000000000000000000000000000000000
00000000000000000000000000000000000000000000000000
00000000000000000000000000000000000000000000000000
00000000000000000000000000000000000000000000000000
00000000000000000000000000000000000000000000000000
00000000000000000000000000000000000000000000000000
00000000000000000000000000000000000000000000000000
00000000000000000000000000000000000000000000000000
00000000000000000000000000000000000000000000000000
00000000000000000000000000000000000000000000000000
00000000000000000000000000000000000000000000000000
00000000000000000000000000000000000000000000000000
00000000000000000000000000000000000000000000000000
00000000000000000000000000000000000000000000000000
00000000000000000000000000000000000000000000000000
00000000000000000000000000000000000000000000000000
