P1
50 70
00000000000000000000000000000000000000000000000000
00000000000000000000000000000000000000000000000000
00000000000000000000000000000000000000000000000000
00000000000000000000000000000000000000000000000000
00000000000000000000000000000000000000000000000000
00000000000000000000000000000000000000000000000000
00000000000000000000000000000000000000000000000000
00000000000000000000000000000000000000000000000000
00000000000000000000000000000000000000000000000000
00000000000000000000000000000000000000000000000000
00000000000000000000000000000000000000000000000000
00000000000000000000000000000000000000000000000000
00000000000000000000000000000000110000000000000000
00000000000000000000000000000001111111000000000000
00000000000000000000000000000011111111111000000000
00000000000000000000000000000011111111111000000000
00000000000000000000000000000111111111111000000000
00000000000000000000000000001111111111110000000000
00000000000000000000000000011111111111110000000000
00000000000000000000000000111111111111110000000000
00000000000000000000000001111111111111110000000000
00000000000000000000000011111111111111110000000000
00000000000000000000000011111111111111110000000000
00000000000000000000000111111111111111110000000000
00000000000000000000001111111111111111110000000000
00000000000000000000011111111101111111100000000000
00000000000000000000111111111001111111100000000000
00000000000000000001111111110001111111100000000000
00000000000000000011111111100001111111100000000000
00000000000000000111111111000011111111000000000000
00000000000000000111111111000011111111000000000000
00000000000000001111111110000011111111000000000000
00000000000000001111111100000011111111000000000000
00000000000000011111111000000111111110000000000000
00000000000000111111110000000111111110000000000000
00000000000001111111100000000111111110000000000000
00000000000011111111000000001111111110000000000000
00000000000011111110000000001111111110000000000000
00000000000111111110000000001111111110000000000000
00000000001111111111110011011111111110000000000000
00000000001111111111111111111111111111000000000000
00000000001111111111111111111111111111110000000000
00000000011111111111111111111111111111110000000000
00000000011111111111111111111111111111110000000000
00000000011111111111111111111111111111111000000000
00000000011111111111111111111111111111110000000000
00000000011111111111111111111111111111110000000000
00000000001100100000000000111111111000110000000000
00000000000000000000000000111111111000000000000000
00000000000000000000000000111111110000000000000000
00000000000000000000000000111111110000000000000000
00000000000000000000000000111111110000000000000000
00000000000000000000000001111111110000000000000000
00000000000000000000000001111111110000000000000000
00000000000000000000000000110111000000000000000000
00000000000000000000000000000000000000000000000000
00000000000000000000000000000000000000000000000000
00000000000000000000000000000000000000000000000000
00000000000000000000000000000000000000000000000000
00000000000000000000000000000000000000000000000000
00000000000000000000000000000000000000000000000000
00000000000000000000000000000000000000000000000000
00000000000000000000000000000000000000000000000000
00000000000000000000000000000000000000000000000000
00000000000000000000000000000000000000000000000000
00000000000000000000000000000000000000000000000000
00000000000000000000000000000000000000000000000000
00000000000000000000000000000000000000000000000000
00000000000000000000000000000000000000000000000000
00000000000000000000000000000000000000000000000000
