P1
50 70
00000000000000000000000000000000000000000000000000
00000000000000000000000000000000000000000000000000
00000000000000000000000000000000000000000000000000
00000000000000000000000000000000000000000000000000
00000000000000000000000000000000000000000000000000
00000000000000000000000000000000000000000000000000
00000000000000000000000000000000000000000000000000
00000000000000000000000000000000000000000000000000
00000000000000000000000000000000000000000000000000
00000000000000000000000000000000000000000000000000
00000000000000000000000000000000000000000000000000
00000000000000000000000000000000000000000000000000
00000000000000000000000000000000000000000000000000
00000000000000000000000000000000000000000000000000
00000000000000000000000000000000000000000000000000
00000000000000000000000000000000000000000000000000
00000000000000000000000000000000000000000000000000
00000000000000000000000100000000000000000000000000
00000000000000000000001110000000000000000000000000
00000000000000000000011110000000000000000000000000
00000000000000000000111110000000000000000000000000
00000000000000000000111111000000000000000000000000
00000000000000000001111111000000000000000000000000
00000000000000000001111111000000000000000000000000
00000000000000000001111111000000000000000000000000
00000000000000000001111111000000000000000000000000
00000000000000000001111111100000000000000000000000
00000000000000000011111111110000000000000000000000
00000000000000000011111111110000000000000000000000
00000000000000000011110111110000000000000000000000
00000000000000000011110111110000000000000000000000
00000000000000000011100011111000000000000000000000
00000000000000000111110011111000000000000000000000
00000000000000000111110011111000000000000000000000
00000000000000000111100011111100000000000000000000
00000000000000000111100011111100000000000000000000
00000000000000001111100001111100000000000000000000
00000000000000001111000000111110000000000000000000
00000000000000001111000000111110000000000000000000
00000000000000001111000000111111111000000000000000
00000000000000001111000000111111111100000000000000
00000000000000001110000000111111111100000000000000
00000000000000011110000000111111111100000000000000
00000000000000011110000001111111111000000000000000
00000000000000011110000011111111110000000000000000
00000000000000011110001111111111100000000000000000
00000000000000111110111111111111100000000000000000
00000000000000111111111111111111100000000000000000
00000000000000111111111111000111110000000000000000
00000000000000111111111100000111110000000000000000
00000000000000111111110000000111111000000000000000
00000000000000111111000000000111111000000000000000
00000000000000111100000000000111111000000000000000
00000000000000011000000000000011111000000000000000
00000000000000000000000000000000000000000000000000
00000000000000000000000000000000000000000000000000
00000000000000000000000000000000000000000000000000
00000000000000000000000000000000000000000000000000
00000000000000000000000000000000000000000000000000
00000000000000000000000000000000000000000000000000
00000000000000000000000000000000000000000000000000
00000000000000000000000000000000000000000000000000
00000000000000000000000000000000000000000000000000
00000000000000000000000000000000000000000000000000
00000000000000000000000000000000000000000000000000
00000000000000000000000000000000000000000000000000
00000000000000000000000000000000000000000000000000
00000000000000000000000000000000000000000000000000
00000000000000000000000000000000000000000000000000
00000000000000000000000000000000000000000000000000
