P1
50 70
00000000000000000000000000000000000000000000000000
00000000000000000000000000000000000000000000000000
00000000000000000000000000000000000000000000000000
00000000000000000000000000000000000000000000000000
00000000000000000000000000000000000000000000000000
00000000000000000000000000000000000000000000000000
00000000000000000000000000000000000000000000000000
00000000000000000000000000000000000000000000000000
00000000000000000000000000000000000000000000000000
00000000000000000000000000000000000000000000000000
00000000000000000000000000000000000000000000000000
00000000000000000000000000000000000000000000000000
00000000000000000000000000000000000000000000000000
00000000000000000000000000000000000000000000000000
00000000000000000000000000000000000000000000000000
00000000000000000000000000000000000000000000000000
00000000000000000000000000011000000000000000000000
00000000000000000000000000111110000000000000000000
00000000000000000000000001111111000000000000000000
00000000000000000000000011111111100000000000000000
00000000000000000000001111111111111100000000000000
00000000000000000000011111111111111110000000000000
00000000000000000000111111111111111111000000000000
00000000000000000001111111111111111111000000000000
00000000000000000011111111111111111111000000000000
00000000000000001111111111111111111111000000000000
00000000000000011111111110111111111111000000000000
00000000000000111111111100111111111111000000000000
00000000000001111111110000111111111111000000000000
00000000000011111111100001111111111111000000000000
00000000000111111111000001111111111110000000000000
00000000011111111110000000111111111110000000000000
00000000111111111100000000111111111110000000000000
00000000111111111000000001111111111110000000000000
00000000111111100000000001111111111110000000000000
00000001111111000000000001111111111110000000000000
00000001111111000000000001111111111110000000000000
00000000111111100000000011111111111110000000000000
00000000011111111000000011111111111100000000000000
00000000000111111100000001111111111100000000000000
00000000000011111111100001111111111100000000000000
00000000000000011111110011111111111100000000000000
00000000000000001111111111111111111100000000000000
00000000000000000011111111111111111100000000000000
00000000000000000001111111111111111100000000000000
00000000000000000000001111111111111100000000000000
00000000000000000000000111111111111000000000000000
00000000000000000000000111111111111000000000000000
00000000000000000000000011111111111100000000000000
00000000000000000000000111111111111100000000000000
00000000000000000000000111111111111110000000000000
00000000000000001100000111111111111111110000000000
00000000000000001111001111111111111111111000000000
00000000000000001111111111111111111111111100000000
00000000000000000111111111111111110011111100000000
00000000000000000111111111111111111000011100000000
00000000000000000000111111111111111000001100000000
00000000000000000000011111111111110000000000000000
00000000000000000000000111111111110000000000000000
00000000000000000000000011111111110000000000000000
00000000000000000000000000011111111000000000000000
00000000000000000000000000001111111100000000000000
00000000000000000000000000000001111111000000000000
00000000000000000000000000000000111111110000000000
00000000000000000000000000000000001111111000000000
00000000000000000000000000000000000111111000000000
00000000000000000000000000000000000000110000000000
00000000000000000000000000000000000000000000000000
00000000000000000000000000000000000000000000000000
00000000000000000000000000000000000000000000000000
