P1
50 70
00000000000000000000000000000000000000000000000000
00000000000000000000000000000000000000000000000000
00000000000000000000000000000000000000000000000000
00000000000000000000000000000000000000000000000000
00000000000000000000000000000000000000000000000000
00000000000000000000000000000000000000000000000000
00000000000000000000000000000000000000000000000000
00000000000000000000000000000000000000000000000000
00000000000000000000000000000000000000000000000000
00000000000000000000000000000000000000000000000000
00000000000000000000000000000000000000000000000000
00000000000000000000000000000000000000000000000000
00000000000000000000000000000000000000000000000000
00000000000000000000000000000000000000000000000000
00000000000000000000000000000000000000000000000000
00000000000000000000000000000000000000000000000000
00000000000000000000000111100000000000000000000000
00000000000000000000011111000000000000000000000000
00000000000000000000111111000000000000000000000000
00000000000000000000111111100000000000000000000000
00000000000000000001111111100000000000000000000000
00000000000000000011111111100000000000000000000000
00000000000000000011111111100000000000000000000000
00000000000000000011111111100000000000000000000000
00000000000000000011111111110000000000000000000000
00000000000000000011111111110000000000000000000000
00000000000000000111111111110000000000000000000000
00000000000000000111111111100000000000000000000000
00000000000000001111001111100000000000000000000000
00000000000000001111001111110000000000000000000000
00000000000000001111001111110000000000000000000000
00000000000000001111001111110000000000000000000000
00000000000000011111000111110000000000000000000000
00000000000000011110000111111000000000000000000000
00000000000000011110000111111000000000000000000000
00000000000000111110000111111000000000000000000000
00000000000000111110000011111000000000000000000000
00000000000000111100000011111000000000000000000000
00000000000000111100000011111100000000000000000000
00000000000000111100000011111100000000000000000000
00000000000000111000000011111000000000000000000000
00000000000001111000000001111000000000000000000000
00000000000001111000000001111000000000000000000000
00000000000001111000000001111100011100000000000000
00000000000001111000000011111111111100000000000000
00000000000011111001111111111111111100000000000000
00000000000011111111111111111111111100000000000000
00000000000011111111111111111111111000000000000000
00000000000001111111111111111111000000000000000000
00000000000000111000110000111110000000000000000000
00000000000000000000000000111110000000000000000000
00000000000000000000000000111110000000000000000000
00000000000000000000000000011111000000000000000000
00000000000000000000000000011111000000000000000000
00000000000000000000000000011111000000000000000000
00000000000000000000000011111111111100000000000000
00000000000000000000000111111111111100000000000000
00000000000000000000000011111111111110000000000000
00000000000000000000000001111011110100000000000000
00000000000000000000000000000000000000000000000000
00000000000000000000000000000000000000000000000000
00000000000000000000000000000000000000000000000000
00000000000000000000000000000000000000000000000000
00000000000000000000000000000000000000000000000000
00000000000000000000000000000000000000000000000000
00000000000000000000000000000000000000000000000000
00000000000000000000000000000000000000000000000000
00000000000000000000000000000000000000000000000000
00000000000000000000000000000000000000000000000000
00000000000000000000000000000000000000000000000000
