P1
50 70
00000000000000000000000000000000000000000000000000
00000000000000000000000000000000000000000000000000
00000000000000000000000000000000000000000000000000
00000000000000000000000000000000000000000000000000
00000000000000000000000000000000000000000000000000
00000000000000000000000000000000000000000000000000
00000000000000000000000000000000000000000000000000
00000000000000000000000000000000000000000000000000
00000000000000000000000000000000000000000000000000
00000000000000000000000000000000000000000000000000
00000000000000000000000000000000000000000000000000
00000000000000000000000000000000000000000000000000
00000000000000000000000000000000000000000000000000
00000000000000000000000000000000000000000000000000
00000000000000000000000000000000000000000000000000
00000000000000000000000000000000000000000000000000
00000000000000000000000001111100000000000000000000
00000000000000000000000111111110000000000000000000
00000000000000000000000111111110000000000000000000
00000000000000000000001111111110000000000000000000
00000000000000000000001111111111000000000000000000
00000000000000000000001111111111000000000000000000
00000000000000000000011111111111000000000000000000
00000000000000000000111111111110000000000000000000
00000000000000000000111111111111000000000000000000
00000000000000000000111111111111000000000000000000
00000000000000000001111110111111000000000000000000
00000000000000000001111100111111000000000000000000
00000000000000000011111100111111000000000000000000
00000000000000000011111100111111000000000000000000
00000000000000000011111000111111000000000000000000
00000000000000000111111000111111000000000000000000
00000000000000001111110000111111000000000000000000
00000000000000001111110000111111000000000000000000
00000000000000001111110000111111000000000000000000
00000000000000011111100000111111000000000000000000
00000000000000011111100000011111100000000000000000
00000000000000011111100000011111100000000000000000
00000000000000111111000000011111100000000000000000
00000000000000111111000000011111100000000000000000
00000000000001111110000000011111100000000000000000
00000000000001111110000000011111100000000000000000
00000000000001111110000000011111100000000000000000
00000000000011111100000000011111100000000000000000
00000000000011111100000000011111100000000000000000
00000000000111111000000000011111100000000000000000
00000000000111111000000000011111100000000000000000
00000000000111111000000000011111111111000000000000
00000000001111111000000001111111111111100000000000
00000000001111111011111111111111111111100000000000
00000000001111111111111111111111111111100000000000
00000000001111111111111111111111111111100000000000
00000000001111111111111111111111111111100000000000
00000000001111111111111111111111111000000000000000
00000000000111111111111111011111110000000000000000
00000000000111111101110000001111110000000000000000
00000000000111000000000000001111110000000000000000
00000000000000000000000000001111110000000000000000
00000000000000000000000000001111110000000000000000
00000000000000000000000000000111111000000000000000
00000000000000000000000000000111111000000000000000
00000000000000000000000000001111110000000000000000
00000000000000000000000000001111110000000000000000
00000000000000000000000000000111111000000000000000
00000000000000000000000000000111111000000000000000
00000000000000000000000000000110000000000000000000
00000000000000000000000000000000000000000000000000
00000000000000000000000000000000000000000000000000
00000000000000000000000000000000000000000000000000
00000000000000000000000000000000000000000000000000
