P1
50 70
00000000000000000000000000000000000000000000000000
00000000000000000000000000000000000000000000000000
00000000000000000000000000000000000000000000000000
00000000000000000000000000000000000000000000000000
00000000000000000000000000000000000000000000000000
00000000000000000000000000000000000000000000000000
00000000000000000000000000000000000000000000000000
00000000000000000000000000000000000000000000000000
00000000000000000000000000000000000000000000000000
00000000000000000000000000000000000000000000000000
00000000000000000000000000000000000000000000000000
00000000000000000000000000000000000000000000000000
00000000000000000000000000000000000000000000000000
00000000000000000000000000000000000000000000000000
00000000000000000000000000000000000000000000000000
00000000000000000000000000000000000000000000000000
00000000000000000000000111110000000000000000000000
00000000000000000000000111110000000000000000000000
00000000000000000000000111110000000000000000000000
00000000000000000000001111110000000000000000000000
00000000000000000000001111110000000000000000000000
00000000000000000000001111110000000000000000000000
00000000000000000000011100110000000000000000000000
00000000000000000000011100111000000000000000000000
00000000000000000000111000111000000000000000000000
00000000000000000000111000111000000000000000000000
00000000000000000001111000011000000000000000000000
00000000000000000001110000011100000000000000000000
00000000000000000001110000011100000000000000000000
00000000000000000011110000111100000000000000000000
00000000000000000011100000111100000000000000000000
00000000000000000011100000011100000000000000000000
00000000000000000011000000011100000000000000000000
00000000000000000111000000011100000000000000000000
00000000000000000111000000011100000000000000000000
00000000000000001110000000001100000000000000000000
00000000000000001110000000001110000000000000000000
00000000000000011100000000001110000000000000000000
00000000000000011110000000011110000000000000000000
00000000000000011111111111111111000000000000000000
00000000000000111111111111111111100000000000000000
00000000000000011111111111111111110000000000000000
00000000000000000000000001111111000000000000000000
00000000000000000000000000001110000000000000000000
00000000000000000000000000000111000000000000000000
00000000000000000000000000000111000000000000000000
00000000000000000000000000000111000000000000000000
00000000000000000000000000001111000000000000000000
00000000000000000000000001101111100000000000000000
00000000000000000000000011111111110000000000000000
00000000000000000000000011111111111000000000000000
00000000000000000000000001111111111000000000000000
00000000000000000000000000000000100000000000000000
00000000000000000000000000000000000000000000000000
00000000000000000000000000000000000000000000000000
00000000000000000000000000000000000000000000000000
00000000000000000000000000000000000000000000000000
00000000000000000000000000000000000000000000000000
00000000000000000000000000000000000000000000000000
00000000000000000000000000000000000000000000000000
00000000000000000000000000000000000000000000000000
00000000000000000000000000000000000000000000000000
00000000000000000000000000000000000000000000000000
00000000000000000000000000000000000000000000000000
00000000000000000000000000000000000000000000000000
00000000000000000000000000000000000000000000000000
00000000000000000000000000000000000000000000000000
00000000000000000000000000000000000000000000000000
00000000000000000000000000000000000000000000000000
00000000000000000000000000000000000000000000000000
