P1
50 70
00000000000000000000000000000000000000000000000000
00000000000000000000000000000000000000000000000000
00000000000000000000000000000000000000000000000000
00000000000000000000000000000000000000000000000000
00000000000000000000000000000000000000000000000000
00000000000000000000000000000000000000000000000000
00000000000000000000000000000000000000000000000000
00000000000000000000000000000000000000000000000000
00000000000000000000000000000000000000000000000000
00000000000000000000000000000000000000000000000000
00000000000000000000000000000000000000000000000000
00000000000000000000000000000000000000000000000000
00000000000000000000000000000000000000000000000000
00000000000000000000000000000000000000000000000000
00000000000000000000000000000000000000000000000000
00000000000000000000000000000000000000000000000000
00000000000000000011111000000000000000000000000000
00000000000000000011111100000000000000000000000000
00000000000000000011111100000000000000000000000000
00000000000000000111111100000000000000000000000000
00000000000000000111111110000000000000000000000000
00000000000000000111111110000000000000000000000000
00000000000000000111011110000000000000000000000000
00000000000000001110001110000000000000000000000000
00000000000000001110001111000000000000000000000000
00000000000000011110000111000000000000000000000000
00000000000000011110000111000000000000000000000000
00000000000000011100000111000000000000000000000000
00000000000000011100000111000000000000000000000000
00000000000000011100000011100000000000000000000000
00000000000000111100000011100000000000000000000000
00000000000000111000000011110000000000000000000000
00000000000000111000000011110000000000000000000000
00000000000001110000000011110000000000000000000000
00000000000001110000000001110000000000000000000000
00000000000001110000000001110000000000000000000000
00000000000011110000000000110000000000000000000000
00000000000011100000000000111000000000000000000000
00000000000011100000000000111100000000000000000000
00000000000111000000000000111100000000000000000000
00000000000111100000000111111111100000000000000000
00000000000111111111111111111111110000000000000000
00000000000111111111111111111111110000000000000000
00000000000011111111111111111111110000000000000000
00000000000001110000110000011111000000000000000000
00000000000000000000000000001111000000000000000000
00000000000000000000000000001111000000000000000000
00000000000000000000000000001111000000000000000000
00000000000000000000000000001111000000000000000000
00000000000000000000000000000111000000000000000000
00000000000000000000000000000111100000000000000000
00000000000000000000000000000111110000000000000000
00000000000000000000000111111111111100000000000000
00000000000000000000000011111111111111000000000000
00000000000000000000000011111111111111000000000000
00000000000000000000000000111101111111000000000000
00000000000000000000000000000000000000000000000000
00000000000000000000000000000000000000000000000000
00000000000000000000000000000000000000000000000000
00000000000000000000000000000000000000000000000000
00000000000000000000000000000000000000000000000000
00000000000000000000000000000000000000000000000000
00000000000000000000000000000000000000000000000000
00000000000000000000000000000000000000000000000000
00000000000000000000000000000000000000000000000000
00000000000000000000000000000000000000000000000000
00000000000000000000000000000000000000000000000000
00000000000000000000000000000000000000000000000000
00000000000000000000000000000000000000000000000000
00000000000000000000000000000000000000000000000000
