P1
50 70
00000000000000000000000000000000000000000000000000
00000000000000000000000000000000000000000000000000
00000000000000000000000000000000000000000000000000
00000000000000000000000000000000000000000000000000
00000000000000000000000000000000000000000000000000
00000000000000000000000000000000000000000000000000
00000000000000000000000000000000000000000000000000
00000000000000000000000000000000000000000000000000
00000000000000000000000000000000000000000000000000
00000000000000000000000000000000000000000000000000
00000000000000000000000000000000000000000000000000
00000000000000000000000000000000000000000000000000
00000000000000000000000000000000000000000000000000
00000000000000000000000000000000000000000000000000
00000000000000000000000000000000000000000000000000
00000000000000000000000000000000000000000000000000
00000000000000000000000000000000000000000000000000
00000000000000000000000000000000000000000000000000
00000000000000000000000000000000000000000000000000
00000000000000000000000000000000000000000000000000
00000000000000000000000000000000000000000000000000
00000000000000000000000000000000000000000000000000
00000000000000000000000000000001111111100000000000
00000000000000000000000000000011111111110000000000
00000000000000000000000000000111111111100000000000
00000000000000000000000000011111111111100000000000
00000000000000000000000000111111111111100000000000
00000000000000000000000011111111111111000000000000
00000000000000000000000111111111111110000000000000
00000000000000000000001111110011111110000000000000
00000000000000000000111111100011111100000000000000
00000000000000000000111110000011111100000000000000
00000000000000000001111100000111111100000000000000
00000000000000000111111000000111111000000000000000
00000000000000001111110000001111110000000000000000
00000000000000011111100000001111110000000000000000
00000000000000011111000000001111110000000000000000
00000000000000111110000000001111110000000000000000
00000000000001111110000000011111100000000000000000
00000000000011111100000000011111100000000000000000
00000000000111111000000000011111000000000000000000
00000000000111110000000000011111100000000000000000
00000000001111111000000000111111111100000000000000
00000000001111111111111111111111111100000000000000
00000000011111111111111111111111111100000000000000
00000000011111111111111111111111111100000000000000
00000000011111111111111111111110000000000000000000
00000000011111111110000111111100000000000000000000
00000000011000000000000011111100000000000000000000
00000000000000000000000011111100000000000000000000
00000000000000000000000111111000000000000000000000
00000000000000000000000111111000000000000000000000
00000000000000000000000111111000000000000000000000
00000000000000000000000111110000000000000000000000
00000000000000000000000111100000000000000000000000
00000000000000000000000000000000000000000000000000
00000000000000000000000000000000000000000000000000
00000000000000000000000000000000000000000000000000
00000000000000000000000000000000000000000000000000
00000000000000000000000000000000000000000000000000
00000000000000000000000000000000000000000000000000
00000000000000000000000000000000000000000000000000
00000000000000000000000000000000000000000000000000
00000000000000000000000000000000000000000000000000
00000000000000000000000000000000000000000000000000
00000000000000000000000000000000000000000000000000
00000000000000000000000000000000000000000000000000
00000000000000000000000000000000000000000000000000
00000000000000000000000000000000000000000000000000
00000000000000000000000000000000000000000000000000
