P1
50 70
00000000000000000000000000000000000000000000000000
00000000000000000000000000000000000000000000000000
00000000000000000000000000000000000000000000000000
00000000000000000000000000000000000000000000000000
00000000000000000000000000000000000000000000000000
00000000000000000000000000000000000000000000000000
00000000000000000000000000000000000000000000000000
00000000000000000000000000000000000000000000000000
00000000000000000000000000000000000000000000000000
00000000000000000000000000000000000000000000000000
00000000000000000000000000000000000000000000000000
00000000000000000000000000000000000000000000000000
00000000000000000000000000000000000000000000000000
00000000000000000000000000000000000000000000000000
00000000000000000000000000000000000000000000000000
00000000000000000000000000000000000000000000000000
00000000000000000000000000000000000000000111100000
00000000000000000000000000000000000000001111111100
00000000000000000000000000000000000000111111111000
00000000000000000000000000000000000001111111111000
00000000000000000000000000000000000111111111110000
00000000000000000000000000000000011111111111110000
00000000000000000000000000000000111111111111100000
00000000000000000000000000000011111111111111000000
00000000000000000000000000001111111111111110000000
00000000000000000000000000111111111111111100000000
00000000000000000000000001111111111111111100000000
00000000000000000000000111111111111111111000000000
00000000000000000000001111110111111111111000000000
00000000000000000000111111000111111111110000000000
00000000000000000001111110001111111111100000000000
00000000000000000111111000011111111111100000000000
00000000000000000111110000011111111111000000000000
00000000000000011111100000011111111111000000000000
00000000000000111110000000111111111110000000000000
00000000000000111100000001111111111110000000000000
00000000000001110000000001111111111100000000000000
00000000000111100000000001111111111100000000000000
00000000001111000000000011111111111000000000000000
00000000111110000000000111111111110000000000000000
00000001111100000000000111111111111000000000000000
00000011111000001100111111111111111110000000000000
00000111111111111111111111111111111110000000000000
00001111111111111111111111111111111100000000000000
00001111111111111111111111111111111100000000000000
00011111111111111111111111111111111000000000000000
00011111111111111111111111111111111000000000000000
00011111111111111111111111111110000000000000000000
00111111111111100011111111111000000000000000000000
00111101100000000011111111110000000000000000000000
00000000000000000011111111100000000000000000000000
00000000000000000111111111100000000000000000000000
00000000000000000111111111100000000000000000000000
00000000000000001111111111000000000000000000000000
00000000000000001111111110000000000000000000000000
00000000000000011111111110000000000000000000000000
00000000000000011111100000000000000000000000000000
00000000000000000000000000000000000000000000000000
00000000000000000000000000000000000000000000000000
00000000000000000000000000000000000000000000000000
00000000000000000000000000000000000000000000000000
00000000000000000000000000000000000000000000000000
00000000000000000000000000000000000000000000000000
00000000000000000000000000000000000000000000000000
00000000000000000000000000000000000000000000000000
00000000000000000000000000000000000000000000000000
00000000000000000000000000000000000000000000000000
00000000000000000000000000000000000000000000000000
00000000000000000000000000000000000000000000000000
00000000000000000000000000000000000000000000000000
