P1
50 70
00000000000000000000000000000000000000000000000000
00000000000000000000000000000000000000000000000000
00000000000000000000000000000000000000000000000000
00000000000000000000000000000000000000000000000000
00000000000000000000000000000000000000000000000000
00000000000000000000000000000000000000000000000000
00000000000000000000000000000000000000000000000000
00000000000000000000000000000000000000000000000000
00000000000000000000000000000000000000000000000000
00000000000000000000000000000000000000000000000000
00000000000000000000000000000000000000000000000000
00000000000000000000000000000000000000000000000000
00000000000000000000000000000000000000000000000000
00000000000000000000000000000000000000000000000000
00000000000000000000000000000000000000000000000000
00000000000000000000000000000000000000000000000000
00000000000000000000000000000000000000000000000000
00000000000000000000000000000000011100000000000000
00000000000000000000000000000000111110000000000000
00000000000000000000000000000001111110000000000000
00000000000000000000000000000011111110000000000000
00000000000000000000000000000011111110000000000000
00000000000000000000000000001111111110000000000000
00000000000000000000000000001111111100000000000000
00000000000000000000000000011111111100000000000000
00000000000000000000000000111101111000000000000000
00000000000000000000000011111101111100000000000000
00000000000000000000000011111001111100000000000000
00000000000000000000000111110001111100000000000000
00000000000000000000001111000011111000000000000000
00000000000000000000111110000011110000000000000000
00000000000000000001111110000111110000000000000000
00000000000000000011111100000111111000000000000000
00000000000000001111110000000011111000000000000000
00000000000000011111000000000111110000000000000000
00000000000000111110000000000111110000000000000000
00000000000001111111000000000111100000000000000000
00000000000001111111110000001111100000000000000000
00000000000000011111111110001111100000000000000000
00000000000000001111111111011111100000000000000000
00000000000000000000111111111111100000000000000000
00000000000000000000011111111111000000000000000000
00000000000000000000000111111111100000000000000000
00000000000000000000000001111111111100000000000000
00000000000000000000000000111111111100000000000000
00000000000000000000000000111111111110000000000000
00000000000000000000000000111111111110000000000000
00000000000000000000000001111110011110000000000000
00000000000000000000000001111110000010000000000000
00000000000000000000000001111110000000000000000000
00000000000000000000000001111110000000000000000000
00000000000000000000000001111110000000000000000000
00000000000000000000000000111100000000000000000000
00000000000000000000000000011000000000000000000000
00000000000000000000000000000000000000000000000000
00000000000000000000000000000000000000000000000000
00000000000000000000000000000000000000000000000000
00000000000000000000000000000000000000000000000000
00000000000000000000000000000000000000000000000000
00000000000000000000000000000000000000000000000000
00000000000000000000000000000000000000000000000000
00000000000000000000000000000000000000000000000000
00000000000000000000000000000000000000000000000000
00000000000000000000000000000000000000000000000000
00000000000000000000000000000000000000000000000000
00000000000000000000000000000000000000000000000000
00000000000000000000000000000000000000000000000000
00000000000000000000000000000000000000000000000000
00000000000000000000000000000000000000000000000000
00000000000000000000000000000000000000000000000000
