P1
50 70
00000000000000000000000000000000000000000000000000
00000000000000000000000000000000000000000000000000
00000000000000000000000000000000000000000000000000
00000000000000000000000000000000000000000000000000
00000000000000000000000000000000000000000000000000
00000000000000000000000000000000000000000000000000
00000000000000000000000000000000000000000000000000
00000000000000000000000000000000000000000000000000
00000000000000000000000000000000000000000000000000
00000000000000000000000000000000000000000000000000
00000000000000000000000000000000000000000000000000
00000000000000000000000000000000000000000000000000
00000000000000000000000000000000000000000000000000
00000000000000000000000000000000000000000000000000
00000000000000000000000000000000000000000000000000
00000000000000000000000000000000000000000000000000
00000000000000000000000000000000000000000000000000
00000000000000000000000000000000000000000000000000
00000000000000000000000000000000000000000000000000
00000000000000000000000000000000000000000000000000
00000000000000000000001100111001000000000000000000
00000000000000000000011111111111100000000000000000
00000000000000000000011111111111100000000000000000
00000000000000000000111111111111100000000000000000
00000000000000000000111111111111100000000000000000
00000000000000000001111111111111100000000000000000
00000000000000000011111111111111110000000000000000
00000000000000000011111111111111110000000000000000
00000000000000000111111111111111110000000000000000
00000000000000001111111111111111110000000000000000
00000000000000001111111111111111111000000000000000
00000000000000001111111111111111111000000000000000
00000000000000011111111111111111111000000000000000
00000000000000011111111111111111111000000000000000
00000000000000111111111001111111111000000000000000
00000000000000111111110001111111111000000000000000
00000000000001111111110001111111111100000000000000
00000000000011111111100001111111111100000000000000
00000000000011111111100001111111111100000000000000
00000000000011111111000001111111111100000000000000
00000000000111111110000001111111111100000000000000
00000000000111111110000000111111111100000000000000
00000000000111111110000000111111111111111100000000
00000000011111111100000000111111111111111110000000
00000000011111111000000000111111111111111110000000
00000000111111110000000001111111111111111110000000
00000000111111110000011111111111111111111110000000
00000001111111110111111111111111111111111110000000
00000001111111111111111111111111111111111100000000
00000001111111111111111111111111111111000000000000
00000001111111111111111111111111111110000000000000
00000001111111111111111111111111111111000000000000
00000011111111111111111111111111111111000000000000
00000011111111111111111110011111111111000000000000
00000001111111111111100000011111111111000000000000
00000011111111111000000000011111111111000000000000
00000001111111000000000000001111111111000000000000
00000001111110000000000000011111111111000000000000
00000001100000000000000000001111110000000000000000
00000000000000000000000000001110000000000000000000
00000000000000000000000000000100000000000000000000
00000000000000000000000000000000000000000000000000
00000000000000000000000000000000000000000000000000
00000000000000000000000000000000000000000000000000
00000000000000000000000000000000000000000000000000
00000000000000000000000000000000000000000000000000
00000000000000000000000000000000000000000000000000
00000000000000000000000000000000000000000000000000
00000000000000000000000000000000000000000000000000
00000000000000000000000000000000000000000000000000
