P1
50 70
00000000000000000000000000000000000000000000000000
00000000000000000000000000000000000000000000000000
00000000000000000000000000000000000000000000000000
00000000000000000000000000000000000000000000000000
00000000000000000000000000000000000000000000000000
00000000000000000000000000000000000000000000000000
00000000000000000000000000000000000000000000000000
00000000000000000000000000000000000000000000000000
00000000000000000000000000000000000000000000000000
00000000000000000000000000000000000000000000000000
00000000000000000000000000000000000000000000000000
00000000000000000000000000000000000000000000000000
00000000000000000000000000000000000000000000000000
00000000000000000000000000000000000000000000000000
00000000000000000000000000000000000000000000000000
00000000000000000000000000000000000000000000000000
00000000000000001111110000000000000000000000000000
00000000000000011111110000000000000000000000000000
00000000000000011111111000000000000000000000000000
00000000000000011111111100000000000000000000000000
00000000000000111111111100000000000000000000000000
00000000000000111111111100000000000000000000000000
00000000000000111111111110000000000000000000000000
00000000000000111111111110000000000000000000000000
00000000000000111111111111000000000000000000000000
00000000000000111110111111000000000000000000000000
00000000000000111110011111000000000000000000000000
00000000000000111100001111100000000000000000000000
00000000000000111100001111110000000000000000000000
00000000000001111100001111110000000000000000000000
00000000000001111100000111110000000000000000000000
00000000000001111100000011111000000000000000000000
00000000000001111100000011111000000000000000000000
00000000000001111100000011111100000000000000000000
00000000000001111100000011111100000000000000000000
00000000000001111100000001111110000000000000000000
00000000000001111100000000111110000000000000000000
00000000000001111100000000111111111100000000000000
00000000000001111000000000111111111100000000000000
00000000000011111000000111111111111110000000000000
00000000000001111000001111111111111100000000000000
00000000000001111101111111111111110000000000000000
00000000000011111111111111111111110000000000000000
00000000000011111111111111101111111000000000000000
00000000000001111111111110000111111000000000000000
00000000000000111111111000000011111000000000000000
00000000000000111110000000000011111100000000000000
00000000000000111100000000000001111110000000000000
00000000000000000000000000000001111110000000000000
00000000000000000000000000000001111100000000000000
00000000000000000000000000000000110000000000000000
00000000000000000000000000000000000000000000000000
00000000000000000000000000000000000000000000000000
00000000000000000000000000000000000000000000000000
00000000000000000000000000000000000000000000000000
00000000000000000000000000000000000000000000000000
00000000000000000000000000000000000000000000000000
00000000000000000000000000000000000000000000000000
00000000000000000000000000000000000000000000000000
00000000000000000000000000000000000000000000000000
00000000000000000000000000000000000000000000000000
00000000000000000000000000000000000000000000000000
00000000000000000000000000000000000000000000000000
00000000000000000000000000000000000000000000000000
00000000000000000000000000000000000000000000000000
00000000000000000000000000000000000000000000000000
00000000000000000000000000000000000000000000000000
00000000000000000000000000000000000000000000000000
00000000000000000000000000000000000000000000000000
00000000000000000000000000000000000000000000000000
