P1
50 70
00000000000000000000000000000000000000000000000000
00000000000000000000000000000000000000000000000000
00000000000000000000000000000000000000000000000000
00000000000000000000000000000000000000000000000000
00000000000000000000000000000000000000000000000000
00000000000000000000000000000000000000000000000000
00000000000000000000000000000000000000000000000000
00000000000000000000000000000000000000000000000000
00000000000000000000000000000000000000000000000000
00000000000000000000000000000000000000000000000000
00000000000000000000000000000000000000000000000000
00000000000000000000000000000000000000000000000000
00000000000000000000000000000001111100000000000000
00000000000000000000000000001111111100000000000000
00000000000000000000000000001111111100000000000000
00000000000000000000000000011111111100000000000000
00000000000000000000000000111111111100000000000000
00000000000000000000000000111111111100000000000000
00000000000000000000000001111111111100000000000000
00000000000000000000000001111111111000000000000000
00000000000000000000000011111111111000000000000000
00000000000000000000000011111111111000000000000000
00000000000000000000000111111111111000000000000000
00000000000000000000001111111111111100000000000000
00000000000000000000001111111111111100000000000000
00000000000000000000011111111111111100000000000000
00000000000000000000011111111111111000000000000000
00000000000000000000111111100111111000000000000000
00000000000000000001111111101111111000000000000000
00000000000000000001111111001111111000000000000000
00000000000000000011111111001111111000000000000000
00000000000000000111111110001111111000000000000000
00000000000000000111111100001111111000000000000000
00000000000000001111111000001111111000000000000000
00000000000000011111110000001111110000000000000000
00000000000000011111110000001111110000000000000000
00000000000000111111110000001111110000000000000000
00000000000001111111111111011111110000000000000000
00000000000001111111111111111111111000000000000000
00000000000001111111111111111111111000000000000000
00000000000001111111111111111111111100000000000000
00000000000001111111111111111111111110000000000000
00000000000001111111111111111111111110000000000000
00000000000000000111111111111111111110000000000000
00000000000000000000001001111111111110000000000000
00000000000000000000000001111111111110000000000000
00000000000000000000011111111111111000000000000000
00000000000000000000011111111111110000000000000000
00000000000000000000111111111111110000000000000000
00000000000000000000111111111111111000000000000000
00000000000000000000011111111111111100000000000000
00000000000000000000011111111111111100000000000000
00000000000000000000000111111111111100000000000000
00000000000000000000000000011111111100000000000000
00000000000000000000000000000011111000000000000000
00000000000000000000000000000000110000000000000000
00000000000000000000000000000000000000000000000000
00000000000000000000000000000000000000000000000000
00000000000000000000000000000000000000000000000000
00000000000000000000000000000000000000000000000000
00000000000000000000000000000000000000000000000000
00000000000000000000000000000000000000000000000000
00000000000000000000000000000000000000000000000000
00000000000000000000000000000000000000000000000000
00000000000000000000000000000000000000000000000000
00000000000000000000000000000000000000000000000000
00000000000000000000000000000000000000000000000000
00000000000000000000000000000000000000000000000000
00000000000000000000000000000000000000000000000000
00000000000000000000000000000000000000000000000000
