P1
50 70
00000000000000000000000000000000000000000000000000
00000000000000000000000000000000000000000000000000
00000000000000000000000000000000000000000000000000
00000000000000000000000000000000000000000000000000
00000000000000000000000000000000000000000000000000
00000000000000000000000000000000000000000000000000
00000000000000000000000000000000000000000000000000
00000000000000000000000000000000000000000000000000
00000000000000000000000000000000000000000000000000
00000000000000000000000000000000000000000000000000
00000000000000000000000000000000000000000000000000
00000000000000000000000000000000000000000000000000
00000000000000000000000000000000000000000000000000
00000000000000000000000000000000000000000000000000
00000000000000000000000000001111111100000000000000
00000000000000000000000000011111111110000000000000
00000000000000000000000000011111111110000000000000
00000000000000000000000000111111111110000000000000
00000000000000000000000000111111111110000000000000
00000000000000000000000001111111111110000000000000
00000000000000000000000001111111111100000000000000
00000000000000000000000011111111111110000000000000
00000000000000000000000011111111111100000000000000
00000000000000000000000111111111111100000000000000
00000000000000000000001111111111111100000000000000
00000000000000000000011111111111111100000000000000
00000000000000000000011111111111111100000000000000
00000000000000000000111111111111111100000000000000
00000000000000000000111111111111111100000000000000
00000000000000000001111110111111111000000000000000
00000000000000000001111100111111111000000000000000
00000000000000000011111100111111111100000000000000
00000000000000000011111000111111111000000000000000
00000000000000000111110000111111111000000000000000
00000000000000001111100001111111111000000000000000
00000000000000001111100001111111111000000000000000
00000000000000011111100001111111111000000000000000
00000000000000111111000001111111111000000000000000
00000000000000111110000001111111111000000000000000
00000000000001111110000011111111110000000000000000
00000000000001111100000001111111110000000000000000
00000000000011111100000001111111111000000000000000
00000000000111111000000011111111110000000000000000
00000000000111111000000011111111110000000000000000
00000000001111110000000011111111110000000000000000
00000000001111111000000011111111110000000000000000
00000000011111111111100011111111110000000000000000
00000000011111111111111111111111110000000000000000
00000000011111111111111111111111111001000000000000
00000000011111111111111111111111111111100000000000
00000000000111111111111111111111111111110000000000
00000000000000011111111111111111111111110000000000
00000000000000000000000111111111111111110000000000
00000000000000000000000111111111111111100000000000
00000000000000000000000111111111100000000000000000
00000000000000000000000111111111100000000000000000
00000000000000000000000111111111100000000000000000
00000000000000000000000111111111100000000000000000
00000000000000000000000111111111100000000000000000
00000000000000000000111111111111100000000000000000
00000000000000000011111111111111100000000000000000
00000000000000000111111111111111100000000000000000
00000000000000000111111111111111111100000000000000
00000000000000000111111111111111111110000000000000
00000000000000000011111111111111111111000000000000
00000000000000000000000111111111111111000000000000
00000000000000000000000000001111111111000000000000
00000000000000000000000000000000000000000000000000
00000000000000000000000000000000000000000000000000
00000000000000000000000000000000000000000000000000
