P1
50 70
00000000000000000000000000000000000000000000000000
00000000000000000000000000000000000000000000000000
00000000000000000000000000000000000000000000000000
00000000000000000000000000000000000000000000000000
00000000000000000000000000000000000000000000000000
00000000000000000000000000000000000000000000000000
00000000000000000000000000000000000000000000000000
00000000000000000000000000000000000000000000000000
00000000000000000000000000000000000000000000000000
00000000000000000000000000000000000000000000000000
00000000000000000000000000000000000000000000000000
00000000000000000000000000000000000000000000000000
00000000000000000000000000000000000000000000000000
00000000000000000000000000000000000000000000000000
00000000000000000000000000000000000000000000000000
00000000000000000000000000111110000000000000000000
00000000000000000000000001111110000000000000000000
00000000000000000000000001111110000000000000000000
00000000000000000000000011111111000000000000000000
00000000000000000000000111111111000000000000000000
00000000000000000000000111111111000000000000000000
00000000000000000000001111111111000000000000000000
00000000000000000000001111111110000000000000000000
00000000000000000000011110111110000000000000000000
00000000000000000000111110111110000000000000000000
00000000000000000001111100111110000000000000000000
00000000000000000001111000111111000000000000000000
00000000000000000011110000111111000000000000000000
00000000000000000111100000111111000000000000000000
00000000000000001111100001111110000000000000000000
00000000000000011111000001111110000000000000000000
00000000000000011110000000111110000000000000000000
00000000000000111110000000111111000000000000000000
00000000000001111100000000111111000000000000000000
00000000000011111000000000111111000000000000000000
00000000000111110000000000111111000000000000000000
00000000001111100000000000111110000000000000000000
00000000011111000000000001111110000000000000000000
00000000111110000000000000111111000000000000000000
00000000111110000000000000111111000000000000000000
00000000111111111100000000111111000000000000000000
00000000111111111110000000111111000000000000000000
00000000000001111111111111111111000000000000000000
00000000000000111111111111111110000000000000000000
00000000000000000000111111111111100000000000000000
00000000000000000000000111111111111111100000000000
00000000000000000000000001111111111111100000000000
00000000000000000000000000111111111111110000000000
00000000000000000000000000111111001111110000000000
00000000000000000000000000111111000000000000000000
00000000000000000000000000111111000000000000000000
00000000000000000011000001111111000000000000000000
00000000000000000011111111111111000000000000000000
00000000000000000011111111111111000000000000000000
00000000000000000001111111111111000000000000000000
00000000000000000000000111111111100000000000000000
00000000000000000000000000111111111100000000000000
00000000000000000000000000011111111111100000000000
00000000000000000000000000000001111111110000000000
00000000000000000000000000000000011111110000000000
00000000000000000000000000000000000111111000000000
00000000000000000000000000000000000000011000000000
00000000000000000000000000000000000000000000000000
00000000000000000000000000000000000000000000000000
00000000000000000000000000000000000000000000000000
00000000000000000000000000000000000000000000000000
00000000000000000000000000000000000000000000000000
00000000000000000000000000000000000000000000000000
00000000000000000000000000000000000000000000000000
00000000000000000000000000000000000000000000000000
