P1
50 70
00000000000000000000000000000000000000000000000000
00000000000000000000000000000000000000000000000000
00000000000000000000000000000000000000000000000000
00000000000000000000000000000000000000000000000000
00000000000000000000000000000000000000000000000000
00000000000000000000000000000000000000000000000000
00000000000000000000000000000000000000000000000000
00000000000000000000000000000000000000000000000000
00000000000000000000000000000000000000000000000000
00000000000000000000000000000000000011111100000000
00000000000000000000000000000000111111111100000000
00000000000000000000000000000001111111111100000000
00000000000000000000000000000011111111111100000000
00000000000000000000000000000011111111111000000000
00000000000000000000000000000111111111111000000000
00000000000000000000000000001111111111111000000000
00000000000000000000000000001111111111111000000000
00000000000000000000000000011111111111110000000000
00000000000000000000000000111111111111110000000000
00000000000000000000000001111111111111110000000000
00000000000000000000000001111111111111110000000000
00000000000000000000000011111111111111110000000000
00000000000000000000000011111111111111100000000000
00000000000000000000000111111111111111100000000000
00000000000000000000001111100111111111100000000000
00000000000000000000011111001111111111100000000000
00000000000000000000011111001111111111000000000000
00000000000000000000111110001111111111000000000000
00000000000000000001111110011111111111000000000000
00000000000000000001111100011111111111000000000000
00000000000000000001111000011111111110000000000000
00000000000000000011110000011111111110000000000000
00000000000000000111110000111111111110000000000000
00000000000000001111100000111111111110000000000000
00000000000000011111100000111111111100000000000000
00000000000000011111000000111111111100000000000000
00000000000000111110000000111111111100000000000000
00000000000000111110000000111111111100000000000000
00000000000001111100000001111111111100111000000000
00000000000001111100000001111111111111111000000000
00000000000011111000000001111111111111111000000000
00000000000111111000000001111111111111111000000000
00000000000111110000000011111111111111110000000000
00000000001111110011111111111111111111100000000000
00000000001111111111111111111111111110000000000000
00000000011111111111111111111111110000000000000000
00000000011111111111111111111111100000000000000000
00000000111111111111111111111111100000000000000000
00000000111111111111100111111111100000000000000000
00000000111111111110000111111111100000000000000000
00000000111111000000001111111111100000000000000000
00000000111110000000001111111111000110000000000000
00000000000000000000001111111111001110000000000000
00000000000000000000001111111111111110000000000000
00000000000000000000001111111111111110000000000000
00000000000000000000011111111111111110000000000000
00000000000000000000011111111111111100000000000000
00000000000000000011111111111111000000000000000000
00000000000000001111111111111110000000000000000000
00000000000000001111111111000000000000000000000000
00000000000000011111111110000000000000000000000000
00000000000000011111100000000000000000000000000000
00000000000000111111000000000000000000000000000000
00000000000000111000000000000000000000000000000000
00000000000000000000000000000000000000000000000000
00000000000000000000000000000000000000000000000000
00000000000000000000000000000000000000000000000000
00000000000000000000000000000000000000000000000000
00000000000000000000000000000000000000000000000000
00000000000000000000000000000000000000000000000000
