P1
50 70
00000000000000000000000000000000000000000000000000
00000000000000000000000000000000000000000000000000
00000000000000000000000000000000000000000000000000
00000000000000000000000000000000000000000000000000
00000000000000000000000000000000000000000000000000
00000000000000000000000000000000000000000000000000
00000000000000000000000000000000000000000000000000
00000000000000000000000000000000000000000000000000
00000000000000000000000000000000000000000000000000
00000000000000000000000000000000000000000000000000
00000000000000000000000000000000000000000000000000
00000000000000000000000000000000000000000000000000
00000000000000000000000000000000000000000000000000
00000000000000000000000000000000000000000000000000
00000000000000000000000000000000000000000000000000
00000000000000000000000000000000000000000000000000
00000000000000000000000000000000001111111000000000
00000000000000000000000000000000011111111000000000
00000000000000000000000000000000111111111000000000
00000000000000000000000000000001111111110000000000
00000000000000000000000000000011111111110000000000
00000000000000000000000000000111111111110000000000
00000000000000000000000000001111111111100000000000
00000000000000000000000000011111111111000000000000
00000000000000000000000000111111111111000000000000
00000000000000000000000001111111111110000000000000
00000000000000000000000011111111111110000000000000
00000000000000000000000111111111111110000000000000
00000000000000000000001111111111111110000000000000
00000000000000000000011111110011111100000000000000
00000000000000000000111111100011111100000000000000
00000000000000000001111111100111111000000000000000
00000000000000000011111111000111111000000000000000
00000000000000000111111110001111111000000000000000
00000000000000001111111100001111111000000000000000
00000000000000011111110000001111110000000000000000
00000000000000111111100000001111110000000000000000
00000000000000111111000000011111100000000000000000
00000000000001111110000000011111100000000000000000
00000000000111111100000000111111100000000000000000
00000000000111111000000000111111000000000000000000
00000000001111111000000000111111000000000000000000
00000000001111111111111001111110000000000000000000
00000000011111111111111111111100000000000000000000
00000000011111111111111111111110000000000000000000
00000000000111111111111111111111110000000000000000
00000000000000000111111111111111111000000000000000
00000000000000000001111111111111110000000000000000
00000000000000000000000111111111110000000000000000
00000000000000000000000111111011100000000000000000
00000000000000000000000111110001100000000000000000
00000000000000000000001111110000000000000000000000
00000000000000000000001111110000000000000000000000
00000000000000000000001111100000000000000000000000
00000000000000000000001111100000000000000000000000
00000000000000000000011111000000000000000000000000
00000000000000000000011111000000000000000000000000
00000000000000000000000111000000000000000000000000
00000000000000000000000010000000000000000000000000
00000000000000000000000000000000000000000000000000
00000000000000000000000000000000000000000000000000
00000000000000000000000000000000000000000000000000
00000000000000000000000000000000000000000000000000
00000000000000000000000000000000000000000000000000
00000000000000000000000000000000000000000000000000
00000000000000000000000000000000000000000000000000
00000000000000000000000000000000000000000000000000
00000000000000000000000000000000000000000000000000
00000000000000000000000000000000000000000000000000
00000000000000000000000000000000000000000000000000
