P1
50 70
00000000000000000000000000000000000000000000000000
00000000000000000000000000000000000000000000000000
00000000000000000000000000000000000000000000000000
00000000000000000000000000000000000000000000000000
00000000000000000000000000000000000000000000000000
00000000000000000000000000000000000000000000000000
00000000000000000000000000000000000000000000000000
00000000000000000000000000000000000000000000000000
00000000000000000000000000000000000000000000000000
00000000000000000000000000000000000000000000000000
00000000000000000000000000000000000000000000000000
00000000000000000000000000000000000000000000000000
00000000000000000000000000000000000000000000000000
00000000000000000000000000000000000000000000000000
00000000000000000000000000000000000000000000000000
00000000000000000000000000000000000000000000000000
00000000000000000000000000000000000000000000000000
00000000000000000000000000000000000000000000000000
00000000000000000000000000000000000000000000000000
00000000000000000000000011110000000000000000000000
00000000000000000000001111110000000000000000000000
00000000000000000000001111110000000000000000000000
00000000000000000000011111110000000000000000000000
00000000000000000000011111110000000000000000000000
00000000000000000000111101110000000000000000000000
00000000000000000000111001111000000000000000000000
00000000000000000000111001111000000000000000000000
00000000000000000001111000111000000000000000000000
00000000000000000001111000111100000000000000000000
00000000000000000001110000111100000000000000000000
00000000000000000001110000111100000000000000000000
00000000000000000011110000111100000000000000000000
00000000000000000011110000011100000000000000000000
00000000000000000011100000011100000000000000000000
00000000000000000111100000011100000000000000000000
00000000000000000111100000011100000000000000000000
00000000000000001111000000011100000000000000000000
00000000000000001111000000001100000000000000000000
00000000000000001110000000001110000000000000000000
00000000000000001110000000001110000000000000000000
00000000000000011110000000001111000000000000000000
00000000000000011110000000001111000000000000000000
00000000000000011100000000001111000000000000000000
00000000000000111100000000001111110000000000000000
00000000000000111100001111111111111000000000000000
00000000000000111111111111111111111000000000000000
00000000000000111111111111111111111000000000000000
00000000000000011111100000001111100000000000000000
00000000000000000000000000000011100000000000000000
00000000000000000000000000000011100000000000000000
00000000000000000000000000000011100000000000000000
00000000000000000000000000000011100000000000000000
00000000000000000000000000000011100000000000000000
00000000000000000000000000000011100000000000000000
00000000000000000000000000000111110000000000000000
00000000000000000000000000011111111000000000000000
00000000000000000000000000111111111100000000000000
00000000000000000000000000011111111100000000000000
00000000000000000000000000000111111100000000000000
00000000000000000000000000000000000000000000000000
00000000000000000000000000000000000000000000000000
00000000000000000000000000000000000000000000000000
00000000000000000000000000000000000000000000000000
00000000000000000000000000000000000000000000000000
00000000000000000000000000000000000000000000000000
00000000000000000000000000000000000000000000000000
00000000000000000000000000000000000000000000000000
00000000000000000000000000000000000000000000000000
00000000000000000000000000000000000000000000000000
00000000000000000000000000000000000000000000000000
