P1
50 70
00000000000000000000000000000000000000000000000000
00000000000000000000000000000000000000000000000000
00000000000000000000000000000000000000000000000000
00000000000000000000000000000000000000000000000000
00000000000000000000000000000000000000000000000000
00000000000000000000000000000000000000000000000000
00000000000000000000000000000000000000000000000000
00000000000000000000000000000000000000000000000000
00000000000000000000000000000000000000000000000000
00000000000000000000000000000000000000000000000000
00000000000000000000000000000000000000000000000000
00000000000000000000000000000000000000000000000000
00000000000000000000000000000000000000000000000000
00000000000000000000000000000000000000000000000000
00000000000000000000000000000000000000000000000000
00000000000000000000000000000000000000000000000000
00000000000000000000000000000000000000000000000000
00000000000000000000000000000000000000000000011110
00000000000000000000000000000000000001111111111110
00000000000000000001000011100111111111111111111110
00000000000000001111111111111111111111111111111110
00000000000000011111111111111111111111111111111110
00000000000000011111111111111111111111111111111110
00000000000000111111111111111111111111111111111110
00000000000000111111111111111111111111111111111110
00000000000000111111111111111111111111111111111110
00000000000001111111111111111111111111111111111100
00000000000001111111111111111111111111111111111100
00000000000011111111111111111111111111111111100000
00000000000011111111111100000000000000000000000000
00000000000111111111111100000000000000000000000000
00000000000111111111111000000000000000000000000000
00000000000111111111111000000000000000000000000000
00000000001111111111111111000000000000000000000000
00000000011111111111111111111111100000000000000000
00000000011111111111111111111111111100000000000000
00000000011111111111111111111111111110000000000000
00000000111111111111111111111111111111000000000000
00000000111111111111111111111111111111100000000000
10000001111111111111111111111111111111110000000000
00000001111111111111111111111111111111110000000001
00000000111001111100111111111111111111110000000000
10000000000000000000000011111111111111110000000000
00000000000000000000000001111111111111110000000001
10000000000000000000000001111111111111110000000000
00000000000000000000000000111111111111110000000000
10000000000000000000000000111111111111110000000001
00000000000000000000000000111111111111110000000001
00000000000000000000000000111111111111100000000000
10110000000000000000000001111111111111000000000001
11111000000000000000000001111111111111000000000001
01111110000000000000000011111111111111000000000000
11111111000000000000000111111111111111000000000001
01111111110000000000001111111111111110000000000000
11111111111110000000011111111111111100000000000000
11111111111111111111111111111111111000000000000001
01111111111111111111111111111111110000000000000001
01111111111111111111111111111111110000000000000000
10111111111111111111111111111111000000000000000000
00000111111111111111111111111110000000000000000001
00000011111111111111111111111100000000000000000000
10000000000111111111111111111000000000000000000000
00000000000011111111111111000000000000000000000000
00000000000000000011100000000000000000000000000000
00000000000000000000000000000000000000000000000000
00000000000000000000000000000000000000000000000000
00000000000000000000000000000000000000000000000000
00000000000000000000000000000000000000000000000000
00000000000000000000000000000000000000000000000000
00000000000000000000000000000000000000000000000000
