P1
50 70
00000000000000000000000000000000000000000000000000
00000000000000000000000000000000000000000000000000
00000000000000000000000000000000000000000000000000
00000000000000000000000000000000000000000000000000
00000000000000000000000000000000000000000000000000
00000000000000000000000000000000000000000000000000
00000000000000000000000000000000000000000000000000
00000000000000000000000000000000000000000000000000
00000000000000000000000000000000000000000000000000
00000000000000000000000000000000000000000000000000
00000000000001100000000000000000000000000000000000
00000000000011111111000111000000000000000000000000
00000000000011111111111111111110011100000000000000
00000000000011111111111111111111111111111111000000
00000000000011111111111111111111111111111111110000
00000000000111111111111111111111111111111111100000
00000000000111111111111111111111111111111111100000
00000000000111111111111111111111111111111111000000
00000000000111111111111111111111111111111110000000
00000000000111111111111111111111111111111110000000
00000000001111111111111111111111111111111100000000
00000000001111111111100001111111111111111100000000
00000000001111111111100000000011110011111000000000
00000000001111111111100000000000000000000000000000
00000000011111111111000000000000000000000000000000
00000000011111111111000000000000000000000000000000
00000000011111111111111100000000000000000000000000
00000000011111111111111111110000000000000000000000
00000000011111111111111111111100000000000000000000
00000000011111111111111111111110000000000000000000
00000000111111111111111111111111000000000000000000
00000000111111111111111111111111100000000000000000
00000000111111111111111111111111110000000000000000
00000000111110111111111111111111111000000000000000
00000000000000000001111111111111111000000000000000
00000000000000000000011111111111111000000000000000
00000000000000000000001111111111111000000000000000
00000000000000000000000111111111111100000000000000
00000000000000000000000011111111111100000000000000
00000000000000000000000011111111111100000000000000
00000000000000000000000011111111111000000000000000
00001110000000000000000011111111110000000000000000
00001111000000000000000011111111110000000000000000
00001111100000000000000111111111110000000000000000
00001111110000000000000111111111110000000000000000
00011111111100000000000111111111110000000000000000
00011111111111000000011111111111100000000000000000
00011111111111111001111111111111100000000000000000
00001111111111111111111111111111000000000000000000
00001111111111111111111111111111000000000000000000
00000111111111111111111111111111000000000000000000
00000011111111111111111111111100000000000000000000
00000000111111111111111111111100000000000000000000
00000000011111111111111111111000000000000000000000
00000000000011111111111111110000000000000000000000
00000000000011111111111111100000000000000000000000
00000000000000000111111100000000000000000000000000
00000000000000000000000000000000000000000000000000
00000000000000000000000000000000000000000000000000
00000000000000000000000000000000000000000000000000
00000000000000000000000000000000000000000000000000
00000000000000000000000000000000000000000000000000
00000000000000000000000000000000000000000000000000
00000000000000000000000000000000000000000000000000
00000000000000000000000000000000000000000000000000
00000000000000000000000000000000000000000000000000
00000000000000000000000000000000000000000000000000
00000000000000000000000000000000000000000000000000
00000000000000000000000000000000000000000000000000
00000000000000000000000000000000000000000000000000
