P1
50 70
00000000000000000000000000000000000000000000000000
00000000000000000000000000000000000000000000000000
00000000000000000000000000000000000000000000000000
00000000000000000000000000000000000000000000000000
00000000000000000000000000000000000000000000000000
00000000000000000000000000000000000000000000000000
00000000000000000000000000000000000000000000000000
00000000000000000000000000000000000000000000000000
00000000000000000000000000000000000000000000000000
00000000000000000000000000000000000000000000000000
00000000000000000000000000000000000000000000000000
00000000000000000000000000000000000000000000000000
00000000000000000000000000000000000000000000000000
00000000000000000000000000000000000000000000000000
00000000000000000000000000000000000000000000000000
00000000000000000001111001111110111111111110000000
00000000000000001111111111111111111111111110000000
00000000000000001111111111111111111111111110000000
00000000000000011111111111111111111111111100000000
00000000000000011111111111111111111111111000000000
00000000000000011111111111111111111111110000000000
00000000000000011111000011000000000000000000000000
00000000000000111100000000000000000000000000000000
00000000000000111100000000000000000000000000000000
00000000000000111000000000000000000000000000000000
00000000000000111000000000000000000000000000000000
00000000000000111000000000000000000000000000000000
00000000000000110000000000000000000000000000000000
00000000000001110000000000000000000000000000000000
00000000000001110000000000000000000000000000000000
00000000000011110000000000000000000000000000000000
00000000000011110000000000000000000000000000000000
00000000000011110001110011100000000000000000000000
00000000000011111111111111111000000000000000000000
00000000000011111111111111111100000000000000000000
00000000000011111111111111111110000000000000000000
00000000000011111100000111111111000000000000000000
00000000000000000000000001111111000000000000000000
00000000000000000000000000111111000000000000000000
00000000000000000000000000111111000000000000000000
00000000000000000000000000111111000000000000000000
00000000000000000000000000111111000000000000000000
00000000000000000000000000111111000000000000000000
00000000000000000000000000111111000000000000000000
00000000000000000000000000111111000000000000000000
00000000000000000000000001111110000000000000000000
00000000000000000000000001111110000000000000000000
00000000000000000000000011111100000000000000000000
00000000000000000000000011111000000000000000000000
00000000110000000000000111111000000000000000000000
00000000111000000000000111111000000000000000000000
00000000111000000000001111110000000000000000000000
00000000111000000000011111100000000000000000000000
00000001110000000000111111000000000000000000000000
00000001110000000001111110000000000000000000000000
00000011111100000111111100000000000000000000000000
00000011111111111111111000000000000000000000000000
00000001111111111111110000000000000000000000000000
00000001111111111110000000000000000000000000000000
00000000111110111000000000000000000000000000000000
00000000000000000000000000000000000000000000000000
00000000000000000000000000000000000000000000000000
00000000000000000000000000000000000000000000000000
00000000000000000000000000000000000000000000000000
00000000000000000000000000000000000000000000000000
00000000000000000000000000000000000000000000000000
00000000000000000000000000000000000000000000000000
00000000000000000000000000000000000000000000000000
00000000000000000000000000000000000000000000000000
00000000000000000000000000000000000000000000000000
