P1
50 70
00000000000000000000000000000000000000000000000000
00000000000000000000000000000000000000000000000000
00000000000000000000000000000000000000000000000000
00000000000000000000000000000000000000000000000000
00000000000000000000000000000000000000000000000000
00000000000000000000000000000000000000000000000000
00000000000000000000000000000000000000000000000000
00000000000000000000000000000000000000000000000000
00000000000000000000000000000000000000000000000000
00000000000000000000000000000000000000000000000000
00000000000000000000000000000000000000000000000000
00000000000000000000000000000000000000000000000000
00000000000000000000000000000000000000000000000000
00000000000000000000000000000000000000000000000000
00000000000000000000000000000000000000000000000000
00000000000000000000000000000000000000000000000000
00000000000000000000000000000000000000000000000000
00000000000000000000000000000000000000000000000000
00000000000000000000000000000011100000000000000000
00000000000000000000000000001111100000000000000000
00000000000000000000000001111111100000000000000000
00000000000000000000001111111111100000000000000000
00000000000000000001111111111111100000000000000000
00000000000000001111111111111111100000000000000000
00000000000001111111111111111111110000000000000000
00000000011111111111111111111111110000000000000000
00000000111111111111111111111111110000000000000000
00000000111111111111111111111111000000000000000000
00000000111111111111111111111000000000000000000000
00000000111111111111111111000000000000000000000000
00000000111111111111110000000000000000000000000000
00000000111111111111000000000000000000000000000000
00000000111111111000000000000000000000000000000000
00000000111111110000000000000000000000000000000000
00000000111111110000000000000000000000000000000000
00000000111111110000000001111111000000000000000000
00000000111111110000011111111111100000000000000000
00000000111111111111111111111111111100000000000000
00000000111111111111111111111111111110000000000000
00000000111111111111111111111111111111000000000000
00000000111111111111111111111111111111100000000000
00000000111111111111111111111111111111100000000000
00000000111111111111111111111111111111110000000000
00000000111111111111111111111111111111110000000000
00000000111111111110100011111111111111111000000000
00000000111111110000000000111111111111111000000000
00000000111111000000000000011111111111111000000000
00000000110000000000000000001111111111111100000000
00000000000000000000000000000111111111111100000000
00000000000000000000000000000111111111111100000000
00000000000000000000000000000011111111111100000000
00000000000000000000000000000111111111111100000000
00000000000000000000000000000111111111111110000000
00000000000000000000000000000111111111111110000000
00000000000000000000000000000111111111111100000000
00000000000000000000000000001111111111111100000000
00000000000000000000000000011111111111111100000000
00000001000000000000000001111111111111111100000000
00000011110100000000000011111111111111111000000000
00000011111111101110001111111111111111111000000000
00000011111111111111111111111111111111110000000000
00000011111111111111111111111111111111100000000000
00000011111111111111111111111111111111000000000000
00000011111111111111111111111111111110000000000000
00000011111111111111111111111111111000000000000000
00000011111111111111111111111111000000000000000000
00000000011111111111111111000000000000000000000000
00000000000000000000000000000000000000000000000000
00000000000000000000000000000000000000000000000000
00000000000000000000000000000000000000000000000000
