P1
50 70
00000000000000000000000000000000000000000000000000
00000000000000000000000000000000000000000000000000
00000000000000000000000000000000000000000000000000
00000000000000000000000000000000000000000000000000
00000000000000000000000000000000000000000000000000
00000000000000000000000000000000000000000000000000
00000000000000000000000000000000000000000000000000
00000000000000000000000000000000000000000000000000
00000000000000000000000000000000000000000000000000
00000000000000000000000000000000000000000000000000
00000000000000000000000000000000000000000000000000
00000000000000000000000000000000000000000000000000
00000000000000000000000000000000000000000000000000
00000000000000000000000000000000000000000000000000
00000000000000000000000000000000000000000000000000
00000000000000000000000000000000000000000000000000
00000000000000000000000000000000000000000000000000
00000000000000000000000000000000000000000000000000
00000000000000000000000000000000000000000000000000
00000000000000000000000000000000000000000000000000
00000000000000000000000000000000000000000000000000
00000000000000000000000000000000000000000000000000
00000000000000000000000000000110000000000000000000
00000000000000000000000000001111000000000000000000
00000000000000000000000000011111110000000000000000
00000000000000000000000000111111111000000000000000
00000000000000000000000001111111111111000000000000
00000000000000000000000011111111111111110000000000
00000000000000000000000111111111111111111000000000
00000000000000000000000111111111111111111111000000
00000000000000000000001111111111111111111111100000
00000000000000000000011111111111111111111111111000
00000000000000000000111111111000111111111111111100
00000000000000000001111111110000000111111111111000
00000000000000000011111111100000000011111111111000
00000000000000000111111111000000000000011111110000
00000000000000001111111111011000000000001111110000
00000000000000011111111111111111000000000000100000
00000000000000111111111111111111100000000000000000
00000000000000111111111111111111110000000000000000
00000000000001111111111111111111111000000000000000
00000000000001111111111111111111111100000000000000
00000000000000111111111111111111111110000000000000
00000000000000011111111011111111111110000000000000
00000000000000000000000000111111111111000000000000
00000000000000000000000000001111111111000000000000
00000000000000000000000000001111111111000000000000
00000000000000000000000000001111111111100000000000
00000111000000000000000000001111111111100000000000
00011111111100000000000000001111111111000000000000
00011111111110000000000000011111111111000000000000
00011111111111000000000000011111111111000000000000
00111111111110000000000000111111111111000000000000
01111111111110000000000000111111111110000000000000
01111111111110000000000001111111111110000000000000
01111111111110000000000011111111111100000000000000
01111111111111100000001111111111111100000000000000
01111111111111111100111111111111111000000000000000
01111111111111111111111111111111110000000000000000
00111111111111111111111111111111000000000000000000
00111111111111111111111111111110000000000000000000
00011111111111111111111111111100000000000000000000
00001111111111111111111111111000000000000000000000
00000111111111111111111111000000000000000000000000
00000001111111111111111110000000000000000000000000
00000000001111111111000000000000000000000000000000
00000000000000000000000000000000000000000000000000
00000000000000000000000000000000000000000000000000
00000000000000000000000000000000000000000000000000
00000000000000000000000000000000000000000000000000
