P1
50 70
00000000000000000000000000000000000000000000000000
00000000000000000000000000000000000000000000000000
00000000000000000000000000000000000000000000000000
00000000000000000000000000000000000000000000000000
00000000000000000000000000000000000000000000000000
00000000000000000000000000000000000000000000000000
00000000000000000000000000000000000000000000000000
00000000000000000000000000000000000000000000000000
00000000000000000000000000000000000000000000000000
00000000000000000000000000000000000000000000000000
00000000000000000000000000000000000000000000000000
00000000000000000000000000000000000000000000000000
00000000000000000000000000000000000000000000000000
00000000000000000000000000000000000000000000000000
00000000000000000000000000000000000000000000000000
00000000000000000000000000000000000000000000000000
00000000000000000000000000000000000000000000000000
00000000000000000000000000000000000000000000000000
00000000000000000000000000000000000000000000000000
00000000000000000000000000000000010011011111100000
00000000000000000000000011011111111111111111100000
00000000000000000000011111111111111111111111100000
00000000000000000000111111111111111111111111000000
00000000000000000001111111111111111111111010000000
00000000000000000001111111111011000000000000000000
00000000000000000011111000000000000000000000000000
00000000000000000011110000000000000000000000000000
00000000000000000111100000000000000000000000000000
00000000000000000111100000000000000000000000000000
00000000000000001111000000000000000000000000000000
00000000000000001111000000000000000000000000000000
00000000000000011110000000000000000000000000000000
00000000000000001100000000000000000000000000000000
00000000000000011100000000000000000000000000000000
00000000000000011100001101111111000000000000000000
00000000000000111111111111111111111000000000000000
00000000000000111111111111111111111000000000000000
00000000000001111111111111111111111100000000000000
00000000000000111110000000000111111100000000000000
00000000000000000000000000000011111110000000000000
00000000000000000000000000000011111110000000000000
00000000000000000000000000000011111110000000000000
00000000000000000000000000000111111110000000000000
00000000000000000000000000000111111100000000000000
00000000000000000000000000000111111100000000000000
00000000000000000000000000001111111100000000000000
00000000000000000000000000001111111000000000000000
00000000000000000000000000011111111000000000000000
00000011110000000000000000011111110000000000000000
00000011110000000000000000111111100000000000000000
00000011110000000000000011111111000000000000000000
00000111100000000000000111111110000000000000000000
00000111110000000001111111111100000000000000000000
00000111111111111111111111100000000000000000000000
00000111111111111111111110000000000000000000000000
00000111111111111111111100000000000000000000000000
00000000001100100010000000000000000000000000000000
00000000000000000000000000000000000000000000000000
00000000000000000000000000000000000000000000000000
00000000000000000000000000000000000000000000000000
00000000000000000000000000000000000000000000000000
00000000000000000000000000000000000000000000000000
00000000000000000000000000000000000000000000000000
00000000000000000000000000000000000000000000000000
00000000000000000000000000000000000000000000000000
00000000000000000000000000000000000000000000000000
00000000000000000000000000000000000000000000000000
00000000000000000000000000000000000000000000000000
00000000000000000000000000000000000000000000000000
00000000000000000000000000000000000000000000000000
