P1
50 70
00000000000000000000000000000000000000000000000000
00000000000000000000000000000000000000000000000000
00000000000000000000000000000000000000000000000000
00000000000000000000000000000000000000000000000000
00000000000000000000000000000000000000000000000000
00000000000000000000000000000000000000000000000000
00000000000000000000000000000000000000000000000000
00000000000000000000000000000000000000000000000000
00000000000000000000000000000000000000000000000000
00000000000000000000000000000000000000000000000000
00000000000000000000000000000000000000000000000000
00000000000000000000000000000000000000000000000000
00000000000000000000000000000000000000000000000000
00000000000000000000000000000000000000000000000000
00000000000000001100000000000000000000000000000000
00000000000000011111100000000000000000000000000000
00000000000000011111111000000000000000000000000000
00000000000000011111111111110000000000000000000000
00000000000000111111111111111000000000000000000000
00000000000000111111111111111111100000000000000000
00000000000001111111111111111111111111000000000000
00000000000000111111111111111111111111100000000000
00000000000000111111111111111111111111111111000000
00000000000001111111111111111111111111111111110000
00000000000001111100011111111111111111111111110000
00000000000011111100000111111111111111111111100000
00000000000011111100000000001111111111111111000000
00000000000011111000000000000000011111111111000000
00000000000011111000000000000000000000111110000000
00000000000011110000000000000000000000001110000000
00000000000111110000001110000000000000000000000000
00000000000111111111111111111000000000000000000000
00000000000111111111111111111110000000000000000000
00000000001111111111111111111111100000000000000000
00000000001111111111111111111111110000000000000000
00000000001111110000001111111111111100000000000000
00000000000111100000000001111111111110000000000000
00000000000000000000000000111111111110000000000000
00000000000000000000000000111111111111000000000000
00000000000000000000000000011111111111100000000000
00000000000000000000000000011111111111100000000000
00000000000000000000000000111111111111100000000000
00000000000000000000000000111111111111100000000000
00000000000000000000000000111111111111100000000000
00000000000000000000000000111111111111100000000000
00000000000000000000000001111111111111100000000000
00000000000000000000000001111111111111000000000000
00000011100000000000000011111111111111000000000000
00000111100000000000000011111111111111000000000000
00000111100000000000000011111111111110000000000000
00000111110000000000000111111111111100000000000000
00001111110000000000001111111111111000000000000000
00001111110000000000011111111111110000000000000000
00001111110000000000111111111111110000000000000000
00011111110000000001111111111111000000000000000000
00011111111100001111111111111110000000000000000000
00011111111111111111111111111000000000000000000000
00011111111111111111111111100000000000000000000000
00001111111111111111111110000000000000000000000000
00000011111111111111110000000000000000000000000000
00000000000000110000000000000000000000000000000000
00000000000000000000000000000000000000000000000000
00000000000000000000000000000000000000000000000000
00000000000000000000000000000000000000000000000000
00000000000000000000000000000000000000000000000000
00000000000000000000000000000000000000000000000000
00000000000000000000000000000000000000000000000000
00000000000000000000000000000000000000000000000000
00000000000000000000000000000000000000000000000000
00000000000000000000000000000000000000000000000000
