P1
50 70
00000000000000000000000000000000000000000000000000
00000000000000000000000000000000000000000000000000
00000000000000000000000000000000000000000000000000
00000000000000000000000000000000000000000000000000
00000000000000000000000000000000000000000000000000
00000000000000000000000000000000000000000000000000
00000000000000000000000000000000000000000000000000
00000000000000000000000000000000000000000000000000
00000000000000000000000000000000000000000000000000
00000000000000000000000000000000000000000000000000
00000000000000000000000000000000000000000000000000
00000000000000000000000000000000000000000000000000
00000000000000000000000000000000000000000000000000
00000000000000000000000001111000000000000000000000
00000000000000000000000001111111000000000000000000
00000000000000000000000011111111100000000000000000
00000000000000000000000011111111111100000000000000
00000000000000000000000111111111111110000000000000
00000000000000000000001111111111111111111000000000
00000000000000000000011111111111111111111110000000
00000000000000000000111111111111111111111111000000
00000000000000000000111111111111111111111111111100
00000000000000000000111111111111111111111111111110
00000000000000000001111111111111111111111111111111
00000000000000000011111111111111111111111111111111
00000000000000000111111111111000111111111111111111
00000000000000000111111111110000000011111111111110
00000000000000001111111111100000000001111111111100
00000000000000011111111111100000000000001111111000
00000000000000011111111111100000000000000000111000
00000000000000011111111111111110000000000000010000
00000000000000111111111111111111110000000000000000
00000000000001111111111111111111111000000000000000
00000000000011111111111111111111111100000000000000
00000000000011111111111111111111111111000000000000
00000000000111111111111111111111111111000000000000
00000000000010000000111111111111111111000000000000
00000000000000000000000111111111111111000000000000
10000000000000000000000011111111111111100000000000
00000000000000000000000000111111111111100000000000
10000000000000000000000000111111111111100000000000
00000000000000000000000000011111111111100000000000
10000000000000000000000000011111111111100000000000
10001100000000000000000000011111111111000000000000
00011110000000000000000000111111111111000000000000
00011111000000000000000001111111111110000000000000
00111111100000000000000001111111111110000000000000
00111111110000000000000011111111111110000000000000
11111111111000000000001111111111111100000000000000
11111111111110000000111111111111111000000000000000
01111111111111111111111111111111110000000000000000
01111111111111111111111111111111110000000000000000
11111111111111111111111111111111000000000000000000
01111111111111111111111111111110000000000000000000
01111111111111111111111111111110000000000000000000
00011111111111111111111111111000000000000000000000
00001111111111111111111111100000000000000000000000
10000011111111111111111111000000000000000000000000
10000000010011111111100000000000000000000000000000
00000000000000000000000000000000000000000000000000
10000000000000000000000000000000000000000000000000
10000000000000000000000000000000000000000000000000
10000000000000000000000000000000000000000000000000
10000000000000000000000000000000000000000000000000
00000000000000000000000000000000000000000000000000
00000000000000000000000000000000000000000000000000
00000000000000000000000000000000000000000000000000
00000000000000000000000000000000000000000000000000
00000000000000000000000000000000000000000000000000
00000000000000000000000000000000000000000000000000
