P1
50 70
00000000000000000000000000000000000000000000000000
00000000000000000000000000000000000000000000000000
00000000000000000000000000000000000000000000000000
00000000000000000000000000000000000000000000000000
00000000000000000000000000000000000000000000000000
00000000000000000000000000000000000000000000000000
00000000000000000000000000000000000000000000000000
00000000000000000000000000000000000000000000000000
00000000000000000000000000000000000000000000000000
00000000000000000000000000000000000000000000000000
00000000000000000000000000000000000000000000000000
00000000000000000000000000000000000000000000000000
00000000000000000000000000000000000000000000000000
00000000000000000000000000000000000000000000000000
00000000000000000000000000000001111000000000000000
00000000000000000000000000000111111000000000000000
00000000000000000000000001111111111000000000000000
00000000000000000000011111111111100000000000000000
00000000000000000000111111111100000000000000000000
00000000000000000111111111111000000000000000000000
00000000000000111111111110000000000000000000000000
00000000000000111111100000000000000000000000000000
00000000000000111100000000000000000000000000000000
00000000000000111100000000000000000000000000000000
00000000000000111100000000000000000000000000000000
00000000000000111100000000000000000000000000000000
00000000000000011100000000000000000000000000000000
00000000000000111100000000000000000000000000000000
00000000000000011100000000000000000000000000000000
00000000000000011100000000010000000000000000000000
00000000000000011100000111111110000000000000000000
00000000000000011110011111111111000000000000000000
00000000000000011111111111111111100000000000000000
00000000000000011111111100000111100000000000000000
00000000000000001111110000000011110000000000000000
00000000000000001111100000000001111000000000000000
00000000000000001110000000000001111000000000000000
00000000000000000000000000000000111000000000000000
00000000000000000000000000000000111000000000000000
00000000000000000000000000000000111000000000000000
00000000000000000000000000000000111000000000000000
00000000000000000000000000000000111000000000000000
00000000000000000000000000000000111000000000000000
00000000000000000000000000000000111000000000000000
00000000000000000000000000000000111000000000000000
00000000000000000000000000000000111000000000000000
00000000000000000000000000000000111000000000000000
00000000000000000000000000000001111000000000000000
00000000000000000000000000000001111000000000000000
00000000000000011110000000000011110000000000000000
00000000000000011111000000000011110000000000000000
00000000000000001111110000000111100000000000000000
00000000000000000111111111111111100000000000000000
00000000000000000011111111111111000000000000000000
00000000000000000000111111111110000000000000000000
00000000000000000000000100110000000000000000000000
00000000000000000000000000000000000000000000000000
00000000000000000000000000000000000000000000000000
00000000000000000000000000000000000000000000000000
00000000000000000000000000000000000000000000000000
00000000000000000000000000000000000000000000000000
00000000000000000000000000000000000000000000000000
00000000000000000000000000000000000000000000000000
00000000000000000000000000000000000000000000000000
00000000000000000000000000000000000000000000000000
00000000000000000000000000000000000000000000000000
00000000000000000000000000000000000000000000000000
00000000000000000000000000000000000000000000000000
00000000000000000000000000000000000000000000000000
00000000000000000000000000000000000000000000000000
