P1
50 70
00000000000000000000000000000000000000000000000000
00000000000000000000000000000000000000000000000000
00000000000000000000000000000000000000000000000000
00000000000000000000000000000000000000000000000000
00000000000000000000000000000000000000000000000000
00000000000000000000000000000000000000000000000000
00000000000000000000000000000000000000000000000000
00000000000000000000000000000000000000000000000000
00000000000000000000000000000000000000000000000000
00000000000000000000000000000000000000000000000000
00000000000000000000000000000000000000000000000000
00000000000000000000000000000000000000000000000000
00000000000000000000000000000000000000000000000000
00000000000000000000000000000000000000000000000000
00000000000000000000000000000000000000000000000000
00000000000000000000000000000000000000000000000000
00000000000000000000000000000000000000000000000000
00000000000000000000000000000000000000000000000000
00000000000000000000000000000000000000000000000000
00000000000000000000000000000000000010000000000000
00000000000000000000000000000111111110000000000000
00000000000000000000000000111111111110000000000000
00000000000000000000001111111111111110000000000000
00000000000000000000011111111111111110000000000000
00000000000000000001111111100001111100000000000000
00000000000000000011111111000000111100000000000000
00000000000000000111111100000001111100000000000000
00000000000000001111111100000001111100000000000000
00000000000000001111111000000001111100000000000000
00000000000000011111111000000001111000000000000000
00000000000000111111110000000000000000000000000000
00000000000000111111110000000000000000000000000000
00000000000001111111100000000000000000000000000000
00000000000001111111100000000000000000000000000000
00000000000001111111100000000000000000000000000000
00000000000001111111100000000000000000000000000000
00000000000001111111100000000000000000000000000000
00000000000001111111101111111100000000000000000000
00000000000001111111111111111110000000000000000000
00000000000011111111111111111111000000000000000000
00000000000011111111111111111111100000000000000000
00000000000011111111110011111111100000000000000000
00000000000011111111000001111111100000000000000000
00000000000001111111000001111111100000000000000000
00000000000001111111000001111111100000000000000000
00000000000001111111000001111111100000000000000000
00000000000001111111000001111111100000000000000000
00000000000001111111000001111111100000000000000000
00000000000001111111000001111111000000000000000000
00000000000001111111000001111111000000000000000000
00000000000001111111000001111111000000000000000000
00000000000000111111000001111111000000000000000000
00000000000000111111000001111111000000000000000000
00000000000000111111000011111111000000000000000000
00000000000000111111000011111110000000000000000000
00000000000000011111100011111110000000000000000000
00000000000000011111100111111100000000000000000000
00000000000000001111100111111000000000000000000000
00000000000000001111111111111000000000000000000000
00000000000000000011111111110000000000000000000000
00000000000000000001111111100000000000000000000000
00000000000000000000001111000000000000000000000000
00000000000000000000000000000000000000000000000000
00000000000000000000000000000000000000000000000000
00000000000000000000000000000000000000000000000000
00000000000000000000000000000000000000000000000000
00000000000000000000000000000000000000000000000000
00000000000000000000000000000000000000000000000000
00000000000000000000000000000000000000000000000000
00000000000000000000000000000000000000000000000000
