P1
50 70
00000000000000000000000000000000000000000000000000
00000000000000000000000000000000000000000000000000
00000000000000000000000000000000000000000000000000
00000000000000000000000000000000000000000000000000
00000000000000000000000000000000000000000000000000
00000000000000000000000000000000000000000000000000
00000000000000000000000000000000000000000000000000
00000000000000000000000000000000000000000000000000
00000000000000000000000000000000000000000000000000
00000000000000000000000000000000000000000000000000
00000000000000000000000000000000000000000000000000
00000000000000000000000000000000000000000000000000
00000000000000000000000000000000000000000000000000
00000000000000000000000000000000000000000000000000
00000000000000000000000000000000000000000000000000
00000000000000000000000000000111001110000000000000
00000000000000000000000011111111111111000000000000
00000000000000000000011111111111111111100000000000
00000000000000000000111111111111111111110000000000
00000000000000000011111111100000000111100000000000
00000000000000000111111110000000000000000000000000
00000000000000001111110000000000000000000000000000
00000000000000011111100000000000000000000000000000
00000000000000011110000000000000000000000000000000
00000000000000111100000000000000000000000000000000
00000000000001111000000000000000000000000000000000
00000000000001111000000000000000000000000000000000
00000000000011110000000000000000000000000000000000
00000000000111100000000000000000000000000000000000
00000000000111100000000000000000000000000000000000
00000000000111100000000000000000000000000000000000
00000000000111100011111111000000000000000000000000
00000000000111000111111111100000000000000000000000
00000000001111011111111111110000000000000000000000
00000000001111111111000111111000000000000000000000
00000000001111111100000001111100000000000000000000
00000000001111111000000000111100000000000000000000
00000000001111110000000000011100000000000000000000
00000000001111100000000000011100000000000000000000
00000000001111000000000000011100000000000000000000
00000000001110000000000000011100000000000000000000
00000000001110000000000000001110000000000000000000
00000000001110000000000000011110000000000000000000
00000000001110000000000000011100000000000000000000
00000000001110000000000000011100000000000000000000
00000000001111000000000000011100000000000000000000
00000000001111000000000000111000000000000000000000
00000000000111000000000001111000000000000000000000
00000000000111100000000001111000000000000000000000
00000000000111100000000011110000000000000000000000
00000000000011110000000111100000000000000000000000
00000000000011111100011111000000000000000000000000
00000000000001111111111110000000000000000000000000
00000000000000111111111100000000000000000000000000
00000000000000011111111000000000000000000000000000
00000000000000000000100000000000000000000000000000
00000000000000000000000000000000000000000000000000
00000000000000000000000000000000000000000000000000
00000000000000000000000000000000000000000000000000
00000000000000000000000000000000000000000000000000
00000000000000000000000000000000000000000000000000
00000000000000000000000000000000000000000000000000
00000000000000000000000000000000000000000000000000
00000000000000000000000000000000000000000000000000
00000000000000000000000000000000000000000000000000
00000000000000000000000000000000000000000000000000
00000000000000000000000000000000000000000000000000
00000000000000000000000000000000000000000000000000
00000000000000000000000000000000000000000000000000
00000000000000000000000000000000000000000000000000
