P1
50 70
00000000000000000000000000000000000000000000000000
00000000000000000000000000000000000000000000000000
00000000000000000000000000000000000000000000000000
00000000000000000000000000000000000000000000000000
00000000000000000000000000000000000000000000000000
00000000000000000000000000000000000000000000000000
00000000000000000000000000000000000000000000000000
00000000000000000000000000000000000000000000000000
00000000000000000000000000000000000000000000000000
00000000000000000000000000000000000000000000000000
00000000000000000000000000000000000000000000000000
00000000000000000000000000000000000000000000000000
00000000000000000000000000000000000000000000000000
00000000000000000000000000000000000000000000000000
00000000000000000000000000000111110000000000000000
00000000000000000000000000011111110000000000000000
00000000000000000000000000111111111000000000000000
00000000000000000000000001111111111000000000000000
00000000000000000000000011111111111000000000000000
00000000000000000000000111111111111100000000000000
00000000000000000000001111110011111000000000000000
00000000000000000000011111000001110000000000000000
00000000000000000000111111000000100000000000000000
00000000000000000001111110000000000000000000000000
00000000000000000001111100000000000000000000000000
00000000000000000001111000000000000000000000000000
00000000000000000011111000000000000000000000000000
00000000000000000011110000000000000000000000000000
00000000000000000111110000000000000000000000000000
00000000000000000111110001111100000000000000000000
00000000000000001111100011111111000000000000000000
00000000000000001111101111111111100000000000000000
00000000000000001111111111111111100000000000000000
00000000000000001111111111111111110000000000000000
00000000000000011111111100001111110000000000000000
00000000000000011111110000000111110000000000000000
00000000000000011111100000000111111000000000000000
00000000000000011111100000000011111000000000000000
00000000000000011111000000000011111000000000000000
00000000000000111111000000000111111000000000000000
00000000000000111111000000000111110000000000000000
00000000000000111110000000000111110000000000000000
00000000000000111110000000000111110000000000000000
00000000000000011111000000000111110000000000000000
00000000000000011111000000001111110000000000000000
00000000000000011111000000011111110000000000000000
00000000000000011111100000011111100000000000000000
00000000000000001111110000111111100000000000000000
00000000000000001111111111111111000000000000000000
00000000000000000111111111111110000000000000000000
00000000000000000011111111111100000000000000000000
00000000000000000000111111111000000000000000000000
00000000000000000000001111000000000000000000000000
00000000000000000000000000000000000000000000000000
00000000000000000000000000000000000000000000000000
00000000000000000000000000000000000000000000000000
00000000000000000000000000000000000000000000000000
00000000000000000000000000000000000000000000000000
00000000000000000000000000000000000000000000000000
00000000000000000000000000000000000000000000000000
00000000000000000000000000000000000000000000000000
00000000000000000000000000000000000000000000000000
00000000000000000000000000000000000000000000000000
00000000000000000000000000000000000000000000000000
00000000000000000000000000000000000000000000000000
00000000000000000000000000000000000000000000000000
00000000000000000000000000000000000000000000000000
00000000000000000000000000000000000000000000000000
00000000000000000000000000000000000000000000000000
00000000000000000000000000000000000000000000000000
