P1
50 70
00000000000000000000000000000000000000000000000000
00000000000000000000000000000000000000000000000000
00000000000000000000000000000000000000000000000000
00000000000000000000000000000000000000000000000000
00000000000000000000000000000000000000000000000000
00000000000000000000000000000000000000000000000000
00000000000000000000000000000000000000000000000000
00000000000000000000000000000000000000000000000000
00000000000000000000000000000000000000000000000000
00000000000000000000000000000000000000000000000000
00000000000000000000000000000000000000000000000000
00000000000000000000000000000000000000000000000000
00000000000000000000000000000000000000000000000000
00000000000000000000000000000000000000000000000000
00000000000000000000000000000000000000000000000000
00000000000000000000000000000000000000000000000000
00000000000000000000000000000000000000000000000000
00000000000000000000000000000000000000000000000000
00000000000000000000000001101100000000000000000000
00000000000000000000111111111111110000000000000000
00000000000000000111111111111111111111100000000000
00000000000000001111111111111111111111111100000000
00000000000000011111111111111111111111111111000000
00000000000000111111111111111111111111111111100000
00000000000001111111111111111111111111111111100000
00000000000011111111111111111111111111111111100000
00000000000111111111111111111111111111111111000000
00000000001111111111111111000000011111111111000000
00000000011111111111111000000000000000111111000000
00000000011111111111111000000000000000011110000000
00000000111111111111110000000000000000000100000000
00000000111111111111100000000000000000000000000000
00000001111111111111100000000000000000000000000000
00000001111111111111000000000000000000000000000000
00000001111111111111001111111110000000000000000000
00000011111111111111111111111111110000000000000000
00000011111111111111111111111111111100000000000000
00000011111111111111111111111111111110000000000000
00000111111111111111111111111111111111000000000000
00000111111111111111111111111111111111100000000000
00000111111111111111111111111111111111110000000000
00000111111111111111111111111111111111111000000000
00000111111111111111110000111111111111111000000000
00000111111111111111000000011111111111111000000000
00000111111111111110000000001111111111111100000000
00001111111111111100000000001111111111111100000000
00001111111111111100000000000111111111111100000000
00001111111111111100000000000111111111111100000000
00001111111111111100000000000111111111111100000000
00001111111111111000000000000111111111111100000000
00000111111111111000000000000111111111111100000000
00000111111111111000000000000111111111111100000000
00000111111111111000000000001111111111111000000000
00000111111111111100000000011111111111111000000000
00000011111111111110000000111111111111110000000000
00000011111111111111000001111111111111110000000000
00000011111111111111111111111111111111100000000000
00000011111111111111111111111111111111000000000000
00000001111111111111111111111111111110000000000000
00000000111111111111111111111111111100000000000000
00000000011111111111111111111111111000000000000000
00000000001111111111111111111111110000000000000000
00000000000011111111111111111111100000000000000000
00000000000000011111111111111100000000000000000000
00000000000000000011111100000000000000000000000000
00000000000000000000000000000000000000000000000000
00000000000000000000000000000000000000000000000000
00000000000000000000000000000000000000000000000000
00000000000000000000000000000000000000000000000000
00000000000000000000000000000000000000000000000000
