P1
50 70
00000000000000000000000000000000000000000000000000
00000000000000000000000000000000000000000000000000
00000000000000000000000000000000000000000000000000
00000000000000000000000000000000000000000000000000
00000000000000000000000000000000000000000000000000
00000000000000000000000000000000000000000000000000
00000000000000000000000000000000000000000000000000
00000000000000000000000000000000000000000000000000
00000000000000000000000000000000000000000000000000
00000000000000000000000000000000000000000000000000
00000000000000000000000000000000000000000000000000
00000000000000000000000000000000000000000000000000
00000000000000000000000000000000000000000000000000
00000000000000000000000000000000000000000000000000
00000000000000000000000000000000000000000000000000
00000000000000000000000000000000000000000000000000
00000000000000000000000000000000000000000000000000
00000000000000000000000000000000000000000000000000
00000000000000000000000000000111100000000000000000
00000000000000000000000011111111111111000000000000
00000000000000000000011111111111111111100000000000
00000000000000000000111111111111100111110000000000
00000000000000000001111111000000000011100000000000
00000000000000000011111000000000000000000000000000
00000000000000000111110000000000000000000000000000
00000000000000001111100000000000000000000000000000
00000000000000011111000000000000000000000000000000
00000000000000111110000000000000000000000000000000
00000000000000111100000000000000000000000000000000
00000000000001111000000000000000000000000000000000
00000000000001110000000000000000000000000000000000
00000000000011110001111111000000000000000000000000
00000000000011100011111111110000000000000000000000
00000000000011100111111111111000000000000000000000
00000000000111101111110011111000000000000000000000
00000000000111111110000001111100000000000000000000
00000000001111111000000000111100000000000000000000
00000000001111110000000000111100000000000000000000
00000000001111100000000000111100000000000000000000
00000000001111100000000000011100000000000000000000
00000000001111000000000000111100000000000000000000
00000000011110000000000000111100000000000000000000
00000000011100000000000001111000000000000000000000
00000000011100000000000001111000000000000000000000
00000000011100000000000011110000000000000000000000
00000000011100000000000111110000000000000000000000
00000000011100000000001111100000000000000000000000
00000000011110000000001111000000000000000000000000
00000000011110000000011110000000000000000000000000
00000000011111000011111100000000000000000000000000
00000000001111100111111000000000000000000000000000
00000000001111111111110000000000000000000000000000
00000000001111111111000000000000000000000000000000
00000000000011111100000000000000000000000000000000
00000000000000000000000000000000000000000000000000
00000000000000000000000000000000000000000000000000
00000000000000000000000000000000000000000000000000
00000000000000000000000000000000000000000000000000
00000000000000000000000000000000000000000000000000
00000000000000000000000000000000000000000000000000
00000000000000000000000000000000000000000000000000
00000000000000000000000000000000000000000000000000
00000000000000000000000000000000000000000000000000
00000000000000000000000000000000000000000000000000
00000000000000000000000000000000000000000000000000
00000000000000000000000000000000000000000000000000
00000000000000000000000000000000000000000000000000
00000000000000000000000000000000000000000000000000
00000000000000000000000000000000000000000000000000
00000000000000000000000000000000000000000000000000
