P1
50 70
00000000000000000000000000000000000000000000000000
00000000000000000000000000000000000000000000000000
00000000000000000000000000000000000000000000000000
00000000000000000000000000000000000000000000000000
00000000000000000000000000000000000000000000000000
00000000000000000000000000000000000000000000000000
00000000000000000000000000000000000000000000000000
00000000000000000000000000000000000000000000000000
00000000000000000000000000000000000000000000000000
00000000000000000000000000000000000000000000000000
00000000000000000000000000000000000000000000000000
00000000000000000000000000000000000000000000000000
00000000000000000000000000000000000000000000000000
00000000000000000000000000000000000000000000000000
00000000000000000000000000000000000000000000000000
00000000000000000000000000000000000000000000000000
00000000000000000000000001110000000000000000000000
00000000000000000000000111111000000000000000000000
00000000000000000000001111111100000000000000000000
00000000000000000000011111111100000000000000000000
00000000000000000000111111111110000000000000000000
00000000000000000001111111111110000000000000000000
00000000000000000011111111111110000000000000000000
00000000000000000011111111111110000000000000000000
00000000000000000011111111111100000000000000000000
00000000000000000111111111111000000000000000000000
00000000000000000111111000111000000000000000000000
00000000000000001111110000100000000000000000000000
00000000000000001111110000000000000000000000000000
00000000000000001111100000000000000000000000000000
00000000000000001111100000000000000000000000000000
00000000000000001111100000000000000000000000000000
00000000000000011111100001111000000000000000000000
00000000000000011111100011111100000000000000000000
00000000000000001111101111111110000000000000000000
00000000000000011111101111111111000000000000000000
00000000000000011111111111111111000000000000000000
00000000000000011111111111111111000000000000000000
00000000000000011111111111111111100000000000000000
00000000000000011111111111111111100000000000000000
00000000000000011111111111111111100000000000000000
00000000000000011111111100111111100000000000000000
00000000000000011111111000011111110000000000000000
00000000000000011111111000011111100000000000000000
00000000000000011111110000011111100000000000000000
00000000000000011111110000011111100000000000000000
00000000000000011111110000001111110000000000000000
00000000000000001111110000001111110000000000000000
00000000000000001111110000001111110000000000000000
00000000000000011111110000001111100000000000000000
00000000000000011111110000001111110000000000000000
00000000000000001111111000011111100000000000000000
00000000000000001111111000011111100000000000000000
00000000000000001111111100111111100000000000000000
00000000000000001111111111111111000000000000000000
00000000000000000111111111111111000000000000000000
00000000000000000011111111111111000000000000000000
00000000000000000011111111111110000000000000000000
00000000000000000011111111111100000000000000000000
00000000000000000001111111111000000000000000000000
00000000000000000000011111110000000000000000000000
00000000000000000000000000000000000000000000000000
00000000000000000000000000000000000000000000000000
00000000000000000000000000000000000000000000000000
00000000000000000000000000000000000000000000000000
00000000000000000000000000000000000000000000000000
00000000000000000000000000000000000000000000000000
00000000000000000000000000000000000000000000000000
00000000000000000000000000000000000000000000000000
00000000000000000000000000000000000000000000000000
