P1
50 70
00000000000000000000000000000000000000000000000000
00000000000000000000000000000000000000000000000000
00000000000000000000000000000000000000000000000000
00000000000000000000000000000000000000000000000000
00000000000000000000000000000000000000000000000000
00000000000000000000000000000000000000000000000000
00000000000000000000000000000000000000000000000000
00000000000000000000000000000000000000000000000000
00000000000000000000000000000000000000000000000000
00000000000000000000000000000000000000000000000000
00000000000000000000000000000000000000000000000000
00000000000000000000000000000000000000000000000000
00000000000000000000000000000000000000000000000000
00000000000000000000000000000000001100000000000000
00000000000000000000000000001111111111110000000000
00000000000000000000000001111111111111110000000000
00000000000000000000111111111111111111000000000000
00000000000000000001111111111111110000000000000000
00000000000000000011111111111110000000000000000000
00000000000000001111111111110000000000000000000000
00000000000000011111111111100000000000000000000000
00000000000000111111111111000000000000000000000000
00000000000001111111111110000000000000000000000000
00000000000011111111111100000000000000000000000000
00000000000011111111111000000000000000000000000000
00000000000011111111111000000000000000000000000000
00000000000111111111111000000000000000000000000000
00000000000111111111110000000000000000000000000000
00000000000111111111110000000000000000000000000000
00000000000111111111111111110000000000000000000000
00000000001111111111111111111000000000000000000000
00000000001111111111111111111000000000000000000000
00000000000111111111001111111110000000000000000000
00000000000111111111000111111111000000000000000000
00000000000111111111000011111111000000000000000000
00000000000111111111000001111111000000000000000000
00000000000111111111000001111111000000000000000000
00000000001111111111000001111111000000000000000000
00000000001111111111000001111111100000000000000000
00000000000111111111000001111111100000000000000000
00000000000111111111000001111111100000000000000000
00000000000111111111000001111111100000000000000000
00000000000011111110000001111111100000000000000000
00000000000011111110000001111111000000000000000000
00000000000011111110000001111111000000000000000000
00000000000011111110000001111111000000000000000000
00000000000011111110000011111111000000000000000000
00000000000001111110000011111111000000000000000000
00000000000001111110000011111110000000000000000000
00000000000000111111000011111110000000000000000000
00000000000000111111000111111100000000000000000000
00000000000000011111000111111100000000000000000000
00000000000000001111000111111000000000000000000000
00000000000000001111101111110000000000000000000000
00000000000000000011111111100000000000000000000000
00000000000000000001111111100000000000000000000000
00000000000000000000001111000000000000000000000000
00000000000000000000000000000000000000000000000000
00000000000000000000000000000000000000000000000000
00000000000000000000000000000000000000000000000000
00000000000000000000000000000000000000000000000000
00000000000000000000000000000000000000000000000000
00000000000000000000000000000000000000000000000000
00000000000000000000000000000000000000000000000000
00000000000000000000000000000000000000000000000000
00000000000000000000000000000000000000000000000000
00000000000000000000000000000000000000000000000000
00000000000000000000000000000000000000000000000000
00000000000000000000000000000000000000000000000000
00000000000000000000000000000000000000000000000000
