P1
50 70
00000000000000000000000000000000000000000000000000
00000000000000000000000000000000000000000000000000
00000000000000000000000000000000000000000000000000
00000000000000000000000000000000000000000000000000
00000000000000000000000000000000000000000000000000
00000000000000000000000000000000000000000000000000
00000000000000000000000000000000000000000000000000
00000000000000000000000000000000000000000000000000
00000000000000000000000000000000000000000000000000
00000000000000000000000000000000000000000000000000
00000000000000000000000000000000000000000000000000
00000000000000000000000000000000000000000000000000
00000000000000000000000000000000000000000000000000
00000000000000000000000000000000000000000000000000
00000000000000000000000000000000000000000000000000
00000000000000000000000000000000000000000000000000
00000000000000000000000000000000000000000000000000
00000000000000001001000000000000000000000000000000
00000000000000001111111111111111110000000000000000
00000000000000001111111111111111110000000000000000
00000000000000001111111111111111110000000000000000
00000000000000001111111111111111110000000000000000
00000000000000000111111111111111110000000000000000
00000000000000000000000000000111110000000000000000
00000000000000000000000000000111110000000000000000
00000000000000000000000000000111110000000000000000
00000000000000000000000000000111110000000000000000
00000000000000000000000000000111110000000000000000
00000000000000000000000000001111110000000000000000
00000000000000000000000000000111110000000000000000
00000000000000000000000000000111110000000000000000
00000000000000000000000000000111110000000000000000
00000000000000000000000000000111110000000000000000
00000000000000000000000000000111110000000000000000
00000000000000000000000000000111110000000000000000
00000000000000000000000000000111110000000000000000
00000000000000000000000000000111110000000000000000
00000000000000000000000000000111110000000000000000
00000000000000000000000000001111110000000000000000
00000000000000000000000000001111110000000000000000
00000000000000000000000000001111110000000000000000
00000000000000000000000000000111110000000000000000
00000000000000000000000000001111110000000000000000
00000000000000000000000000001111100000000000000000
00000000000000000000000000001111100000000000000000
00000000000000000000000000001111110000000000000000
00000000000000000000000000001111110000000000000000
00000000000000000000000000001111110000000000000000
00000000000000000000000000001111110000000000000000
00000000000000000000000000001111100000000000000000
00000000000000000000000000011111100000000000000000
00000000000000000000000000011111100000000000000000
00000000000000000000000000011111100000000000000000
00000000000000000000000000011111100000000000000000
00000000000000000000000000011111100000000000000000
00000000000000000000000000011111100000000000000000
00000000000000000000000000011111000000000000000000
00000000000000000000000000011110000000000000000000
00000000000000000000000000011100000000000000000000
00000000000000000000000000000000000000000000000000
00000000000000000000000000000000000000000000000000
00000000000000000000000000000000000000000000000000
00000000000000000000000000000000000000000000000000
00000000000000000000000000000000000000000000000000
00000000000000000000000000000000000000000000000000
00000000000000000000000000000000000000000000000000
00000000000000000000000000000000000000000000000000
00000000000000000000000000000000000000000000000000
00000000000000000000000000000000000000000000000000
00000000000000000000000000000000000000000000000000
