P1
50 70
00000000000000000000000000000000000000000000000000
00000000000000000000000000000000000000000000000000
00000000000000000000000000000000000000000000000000
00000000000000000000000000000000000000000000000000
00000000000000000000000000000000000000000000000000
00000000000000000000000000000000000000000000000000
00000000000000000000000000000000000000000000000000
00000000000000000000000000000000000000000000000000
00000000000000000000000000000000000000000000000000
00000000000000000000000000000000000000000000000000
00000000000000000000000000000000000000000000000000
00000000000000000000000000000000000000000000000000
00000000000000000000000000000000000000000000000000
00000000001111111111111001100010000100000000000000
00000000001111111111111111111111111110000000000000
00000000000111111111111111111111111111100000000000
00000000000111111111111111111111111111100000000000
00000000000011111111111111111111111111100000000000
00000000000011111111111111111111111111100000000000
00000000000001100111011111111111111111100000000000
00000000000000000000000000000000111111100000000000
00000000000000000000000000000000111111100000000000
00000000000000000000000000000000111111100000000000
00000000000000000000000000000000111111000000000000
00000000000000000000000000000000111111100000000000
00000000000000000000000000000000111111100000000000
00000000000000000000000000000000111111100000000000
00000000000000000000000000000000111111100000000000
00000000000000000000000000000000111111100000000000
00000000000000000000000000000000111111100000000000
00000000000000000000000000000000111111100000000000
00000000000000000000000000000000111111100000000000
00000000000000000000000000000000111111100000000000
00000000000000000000000000000000111111100000000000
00000000000000000000000000000000111111100000000000
00000000000000000000000000000000111111100000000000
00000000000000000000000000000000111111100000000000
00000000000000000000000000000000111111100000000000
00000000000000000000000000000000111111100000000000
00000000000000000000000000000000111111100000000000
00000000000000000000000000000000111111100000000000
00000000000000000000000000000000111111100000000000
00000000000000000000000000000000111111100000000000
00000000000000000000000000000000111111100000000000
00000000000000000000000000000000111111100000000000
00000000000000000000000000000000111111100000000000
00000000000000000000000000000000111111100000000000
00000000000000000000000000000001111111100000000000
00000000000000000000000000000000111111000000000000
00000000000000000000000000000000111111100000000000
00000000000000000000000000000000111111100000000000
00000000000000000000000000000000111111100000000000
00000000000000000000000000000000111111100000000000
00000000000000000000000000000000111111100000000000
00000000000000000000000000000000111111100000000000
00000000000000000000000000000000111111100000000000
00000000000000000000000000000001111111100000000000
00000000000000000000000000000000111111000000000000
00000000000000000000000000000000111111000000000000
00000000000000000000000000000000111110000000000000
00000000000000000000000000000000000000000000000000
00000000000000000000000000000000000000000000000000
00000000000000000000000000000000000000000000000000
00000000000000000000000000000000000000000000000000
00000000000000000000000000000000000000000000000000
00000000000000000000000000000000000000000000000000
00000000000000000000000000000000000000000000000000
00000000000000000000000000000000000000000000000000
00000000000000000000000000000000000000000000000000
00000000000000000000000000000000000000000000000000
