P1
50 70
00000000000000000000000000000000000000000000000000
00000000000000000000000000000000000000000000000000
00000000000000000000000000000000000000000000000000
00000000000000000000000000000000000000000000000000
00000000000000000000000000000000000000000000000000
00000000000000000000000000000000000000000000000000
00000000000000000000000000000000000000000000000000
00000000000000000000000000000000000000000000000000
00000000000000000000000000000000000000000000000000
00000000000000000000000000000000000000000000000000
00000000000000000000000000000000000000000000000000
00000000000000000000000000000000000000000000000000
00000000000000000000000000000000000000000000000000
00000000000000000000000000000000000000000000000000
00000000000000000000000000000000000000000000000000
00000000000000000000000000000000000000000000000000
00000000000000000111111100000000000000000000000000
00000000000000001111111111000000000000000000000000
00000000000000011111001111100000000000000000000000
00000000000000111110000011110000000000000000000000
00000000000000111100000011111000000000000000000000
00000000000000111100000001111000000000000000000000
00000000000001111100000000111100000000000000000000
00000000000001111100000000111100000000000000000000
00000000000001111100000000011110000000000000000000
00000000000000111110000000011111000000000000000000
00000000000000111110000000011111000000000000000000
00000000000000111111000000011110000000000000000000
00000000000000011111000000011111000000000000000000
00000000000000011111100000011110000000000000000000
00000000000000001111111001111100000000000000000000
00000000000000001111111111111100000000000000000000
00000000000000000011111111111000000000000000000000
00000000000000000001111111100000000000000000000000
00000000000000000001111111110000000000000000000000
00000000000000000111111111110000000000000000000000
00000000000000001111111111111000000000000000000000
00000000000000011111000111111100000000000000000000
00000000000000111110000011111110000000000000000000
00000000000001111100000000111111000000000000000000
00000000000011111100000000111111100000000000000000
00000000000011111000000000001111110000000000000000
00000000000011110000000000000111111000000000000000
00000000000011110000000000000011111100000000000000
00000000000011110000000000000011111100000000000000
00000000000111110000000000000001111110000000000000
00000000000111110000000000000000111110000000000000
00000000000111110000000000000000111110000000000000
00000000000011111000000000000000111111000000000000
00000000000011111100000000000000111111000000000000
00000000000001111110000000000000111111000000000000
00000000000000111110000000000000111110000000000000
00000000000000011111100000000001111110000000000000
00000000000000001111111100001111111110000000000000
00000000000000000011111111111111111000000000000000
00000000000000000001111111111111110000000000000000
00000000000000000000000010011000000000000000000000
00000000000000000000000000000000000000000000000000
00000000000000000000000000000000000000000000000000
00000000000000000000000000000000000000000000000000
00000000000000000000000000000000000000000000000000
00000000000000000000000000000000000000000000000000
00000000000000000000000000000000000000000000000000
00000000000000000000000000000000000000000000000000
00000000000000000000000000000000000000000000000000
00000000000000000000000000000000000000000000000000
00000000000000000000000000000000000000000000000000
00000000000000000000000000000000000000000000000000
00000000000000000000000000000000000000000000000000
00000000000000000000000000000000000000000000000000
