P1
50 70
00000000000000000000000000000000000000000000000000
00000000000000000000000000000000000000000000000000
00000000000000000000000000000000000000000000000000
00000000000000000000000000000000000000000000000000
00000000000000000000000000000000000000000000000000
00000000000000000000000000000000000000000000000000
00000000000000000000000000000000000000000000000000
00000000000000000000000000000000000000000000000000
00000000000000000000000000000000000000000000000000
00000000000000000000000000000000000000000000000000
00000000000000000000000000000000000000000000000000
00000000000000000000000000000000000000000000000000
00000000000000000000000000000000000000000000000000
00000000000000000000000000000000000000000000000000
00000000000000000000000000000000000000000000000000
00000000000000000000000000000000000000000000000000
00000000000000000001111111000000000000000000000000
00000000000000000111111111110000000000000000000000
00000000000000000111111111111000000000000000000000
00000000000000001111111111111000000000000000000000
00000000000000001111100001111100000000000000000000
00000000000000011111000000111110000000000000000000
00000000000000011111000000111110000000000000000000
00000000000000011111000000011111000000000000000000
00000000000000011111000000011111000000000000000000
00000000000000011111000000011110000000000000000000
00000000000000011111000000011110000000000000000000
00000000000000011111000000011110000000000000000000
00000000000000011111100000011111000000000000000000
00000000000000001111100000111110000000000000000000
00000000000000001111110001111100000000000000000000
00000000000000000111111111111100000000000000000000
00000000000000000011111111111000000000000000000000
00000000000000000011111111111000000000000000000000
00000000000000000001111111111100000000000000000000
00000000000000000001111111111111000000000000000000
00000000000000000011111001111111100000000000000000
00000000000000000111110000111111110000000000000000
00000000000000001111100000001111110000000000000000
00000000000000001111000000000111111000000000000000
00000000000000011111000000000011111000000000000000
00000000000000011110000000000011111000000000000000
00000000000000111110000000000001111100000000000000
00000000000000111110000000000001111100000000000000
00000000000000111110000000000011111100000000000000
00000000000000111110000000000011111100000000000000
00000000000000111110000000000011111100000000000000
00000000000000111111000000000111111000000000000000
00000000000000111111000000011111110000000000000000
00000000000000111111111000111111110000000000000000
00000000000000111111111111111111100000000000000000
00000000000000111111111111111111000000000000000000
00000000000000011111111111111110000000000000000000
00000000000000000111111111111100000000000000000000
00000000000000000001111110000000000000000000000000
00000000000000000000000000000000000000000000000000
00000000000000000000000000000000000000000000000000
00000000000000000000000000000000000000000000000000
00000000000000000000000000000000000000000000000000
00000000000000000000000000000000000000000000000000
00000000000000000000000000000000000000000000000000
00000000000000000000000000000000000000000000000000
00000000000000000000000000000000000000000000000000
00000000000000000000000000000000000000000000000000
00000000000000000000000000000000000000000000000000
00000000000000000000000000000000000000000000000000
00000000000000000000000000000000000000000000000000
00000000000000000000000000000000000000000000000000
00000000000000000000000000000000000000000000000000
00000000000000000000000000000000000000000000000000
