P1
50 70
00000000000000000000000000000000000000000000000000
00000000000000000000000000000000000000000000000000
00000000000000000000000000000000000000000000000000
00000000000000000000000000000000000000000000000000
00000000000000000000000000000000000000000000000000
00000000000000000000000000000000000000000000000000
00000000000000000000000000000000000000000000000000
00000000000000000000000000000000000000000000000000
00000000000000000000000000000000000000000000000000
00000000000000000000000000000000000000000000000000
00000000000000000000000000000000000000000000000000
00000000000000000000000000000000000000000000000000
00000000000000000000000000000000000000000000000000
00000000000000000000000000000000000000000000000000
00000000000000000000000000000000000000000000000000
00000000000000000000000000000000000000000000000000
00000000000000000111011100000000000000000000000000
00000000000000011111111111100000000000000000000000
00000000000000111111111111100000000000000000000000
00000000000000111111111111111000000000000000000000
00000000000001111111000111111100000000000000000000
00000000000001111110000001111100000000000000000000
00000000000001111100000001111110000000000000000000
00000000000011111100000000111111000000000000000000
00000000000001111100000000011111000000000000000000
00000000000001111100000000011111000000000000000000
00000000000001111100000000011111000000000000000000
00000000000001111100000000001111100000000000000000
00000000000000111110000000001111100000000000000000
00000000000000111110000000001111100000000000000000
00000000000000011111100000011111100000000000000000
00000000000000011111110000111111100000000000000000
00000000000000001111111111111111000000000000000000
00000000000000001111111111111110000000000000000000
00000000000000011111111111111110000000000000000000
00000000000000011111111111111110000000000000000000
00000000000000111111100011111111100000000000000000
00000000000001111110000000111111100000000000000000
00000000000001111110000000011111110000000000000000
00000000000011111100000000000111111000000000000000
00000000000011111100000000000111111100000000000000
00000000000001111100000000000011111100000000000000
00000000000001111100000000000011111100000000000000
00000000000001111100000000000011111110000000000000
00000000000001111100000000000001111110000000000000
00000000000001111110000000000001111110000000000000
00000000000000111111000000000011111110000000000000
00000000000000111111100000000011111110000000000000
00000000000000011111111101111111111100000000000000
00000000000000001111111111111111111100000000000000
00000000000000000111111111111111111100000000000000
00000000000000000000111111111111111000000000000000
00000000000000000000001111111111000000000000000000
00000000000000000000000000000000000000000000000000
00000000000000000000000000000000000000000000000000
00000000000000000000000000000000000000000000000000
00000000000000000000000000000000000000000000000000
00000000000000000000000000000000000000000000000000
00000000000000000000000000000000000000000000000000
00000000000000000000000000000000000000000000000000
00000000000000000000000000000000000000000000000000
00000000000000000000000000000000000000000000000000
00000000000000000000000000000000000000000000000000
00000000000000000000000000000000000000000000000000
00000000000000000000000000000000000000000000000000
00000000000000000000000000000000000000000000000000
00000000000000000000000000000000000000000000000000
00000000000000000000000000000000000000000000000000
00000000000000000000000000000000000000000000000000
00000000000000000000000000000000000000000000000000
