P1
50 70
00000000000000000000000000000000000000000000000000
00000000000000000000000000000000000000000000000000
00000000000000000000000000000000000000000000000000
00000000000000000000000000000000000000000000000000
00000000000000000000000000000000000000000000000000
00000000000000000000000000000000000000000000000000
00000000000000000000000000000000000000000000000000
00000000000000000000000000000000000000000000000000
00000000000000000000000000000000000000000000000000
00000000000000000000000000000000000000000000000000
00000000000000000000000000000000000000000000000000
00000000000000000000000000000000000000000000000000
00000000000000000000000000000000000000000000000000
00000000000000000000000000000000000000000000000000
00000000000000000000000000000000000000000000000000
00000000000000000000000000000000000000000000000000
00000000000000000000000000000000000000000000000000
00000000000000000000000000000000000000000000000000
00000000000000000000000000000000000000000000000000
00000000000000000000000000000000000000000000000000
00000000000000000000001011000000000000000000000000
00000000000000000001111111110000000000000000000000
00000000000000000001111111111100000000000000000000
00000000000000000111111111111110000000000000000000
00000000000000001111001111111111000000000000000000
00000000000000011110000111111111000000000000000000
00000000000000011110000011111111100000000000000000
00000000000000111110000011111111110000000000000000
00000000000000111110000001111111110000000000000000
00000000000000111110000001111111111000000000000000
00000000000001111111000000111111111000000000000000
00000000000001111111000000011111111100000000000000
00000000000001111111100000011111111100000000000000
00000000000001111111100000011111111100000000000000
00000000000001111111100000011111111100000000000000
00000000000001111111110000011111111110000000000000
00000000000001111111110000001111111110000000000000
00000000000000111111111000001111111110000000000000
00000000000000111111111100001111111110000000000000
00000000000000011111111100001111111110000000000000
00000000000000011111111111111111111110000000000000
00000000000000001111111111111111111110000000000000
00000000000000000111111111111111111110000000000000
00000000000000000011111111111111111110000000000000
00000000000000000001111111000111111110000000000000
00000000000000000000000010000111111110000000000000
00000000000000000000000000000111111110000000000000
00000000000000000000000000000111111100000000000000
00000000000000000000000000000111111100000000000000
00000000000000000000000000000111111000000000000000
00000000000000000000000000000111111000000000000000
00000000000000000000000000001111111000000000000000
00000000000000000000000000001111110000000000000000
00000000000000000000000000011111100000000000000000
00000000000000000000000000011111000000000000000000
00000000000000000000000000111110000000000000000000
00000000000000000000000011111100000000000000000000
00000000000000000000000111110000000000000000000000
00000000000000000000001111100000000000000000000000
00000000000000000000000110000000000000000000000000
00000000000000000000000000000000000000000000000000
00000000000000000000000000000000000000000000000000
00000000000000000000000000000000000000000000000000
00000000000000000000000000000000000000000000000000
00000000000000000000000000000000000000000000000000
00000000000000000000000000000000000000000000000000
00000000000000000000000000000000000000000000000000
00000000000000000000000000000000000000000000000000
00000000000000000000000000000000000000000000000000
00000000000000000000000000000000000000000000000000
