P1
50 70
00000000000000000000000000000000000000000000000000
00000000000000000000000000000000000000000000000000
00000000000000000000000000000000000000000000000000
00000000000000000000000000000000000000000000000000
00000000000000000000000000000000000000000000000000
00000000000000000000000000000000000000000000000000
00000000000000000000000000000000000000000000000000
00000000000000000000000000000000000000000000000000
00000000000000000000000000000000000000000000000000
00000000000000000000000000000000000000000000000000
00000000000000000000000000000000000000000000000000
00000000000000000000000000000000000000000000000000
00000000000000000000000000000000000000000000000000
00000000000000000000000000000000000000000000000000
00000000000000000000000000000000000000000000000000
00000000000000000000000011111110000000000000000000
00000000000000000000011111111111100000000000000000
00000000000000000000011111111111111000000000000000
00000000000000000000111111111111111000000000000000
00000000000000000001111111111111111100000000000000
00000000000000000011111111111111111100000000000000
00000000000000000111111100000111111110000000000000
00000000000000000111111000000011111110000000000000
00000000000000001111111000000011111110000000000000
00000000000000011111110000000001111111000000000000
00000000000000011111100000000001111111000000000000
00000000000000111111100000000001111111000000000000
00000000000000111111100000000001111111000000000000
00000000000000111111000000000001111111000000000000
00000000000000111110000000000001111111000000000000
00000000000001111110000000000001111111000000000000
00000000000001111110000000000001111111000000000000
00000000000001111110000000000001111111000000000000
00000000000001111110000000000011111111000000000000
00000000000001111110000000000011111111000000000000
00000000000001111110000000000111111111000000000000
00000000000001111111000000000111111111000000000000
00000000000001111111000000111111111111000000000000
00000000000001111111110111111111111111000000000000
00000000000001111111111111111111111111000000000000
00000000000001111111111111111100111111000000000000
00000000000001111111111111111000111111000000000000
00000000000000111111111111110000111111000000000000
00000000000000011111111111000001111110000000000000
00000000000000001111111100000001111110000000000000
00000000000000000000110000000001111110000000000000
00000000000000000000000000000011111100000000000000
00000000000000000000000000000111111100000000000000
00000000000000000000000000000111111100000000000000
00000000000000000000000000001111111000000000000000
00000000000000000000000000011111110000000000000000
00000000000000000000000000111111110000000000000000
00000000000000000000000001111111100000000000000000
00000000000000000000000111111110000000000000000000
00000000000000000000111111111100000000000000000000
00000000000000000111111111111000000000000000000000
00000000000000111111111111110000000000000000000000
00000000000001111111111111100000000000000000000000
00000000000001111111111110000000000000000000000000
00000000000001111111111000000000000000000000000000
00000000000001111111100000000000000000000000000000
00000000000011111100000000000000000000000000000000
00000000000001000000000000000000000000000000000000
00000000000000000000000000000000000000000000000000
00000000000000000000000000000000000000000000000000
00000000000000000000000000000000000000000000000000
00000000000000000000000000000000000000000000000000
00000000000000000000000000000000000000000000000000
00000000000000000000000000000000000000000000000000
00000000000000000000000000000000000000000000000000
