P1
50 70
00000000000000000000000000000000000000000000000000
00000000000000000000000000000000000000000000000000
00000000000000000000000000000000000000000000000000
00000000000000000000000000000000000000000000000000
00000000000000000000000000000000000000000000000000
00000000000000000000000000000000000000000000000000
00000000000000000000000000000000000000000000000000
00000000000000000000000000000000000000000000000000
00000000000000000000000000000000000000000000000000
00000000000000000000000000000000000000000000000000
00000000000000000000000000000000000000000000000000
00000000000000000000000000000000000000000000000000
00000000000000000000000000000000000000000000000000
00000000000000000000000000000000000000000000000000
00000000000000000000000000000000000000000000000000
00000000000000000000000000000110000000000000000000
00000000000000000000000011111111111100000000000000
00000000000000000001111111111111111111100000000000
00000000000000000111111111111111111111100000000000
00000000000000001111111111111111111111111000000000
00000000000000111111111111111111111111111100000000
00000000000001111111111111111111111111111100000000
00000000000011111111111111111111111111111110000000
00000000000111111111111111111111111111111110000000
00000000001111111111111110000001111111111111000000
00000000001111111111111100000000111111111111000000
00000000011111111111111000000000111111111111000000
00000000011111111111110000000000111111111111000000
00000000111111111111100000000000111111111111100000
00000000111111111111100000000000111111111111100000
00000000111111111111100000000001111111111111100000
00000000111111111111100000000001111111111111000000
00000001111111111111000000000001111111111111100000
00000001111111111111000000000001111111111111100000
00000001111111111111000000000011111111111111000000
00000000111111111111100000000111111111111111000000
00000000111111111111100000001111111111111111000000
00000000111111111111110000111111111111111111000000
00000000111111111111111111111111111111111110000000
00000000011111111111111111111111111111111110000000
00000000011111111111111111111111111111111110000000
00000000001111111111111111111111111111111110000000
00000000000111111111111111111111111111111100000000
00000000000011111111111111111111111111111100000000
00000000000001111111111111111111111111111100000000
00000000000000001111111111111111111111111100000000
00000000000000000000100000001111111111111000000000
00000000000000000000000000001111111111111000000000
00000000000000000000000000011111111111110000000000
00000010000000000000000000111111111111110000000000
00000111000000000000000001111111111111100000000000
00000111110000000000000111111111111111000000000000
00001111111111000000111111111111111111000000000000
00001111111111111111111111111111111110000000000000
00001111111111111111111111111111111100000000000000
00001111111111111111111111111111111000000000000000
00001111111111111111111111111111110000000000000000
00001111111111111111111111111111100000000000000000
00001111111111111111111111111111000000000000000000
00000011111111111111111111111100000000000000000000
00000000001111111111111111110000000000000000000000
00000000000000110011111110000000000000000000000000
00000000000000000000000000000000000000000000000000
00000000000000000000000000000000000000000000000000
00000000000000000000000000000000000000000000000000
00000000000000000000000000000000000000000000000000
00000000000000000000000000000000000000000000000000
00000000000000000000000000000000000000000000000000
00000000000000000000000000000000000000000000000000
00000000000000000000000000000000000000000000000000
