P1
50 70
00000000000000000000000000000000000000000000000000
00000000000000000000000000000000000000000000000000
00000000000000000000000000000000000000000000000000
00000000000000000000000000000000000000000000000000
00000000000000000000000000000000000000000000000000
00000000000000000000000000000000000000000000000000
00000000000000000000000000000000000000000000000000
00000000000000000000000000000000000000000000000000
00000000000000000000000000000000000000000000000000
00000000000000000000000000000000000000000000000000
00000000000000000000000000000000000000000000000000
00000000000000000000000000000000000000000000000000
00000000000000000000000000000000000000000000000000
00000000000000000000000000000000000000000000000000
00000000000000000000000000000000000000000000000000
00000000000000000000001111100000000000000000000000
00000000000000000000011111111000000000000000000000
00000000000000000000111111111100000000000000000000
00000000000000000001111111111110000000000000000000
00000000000000000111111111111110000000000000000000
00000000000000001111111111111111000000000000000000
00000000000000011111100000111111000000000000000000
00000000000000011111000000011111100000000000000000
00000000000000111110000000011111110000000000000000
00000000000000111110000000001111110000000000000000
00000000000001111100000000001111111000000000000000
00000000000001111100000000000111111000000000000000
00000000000001111100000000000111111000000000000000
00000000000001111100000000000111111000000000000000
00000000000011111100000000000111111000000000000000
00000000000011111100000000000111111100000000000000
00000000000011111100000000001111111100000000000000
00000000000001111100000000001111111100000000000000
00000000000001111100000000001111111110000000000000
00000000000001111110000000011111111110000000000000
00000000000001111110000000111110111110000000000000
00000000000000111111000011111100111110000000000000
00000000000000111111111111111100111100000000000000
00000000000000111111111111111000011110000000000000
00000000000000011111111111110000111110000000000000
00000000000000011111111111000000111110000000000000
00000000000000001111111111000000111110000000000000
00000000000000000111111100000000111100000000000000
00000000000000000000110000000001111100000000000000
00000000000000000000000000000001111000000000000000
00000000000000000000000000000001111000000000000000
00000000000000000000000000000011111000000000000000
00000000000000000000000000000111110000000000000000
00000000000000000000001100001111110000000000000000
00000000000000000000011111111111000000000000000000
00000000000000000000111111111111000000000000000000
00000000000000000001111111111110000000000000000000
00000000000000000001111111111100000000000000000000
00000000000000000001111111111000000000000000000000
00000000000000000000111111100000000000000000000000
00000000000000000000001100000000000000000000000000
00000000000000000000000000000000000000000000000000
00000000000000000000000000000000000000000000000000
00000000000000000000000000000000000000000000000000
00000000000000000000000000000000000000000000000000
00000000000000000000000000000000000000000000000000
00000000000000000000000000000000000000000000000000
00000000000000000000000000000000000000000000000000
00000000000000000000000000000000000000000000000000
00000000000000000000000000000000000000000000000000
00000000000000000000000000000000000000000000000000
00000000000000000000000000000000000000000000000000
00000000000000000000000000000000000000000000000000
00000000000000000000000000000000000000000000000000
00000000000000000000000000000000000000000000000000
