P1
50 70
00000000000000000000000000000000000000000000000000
00000000000000000000000000000000000000000000000000
00000000000000000000000000000000000000000000000000
00000000000000000000000000000000000000000000000000
00000000000000000000000000000000000000000000000000
00000000000000000000000000000000000000000000000000
00000000000000000000000000000000000000000000000000
00000000000000000000000000000000000000000000000000
00000000000000000000000000000000000000000000000000
00000000000000000000000000000000000000000000000000
00000000000000000000000000000000000000000000000000
00000000000000000000000000000000000000000000000000
00000000000000000000000000000000000000000000000000
00000000000000000000000000000000000000000000000000
00000000000000000000000000000000000000000000000000
00000000000000000000000000000000000000000000000000
00000000000000000000000000000000000000000000000000
00000000000000000000000000000000000000000000000000
00000000000000000000000000000000000000000000000000
00000000000000000000000000000000000000000000000000
00000000000000000001111111110000000000000000000000
00000000000000000111111111111110000000000000000000
00000000000000001111111111111111000000000000000000
00000000000000011111111111111111100000000000000000
00000000000000111111111111111111110000000000000000
00000000000000111111111111111111111000000000000000
00000000000001111111111100111111111000000000000000
00000000000001111111110000001111111100000000000000
00000000000001111111100000000111111100000000000000
00000000000001111111100000000111111100000000000000
00000000000001111111100000000111111100000000000000
00000000000001111111100000000111111100000000000000
00000000000001111111100000000111111100000000000000
00000000000001111111100000000111111110000000000000
00000000000000111111100000000111111110000000000000
00000000000000111111110000001111111110000000000000
00000000000000111111110000001111111110000000000000
00000000000000111111111110111111111110000000000000
00000000000000011111111111111111111100000000000000
00000000000000011111111111111111111100000000000000
00000000000000001111111111111111111100000000000000
00000000000000000111111111111111111100000000000000
00000000000000000011111111111111111100000000000000
00000000000000000001111111100111111100000000000000
00000000000000000000111111000111111100000000000000
00000000000000000000000000000111111000000000000000
00000000000000000000000000000111111000000000000000
00000000000000000000000000000111111000000000000000
00000000000000000000000000001111111000000000000000
00000000000000000000000000001111110000000000000000
00000000000000000001110000011111110000000000000000
00000000000000000111111000011111100000000000000000
00000000000000001111111111111111100000000000000000
00000000000000001111111111111111100000000000000000
00000000000000001111111111111111000000000000000000
00000000000000000111111111111111000000000000000000
00000000000000000111111111111110000000000000000000
00000000000000000011111111111100000000000000000000
00000000000000000000111111111000000000000000000000
00000000000000000000011111100000000000000000000000
00000000000000000000000000000000000000000000000000
00000000000000000000000000000000000000000000000000
00000000000000000000000000000000000000000000000000
00000000000000000000000000000000000000000000000000
00000000000000000000000000000000000000000000000000
00000000000000000000000000000000000000000000000000
00000000000000000000000000000000000000000000000000
00000000000000000000000000000000000000000000000000
00000000000000000000000000000000000000000000000000
00000000000000000000000000000000000000000000000000
