P1
50 70
00000000000000000000000000000000000000000000000000
00000000000000000000000000000000000000000000000000
00000000000000000000000000000000000000000000000000
00000000000000000000000000000000000000000000000000
00000000000000000000000000000000000000000000000000
00000000000000000000000000000000000000000000000000
00000000000000000000000000000000000000000000000000
00000000000000000000000000000000000000000000000000
00000000000000000000000000000000000000000000000000
00000000000000000001111100000000000000000000000000
00000000000000000111111111100000000000000000000000
00000000000000001111111111110000000000000000000000
00000000000000011111111111111000000000000000000000
00000000000000111111110000111100000000000000000000
00000000000000111111110000111110000000000000000000
00000000000000111111110000011111000000000000000000
00000000000000111111110000011111100000000000000000
00000000000001111111110000011111110000000000000000
00000000000001111111110000011111110000000000000000
00000000000000111111110000011111111000000000000000
00000000000000111111110000001111111000000000000000
00000000000001111111110000001111111000000000000000
00000000000001111111110000001111111100000000000000
00000000000001111111110000001111111100000000000000
00000000000001111111110000001111111100000000000000
00000000000000111111110000001111111110000000000000
00000000000000111111110000001111111110000000000000
00000000000000111111110000001111111110000000000000
00000000000000111111110000001111111110000000000000
00000000000000011111110000001111111110000000000000
00000000000000011111110000001111111110000000000000
00000000000000001111111000001111111110000000000000
00000000000000000111111000011111111110000000000000
00000000000000000011111100011111111110000000000000
00000000000000000011111100011111111110000000000000
00000000000000000001111111111111111110000000000000
00000000000000000000011111111111111110000000000000
00000000000000000000001111111111111110000000000000
00000000000000000000000011111111111110000000000000
00000000000000000000000000111111111110000000000000
00000000000000000000000000111111111100000000000000
00000000000000000000000001111111111100000000000000
00000000000000000000000001111111111100000000000000
00000000000000000000000001111111111100000000000000
00000000000000000000000011111111111000000000000000
00000000000000000000000111111111111000000000000000
00000000000000000000001111111111111000000000000000
00000000000001111011111111111111110000000000000000
00000000000001111111111111111111100000000000000000
00000000000001111111111111111111000000000000000000
00000000000000011111111111111111000000000000000000
00000000000000000011111111111000000000000000000000
00000000000000000000110111000000000000000000000000
00000000000000000000000000000000000000000000000000
00000000000000000000000000000000000000000000000000
00000000000000000000000000000000000000000000000000
00000000000000000000000000000000000000000000000000
00000000000000000000000000000000000000000000000000
00000000000000000000000000000000000000000000000000
00000000000000000000000000000000000000000000000000
00000000000000000000000000000000000000000000000000
00000000000000000000000000000000000000000000000000
00000000000000000000000000000000000000000000000000
00000000000000000000000000000000000000000000000000
00000000000000000000000000000000000000000000000000
00000000000000000000000000000000000000000000000000
00000000000000000000000000000000000000000000000000
00000000000000000000000000000000000000000000000000
00000000000000000000000000000000000000000000000000
00000000000000000000000000000000000000000000000000
