P1
50 70
00000000000000000000000000000000000000000000000000
00000000000000000000000000000000000000000000000000
00000000000000000000000000000000000000000000000000
00000000000000000000000000000000000000000000000000
00000000000000000000000000000000000000000000000000
00000000000000000000000000000000000000000000000000
00000000000000000000000000000000000000000000000000
00000000000000000000000000000000000000000000000000
00000000000000000000000000000000000000000000000000
00000000000000000000000000000000000000000000000000
00000000000000000000000000000000000000000000000000
00000000000000000000000000000000000000000000000000
00000000000000000000000000000000000000000000000000
00000000000000000000000000000000000000000000000000
00000000000000000000000000000000000000000000000000
00000000000000000000000000000000000000000000000000
00000000000000000000000000000000000000000000000000
00000000000000000000000000000000000000000000000000
00000000000000000000000000000000000000000000000000
00000000000000000000000000000000000000000000000000
00000000000000000000000000000000000000000000000000
00000000000000000000000000000000000000000000000000
00000000000000000000001100000000000000000000000000
00000000000000000001111111111110000000000000000000
00000000000000000111111111111111100000000000000000
00000000000000001111111111111111111100000000000000
00000000000000001111111111111111111110000000000000
00000000000000011111111111111111111111000000000000
00000000000000111111111111111111111111000000000000
00000000000000111111111111001111111111000000000000
00000000000001111111111100000111111111100000000000
00000000000001111111111000000011111111100000000000
00000000000001111111110000000001111111100000000000
00000000000001111111110000000001111111100000000000
00000000000011111111110000000011111111100000000000
00000000000011111111100000000011111111000000000000
00000000000001111111100000000011111111000000000000
00000000000001111111100000000011111111000000000000
00000000000001111111100000000111111111000000000000
00000000000001111111110000001111111110000000000000
00000000000001111111111001011111111110000000000000
00000000000000111111111111111111111110000000000000
00000000000000111111111111111111111110000000000000
00000000000000111111111111111111111110000000000000
00000000000000011111111111111111111100000000000000
00000000000000001111111111111111111100000000000000
00000000000000000011111110011111111000000000000000
00000000000000000000010000011111110000000000000000
00000000000000000000000000111111110000000000000000
00000000000000000000000000111111110000000000000000
00000000001111111000000001111111100000000000000000
00000000001111111100000011111111000000000000000000
00000000001111111100000111111111000000000000000000
00000000001111111100001111111110000000000000000000
00000000001111111111011111111100000000000000000000
00000000000111111111111111111000000000000000000000
00000000000111111111111111111000000000000000000000
00000000000111111111111111110000000000000000000000
00000000000011111111111111000000000000000000000000
00000000000011111111111110000000000000000000000000
00000000000000111111111000000000000000000000000000
00000000000000000000000000000000000000000000000000
00000000000000000000000000000000000000000000000000
00000000000000000000000000000000000000000000000000
00000000000000000000000000000000000000000000000000
00000000000000000000000000000000000000000000000000
00000000000000000000000000000000000000000000000000
00000000000000000000000000000000000000000000000000
00000000000000000000000000000000000000000000000000
00000000000000000000000000000000000000000000000000
