P1
50 70
00000000000000000000000000000000000000000000000000
00000000000000000000000000000000000000000000000000
00000000000000000000000000000000000000000000000000
00000000000000000000000000000000000000000000000000
00000000000000000000000000000000000000000000000000
00000000000000000000000000000000000000000000000000
00000000000000000000000000000000000000000000000000
00000000000000000000000000000000000000000000000000
00000000000000000000000000000000000000000000000000
00000000000000000000000000000000000000000000000000
00000000000000000000000000000000000000000000000000
00000000000000000000000000000000000000000000000000
00000000000000000000000000000000000000000000000000
00000000000000000000000000011111000000000000000000
00000000000000000000000001111111100000000000000000
00000000000000000000000011111111111000000000000000
00000000000000000000001111111111111000000000000000
00000000000000000000111111111111111100000000000000
00000000000000000001111111111111111100000000000000
00000000000000000011111111111111111100000000000000
00000000000000000011111111111111111110000000000000
00000000000000000111111111111111111110000000000000
00000000000000000111111110000111111110000000000000
00000000000000001111111100000011111110000000000000
00000000000000001111111000000011111110000000000000
00000000000000011111110000000001111110000000000000
00000000000000011111100000000001111110000000000000
00000000000000011111100000000001111111000000000000
00000000000000011111100000000011111111000000000000
00000000000000011111100000000011111110000000000000
00000000000000011111100000000111111110000000000000
00000000000000111111100000001111111111000000000000
00000000000000111111110000011111111110000000000000
00000000000000111111111000111111111110000000000000
00000000000000011111111111111111111110000000000000
00000000000000011111111111111111111110000000000000
00000000000000001111111111111111111110000000000000
00000000000000001111111111111111111110000000000000
00000000000000000111111111111111111110000000000000
00000000000000000011111111111111111100000000000000
00000000000000000001111111100111111100000000000000
00000000000000000000111100001111111000000000000000
00000000000000000000000000001111111000000000000000
00000000000000000000000000011111110000000000000000
00000000000000000000000000111111110000000000000000
00000000000000000000000000111111110000000000000000
00000000000000000000000001111111100000000000000000
00000000000000000000000111111111000000000000000000
00000000000000000011111111111111000000000000000000
00000000000001111111111111111110000000000000000000
00000000000011111111111111111100000000000000000000
00000000000011111111111111111000000000000000000000
00000000000011111111111111110000000000000000000000
00000000000011111111111111000000000000000000000000
00000000000001111111111110000000000000000000000000
00000000000000000000110000000000000000000000000000
00000000000000000000000000000000000000000000000000
00000000000000000000000000000000000000000000000000
00000000000000000000000000000000000000000000000000
00000000000000000000000000000000000000000000000000
00000000000000000000000000000000000000000000000000
00000000000000000000000000000000000000000000000000
00000000000000000000000000000000000000000000000000
00000000000000000000000000000000000000000000000000
00000000000000000000000000000000000000000000000000
00000000000000000000000000000000000000000000000000
00000000000000000000000000000000000000000000000000
00000000000000000000000000000000000000000000000000
00000000000000000000000000000000000000000000000000
00000000000000000000000000000000000000000000000000
